<svg width="40" height="40" viewBox="0 0 40 40" fill="none" xmlns="http://www.w3.org/2000/svg">
<g clip-path="url(#clip0_5461_470017)">
<circle cx="20" cy="20" r="20" fill="#33B530" fill-opacity="0.2"/>
<path d="M26.3398 24.13L24.1598 22.38C23.8498 22.14 23.4598 22 23.0598 22H20.7498V19H25.2198C26.1898 19 26.9698 18.22 26.9698 17.25V13.75C26.9698 12.78 26.1898 12 25.2198 12H16.9598C16.5698 12 16.1798 12.14 15.8698 12.38L13.6798 14.13C12.8098 14.83 12.8098 16.17 13.6798 16.87L15.8698 18.62C16.1798 18.86 16.5698 19 16.9598 19H19.2498V22H14.7998C13.8298 22 13.0498 22.78 13.0498 23.75V27.25C13.0498 28.22 13.8298 29 14.7998 29H19.2498V31.25H16.9998C16.5898 31.25 16.2498 31.59 16.2498 32C16.2498 32.41 16.5898 32.75 16.9998 32.75H22.9998C23.4098 32.75 23.7498 32.41 23.7498 32C23.7498 31.59 23.4098 31.25 22.9998 31.25H20.7498V29H23.0598C23.4598 29 23.8498 28.86 24.1598 28.62L26.3398 26.87C27.2198 26.17 27.2198 24.83 26.3398 24.13Z" fill="#33B530"/>
</g>
<defs>
<clipPath id="clip0_5461_470017">
<rect width="40" height="40" fill="white"/>
</clipPath>
</defs>
</svg>
