<svg width="40" height="40" viewBox="0 0 40 40" fill="none" xmlns="http://www.w3.org/2000/svg">
<g clip-path="url(#clip0_5483_466488)">
<circle cx="20" cy="20" r="20" fill="#50429B" fill-opacity="0.2"/>
<path d="M27.24 13.58H26.84L23.46 10.2C23.19 9.93 22.75 9.93 22.47 10.2C22.2 10.47 22.2 10.91 22.47 11.19L24.86 13.58H15.14L17.53 11.19C17.8 10.92 17.8 10.48 17.53 10.2C17.26 9.93 16.82 9.93 16.54 10.2L13.17 13.58H12.77C11.87 13.58 10 13.58 10 16.14C10 17.11 10.2 17.75 10.62 18.17C10.86 18.42 11.15 18.55 11.46 18.62C11.75 18.69 12.06 18.7 12.36 18.7H27.64C27.95 18.7 28.24 18.68 28.52 18.62C29.36 18.42 30 17.82 30 16.14C30 13.58 28.13 13.58 27.24 13.58Z" fill="#50429B"/>
<path d="M27.0506 20H12.8706C12.2506 20 11.7806 20.55 11.8806 21.16L12.7206 26.3C13.0006 28.02 13.7506 30 17.0806 30H22.6906C26.0606 30 26.6606 28.31 27.0206 26.42L28.0306 21.19C28.1506 20.57 27.6806 20 27.0506 20ZM20.0006 27.5C17.6606 27.5 15.7506 25.59 15.7506 23.25C15.7506 22.84 16.0906 22.5 16.5006 22.5C16.9106 22.5 17.2506 22.84 17.2506 23.25C17.2506 24.77 18.4806 26 20.0006 26C21.5206 26 22.7506 24.77 22.7506 23.25C22.7506 22.84 23.0906 22.5 23.5006 22.5C23.9106 22.5 24.2506 22.84 24.2506 23.25C24.2506 25.59 22.3406 27.5 20.0006 27.5Z" fill="#50429B"/>
</g>
<defs>
<clipPath id="clip0_5483_466488">
<rect width="40" height="40" fill="white"/>
</clipPath>
</defs>
</svg>
