<svg width="40" height="40" viewBox="0 0 40 40" fill="none" xmlns="http://www.w3.org/2000/svg">
<g clip-path="url(#clip0_5416_470690)">
<circle cx="20" cy="20" r="20" fill="#FF8C21" fill-opacity="0.2"/>
<path d="M27.9597 16.96C27.2897 16.22 26.2797 15.79 24.8797 15.64V14.88C24.8797 13.51 24.2997 12.19 23.2797 11.27C22.2497 10.33 20.9097 9.89002 19.5197 10.02C17.1297 10.25 15.1197 12.56 15.1197 15.06V15.64C13.7197 15.79 12.7097 16.22 12.0397 16.96C11.0697 18.04 11.0997 19.48 11.2097 20.48L11.9097 26.05C12.1197 28 12.9097 30 17.2097 30H22.7897C27.0897 30 27.8797 28 28.0897 26.06L28.7897 20.47C28.8997 19.48 28.9297 18.04 27.9597 16.96ZM19.6597 11.41C20.6597 11.32 21.6097 11.63 22.3497 12.3C23.0797 12.96 23.4897 13.9 23.4897 14.88V15.58H16.5097V15.06C16.5097 13.28 17.9797 11.57 19.6597 11.41ZM19.9997 26.58C17.9097 26.58 16.2097 24.88 16.2097 22.79C16.2097 20.7 17.9097 19 19.9997 19C22.0897 19 23.7897 20.7 23.7897 22.79C23.7897 24.88 22.0897 26.58 19.9997 26.58Z" fill="#FF8C21"/>
<path d="M18.9999 24.58C18.7499 24.58 18.4999 24.45 18.3599 24.22C18.1499 23.87 18.2599 23.4 18.6199 23.19L19.5099 22.66V21.58C19.5099 21.17 19.8499 20.83 20.2599 20.83C20.6699 20.83 20.9999 21.16 20.9999 21.58V23.08C20.9999 23.34 20.8599 23.59 20.6399 23.72L19.3899 24.47C19.2699 24.54 19.1299 24.58 18.9999 24.58Z" fill="#FF8C21"/>
</g>
<defs>
<clipPath id="clip0_5416_470690">
<rect width="40" height="40" fill="white"/>
</clipPath>
</defs>
</svg>
