<svg width="40" height="40" viewBox="0 0 40 40" fill="none" xmlns="http://www.w3.org/2000/svg">
<g clip-path="url(#clip0_5461_470031)">
<circle cx="20" cy="20" r="20" fill="#DB1B1B" fill-opacity="0.2"/>
<path d="M26.3398 22.13L24.1598 20.38C23.8498 20.14 23.4598 20 23.0598 20H20.7498V17H25.2198C26.1898 17 26.9698 16.22 26.9698 15.25V11.75C26.9698 10.78 26.1898 10 25.2198 10H16.9598C16.5698 10 16.1798 10.14 15.8698 10.38L13.6798 12.13C12.8098 12.83 12.8098 14.17 13.6798 14.87L15.8698 16.62C16.1798 16.86 16.5698 17 16.9598 17H19.2498V20H14.7998C13.8298 20 13.0498 20.78 13.0498 21.75V25.25C13.0498 26.22 13.8298 27 14.7998 27H19.2498V29.25H16.9998C16.5898 29.25 16.2498 29.59 16.2498 30C16.2498 30.41 16.5898 30.75 16.9998 30.75H22.9998C23.4098 30.75 23.7498 30.41 23.7498 30C23.7498 29.59 23.4098 29.25 22.9998 29.25H20.7498V27H23.0598C23.4598 27 23.8498 26.86 24.1598 26.62L26.3398 24.87C27.2198 24.17 27.2198 22.83 26.3398 22.13Z" fill="#DB1B1B"/>
<path d="M21.268 21.734C20.7727 21.2394 20.1161 20.9892 19.465 21.0004C18.8362 21.0059 18.2074 21.256 17.7288 21.734C17.3949 22.062 17.1779 22.4733 17.0721 22.9013C17.0109 23.1347 16.9887 23.3737 17.0054 23.6127V23.6405C17.0054 23.6794 17.0109 23.7128 17.0165 23.7573C17.0165 23.7573 17.0165 23.7573 17.0221 23.7628V23.7795C17.0721 24.3242 17.3059 24.8522 17.7288 25.2691C18.3743 25.9139 19.2814 26.1306 20.0994 25.925C20.3442 25.8638 20.5835 25.7638 20.8061 25.6304C20.9731 25.5359 21.1289 25.4136 21.268 25.2691C21.6854 24.8522 21.9247 24.3242 21.9747 23.7739C21.9803 23.7739 21.9803 23.7628 21.9803 23.7573C21.9914 23.7184 21.9914 23.6739 21.9914 23.635C21.9914 23.6294 21.997 23.6183 21.997 23.6072C22.0304 22.9346 21.7855 22.2454 21.268 21.734ZM20.4611 24.452C20.2997 24.6132 20.0382 24.6132 19.8712 24.452L19.504 24.0852L19.1256 24.4632C18.9586 24.6299 18.6971 24.6299 18.5357 24.4632C18.3687 24.302 18.3687 24.0407 18.5357 23.874L18.9141 23.496L18.5468 23.1292C18.3854 22.9624 18.3854 22.7012 18.5468 22.54C18.7138 22.3732 18.9753 22.3732 19.1423 22.54L19.504 22.9068L19.8545 22.5511C20.0215 22.3899 20.283 22.3899 20.45 22.5511C20.6114 22.7179 20.6114 22.9791 20.45 23.1458L20.0938 23.496L20.4611 23.8573C20.6281 24.0241 20.6281 24.2853 20.4611 24.452Z" fill="white"/>
</g>
<defs>
<clipPath id="clip0_5461_470031">
<rect width="40" height="40" fill="white"/>
</clipPath>
</defs>
</svg>
