<svg width="40" height="40" viewBox="0 0 40 40" fill="none" xmlns="http://www.w3.org/2000/svg">
<g clip-path="url(#clip0_5483_466517)">
<circle cx="20" cy="20" r="20" fill="#FF8C21" fill-opacity="0.2"/>
<path d="M20 10C17.38 10 15.25 12.13 15.25 14.75C15.25 17.32 17.26 19.4 19.88 19.49C19.96 19.48 20.04 19.48 20.1 19.49C20.12 19.49 20.13 19.49 20.15 19.49C20.16 19.49 20.16 19.49 20.17 19.49C22.73 19.4 24.74 17.32 24.75 14.75C24.75 12.13 22.62 10 20 10Z" fill="#FF8C21"/>
<path d="M25.08 22.16C22.29 20.3 17.74 20.3 14.93 22.16C13.66 23 12.96 24.15 12.96 25.38C12.96 26.61 13.66 27.75 14.92 28.59C16.32 29.53 18.16 30 20 30C21.84 30 23.68 29.53 25.08 28.59C26.34 27.74 27.04 26.6 27.04 25.36C27.03 24.14 26.34 22.99 25.08 22.16ZM22.33 24.56L19.81 27.08C19.69 27.2 19.53 27.26 19.37 27.26C19.21 27.26 19.05 27.19 18.93 27.08L17.67 25.82C17.43 25.58 17.43 25.18 17.67 24.94C17.91 24.7 18.31 24.7 18.55 24.94L19.37 25.76L21.45 23.68C21.69 23.44 22.09 23.44 22.33 23.68C22.58 23.92 22.58 24.32 22.33 24.56Z" fill="#FF8C21"/>
</g>
<defs>
<clipPath id="clip0_5483_466517">
<rect width="40" height="40" fill="white"/>
</clipPath>
</defs>
</svg>
