<svg width="40" height="40" viewBox="0 0 40 40" fill="none" xmlns="http://www.w3.org/2000/svg">
<g clip-path="url(#clip0_5480_466304)">
<circle cx="20" cy="20" r="20" fill="#FF8C21" fill-opacity="0.2"/>
<path d="M15.8002 30.15C13.1502 30.15 10.9902 28 10.9902 25.34V22.5C10.9902 21.83 11.6502 21.38 12.2802 21.6C12.5402 21.69 12.8002 21.75 13.0702 21.79C13.1902 21.81 13.3102 21.83 13.4302 21.83C13.5802 21.85 13.7402 21.86 13.8902 21.86C15.0002 21.86 16.1002 21.45 16.9702 20.74C17.8002 21.45 18.8702 21.86 20.0102 21.86C21.1502 21.86 22.2102 21.47 23.0402 20.75C23.9002 21.45 24.9802 21.86 26.0802 21.86C26.2502 21.86 26.4302 21.85 26.5902 21.83C26.7102 21.82 26.8102 21.81 26.9202 21.79C27.2202 21.75 27.4902 21.67 27.7602 21.58C28.3802 21.37 29.0302 21.83 29.0302 22.48V25.34C29.0302 27.99 26.8802 30.15 24.2202 30.15H15.8002Z" fill="#FF8C21"/>
<path d="M21.5 24V26.5H19" stroke="white" stroke-linecap="round" stroke-linejoin="round"/>
<path d="M29.9799 16.59L29.6999 13.93C29.2999 11.03 27.9799 9.84998 25.1699 9.84998H14.8199C11.9999 9.84998 10.6899 11.03 10.2799 13.96L10.0199 16.6C9.91985 17.63 10.1999 18.63 10.8099 19.41C11.5399 20.36 12.6599 20.9 13.9099 20.9C15.1199 20.9 16.2799 20.29 17.0199 19.32C17.6699 20.29 18.7799 20.9 20.0199 20.9C21.2599 20.9 22.3499 20.32 23.0099 19.36C23.7499 20.31 24.8999 20.9 26.0899 20.9C27.3699 20.9 28.5199 20.33 29.2399 19.33C29.8199 18.56 30.0799 17.59 29.9799 16.59ZM21.4999 15.73H18.4999C18.0899 15.73 17.7499 15.4 17.7499 14.98C17.7499 14.57 18.0899 14.23 18.4999 14.23H21.4999C21.9099 14.23 22.2499 14.57 22.2499 14.98C22.2499 15.4 21.9099 15.73 21.4999 15.73Z" fill="#FF8C21"/>
</g>
<defs>
<clipPath id="clip0_5480_466304">
<rect width="40" height="40" fill="white"/>
</clipPath>
</defs>
</svg>
