<svg width="40" height="40" viewBox="0 0 40 40" fill="none" xmlns="http://www.w3.org/2000/svg">
<g clip-path="url(#clip0_5483_466524)">
<circle cx="20" cy="20" r="20" fill="#DB1B1B" fill-opacity="0.2"/>
<path d="M20 10C17.38 10 15.25 12.13 15.25 14.75C15.25 17.32 17.26 19.4 19.88 19.49C19.96 19.48 20.04 19.48 20.1 19.49C20.12 19.49 20.13 19.49 20.15 19.49C20.16 19.49 20.16 19.49 20.17 19.49C22.73 19.4 24.74 17.32 24.75 14.75C24.75 12.13 22.62 10 20 10Z" fill="#DB1B1B"/>
<path d="M25.08 22.15C22.29 20.29 17.74 20.29 14.93 22.15C13.66 23 12.96 24.15 12.96 25.38C12.96 26.61 13.66 27.75 14.92 28.59C16.32 29.53 18.16 30 20 30C21.84 30 23.68 29.53 25.08 28.59C26.34 27.74 27.04 26.6 27.04 25.36C27.03 24.13 26.34 22.99 25.08 22.15ZM21.94 26.26C22.23 26.55 22.23 27.03 21.94 27.32C21.79 27.47 21.6 27.54 21.41 27.54C21.22 27.54 21.03 27.47 20.88 27.32L20 26.44L19.12 27.32C18.97 27.47 18.78 27.54 18.59 27.54C18.4 27.54 18.21 27.47 18.06 27.32C17.77 27.03 17.77 26.55 18.06 26.26L18.94 25.38L18.06 24.5C17.77 24.21 17.77 23.73 18.06 23.44C18.35 23.15 18.83 23.15 19.12 23.44L20 24.32L20.88 23.44C21.17 23.15 21.65 23.15 21.94 23.44C22.23 23.73 22.23 24.21 21.94 24.5L21.06 25.38L21.94 26.26Z" fill="#DB1B1B"/>
</g>
<defs>
<clipPath id="clip0_5483_466524">
<rect width="40" height="40" fill="white"/>
</clipPath>
</defs>
</svg>
