<svg width="40" height="40" viewBox="0 0 40 40" fill="none" xmlns="http://www.w3.org/2000/svg">
<g clip-path="url(#clip0_5416_470697)">
<circle cx="20" cy="20" r="20" fill="#50429B" fill-opacity="0.2"/>
<path d="M27.9597 16.96C27.2897 16.22 26.2797 15.79 24.8797 15.64V14.88C24.8797 13.51 24.2997 12.19 23.2797 11.27C22.2497 10.33 20.9097 9.89002 19.5197 10.02C17.1297 10.25 15.1197 12.56 15.1197 15.06V15.64C13.7197 15.79 12.7097 16.22 12.0397 16.96C11.0697 18.04 11.0997 19.48 11.2097 20.48L11.9097 26.05C12.1197 28 12.9097 30 17.2097 30H22.7897C27.0897 30 27.8797 28 28.0897 26.06L28.7897 20.47C28.8997 19.48 28.9297 18.04 27.9597 16.96ZM19.6597 11.41C20.6597 11.32 21.6097 11.63 22.3497 12.3C23.0797 12.96 23.4897 13.9 23.4897 14.88V15.58H16.5097V15.06C16.5097 13.28 17.9797 11.57 19.6597 11.41ZM19.9997 26.58C17.9097 26.58 16.2097 24.88 16.2097 22.79C16.2097 20.7 17.9097 19 19.9997 19C22.0897 19 23.7897 20.7 23.7897 22.79C23.7897 24.88 22.0897 26.58 19.9997 26.58Z" fill="#50429B"/>
<path d="M19.4299 24.64C19.2399 24.64 19.0499 24.57 18.8999 24.42L17.9099 23.43C17.6199 23.14 17.6199 22.66 17.9099 22.37C18.1999 22.08 18.6799 22.08 18.9699 22.37L19.4499 22.85L21.0499 21.37C21.3499 21.09 21.8299 21.11 22.1099 21.41C22.3899 21.71 22.3699 22.19 22.0699 22.47L19.9399 24.44C19.7899 24.57 19.6099 24.64 19.4299 24.64Z" fill="#50429B"/>
</g>
<defs>
<clipPath id="clip0_5416_470697">
<rect width="40" height="40" fill="white"/>
</clipPath>
</defs>
</svg>
