<svg width="40" height="40" viewBox="0 0 40 40" fill="none" xmlns="http://www.w3.org/2000/svg">
<g clip-path="url(#clip0_5483_466455)">
<circle cx="20" cy="20" r="20" fill="#F9CC66" fill-opacity="0.2"/>
<path d="M27.24 13.58H26.84L23.46 10.2C23.19 9.93 22.75 9.93 22.47 10.2C22.2 10.47 22.2 10.91 22.47 11.19L24.86 13.58H15.14L17.53 11.19C17.8 10.92 17.8 10.48 17.53 10.2C17.26 9.93 16.82 9.93 16.54 10.2L13.17 13.58H12.77C11.87 13.58 10 13.58 10 16.14C10 17.11 10.2 17.75 10.62 18.17C10.86 18.42 11.15 18.55 11.46 18.62C11.75 18.69 12.06 18.7 12.36 18.7H27.64C27.95 18.7 28.24 18.68 28.52 18.62C29.36 18.42 30 17.82 30 16.14C30 13.58 28.13 13.58 27.24 13.58Z" fill="#F9CC66"/>
<path d="M27.0506 20H12.8706C12.2506 20 11.7806 20.55 11.8806 21.16L12.7206 26.3C13.0006 28.02 13.7506 30 17.0806 30H22.6906C26.0606 30 26.6606 28.31 27.0206 26.42L28.0306 21.19C28.1506 20.57 27.6806 20 27.0506 20ZM18.6106 26.45C18.6106 26.84 18.3006 27.15 17.9206 27.15C17.5306 27.15 17.2206 26.84 17.2206 26.45V23.15C17.2206 22.77 17.5306 22.45 17.9206 22.45C18.3006 22.45 18.6106 22.77 18.6106 23.15V26.45ZM22.8906 26.45C22.8906 26.84 22.5806 27.15 22.1906 27.15C21.8106 27.15 21.4906 26.84 21.4906 26.45V23.15C21.4906 22.77 21.8106 22.45 22.1906 22.45C22.5806 22.45 22.8906 22.77 22.8906 23.15V26.45Z" fill="#F9CC66"/>
<path d="M25 21.5H14.5V22L17 28L24.5 28.5L25 21.5Z" fill="#F9CC66"/>
<path d="M20 22V26H17" stroke="white" stroke-width="1.5" stroke-linecap="round" stroke-linejoin="round"/>
</g>
<defs>
<clipPath id="clip0_5483_466455">
<rect width="40" height="40" fill="white"/>
</clipPath>
</defs>
</svg>
