<svg width="40" height="40" viewBox="0 0 40 40" fill="none" xmlns="http://www.w3.org/2000/svg">
<g clip-path="url(#clip0_5483_466682)">
<circle cx="20" cy="20" r="20" fill="#FF8C21" fill-opacity="0.2"/>
<path d="M29.2502 26.47L27.6002 26.86C27.2302 26.95 26.9402 27.23 26.8602 27.6L26.5102 29.07C26.3202 29.87 25.3002 30.12 24.7702 29.49L21.7802 26.05C21.5402 25.77 21.6702 25.33 22.0302 25.24C23.8002 24.81 25.3902 23.82 26.5602 22.41C26.7502 22.18 27.0902 22.15 27.3002 22.36L29.5202 24.58C30.2802 25.34 30.0102 26.29 29.2502 26.47Z" fill="#FF8C21"/>
<path d="M10.6992 26.47L12.3492 26.86C12.7192 26.95 13.0092 27.23 13.0892 27.6L13.4392 29.07C13.6292 29.87 14.6492 30.12 15.1792 29.49L18.1692 26.05C18.4092 25.77 18.2792 25.33 17.9192 25.24C16.1492 24.81 14.5592 23.82 13.3892 22.41C13.1992 22.18 12.8592 22.15 12.6492 22.36L10.4292 24.58C9.66919 25.34 9.93919 26.29 10.6992 26.47Z" fill="#FF8C21"/>
<path fill-rule="evenodd" clip-rule="evenodd" d="M13 17C13 13.13 16.13 10 20 10C23.87 10 27 13.13 27 17C27 18.45 26.57 19.78 25.83 20.89C24.75 22.49 23.04 23.62 21.05 23.91C20.71 23.97 20.36 24 20 24C19.64 24 19.29 23.97 18.95 23.91C16.96 23.62 15.25 22.49 14.17 20.89C13.43 19.78 13 18.45 13 17Z" fill="#FF8C21"/>
<path d="M17 17L19.5 19L22 14" stroke="white" stroke-linecap="round" stroke-linejoin="round"/>
</g>
<defs>
<clipPath id="clip0_5483_466682">
<rect width="40" height="40" fill="white"/>
</clipPath>
</defs>
</svg>
