<svg width="40" height="40" viewBox="0 0 40 40" fill="none" xmlns="http://www.w3.org/2000/svg">
<g clip-path="url(#clip0_5483_466404)">
<circle cx="20" cy="20" r="20" fill="#FF8C21" fill-opacity="0.2"/>
<path d="M27.24 13.58H26.84L23.46 10.2C23.19 9.93 22.75 9.93 22.47 10.2C22.2 10.47 22.2 10.91 22.47 11.19L24.86 13.58H15.14L17.53 11.19C17.8 10.92 17.8 10.48 17.53 10.2C17.26 9.93 16.82 9.93 16.54 10.2L13.17 13.58H12.77C11.87 13.58 10 13.58 10 16.14C10 17.11 10.2 17.75 10.62 18.17C10.86 18.42 11.15 18.55 11.46 18.62C11.75 18.69 12.06 18.7 12.36 18.7H27.64C27.95 18.7 28.24 18.68 28.52 18.62C29.36 18.42 30 17.82 30 16.14C30 13.58 28.13 13.58 27.24 13.58Z" fill="#FF8C21"/>
<path d="M27.0897 20H12.9097C12.2897 20 11.8197 20.55 11.9197 21.16L12.7597 26.3C13.0397 28.02 13.7897 30 17.1197 30H22.7297C26.0997 30 26.6997 28.31 27.0597 26.42L28.0697 21.19C28.1897 20.57 27.7197 20 27.0897 20ZM22.8797 24.05L19.6297 27.05C19.4897 27.18 19.3097 27.25 19.1197 27.25C18.9297 27.25 18.7397 27.18 18.5897 27.03L17.0897 25.53C16.7997 25.24 16.7997 24.76 17.0897 24.47C17.3897 24.18 17.8597 24.18 18.1597 24.47L19.1497 25.46L21.8697 22.95C22.1697 22.67 22.6497 22.69 22.9297 22.99C23.2097 23.3 23.1897 23.77 22.8797 24.05Z" fill="#FF8C21"/>
</g>
<defs>
<clipPath id="clip0_5483_466404">
<rect width="40" height="40" fill="white"/>
</clipPath>
</defs>
</svg>
