<svg width="40" height="40" viewBox="0 0 40 40" fill="none" xmlns="http://www.w3.org/2000/svg">
<g clip-path="url(#clip0_5461_470024)">
<circle cx="20" cy="20" r="20" fill="#FF8C21" fill-opacity="0.2"/>
<path d="M26.3398 23.13L24.1598 21.38C23.8498 21.14 23.4598 21 23.0598 21H20.7498V18H25.2198C26.1898 18 26.9698 17.22 26.9698 16.25V12.75C26.9698 11.78 26.1898 11 25.2198 11H16.9598C16.5698 11 16.1798 11.14 15.8698 11.38L13.6798 13.13C12.8098 13.83 12.8098 15.17 13.6798 15.87L15.8698 17.62C16.1798 17.86 16.5698 18 16.9598 18H19.2498V21H14.7998C13.8298 21 13.0498 21.78 13.0498 22.75V26.25C13.0498 27.22 13.8298 28 14.7998 28H19.2498V30.25H16.9998C16.5898 30.25 16.2498 30.59 16.2498 31C16.2498 31.41 16.5898 31.75 16.9998 31.75H22.9998C23.4098 31.75 23.7498 31.41 23.7498 31C23.7498 30.59 23.4098 30.25 22.9998 30.25H20.7498V28H23.0598C23.4598 28 23.8498 27.86 24.1598 27.62L26.3398 25.87C27.2198 25.17 27.2198 23.83 26.3398 23.13Z" fill="#FF8C21"/>
<path d="M21.4333 22.9167C20.9778 22.3556 20.2833 22 19.5 22C18.9111 22 18.3667 22.2056 17.9389 22.55C17.3611 23.0056 17 23.7111 17 24.5C17 25.2833 17.3556 25.9778 17.9167 26.4333C18.3444 26.7889 18.9 27 19.5 27C20.1333 27 20.7056 26.7611 21.15 26.3778C21.6667 25.9167 22 25.25 22 24.5C22 23.9 21.7889 23.3444 21.4333 22.9167ZM20.0722 24.6556C20.0722 24.8 19.9944 24.9389 19.8722 25.0111L19.0889 25.4778C19.0222 25.5167 18.95 25.5389 18.8722 25.5389C18.7333 25.5389 18.5944 25.4667 18.5167 25.3389C18.4 25.1389 18.4611 24.8833 18.6611 24.7667L19.2389 24.4222V23.7222C19.2389 23.4944 19.4278 23.3056 19.6556 23.3056C19.8833 23.3056 20.0722 23.4944 20.0722 23.7222V24.6556Z" fill="white"/>
</g>
<defs>
<clipPath id="clip0_5461_470024">
<rect width="40" height="40" fill="white"/>
</clipPath>
</defs>
</svg>
