<svg width="40" height="40" viewBox="0 0 40 40" fill="none" xmlns="http://www.w3.org/2000/svg">
<g clip-path="url(#clip0_5483_466689)">
<circle cx="20" cy="20" r="20" fill="#DB1B1B" fill-opacity="0.2"/>
<path d="M29.2502 27.47L27.6002 27.86C27.2302 27.95 26.9402 28.23 26.8602 28.6L26.5102 30.07C26.3202 30.87 25.3002 31.12 24.7702 30.49L21.7802 27.05C21.5402 26.77 21.6702 26.33 22.0302 26.24C23.8002 25.81 25.3902 24.82 26.5602 23.41C26.7502 23.18 27.0902 23.15 27.3002 23.36L29.5202 25.58C30.2802 26.34 30.0102 27.29 29.2502 27.47Z" fill="#DB1B1B"/>
<path d="M10.6992 27.47L12.3492 27.86C12.7192 27.95 13.0092 28.23 13.0892 28.6L13.4392 30.07C13.6292 30.87 14.6492 31.12 15.1792 30.49L18.1692 27.05C18.4092 26.77 18.2792 26.33 17.9192 26.24C16.1492 25.81 14.5592 24.82 13.3892 23.41C13.1992 23.18 12.8592 23.15 12.6492 23.36L10.4292 25.58C9.66919 26.34 9.93919 27.29 10.6992 27.47Z" fill="#DB1B1B"/>
<path fill-rule="evenodd" clip-rule="evenodd" d="M13 18C13 14.13 16.13 11 20 11C23.87 11 27 14.13 27 18C27 19.45 26.57 20.78 25.83 21.89C24.75 23.49 23.04 24.62 21.05 24.91C20.71 24.97 20.36 25 20 25C19.64 25 19.29 24.97 18.95 24.91C16.96 24.62 15.25 23.49 14.17 21.89C13.43 20.78 13 19.45 13 18Z" fill="#DB1B1B"/>
<path d="M18.4824 19.6642L21.6644 16.4822" stroke="white" stroke-linecap="round" stroke-linejoin="round"/>
<path d="M21.8418 19.841L18.6598 16.659" stroke="white" stroke-linecap="round" stroke-linejoin="round"/>
</g>
<defs>
<clipPath id="clip0_5483_466689">
<rect width="40" height="40" fill="white"/>
</clipPath>
</defs>
</svg>
