<svg width="40" height="40" viewBox="0 0 40 40" fill="none" xmlns="http://www.w3.org/2000/svg">
<g clip-path="url(#clip0_5477_466155)">
<circle cx="20" cy="20" r="20" fill="#33B530" fill-opacity="0.2"/>
<path d="M25.6005 13.31L19.9505 10.27C19.3505 9.95003 18.6405 9.95003 18.0405 10.27L12.4005 13.31C11.9905 13.54 11.7305 13.98 11.7305 14.46C11.7305 14.95 11.9805 15.39 12.4005 15.61L18.0505 18.65C18.3505 18.81 18.6805 18.89 19.0005 18.89C19.3205 18.89 19.6605 18.81 19.9505 18.65L25.6005 15.61C26.0105 15.39 26.2705 14.95 26.2705 14.46C26.2705 13.98 26.0105 13.54 25.6005 13.31Z" fill="#33B530"/>
<path d="M17.12 19.7101L11.87 17.0901C11.46 16.8801 11 16.9101 10.61 17.1401C10.23 17.3801 10 17.7901 10 18.2401V23.2001C10 24.0601 10.48 24.8301 11.25 25.2201L16.5 27.8401C16.68 27.9301 16.88 27.9801 17.08 27.9801C17.31 27.9801 17.55 27.9101 17.76 27.7901C18.14 27.5501 18.37 27.1401 18.37 26.6901V21.7301C18.36 20.8701 17.88 20.1001 17.12 19.7101Z" fill="#33B530"/>
<path d="M27.9996 18.2401V20.7001C27.5196 20.5601 27.0096 20.5001 26.4996 20.5001C25.1396 20.5001 23.8096 20.9701 22.7596 21.8101C21.3196 22.9401 20.4996 24.6501 20.4996 26.5001C20.4996 26.9901 20.5596 27.4801 20.6896 27.9501C20.5396 27.9301 20.3896 27.8701 20.2496 27.7801C19.8696 27.5501 19.6396 27.1401 19.6396 26.6901V21.7301C19.6396 20.8701 20.1196 20.1001 20.8796 19.7101L26.1296 17.0901C26.5396 16.8801 26.9996 16.9101 27.3896 17.1401C27.7696 17.3801 27.9996 17.7901 27.9996 18.2401Z" fill="#33B530"/>
<path d="M30 23.7C30 23.69 29.99 23.68 29.98 23.67C29.94 23.61 29.89 23.55 29.84 23.5C29.83 23.49 29.82 23.47 29.81 23.46C29 22.56 27.81 22 26.5 22C25.24 22 24.09 22.52 23.27 23.36C22.48 24.17 22 25.28 22 26.5C22 27.34 22.24 28.14 22.65 28.82C22.87 29.19 23.15 29.53 23.47 29.81C23.49 29.82 23.5 29.83 23.51 29.84C23.56 29.89 23.61 29.93 23.67 29.98C23.67 29.98 23.67 29.98 23.68 29.98C23.69 29.99 23.7 30 23.71 30C24.46 30.63 25.43 31 26.5 31C28.14 31 29.57 30.12 30.35 28.82C30.58 28.43 30.76 28 30.87 27.55C30.96 27.21 31 26.86 31 26.5C31 25.44 30.63 24.46 30 23.7ZM28.18 27.23H27.25V28.2C27.25 28.61 26.91 28.95 26.5 28.95C26.09 28.95 25.75 28.61 25.75 28.2V27.23H24.82C24.41 27.23 24.07 26.89 24.07 26.48C24.07 26.07 24.41 25.73 24.82 25.73H25.75V24.84C25.75 24.43 26.09 24.09 26.5 24.09C26.91 24.09 27.25 24.43 27.25 24.84V25.73H28.18C28.59 25.73 28.93 26.07 28.93 26.48C28.93 26.89 28.6 27.23 28.18 27.23Z" fill="#33B530"/>
</g>
<defs>
<clipPath id="clip0_5477_466155">
<rect width="40" height="40" fill="white"/>
</clipPath>
</defs>
</svg>
