<svg width="40" height="40" viewBox="0 0 40 40" fill="none" xmlns="http://www.w3.org/2000/svg">
<g clip-path="url(#clip0_5483_466579)">
<circle cx="20" cy="20" r="20" fill="#FF8C21" fill-opacity="0.2"/>
<path d="M17.0391 10C14.4191 10 12.2891 12.13 12.2891 14.75C12.2891 17.32 14.2991 19.4 16.9191 19.49C16.9991 19.48 17.0791 19.48 17.1391 19.49C17.1591 19.49 17.1691 19.49 17.1891 19.49C17.1991 19.49 17.1991 19.49 17.2091 19.49C19.7691 19.4 21.7791 17.32 21.7891 14.75C21.7891 12.13 19.6591 10 17.0391 10Z" fill="#FF8C21"/>
<path d="M22.12 22.16C19.33 20.3 14.78 20.3 11.97 22.16C10.7 23 10 24.15 10 25.38C10 26.61 10.7 27.75 11.96 28.59C13.36 29.53 15.2 30 17.04 30C18.88 30 20.72 29.53 22.12 28.59C23.38 27.74 24.08 26.6 24.08 25.36C24.07 24.14 23.38 22.99 22.12 22.16ZM19.37 24.56L16.85 27.08C16.73 27.2 16.57 27.26 16.41 27.26C16.25 27.26 16.09 27.19 15.97 27.08L14.71 25.82C14.47 25.58 14.47 25.18 14.71 24.94C14.95 24.7 15.35 24.7 15.59 24.94L16.41 25.76L18.49 23.68C18.73 23.44 19.13 23.44 19.37 23.68C19.62 23.92 19.62 24.32 19.37 24.56Z" fill="#FF8C21"/>
<path d="M27.0382 15.2835C27.1982 17.2235 25.8182 18.9235 23.9082 19.1535C23.8982 19.1535 23.8982 19.1535 23.8882 19.1535H23.8582C23.7982 19.1535 23.7382 19.1535 23.6882 19.1735C22.7182 19.2235 21.8282 18.9135 21.1582 18.3435C22.1882 17.4235 22.7782 16.0435 22.6582 14.5435C22.5882 13.7335 22.3082 12.9935 21.8882 12.3635C22.2682 12.1735 22.7082 12.0535 23.1582 12.0135C25.1182 11.8435 26.8682 13.3035 27.0382 15.2835Z" fill="#FF8C21"/>
<path d="M29.0391 24.5335C28.9591 25.5035 28.3391 26.3435 27.2991 26.9135C26.2991 27.4635 25.0391 27.7235 23.7891 27.6935C24.5091 27.0435 24.9291 26.2335 25.0091 25.3735C25.1091 24.1335 24.5191 22.9435 23.3391 21.9935C22.6691 21.4635 21.8891 21.0435 21.0391 20.7335C23.2491 20.0935 26.0291 20.5235 27.7391 21.9035C28.6591 22.6435 29.1291 23.5735 29.0391 24.5335Z" fill="#FF8C21"/>
</g>
<defs>
<clipPath id="clip0_5483_466579">
<rect width="40" height="40" fill="white"/>
</clipPath>
</defs>
</svg>
