<svg width="40" height="40" viewBox="0 0 40 40" fill="none" xmlns="http://www.w3.org/2000/svg">
<g clip-path="url(#clip0_5416_470683)">
<circle cx="20" cy="20" r="20" fill="#33B530" fill-opacity="0.2"/>
<path d="M27.9597 16.96C27.2897 16.22 26.2797 15.79 24.8797 15.64V14.88C24.8797 13.51 24.2997 12.19 23.2797 11.27C22.2497 10.33 20.9097 9.89002 19.5197 10.02C17.1297 10.25 15.1197 12.56 15.1197 15.06V15.64C13.7197 15.79 12.7097 16.22 12.0397 16.96C11.0697 18.04 11.0997 19.48 11.2097 20.48L11.9097 26.05C12.1197 28 12.9097 30 17.2097 30H22.7897C27.0897 30 27.8797 28 28.0897 26.06L28.7897 20.47C28.8997 19.48 28.9197 18.04 27.9597 16.96ZM19.6597 11.41C20.6597 11.32 21.6097 11.63 22.3497 12.3C23.0797 12.96 23.4897 13.9 23.4897 14.88V15.58H16.5097V15.06C16.5097 13.28 17.9797 11.57 19.6597 11.41ZM16.4197 21.15H16.4097C15.8597 21.15 15.4097 20.7 15.4097 20.15C15.4097 19.6 15.8597 19.15 16.4097 19.15C16.9697 19.15 17.4197 19.6 17.4197 20.15C17.4197 20.7 16.9697 21.15 16.4197 21.15ZM23.4197 21.15H23.4097C22.8597 21.15 22.4097 20.7 22.4097 20.15C22.4097 19.6 22.8597 19.15 23.4097 19.15C23.9697 19.15 24.4197 19.6 24.4197 20.15C24.4197 20.7 23.9697 21.15 23.4197 21.15Z" fill="#33B530"/>
</g>
<defs>
<clipPath id="clip0_5416_470683">
<rect width="40" height="40" fill="white"/>
</clipPath>
</defs>
</svg>
