<svg width="40" height="40" viewBox="0 0 40 40" fill="none" xmlns="http://www.w3.org/2000/svg">
<g clip-path="url(#clip0_5483_466411)">
<circle cx="20" cy="20" r="20" fill="#DB1B1B" fill-opacity="0.2"/>
<path d="M27.24 13.58H26.84L23.46 10.2C23.19 9.93 22.75 9.93 22.47 10.2C22.2 10.47 22.2 10.91 22.47 11.19L24.86 13.58H15.14L17.53 11.19C17.8 10.92 17.8 10.48 17.53 10.2C17.26 9.93 16.82 9.93 16.54 10.2L13.17 13.58H12.77C11.87 13.58 10 13.58 10 16.14C10 17.11 10.2 17.75 10.62 18.17C10.86 18.42 11.15 18.55 11.46 18.62C11.75 18.69 12.06 18.7 12.36 18.7H27.64C27.95 18.7 28.24 18.68 28.52 18.62C29.36 18.42 30 17.82 30 16.14C30 13.58 28.13 13.58 27.24 13.58Z" fill="#DB1B1B"/>
<path d="M27.0897 20H12.9097C12.2897 20 11.8197 20.55 11.9197 21.16L12.7597 26.3C13.0397 28.02 13.7897 30 17.1197 30H22.7297C26.0997 30 26.6997 28.31 27.0597 26.42L28.0697 21.19C28.1897 20.57 27.7197 20 27.0897 20ZM21.9197 26.89C21.7797 27.04 21.5897 27.11 21.3897 27.11C21.1997 27.11 21.0097 27.04 20.8597 26.89L20.0197 26.04L19.1397 26.92C18.9897 27.07 18.7997 27.14 18.6097 27.14C18.4097 27.14 18.2197 27.07 18.0797 26.92C17.7797 26.63 17.7797 26.16 18.0797 25.86L18.9597 24.98L18.1097 24.14C17.8097 23.84 17.8097 23.37 18.1097 23.08C18.3997 22.78 18.8697 22.78 19.1697 23.08L20.0197 23.92L20.8297 23.11C21.1297 22.81 21.5997 22.81 21.8897 23.11C22.1897 23.4 22.1897 23.87 21.8897 24.17L21.0797 24.98L21.9197 25.83C22.2197 26.13 22.2197 26.6 21.9197 26.89Z" fill="#DB1B1B"/>
</g>
<defs>
<clipPath id="clip0_5483_466411">
<rect width="40" height="40" fill="white"/>
</clipPath>
</defs>
</svg>
