<svg width="40" height="40" viewBox="0 0 40 40" fill="none" xmlns="http://www.w3.org/2000/svg">
<g clip-path="url(#clip0_5416_470704)">
<circle cx="20" cy="20" r="20" fill="#DB1B1B" fill-opacity="0.2"/>
<path d="M27.9597 16.96C27.2897 16.22 26.2797 15.79 24.8797 15.64V14.88C24.8797 13.51 24.2997 12.19 23.2797 11.27C22.2497 10.33 20.9097 9.89002 19.5197 10.02C17.1297 10.25 15.1197 12.56 15.1197 15.06V15.64C13.7197 15.79 12.7097 16.22 12.0397 16.96C11.0697 18.04 11.0997 19.48 11.2097 20.48L11.9097 26.05C12.1197 28 12.9097 30 17.2097 30H22.7897C27.0897 30 27.8797 28 28.0897 26.06L28.7897 20.47C28.8997 19.48 28.9297 18.04 27.9597 16.96ZM19.6597 11.41C20.6597 11.32 21.6097 11.63 22.3497 12.3C23.0797 12.96 23.4897 13.9 23.4897 14.88V15.58H16.5097V15.06C16.5097 13.28 17.9797 11.57 19.6597 11.41ZM19.9997 26.58C17.9097 26.58 16.2097 24.88 16.2097 22.79C16.2097 20.7 17.9097 19 19.9997 19C22.0897 19 23.7897 20.7 23.7897 22.79C23.7897 24.88 22.0897 26.58 19.9997 26.58Z" fill="#DB1B1B"/>
<path d="M21.6001 23.31L21.0701 22.78L21.5701 22.28C21.8601 21.99 21.8601 21.51 21.5701 21.22C21.2801 20.93 20.8001 20.93 20.5101 21.22L20.0101 21.72L19.4801 21.19C19.1901 20.9 18.7101 20.9 18.4201 21.19C18.1301 21.48 18.1301 21.96 18.4201 22.25L18.9501 22.78L18.4001 23.33C18.1101 23.62 18.1101 24.1 18.4001 24.39C18.5501 24.54 18.7401 24.61 18.9301 24.61C19.1201 24.61 19.3101 24.54 19.4601 24.39L20.0101 23.84L20.5401 24.37C20.6901 24.52 20.8801 24.59 21.0701 24.59C21.2601 24.59 21.4501 24.52 21.6001 24.37C21.8901 24.08 21.8901 23.61 21.6001 23.31Z" fill="#DB1B1B"/>
</g>
<defs>
<clipPath id="clip0_5416_470704">
<rect width="40" height="40" fill="white"/>
</clipPath>
</defs>
</svg>
