<svg width="40" height="40" viewBox="0 0 40 40" fill="none" xmlns="http://www.w3.org/2000/svg">
<g clip-path="url(#clip0_5477_466167)">
<circle cx="20" cy="20" r="20" fill="#DB1B1B" fill-opacity="0.2"/>
<path d="M25.6005 13.31L19.9505 10.27C19.3505 9.95003 18.6405 9.95003 18.0405 10.27L12.4005 13.31C11.9905 13.54 11.7305 13.98 11.7305 14.46C11.7305 14.95 11.9805 15.39 12.4005 15.61L18.0505 18.65C18.3505 18.81 18.6805 18.89 19.0005 18.89C19.3205 18.89 19.6605 18.81 19.9505 18.65L25.6005 15.61C26.0105 15.39 26.2705 14.95 26.2705 14.46C26.2705 13.98 26.0105 13.54 25.6005 13.31Z" fill="#DB1B1B"/>
<path d="M17.12 19.7101L11.87 17.0901C11.46 16.8801 11 16.9101 10.61 17.1401C10.23 17.3801 10 17.7901 10 18.2401V23.2001C10 24.0601 10.48 24.8301 11.25 25.2201L16.5 27.8401C16.68 27.9301 16.88 27.9801 17.08 27.9801C17.31 27.9801 17.55 27.9101 17.76 27.7901C18.14 27.5501 18.37 27.1401 18.37 26.6901V21.7301C18.36 20.8701 17.88 20.1001 17.12 19.7101Z" fill="#DB1B1B"/>
<path d="M27.9996 18.2401V20.7001C27.5196 20.5601 27.0096 20.5001 26.4996 20.5001C25.1396 20.5001 23.8096 20.9701 22.7596 21.8101C21.3196 22.9401 20.4996 24.6501 20.4996 26.5001C20.4996 26.9901 20.5596 27.4801 20.6896 27.9501C20.5396 27.9301 20.3896 27.8701 20.2496 27.7801C19.8696 27.5501 19.6396 27.1401 19.6396 26.6901V21.7301C19.6396 20.8701 20.1196 20.1001 20.8796 19.7101L26.1296 17.0901C26.5396 16.8801 26.9996 16.9101 27.3896 17.1401C27.7696 17.3801 27.9996 17.7901 27.9996 18.2401Z" fill="#DB1B1B"/>
<path d="M29.6804 23.32C28.7904 22.43 27.6104 21.98 26.4404 22C25.3104 22.01 24.1804 22.46 23.3204 23.32C22.7204 23.91 22.3304 24.65 22.1404 25.42C22.0304 25.84 21.9904 26.27 22.0204 26.7V26.75C22.0204 26.82 22.0304 26.88 22.0404 26.96C22.0404 26.96 22.0404 26.96 22.0504 26.97V27C22.1404 27.98 22.5604 28.93 23.3204 29.68C24.4804 30.84 26.1104 31.23 27.5804 30.86C28.0204 30.75 28.4504 30.57 28.8504 30.33C29.1504 30.16 29.4304 29.94 29.6804 29.68C30.4304 28.93 30.8604 27.98 30.9504 26.99C30.9604 26.99 30.9604 26.97 30.9604 26.96C30.9804 26.89 30.9804 26.81 30.9804 26.74C30.9804 26.73 30.9904 26.71 30.9904 26.69C31.0504 25.48 30.6104 24.24 29.6804 23.32ZM28.2304 28.21C27.9404 28.5 27.4704 28.5 27.1704 28.21L26.5104 27.55L25.8304 28.23C25.5304 28.53 25.0604 28.53 24.7704 28.23C24.4704 27.94 24.4704 27.47 24.7704 27.17L25.4504 26.49L24.7904 25.83C24.5004 25.53 24.5004 25.06 24.7904 24.77C25.0904 24.47 25.5604 24.47 25.8604 24.77L26.5104 25.43L27.1404 24.79C27.4404 24.5 27.9104 24.5 28.2104 24.79C28.5004 25.09 28.5004 25.56 28.2104 25.86L27.5704 26.49L28.2304 27.14C28.5304 27.44 28.5304 27.91 28.2304 28.21Z" fill="#DB1B1B"/>
</g>
<defs>
<clipPath id="clip0_5477_466167">
<rect width="40" height="40" fill="white"/>
</clipPath>
</defs>
</svg>
