<svg width="40" height="40" viewBox="0 0 40 40" fill="none" xmlns="http://www.w3.org/2000/svg">
<g clip-path="url(#clip0_5489_466794)">
<circle cx="20" cy="20" r="20" fill="#DB1B1B" fill-opacity="0.2"/>
<path d="M23.3895 13.21L24.7995 16.03C24.9895 16.42 25.4995 16.79 25.9295 16.87L28.4795 17.29C30.1095 17.56 30.4895 18.74 29.3195 19.92L27.3295 21.91C26.9995 22.24 26.8095 22.89 26.9195 23.36L27.4895 25.82C27.9395 27.76 26.8995 28.52 25.1895 27.5L22.7995 26.08C22.3695 25.82 21.6495 25.82 21.2195 26.08L18.8295 27.5C17.1195 28.51 16.0795 27.76 16.5295 25.82L17.0995 23.36C17.1895 22.88 16.9995 22.23 16.6695 21.9L14.6795 19.91C13.5095 18.74 13.8895 17.56 15.5195 17.28L18.0695 16.86C18.4995 16.79 19.0095 16.41 19.1995 16.02L20.6095 13.2C21.3795 11.68 22.6195 11.68 23.3895 13.21Z" fill="#DB1B1B"/>
<path d="M20 22.182L23.182 19" stroke="white" stroke-linecap="round" stroke-linejoin="round"/>
<path d="M23.3594 22.3588L20.1774 19.1768" stroke="white" stroke-linecap="round" stroke-linejoin="round"/>
<path d="M16 13.75H10C9.59 13.75 9.25 13.41 9.25 13C9.25 12.59 9.59 12.25 10 12.25H16C16.41 12.25 16.75 12.59 16.75 13C16.75 13.41 16.41 13.75 16 13.75Z" fill="#DB1B1B"/>
<path d="M13 27.75H10C9.59 27.75 9.25 27.41 9.25 27C9.25 26.59 9.59 26.25 10 26.25H13C13.41 26.25 13.75 26.59 13.75 27C13.75 27.41 13.41 27.75 13 27.75Z" fill="#DB1B1B"/>
<path d="M11 20.75H10C9.59 20.75 9.25 20.41 9.25 20C9.25 19.59 9.59 19.25 10 19.25H11C11.41 19.25 11.75 19.59 11.75 20C11.75 20.41 11.41 20.75 11 20.75Z" fill="#DB1B1B"/>
</g>
<defs>
<clipPath id="clip0_5489_466794">
<rect width="40" height="40" fill="white"/>
</clipPath>
</defs>
</svg>
