<svg width="40" height="40" viewBox="0 0 40 40" fill="none" xmlns="http://www.w3.org/2000/svg">
<g clip-path="url(#clip0_5483_466510)">
<circle cx="20" cy="20" r="20" fill="#33B530" fill-opacity="0.2"/>
<path d="M20 10C17.38 10 15.25 12.13 15.25 14.75C15.25 17.32 17.26 19.4 19.88 19.49C19.96 19.48 20.04 19.48 20.1 19.49C20.12 19.49 20.13 19.49 20.15 19.49C20.16 19.49 20.16 19.49 20.17 19.49C22.73 19.4 24.74 17.32 24.75 14.75C24.75 12.13 22.62 10 20 10Z" fill="#33B530"/>
<path d="M25.08 22.15C22.29 20.29 17.74 20.29 14.93 22.15C13.66 23 12.96 24.15 12.96 25.38C12.96 26.61 13.66 27.75 14.92 28.59C16.32 29.53 18.16 30 20 30C21.84 30 23.68 29.53 25.08 28.59C26.34 27.74 27.04 26.6 27.04 25.36C27.03 24.13 26.34 22.99 25.08 22.15ZM22 26.13H20.75V27.38C20.75 27.79 20.41 28.13 20 28.13C19.59 28.13 19.25 27.79 19.25 27.38V26.13H18C17.59 26.13 17.25 25.79 17.25 25.38C17.25 24.97 17.59 24.63 18 24.63H19.25V23.38C19.25 22.97 19.59 22.63 20 22.63C20.41 22.63 20.75 22.97 20.75 23.38V24.63H22C22.41 24.63 22.75 24.97 22.75 25.38C22.75 25.79 22.41 26.13 22 26.13Z" fill="#33B530"/>
</g>
<defs>
<clipPath id="clip0_5483_466510">
<rect width="40" height="40" fill="white"/>
</clipPath>
</defs>
</svg>
