<svg width="44" height="36" viewBox="0 0 44 36" fill="none" xmlns="http://www.w3.org/2000/svg">
<path d="M44 32C44 33.0609 43.4849 34.0783 42.5681 34.8284C41.6512 35.5786 40.4077 36 39.1111 36H4.88889C3.59227 36 2.34877 35.5786 1.43192 34.8284C0.515078 34.0783 0 33.0609 0 32V4C0 2.93913 0.515078 1.92172 1.43192 1.17157C2.34877 0.421427 3.59227 0 4.88889 0L39.1111 0C40.4077 0 41.6512 0.421427 42.5681 1.17157C43.4849 1.92172 44 2.93913 44 4V32Z" fill="#3B88C3"/>
<path d="M0 10H44V27H0V10Z" fill="#BBDDF5"/>
<path d="M6.47405 13.7401C6.8065 13.0041 7.56916 12.4111 8.56772 12.4111C9.60416 12.4111 10.3277 12.9721 10.6602 13.7401L14.4943 22.4481C14.6116 22.7041 14.6507 22.9281 14.6507 23.0411C14.6507 23.6651 14.0249 24.0971 13.3002 24.0971C12.4788 24.0971 12.0682 23.7451 11.8726 23.2651L11.2859 21.7601H5.84705L5.26039 23.2491C5.06483 23.7451 4.65294 24.0971 3.85116 24.0971C3.06894 24.0971 2.40405 23.6181 2.40405 22.9771C2.40405 22.7211 2.50183 22.5291 2.54094 22.4491L6.47405 13.7401ZM6.69039 19.5501H10.4072L8.58728 14.9081H8.54816L6.69039 19.5501ZM17.6794 14.8121H15.5466C14.6079 14.8121 14.2168 14.2511 14.2168 13.7081C14.2168 13.1471 14.7057 12.6041 15.5466 12.6041H22.7455C23.5864 12.6041 24.0765 13.1481 24.0765 13.7081C24.0765 14.2521 23.6854 14.8121 22.7455 14.8121H20.6127V22.8471C20.6127 23.6471 19.9869 24.0951 19.1461 24.0951C18.3052 24.0951 17.6782 23.6471 17.6782 22.8471V14.8121H17.6794ZM26.9292 13.7401C27.0465 13.1641 27.8092 12.5081 28.8456 12.5081C29.8246 12.5081 30.5861 13.0841 30.8024 13.6601L33.1124 19.9981H33.1503L35.459 13.6601C35.6742 13.0841 36.4381 12.5081 37.4146 12.5081C38.4535 12.5081 39.2149 13.1641 39.3335 13.7401L41.1522 22.6721C41.1717 22.7681 41.1717 22.8631 41.1717 22.9431C41.1717 23.6471 40.5459 24.0951 39.7637 24.0951C38.7664 24.0951 38.3741 23.7271 38.2384 22.9751L37.0834 16.4601H37.0455L34.6964 23.1671C34.5607 23.5511 34.1879 24.0951 33.1332 24.0951C32.0759 24.0951 31.7044 23.5511 31.5675 23.1671L29.2208 16.4601H29.1805L28.0279 22.9751C27.8898 23.7271 27.4987 24.0951 26.5014 24.0951C25.7192 24.0951 25.0934 23.6471 25.0934 22.9431C25.0934 22.8631 25.0934 22.7671 25.1142 22.6721L26.9292 13.7401Z" fill="#226699"/>
</svg>
