<svg width="46" height="30" viewBox="0 0 46 30" fill="none" xmlns="http://www.w3.org/2000/svg">
<path fill-rule="evenodd" clip-rule="evenodd" d="M45.75 15C45.75 15.431 45.5788 15.8443 45.274 16.1491C44.9693 16.4538 44.556 16.625 44.125 16.625L5.79775 16.625L16.0255 26.8495C16.3306 27.1546 16.5021 27.5685 16.5021 28C16.5021 28.4315 16.3306 28.8454 16.0255 29.1505C15.7204 29.4556 15.3065 29.6271 14.875 29.6271C14.4435 29.6271 14.0296 29.4556 13.7245 29.1505L0.724498 16.1505C0.573169 15.9996 0.453105 15.8202 0.371185 15.6228C0.289264 15.4254 0.247096 15.2137 0.247096 15C0.247096 14.7863 0.289264 14.5746 0.371185 14.3772C0.453105 14.1798 0.573169 14.0005 0.724498 13.8495L13.7245 0.849506C14.0296 0.544375 14.4435 0.372954 14.875 0.372954C15.3065 0.372954 15.7204 0.544375 16.0255 0.849506C16.3306 1.15464 16.5021 1.56849 16.5021 2.00001C16.5021 2.43153 16.3306 2.84538 16.0255 3.15051L5.79775 13.375L44.125 13.375C44.556 13.375 44.9693 13.5462 45.274 13.851C45.5788 14.1557 45.75 14.569 45.75 15Z" fill="black"/>
</svg>
