<svg width="44" height="44" viewBox="0 0 44 44" fill="none" xmlns="http://www.w3.org/2000/svg">
<g clip-path="url(#clip0_3661_418877)">
<path d="M19.9011 14.4582V43.5607C19.9011 43.8 20.0696 44.0007 20.2669 44.0007H43.8014C43.9973 44.0007 44.1657 43.8 44.1657 43.5607V14.4582C44.1704 14.3491 44.1352 14.2421 44.0667 14.1571L44.0571 14.1495C44.0571 14.1419 44.0509 14.1406 44.0509 14.1406C44.0211 14.1023 43.983 14.0713 43.9396 14.0498C43.8962 14.0283 43.8485 14.0167 43.8 14.0161H20.2655C20.0689 14.0161 19.9011 14.2189 19.9011 14.4582Z" fill="#A2C3CB"/>
<path d="M0 14.458V43.5606C0 43.7998 0.168438 44.0006 0.36575 44.0006H23.8982C24.0962 44.0006 24.2646 43.7998 24.2646 43.5606V14.458C24.2689 14.3488 24.2332 14.2417 24.1642 14.1569L24.1553 14.1493C24.1553 14.1417 24.1478 14.1404 24.1416 14.1362C24.1129 14.0986 24.0759 14.0682 24.0334 14.0474C23.9909 14.0266 23.9441 14.0161 23.8968 14.0166H0.363687C0.168437 14.0166 0 14.2187 0 14.458Z" fill="#A2C3CB"/>
<path d="M1.47878 21.34H9.4139C9.4799 21.34 9.54109 21.3132 9.54109 21.2864V17.919C9.54109 17.8894 9.48059 17.8674 9.4139 17.8674H1.47878C1.44862 17.866 1.41853 17.8714 1.39078 17.8832V17.886C1.3729 17.8963 1.35846 17.9052 1.35846 17.9183V21.2857C1.35846 21.3132 1.40796 21.34 1.47878 21.34ZM1.48015 27.005H9.6284C9.69165 27.005 9.75834 26.9789 9.75834 26.952V23.5881C9.75834 23.5585 9.69165 23.5352 9.6284 23.5352H1.47946C1.44799 23.5337 1.41662 23.5398 1.38803 23.553V23.5558C1.37221 23.5647 1.35571 23.573 1.35571 23.5881V26.952C1.35571 26.9789 1.40796 27.005 1.48015 27.005ZM1.51728 31.8931H11.9666C12.0491 31.8931 12.1316 31.8677 12.1316 31.8409V28.4735C12.1316 28.4439 12.0491 28.424 11.9666 28.424H1.51728C1.47737 28.4231 1.43755 28.428 1.39903 28.4384V28.4419C1.38601 28.4499 1.37219 28.4566 1.35778 28.4618V31.8415C1.35778 31.8663 1.42584 31.8931 1.51728 31.8931ZM1.4994 37.5588H10.6679C10.7401 37.5588 10.8123 37.532 10.8123 37.5065V34.1419C10.8123 34.1124 10.7401 34.0883 10.6679 34.0883H1.4994C1.45815 34.0883 1.4169 34.089 1.3949 34.1062V34.1089L1.35778 34.1268V37.5065C1.35778 37.532 1.4169 37.5588 1.4994 37.5588ZM35.5746 21.7814H42.7803C42.8381 21.7814 42.8945 21.7545 42.8945 21.7277V18.3624C42.8945 18.3329 42.8381 18.3109 42.7803 18.3109H35.5746C35.5462 18.3099 35.518 18.3156 35.4921 18.3274V18.3301L35.4653 18.3494V21.7277C35.4653 21.7545 35.5107 21.7814 35.5746 21.7814ZM34.0518 27.4491H42.7535C42.823 27.4491 42.8917 27.4223 42.8917 27.3969V24.0288C42.8917 23.9992 42.8216 23.9786 42.7535 23.9786H34.0518C34.0187 23.9776 33.9856 23.9825 33.9542 23.993V23.9958C33.9363 24.0082 33.9164 24.0157 33.9164 24.0157V27.3955C33.9178 27.4223 33.9748 27.4491 34.0518 27.4491ZM31.295 32.3331H42.7136C42.8037 32.3331 42.8952 32.3063 42.8952 32.2795V28.9149C42.8952 28.8853 42.8037 28.8626 42.7136 28.8626H31.295C31.2512 28.8613 31.2076 28.8671 31.1657 28.8798V28.8825C31.1417 28.8922 31.1203 28.8997 31.1203 28.9149V32.2795C31.119 32.3063 31.1912 32.3331 31.295 32.3331ZM33.1581 37.9981H42.7453C42.8216 37.9981 42.9 37.9727 42.9 37.9459V34.5785C42.9 34.5489 42.823 34.529 42.7453 34.529H33.1581C33.1214 34.5284 33.0848 34.5333 33.0495 34.5434V34.5469C33.0309 34.5592 33.0103 34.5668 33.0103 34.5792V37.9465C33.0103 37.9727 33.0721 37.9981 33.1581 37.9981Z" fill="#5697A2"/>
<path d="M8.09668 2.25023V43.362C8.09668 43.701 8.28849 43.9842 8.51605 43.9842H35.5479C35.7747 43.9842 35.9652 43.701 35.9652 43.362V2.24885C35.9652 2.0646 35.9219 1.92298 35.8538 1.82398L35.8421 1.81229C35.8421 1.81229 35.8346 1.8006 35.8277 1.79441C35.7631 1.69404 35.6675 1.62598 35.5465 1.62598H8.51537C8.28849 1.62598 8.09668 1.90923 8.09668 2.24885" fill="#C6DCDF"/>
<path d="M18.2786 43.9995H25.9428C26.002 43.9995 26.0583 43.961 26.0583 43.9142V38.4087C26.0583 38.362 26.002 38.3228 25.9428 38.3228H18.2793C18.2504 38.3223 18.2223 38.3318 18.1995 38.3496L18.1981 38.3523H18.1954C18.1796 38.3668 18.1631 38.3888 18.1631 38.4087V43.9142C18.1631 43.961 18.2188 43.9995 18.2786 43.9995Z" fill="#9A535F"/>
<path d="M19.2355 41.2708H20.5672C20.5672 41.2708 20.5878 41.2578 20.5878 41.2468V39.7405C20.5878 39.7288 20.5775 39.7178 20.5775 39.7178H19.2362C19.2362 39.7178 19.2245 39.7205 19.2204 39.7267C19.219 39.7329 19.2156 39.7356 19.2156 39.7356V41.2468C19.2142 41.2585 19.2232 41.2708 19.2355 41.2708Z" fill="#86A7AC"/>
<path d="M9.9 20.1094H33.9185C34.1103 20.1094 34.3021 20.0744 34.3021 20.0414V15.8298C34.3021 15.7926 34.1117 15.7651 33.9185 15.7651H9.90069C9.80925 15.7651 9.69238 15.7727 9.63531 15.7858V15.7906C9.5865 15.8023 9.53906 15.8139 9.53906 15.8304V20.0421C9.53906 20.0744 9.69237 20.1094 9.9 20.1094ZM10.1186 26.3038H33.9206C34.1089 26.3038 34.2994 26.2715 34.2994 26.2392V22.0262C34.2994 21.9877 34.1103 21.9616 33.9206 21.9616H10.1159C10.021 21.9616 9.90756 21.9671 9.85187 21.9822V21.985C9.80444 21.9966 9.757 22.009 9.757 22.0262V26.2392C9.757 26.2715 9.90894 26.3038 10.1166 26.3038H10.1186ZM10.1186 33.3968H33.9206C34.1089 33.3968 34.2994 33.3638 34.2994 33.3314V29.1191C34.2994 29.0799 34.1103 29.0531 33.9206 29.0531H10.1159C10.021 29.0531 9.90756 29.0531 9.85187 29.0738V29.0772C9.80444 29.0896 9.757 29.1006 9.757 29.1191V33.3314C9.757 33.3638 9.90894 33.3968 10.1166 33.3968" fill="#6CB5C6"/>
<path d="M23.6019 41.2708H24.9357C24.9357 41.2708 24.9542 41.2578 24.9542 41.2468V39.7405C24.9542 39.7288 24.9432 39.7178 24.9432 39.7178H23.6019L23.5875 39.7267C23.5847 39.7329 23.5813 39.7356 23.5813 39.7356V41.2468C23.5813 41.2585 23.5916 41.2708 23.6019 41.2708Z" fill="#86A7AC"/>
<path d="M26.2556 13.4051C26.2556 10.893 24.4866 10.1711 22.5699 9.76683L21.5544 9.56195C20.0564 9.26633 19.9381 8.83252 19.9381 8.24814C19.9381 7.49258 20.6201 7.04089 21.7607 7.04089C23.1144 7.04089 23.4616 7.71808 23.6059 8.22958L23.6204 8.2722C23.7909 8.7177 24.1848 8.98377 24.6798 8.98377C24.807 8.98377 24.9177 8.96314 25.0064 8.94527C25.5358 8.84214 25.9043 8.41795 25.9043 7.92089C25.9043 7.79645 25.8809 7.6727 25.8341 7.55445C25.5619 6.68339 24.807 5.30977 22.6909 4.99695V3.5037C22.6909 2.25658 20.7411 2.25658 20.7411 3.5037V5.00658C18.4744 5.36202 17.6384 6.90477 17.6384 8.24883C17.6384 10.6956 19.3407 11.379 21.0065 11.7207L22.1065 11.9551C23.6692 12.2707 23.9435 12.6784 23.9435 13.4175C23.9435 14.3181 23.1824 14.8591 21.9009 14.8591C20.2406 14.8591 19.9024 14.1111 19.6755 13.271C19.5428 12.8042 19.1234 12.5065 18.6051 12.5065C18.4916 12.5065 18.4002 12.521 18.2923 12.5402L18.2613 12.5443C17.7237 12.6729 17.3641 13.0936 17.3641 13.5935C17.3641 13.6911 17.3813 13.7695 17.3951 13.8355L17.4109 13.9111C17.6515 14.7244 18.1829 16.5016 20.8394 16.901V18.4637C20.8394 19.0873 21.3276 19.4152 21.8123 19.4152C22.2969 19.4152 22.7906 19.0873 22.7906 18.4637V16.9271C24.8929 16.6528 26.2556 15.3081 26.2556 13.4044" fill="#04A69C"/>
</g>
<defs>
<clipPath id="clip0_3661_418877">
<rect width="44" height="44" fill="white"/>
</clipPath>
</defs>
</svg>
