<svg width="97" height="90" viewBox="0 0 97 90" fill="none" xmlns="http://www.w3.org/2000/svg">
<g clip-path="url(#clip0_397_1824)">
<path d="M72.8247 24.3562C64.1614 18.281 59.6619 11.3057 57.5244 7.14452C56.7366 5.56891 52.6865 6.86298 50.212 7.87551C48.918 8.38177 47.456 8.38177 46.1619 7.87551C43.6306 6.86298 39.6373 5.56891 38.8495 7.14452C36.7676 11.3625 32.2681 18.3379 23.5492 24.3562C4.59276 37.5759 -11.2706 83.6446 48.187 83.6446C107.643 83.6446 91.7812 37.5759 72.8247 24.3562Z" fill="#FCFBE2"/>
<path d="M6.95459 60.4133C6.95459 60.4133 7.63004 85.2202 48.1854 85.2202C88.742 85.2202 89.4175 60.4133 89.4175 60.4133C89.4175 60.4133 78.7304 78.3572 48.1854 78.3572C17.643 78.3572 6.95459 60.4133 6.95459 60.4133Z" fill="#EDE6AB"/>
<path d="M23.6043 38.7563C23.3796 38.7563 23.1549 38.6995 22.9289 38.6439C21.9164 38.25 21.4669 37.182 21.804 36.1682C25.4602 26.5491 37.329 20.474 37.8353 20.2493C38.7923 19.7998 39.9172 20.1369 40.3666 21.0926C40.8173 22.0483 40.479 23.1732 39.5232 23.6795C39.4109 23.7363 28.4978 29.2484 25.4047 37.5178C25.1231 38.3069 24.3922 38.7563 23.6043 38.7563ZM37.4982 40.8382C37.2735 40.8382 37.1043 40.7814 36.8796 40.7258C35.867 40.3887 35.3608 39.3194 35.6423 38.3069C38.1736 30.7129 41.4928 26.832 41.6051 26.6628C42.2806 25.875 43.5178 25.7626 44.3056 26.4936C45.0934 27.1691 45.2058 28.4063 44.4748 29.1941C44.418 29.2509 41.4928 32.738 39.243 39.5441C39.017 40.3319 38.286 40.8382 37.4982 40.8382ZM72.5983 39.7688C71.755 39.7688 71.0227 39.207 70.7424 38.3624C67.874 28.1816 58.5366 23.6808 58.4229 23.6239C57.4672 23.1745 57.0733 22.0496 57.5227 21.0926C57.9722 20.1356 59.0984 19.743 60.0541 20.1924C60.5035 20.4172 71.0227 25.4243 74.3986 37.3486C74.6802 38.3611 74.1171 39.4305 73.1046 39.7107C72.9367 39.7688 72.7675 39.7688 72.5983 39.7688ZM59.8306 40.8382C58.9873 40.8382 58.255 40.2751 57.9735 39.4886C55.9484 32.5701 52.7985 28.9139 52.7429 28.857C52.0675 28.0692 52.1243 26.8888 52.9108 26.1565C53.6986 25.4811 54.8791 25.5379 55.6113 26.3244C55.7805 26.4936 59.3799 30.6561 61.6297 38.4192C61.9112 39.4317 61.3481 40.4998 60.3369 40.7814C60.1677 40.7814 59.9985 40.8382 59.8306 40.8382Z" fill="#4C2F1B"/>
<path d="M55.8364 6.35671C56.6798 6.35671 57.2984 6.58143 57.5799 7.08769C59.6618 11.3057 64.1614 18.2823 72.8802 24.3007C91.8367 37.5203 107.756 83.5891 48.2425 83.5891C-11.2706 83.5891 4.59271 37.5759 23.5492 24.3575C32.2112 18.2823 36.7108 11.307 38.8495 7.14581C39.131 6.63955 39.7496 6.41483 40.593 6.41483C42.2241 6.41483 44.5307 7.20263 46.2187 7.87679C46.8941 8.15834 47.5683 8.2707 48.2438 8.2707C48.9192 8.2707 49.5934 8.15834 50.2688 7.87679C51.8431 7.14452 54.2053 6.35671 55.8364 6.35671ZM55.8364 0C53.7545 0 51.28 0.563089 48.1856 1.80034C45.0925 0.563089 42.618 0 40.5361 0C35.7551 0 33.7855 2.98076 33.1101 4.27483C31.4789 7.4816 27.6535 13.7247 19.8917 19.1257C6.73013 28.3508 -3.90141 49.3878 1.38594 66.1501C4.81743 77.0063 15.7292 90 48.1856 90C80.6421 90 91.5551 77.0063 94.9866 66.1501C100.218 49.4434 89.6424 28.3495 76.4809 19.1244C68.7177 13.7234 64.8936 7.48031 63.2612 4.27354C62.587 2.98076 60.562 0 55.8364 0Z" fill="#4C2F1B"/>
</g>
<defs>
<clipPath id="clip0_397_1824">
<rect width="96.3528" height="90" fill="white"/>
</clipPath>
</defs>
</svg>
