<svg width="92" height="100" viewBox="0 0 92 100" fill="none" xmlns="http://www.w3.org/2000/svg">
<path d="M76.5758 84.6029H58.8149C50.3176 84.6029 43.3906 77.6462 43.3906 69.0821V61.8915C43.3906 53.3397 50.3041 46.3707 58.8149 46.3707H76.5758C85.0744 46.3707 92.0001 53.3274 92.0001 61.8915V69.0821C92.0001 77.6462 85.0744 84.6029 76.5758 84.6029ZM58.8149 54.8803C54.9771 54.8803 51.8474 58.0283 51.8474 61.8915V69.0821C51.8474 72.9453 54.9758 76.0933 58.8149 76.0933H76.5758C80.4149 76.0933 83.5433 72.9453 83.5433 69.0821V61.8915C83.5433 58.0283 80.4149 54.8803 76.5758 54.8803H58.8149Z" fill="#4C2F1B"/>
<path d="M63.0648 96.4536H19.3864C14.7418 96.4536 10.9297 92.6312 10.9297 87.944V28.8428C10.9297 24.1692 14.727 20.3332 19.3864 20.3332H63.0648C67.7094 20.3332 71.5216 24.1542 71.5216 28.8428V87.944C71.5216 92.6312 67.7229 96.4536 63.0648 96.4536Z" fill="#F4BE67"/>
<path d="M63.0651 100H19.3867C12.7881 100 7.4043 94.5975 7.4043 87.944V28.8428C7.4043 22.2029 12.7732 16.7868 19.3867 16.7868H63.0651C69.6638 16.7868 75.0462 22.1893 75.0462 28.8428V87.944C75.0462 94.5975 69.6773 100 63.0651 100ZM19.3867 23.8795C16.6678 23.8795 14.4543 26.1069 14.4543 28.8428V87.944C14.4543 90.6799 16.6678 92.9073 19.3867 92.9073H63.0651C65.784 92.9073 67.9975 90.6799 67.9975 87.944V28.8428C67.9975 26.1069 65.784 23.8795 63.0651 23.8795H19.3867Z" fill="#4C2F1B"/>
<path d="M27.6932 76.5869H21.9688C21.8053 76.5869 21.6675 76.4496 21.6675 76.2701V48.3084C21.6675 48.1439 21.804 47.9916 21.9688 47.9916H27.6932C27.8567 47.9916 28.008 48.1289 28.008 48.3084V76.285C28.0067 76.4495 27.8702 76.5869 27.6932 76.5869ZM44.4837 76.5869H38.7594C38.5959 76.5869 38.4445 76.4496 38.4445 76.2701V48.3084C38.4445 48.1439 38.581 47.9916 38.7594 47.9916H44.4837C44.6472 47.9916 44.7986 48.1289 44.7986 48.3084V76.285C44.7986 76.4495 44.6607 76.5869 44.4837 76.5869ZM61.2742 76.5869H55.5499C55.3864 76.5869 55.2351 76.4496 55.2351 76.2701V48.3084C55.2351 48.1439 55.3715 47.9916 55.5499 47.9916H61.2742C61.4377 47.9916 61.5891 48.1289 61.5891 48.3084V76.285C61.5891 76.4495 61.4526 76.5869 61.2742 76.5869Z" fill="#EAA35E"/>
<path d="M85.4839 29.2956C85.4839 22.5456 80.046 17.0737 73.3393 17.0737C69.8555 17.0737 66.7676 18.2703 64.5541 20.6337C63.7203 19.7416 60.919 8.70275 49.0609 11.4931C48.1041 11.7134 47.1217 11.6304 46.2055 11.8507C42.8717 6.44819 36.9285 2.83247 30.1393 2.83247C20.3298 2.83247 12.269 10.3386 11.3122 19.9619C10.5758 19.6451 9.76899 19.467 8.9217 19.467C5.56089 19.467 2.81494 22.2301 2.81494 25.6119V52.4191C2.81494 55.8009 5.56089 58.564 8.9217 58.564C12.2839 58.564 15.0285 55.8009 15.0285 52.4191V41.5175H15.0555C15.2325 44.7471 17.8974 47.3606 21.1622 47.3606C24.4271 47.3606 27.0771 44.762 27.269 41.5175H39.5095C40.2744 44.3079 42.7879 46.3707 45.8082 46.3707C48.746 46.3707 51.219 44.4044 52.0379 41.7106C53.8825 45.2162 57.5298 47.6231 61.7244 47.6231C65.9866 47.6231 69.7028 45.121 71.5055 41.5189H73.7325V41.5053C80.2514 41.2837 85.4839 35.9083 85.4839 29.2956Z" fill="white"/>
<path d="M8.92162 61.3965C4.0027 61.3965 0 57.3688 0 52.4191V25.6119C0 20.6622 4.0027 16.6345 8.92162 16.6345H9.01757C11.3527 6.95676 19.9473 0 30.1243 0C37.0649 0 43.4595 3.27169 47.5581 8.84009C47.8851 8.81289 48.1865 8.79793 48.4054 8.74354C55.8378 6.99755 61.5622 9.54175 65.4689 16.319C67.7378 14.9714 70.4284 14.2575 73.3392 14.2575C81.5919 14.2575 88.2986 21.0076 88.2986 29.3106C88.2986 37.3525 82.123 43.8836 74.1851 44.3228C74.0351 44.35 73.8851 44.3636 73.7351 44.3636H73.1203C70.5797 48.1711 66.3568 50.4678 61.7257 50.4678C58.1324 50.4678 54.7581 49.0658 52.2446 46.6318C50.55 48.254 48.2824 49.2168 45.8095 49.2168C42.3811 49.2168 39.2662 47.3062 37.6392 44.3636H29.5243C28.2405 47.7862 24.9743 50.2067 21.1635 50.2067C19.9878 50.2067 18.8676 49.9728 17.8432 49.5608V52.4341C17.8432 57.3688 13.8392 61.3965 8.92162 61.3965ZM8.92162 22.2994C7.10541 22.2994 5.64324 23.783 5.64324 25.5983V52.4055C5.64324 54.2344 7.11892 55.7044 8.92162 55.7044C10.7392 55.7044 12.2014 54.2195 12.2014 52.4055V41.5039C12.2014 39.9361 13.4581 38.6715 15.0162 38.6715C16.5054 38.6715 17.7757 39.8545 17.8568 41.353C17.9527 43.1262 19.4014 44.5146 21.15 44.5146C22.8986 44.5146 24.3338 43.1262 24.4432 41.353C24.5257 39.8545 25.7554 38.6715 27.2581 38.6715H39.4986C40.7689 38.6715 41.8757 39.5241 42.2176 40.7615C42.6689 42.3973 44.1297 43.5382 45.7973 43.5382C47.423 43.5382 48.8446 42.4667 49.3351 40.8852C49.677 39.7852 50.6338 39.0019 51.7676 38.9054C52.9013 38.7966 53.9946 39.3867 54.5135 40.4039C55.9351 43.1112 58.6946 44.8028 61.7 44.8028C64.7743 44.8028 67.5608 43.0568 68.9676 40.2516C69.4459 39.2902 70.4162 38.6851 71.4811 38.6851H73.3797C73.4622 38.6715 73.5432 38.6715 73.6257 38.6715C78.6797 38.5069 82.6568 34.3963 82.6568 29.3092C82.6568 24.1406 78.4757 19.9334 73.3392 19.9334C70.5649 19.9334 68.2297 20.854 66.604 22.5999C66.0716 23.1765 65.3054 23.5355 64.5419 23.4933C63.7622 23.4933 63.0122 23.1643 62.4932 22.5863C62.0689 22.1322 61.8365 21.6236 61.4689 20.854C59.4324 16.4822 56.6054 12.6475 49.7054 14.2684C49.0095 14.433 48.3662 14.4751 47.8068 14.5159C47.4378 14.5431 47.0959 14.5717 46.8635 14.6261C45.6892 14.9143 44.4459 14.4058 43.8041 13.3614C40.8392 8.55045 35.7297 5.69078 30.1284 5.69078C21.823 5.69078 14.9365 11.9595 14.1027 20.2638C14.0068 21.1572 13.5014 21.9676 12.7365 22.4218C11.9581 22.876 11.0149 22.944 10.1959 22.5863C9.79595 22.3946 9.35811 22.2994 8.92162 22.2994Z" fill="#4C2F1B"/>
<path d="M22.188 82.8977C22.188 83.6443 22.5839 84.3337 23.2258 84.7076C23.8677 85.0802 24.6596 85.0802 25.3029 84.7076C25.9447 84.3351 26.3407 83.6456 26.3407 82.8977C26.3407 82.1512 25.9447 81.4618 25.3029 81.0878C24.661 80.7153 23.8691 80.7153 23.2258 81.0878C22.5826 81.4618 22.188 82.1512 22.188 82.8977Z" fill="#F7D5A4"/>
<path d="M54.1025 80.5888C54.1025 81.3353 54.4985 82.0247 55.1404 82.3987C55.7823 82.7713 56.5742 82.7713 57.2174 82.3987C57.8593 82.0261 58.2566 81.3353 58.2566 80.5888C58.2566 79.8423 57.8606 79.1528 57.2174 78.7789C56.5755 78.4063 55.7836 78.4063 55.1404 78.7789C54.4971 79.1515 54.1025 79.8423 54.1025 80.5888Z" fill="#F7D5A4"/>
<path d="M39.5527 82.8977C39.5527 83.6443 39.9487 84.3337 40.5906 84.7076C41.2325 85.0802 42.0244 85.0802 42.6676 84.7076C43.3095 84.3351 43.7068 83.6456 43.7068 82.8977C43.7068 82.1512 43.3108 81.4618 42.6676 81.0878C42.0257 80.7153 41.2338 80.7153 40.5906 81.0878C39.9473 81.4618 39.5527 82.1512 39.5527 82.8977Z" fill="#F7D5A4"/>
<path d="M47.1069 64.1188C47.1069 64.8654 47.5029 65.5548 48.1461 65.9287C48.788 66.3013 49.5799 66.3013 50.2218 65.9287C50.865 65.5562 51.261 64.8654 51.261 64.1188C51.261 63.3723 50.865 62.6829 50.2218 62.3089C49.5799 61.9364 48.788 61.9364 48.1461 62.3089C47.5029 62.6829 47.1069 63.3723 47.1069 64.1188Z" fill="#F7D5A4"/>
<path d="M28.946 66.8208C29.1636 67.2328 29.5825 67.498 30.046 67.5129C30.5096 67.5292 30.946 67.2967 31.192 66.901C31.4379 66.5053 31.4555 66.0076 31.2379 65.5956C31.0217 65.1836 30.6014 64.9198 30.1379 64.9035C29.6744 64.8871 29.2379 65.1197 28.992 65.5154C28.746 65.9097 28.7298 66.4088 28.946 66.8208Z" fill="#F7D5A4"/>
<path d="M34.0556 54.9171C34.2083 55.208 34.5056 55.3943 34.8326 55.4052C35.1583 55.4175 35.4677 55.2516 35.6407 54.9742C35.8137 54.6954 35.8258 54.3432 35.6731 54.0536C35.5204 53.7626 35.2245 53.5763 34.8975 53.5654C34.5704 53.5545 34.2623 53.7191 34.0894 53.9978C33.915 54.2752 33.9029 54.6261 34.0556 54.9171Z" fill="#F7D5A4"/>
<path d="M47.6728 55.8608C47.9593 56.4033 48.6295 56.6114 49.1687 56.3231C49.7093 56.0348 49.9133 55.3604 49.6282 54.8178C49.3417 54.2752 48.6714 54.0685 48.1322 54.3555C47.5917 54.6451 47.3863 55.3182 47.6728 55.8608Z" fill="#F7D5A4"/>
<path d="M63.8501 59.0889C64.0353 59.4411 64.3934 59.6655 64.788 59.6804C65.1826 59.694 65.5555 59.4955 65.7663 59.1583C65.9758 58.821 65.9907 58.3968 65.8055 58.0446C65.6204 57.6924 65.2636 57.468 64.8677 57.4531C64.4731 57.4395 64.1001 57.638 63.8907 57.9752C63.6799 58.3125 63.665 58.7367 63.8501 59.0889Z" fill="#F7D5A4"/>
<path d="M17.7812 66.0171C18.0677 66.5597 18.7366 66.7664 19.2772 66.4795C19.8163 66.1912 20.0217 65.5167 19.7353 64.9742C19.4488 64.4302 18.7785 64.2249 18.2393 64.5118C17.7001 64.8001 17.4947 65.4746 17.7812 66.0171Z" fill="#F7D5A4"/>
</svg>
