<svg width="24" height="24" viewBox="0 0 24 24" fill="none" xmlns="http://www.w3.org/2000/svg">
<path d="M20.5689 18.9868C21.0579 18.9868 21.4578 18.5868 21.4578 18.0979V3.04015C21.4578 2.09793 20.6844 1.3335 19.7423 1.3335H7.72453V17.207H5.94675V1.3335H5.27119C3.76902 1.3335 2.54224 2.56017 2.54224 4.06239V19.9379C2.54224 19.948 2.54766 19.9563 2.5481 19.9663C2.56447 21.4737 3.7915 22.6666 5.27509 22.6666H20.5659C21.0572 22.6666 21.4548 22.2686 21.4548 21.7777C21.4548 21.2868 21.0572 20.8888 20.5659 20.8888H5.27509C4.79075 20.8888 4.32284 20.4946 4.32284 19.937C4.32284 19.4162 4.74552 18.9868 5.27119 18.9868C9.09562 18.9868 20.4462 18.9868 20.5689 18.9868ZM13.6796 5.65292C14.1507 5.64269 14.5867 6.02657 14.5867 6.54237C14.5867 7.0334 14.2024 7.43126 13.6978 7.43126C13.1842 7.43126 12.8089 7.02354 12.8089 6.54237C12.8089 6.08759 13.1668 5.66404 13.6796 5.65292ZM12.8089 9.94683C12.8089 9.44906 13.2089 9.05794 13.6978 9.05794C14.1868 9.05794 14.5867 9.44906 14.5867 9.94683V13.4668C14.5867 13.9557 14.1868 14.3557 13.6978 14.3557C13.2089 14.3557 12.8089 13.9557 12.8089 13.4668V9.94683Z" fill="#50429B"/>
</svg>