<svg width="28" height="28" viewBox="0 0 28 28" fill="none" xmlns="http://www.w3.org/2000/svg">
<path fill-rule="evenodd" clip-rule="evenodd" d="M23.7682 8.22187L23.5833 8L21.4494 5.43926C20.8596 4.73152 20.5647 4.37764 20.1616 4.18882C19.7584 4 19.2978 4 18.3765 4H9.6235C8.70222 4 8.24158 4 7.83844 4.18882C7.4353 4.37764 7.1404 4.73152 6.55061 5.43926L4.41667 8L4.23178 8.22187C4.11708 8.35951 4.05973 8.42833 4.02986 8.51081C4 8.5933 4 8.68288 4 8.86205V10V20C4 21.8856 4 22.8284 4.58579 23.4142C5.17157 24 6.11438 24 8 24H20C21.8856 24 22.8284 24 23.4142 23.4142C24 22.8284 24 21.8856 24 20V10V8.86205C24 8.68288 24 8.5933 23.9701 8.51081C23.9403 8.42833 23.8829 8.35951 23.7682 8.22187ZM20.9799 8H7.02008L8.08706 6.71963C8.40285 6.34068 8.56297 6.15107 8.68828 6.02404L8.69489 6.01738L8.70424 6.01657C8.88204 6.00162 9.13021 6 9.6235 6H18.3765C18.8698 6 19.118 6.00162 19.2958 6.01657L19.3051 6.01738L19.3117 6.02404C19.437 6.15107 19.5971 6.34068 19.9129 6.71963L20.9799 8ZM10.6666 12.2308C11.2189 12.2308 11.6666 12.6785 11.6666 13.2308C11.6666 13.8121 11.9046 14.3763 12.3389 14.7972C12.7743 15.2192 13.3712 15.4615 14 15.4615C14.6287 15.4615 15.2257 15.2192 15.661 14.7972C16.0953 14.3763 16.3333 13.8121 16.3333 13.2308C16.3333 12.6785 16.781 12.2308 17.3333 12.2308C17.8856 12.2308 18.3333 12.6785 18.3333 13.2308C18.3333 14.3631 17.8689 15.4425 17.053 16.2333C16.2381 17.0232 15.1393 17.4615 14 17.4615C12.8606 17.4615 11.7618 17.0232 10.947 16.2333C10.131 15.4425 9.66663 14.3631 9.66663 13.2308C9.66663 12.6785 10.1143 12.2308 10.6666 12.2308Z" fill="#A5ABDE"/>
</svg>
