<svg width="32" height="30" viewBox="0 0 32 30" fill="none" xmlns="http://www.w3.org/2000/svg">
<path d="M5 12H23V22C23 22.9711 22.9979 23.5988 22.9357 24.0613C22.8774 24.495 22.7832 24.631 22.7071 24.7071C22.631 24.7832 22.495 24.8774 22.0613 24.9357C21.5988 24.9979 20.9711 25 20 25H8C7.02892 25 6.40121 24.9979 5.9387 24.9357C5.50496 24.8774 5.36902 24.7832 5.29289 24.7071L4.61066 25.3893L5.29289 24.7071C5.21677 24.631 5.12262 24.495 5.06431 24.0613C5.00212 23.5988 5 22.9711 5 22V12Z" stroke="#A5ABDE" stroke-width="2"/>
<path fill-rule="evenodd" clip-rule="evenodd" d="M23.7682 10.2219L23.5833 10L21.4494 7.43926C20.8596 6.73152 20.5647 6.37764 20.1616 6.18882C19.7584 6 19.2978 6 18.3765 6H9.6235C8.70222 6 8.24158 6 7.83844 6.18882C7.4353 6.37764 7.1404 6.73152 6.55061 7.43926L4.41667 10L4.23178 10.2219C4.11708 10.3595 4.05973 10.4283 4.02986 10.5108C4 10.5933 4 10.6829 4 10.8621V12H6H22H24V10.8621C24 10.6829 24 10.5933 23.9701 10.5108C23.9403 10.4283 23.8829 10.3595 23.7682 10.2219ZM20.9799 10H7.02008L8.08706 8.71963C8.40285 8.34068 8.56297 8.15107 8.68828 8.02404L8.69489 8.01738L8.70424 8.01657C8.88204 8.00162 9.13021 8 9.6235 8H18.3765C18.8698 8 19.118 8.00162 19.2958 8.01657L19.3051 8.01738L19.3117 8.02404C19.437 8.15107 19.5971 8.34068 19.9129 8.71963L20.9799 10ZM11.6666 15.2308C11.6666 14.6785 11.2189 14.2308 10.6666 14.2308C10.1143 14.2308 9.66663 14.6785 9.66663 15.2308C9.66663 16.3631 10.131 17.4425 10.947 18.2333C11.7618 19.0232 12.8606 19.4615 14 19.4615C15.1393 19.4615 16.2381 19.0232 17.053 18.2333C17.8689 17.4425 18.3333 16.3631 18.3333 15.2308C18.3333 14.6785 17.8856 14.2308 17.3333 14.2308C16.781 14.2308 16.3333 14.6785 16.3333 15.2308C16.3333 15.8121 16.0953 16.3763 15.661 16.7972C15.2257 17.2192 14.6287 17.4615 14 17.4615C13.3712 17.4615 12.7743 17.2192 12.3389 16.7972C11.9046 16.3763 11.6666 15.8121 11.6666 15.2308Z" fill="#A5ABDE"/>
<rect x="6" y="12" width="16" height="1" fill="white"/>
</svg>
