<svg width="20" height="22" viewBox="0 0 20 22" fill="none" xmlns="http://www.w3.org/2000/svg">
<path fill-rule="evenodd" clip-rule="evenodd" d="M2.00001 11.0503H1.00001V16.9956L1 17.0614V17.0614C0.999953 17.9479 0.99991 18.7117 1.08215 19.3234C1.17028 19.9789 1.36902 20.6073 1.87869 21.1169C2.38835 21.6266 3.0167 21.8253 3.67221 21.9135C4.28387 21.9957 5.04769 21.9956 5.93417 21.9956L6.00001 21.9956H14L14.0658 21.9956C14.9523 21.9956 15.7161 21.9957 16.3278 21.9135C16.9833 21.8253 17.6117 21.6266 18.1213 21.1169C18.631 20.6073 18.8297 19.9789 18.9179 19.3234C19.0001 18.7117 19.0001 17.9479 19 17.0614L19 16.9956V11.0503H18H17H3.00001H2.00001ZM6 16.0001C6 14.8956 6.89543 14.0001 8 14.0001H12C13.1046 14.0001 14 14.8956 14 16.0001V21.0001V22.0001H12V21.0001V16.0001H8V21.0001V22.0001H6V21.0001V16.0001Z" fill="#50429B"/>
<path d="M1.87536 1.56802C2.04163 0.816351 2.12477 0.440518 2.39908 0.220259C2.67339 0 3.05831 0 3.82815 0H16.1719C16.9417 0 17.3266 0 17.6009 0.220259C17.8752 0.440518 17.9584 0.81635 18.1246 1.56802L19.5977 8.22718C19.719 8.77538 19.7796 9.04947 19.7293 9.26898C19.661 9.56729 19.4598 9.81786 19.1833 9.94904C18.9798 10.0456 18.6991 10.0456 18.1376 10.0456C17.3297 10.0456 16.9257 10.0456 16.5911 9.92238C16.1366 9.75501 15.7582 9.42836 15.5263 9.0031C15.3557 8.69009 15.2967 8.29043 15.1788 7.49113L15.1567 7.3407C15.1139 7.05067 15.0925 6.90566 15.0559 6.88099C15.0221 6.8582 14.9779 6.8582 14.9441 6.88099C14.9075 6.90566 14.8861 7.05067 14.8433 7.34071L14.7281 8.12194C14.6982 8.32484 14.6833 8.42629 14.6622 8.51368C14.4615 9.34754 13.7514 9.96058 12.8972 10.0375C12.8076 10.0456 12.7051 10.0456 12.5 10.0456C12.2949 10.0456 12.1924 10.0456 12.1028 10.0375C11.2486 9.96058 10.5385 9.34754 10.3378 8.51368C10.3168 8.42629 10.3018 8.32484 10.2719 8.12194L10.1567 7.3407C10.1139 7.05067 10.0925 6.90566 10.0559 6.88099C10.0221 6.8582 9.97788 6.8582 9.94409 6.88099C9.90751 6.90566 9.88612 7.05067 9.84335 7.34071L9.72814 8.12194C9.69821 8.32484 9.68325 8.42629 9.66221 8.51368C9.46147 9.34754 8.75139 9.96058 7.89716 10.0375C7.80764 10.0456 7.7051 10.0456 7.5 10.0456C7.2949 10.0456 7.19236 10.0456 7.10284 10.0375C6.24861 9.96058 5.53853 9.34754 5.33779 8.51368C5.31675 8.42629 5.30179 8.32484 5.27187 8.12194L5.15665 7.3407C5.11388 7.05067 5.09249 6.90566 5.05591 6.88099C5.02212 6.8582 4.97788 6.8582 4.94409 6.88099C4.90751 6.90566 4.88612 7.05067 4.84335 7.34071L4.82117 7.49113C4.70329 8.29043 4.64435 8.69009 4.47366 9.0031C4.24176 9.42836 3.8634 9.75501 3.40886 9.92238C3.07429 10.0456 2.67031 10.0456 1.86236 10.0456C1.30091 10.0456 1.02019 10.0456 0.816724 9.94904C0.540232 9.81786 0.339034 9.56729 0.270664 9.26898C0.220352 9.04947 0.280987 8.77538 0.402255 8.22718L1.87536 1.56802Z" fill="#50429B"/>
</svg>
