<svg width="20" height="20" viewBox="0 0 20 20" fill="none" xmlns="http://www.w3.org/2000/svg">
<path fill-rule="evenodd" clip-rule="evenodd" d="M5.00002 0C5.5523 0 6.00002 0.447715 6.00002 1L6.00001 3.01522H14L14 1C14 0.447715 14.4477 0 15 0C15.5523 0 16 0.447715 16 1L16 3.01522C17.8856 3.01522 18.8284 3.01522 19.4142 3.601C20 4.18679 20 5.13972 20 7.04559C20 7.52206 20 7.76029 19.8536 7.90674C19.7071 8.05318 19.4714 8.05318 19 8.05318H1C0.528596 8.05318 0.292893 8.05318 0.146447 7.90674C0 7.76029 0 7.52206 0 7.04559C0 5.13972 0 4.18679 0.585786 3.601C1.17157 3.01522 2.11438 3.01522 4 3.01522H4.00001L4.00002 1C4.00002 0.447715 4.44773 0 5.00002 0ZM0.585786 19.4146C0 18.8288 0 17.886 0 16.0004V10.2047C0 9.73334 0 9.49763 0.146447 9.35119C0.292893 9.20474 0.528596 9.20474 1 9.20474H19C19.4714 9.20474 19.7071 9.20474 19.8536 9.35119C20 9.49763 20 9.73334 20 10.2047V16.0004C20 17.886 20 18.8288 19.4142 19.4146C18.8284 20.0004 17.8856 20.0004 16 20.0004H4C2.11438 20.0004 1.17157 20.0004 0.585786 19.4146ZM5.14645 11.5102C5 11.6567 5 11.8924 5 12.3638V12.5236C5 12.995 5 13.2307 5.14645 13.3772C5.29289 13.5236 5.5286 13.5236 6 13.5236H8C8.4714 13.5236 8.70711 13.5236 8.85355 13.3772C9 13.2307 9 12.995 9 12.5236V12.3638C9 11.8924 9 11.6567 8.85355 11.5102C8.70711 11.3638 8.4714 11.3638 8 11.3638H6C5.5286 11.3638 5.29289 11.3638 5.14645 11.5102ZM5 16.6817C5 16.2103 5 15.9745 5.14645 15.8281C5.29289 15.6817 5.5286 15.6817 6 15.6817H8C8.47141 15.6817 8.70711 15.6817 8.85355 15.8281C9 15.9745 9 16.2103 9 16.6817V16.8415C9 17.3129 9 17.5486 8.85355 17.695C8.70711 17.8415 8.4714 17.8415 8 17.8415H6C5.5286 17.8415 5.29289 17.8415 5.14645 17.695C5 17.5486 5 17.3129 5 16.8415V16.6817ZM11.1464 11.5102C11 11.6567 11 11.8924 11 12.3638V12.5236C11 12.995 11 13.2307 11.1464 13.3772C11.2929 13.5236 11.5286 13.5236 12 13.5236H14C14.4714 13.5236 14.7071 13.5236 14.8536 13.3772C15 13.2307 15 12.995 15 12.5236V12.3638C15 11.8924 15 11.6567 14.8536 11.5102C14.7071 11.3638 14.4714 11.3638 14 11.3638H12C11.5286 11.3638 11.2929 11.3638 11.1464 11.5102ZM11 16.6817C11 16.2103 11 15.9745 11.1464 15.8281C11.2929 15.6817 11.5286 15.6817 12 15.6817H14C14.4714 15.6817 14.7071 15.6817 14.8536 15.8281C15 15.9745 15 16.2103 15 16.6817V16.8415C15 17.3129 15 17.5486 14.8536 17.695C14.7071 17.8415 14.4714 17.8415 14 17.8415H12C11.5286 17.8415 11.2929 17.8415 11.1464 17.695C11 17.5486 11 17.3129 11 16.8415V16.6817Z" fill="#50429B"/>
</svg>
