<svg width="29" height="28" viewBox="0 0 29 28" fill="none" xmlns="http://www.w3.org/2000/svg">
<path fill-rule="evenodd" clip-rule="evenodd" d="M7.25002 0.399971C7.80231 0.399971 8.25002 0.847687 8.25002 1.39997V4.22122H20.25V1.39997C20.25 0.847686 20.6977 0.399971 21.25 0.399971C21.8023 0.399971 22.25 0.847687 22.25 1.39997V4.22122H24.25C26.1356 4.22122 27.0784 4.22122 27.6642 4.80701C28.25 5.39279 28.25 6.3356 28.25 8.22122V10.2742C28.25 10.7456 28.25 10.9813 28.1036 11.1278C27.9571 11.2742 27.7214 11.2742 27.25 11.2742H1.25C0.778595 11.2742 0.542893 11.2742 0.396447 11.1278C0.25 10.9813 0.25 10.7456 0.25 10.2742V8.22122C0.25 6.3356 0.25 5.39279 0.835786 4.80701C1.42157 4.22122 2.36438 4.22122 4.25 4.22122H6.25002L6.25002 1.39997C6.25002 0.847686 6.69774 0.399971 7.25002 0.399971ZM0.835786 27.4142C0.25 26.8284 0.25 25.8856 0.25 24V13.8864C0.25 13.415 0.25 13.1793 0.396447 13.0328C0.542893 12.8864 0.778595 12.8864 1.25 12.8864H27.25C27.7214 12.8864 27.9571 12.8864 28.1036 13.0328C28.25 13.1793 28.25 13.415 28.25 13.8864V24C28.25 25.8856 28.25 26.8284 27.6642 27.4142C27.0784 28 26.1356 28 24.25 28H4.25C2.36438 28 1.42157 28 0.835786 27.4142ZM7.39645 16.0554C7.25 16.2019 7.25 16.4376 7.25 16.909V17.9327C7.25 18.4041 7.25 18.6398 7.39645 18.7862C7.54289 18.9327 7.7786 18.9327 8.25 18.9327H11.85C12.3214 18.9327 12.5571 18.9327 12.7036 18.7862C12.85 18.6398 12.85 18.4041 12.85 17.9327V16.909C12.85 16.4376 12.85 16.2019 12.7036 16.0554C12.5571 15.909 12.3214 15.909 11.85 15.909H8.25C7.7786 15.909 7.54289 15.909 7.39645 16.0554ZM7.25 22.9543C7.25 22.4829 7.25 22.2472 7.39645 22.1008C7.54289 21.9543 7.7786 21.9543 8.25 21.9543H11.85C12.3214 21.9543 12.5571 21.9543 12.7036 22.1008C12.85 22.2472 12.85 22.4829 12.85 22.9543V23.978C12.85 24.4494 12.85 24.6851 12.7036 24.8316C12.5571 24.978 12.3214 24.978 11.85 24.978H8.25C7.7786 24.978 7.54289 24.978 7.39645 24.8316C7.25 24.6851 7.25 24.4494 7.25 23.978V22.9543ZM15.7964 16.0554C15.65 16.2019 15.65 16.4376 15.65 16.909V17.9327C15.65 18.4041 15.65 18.6398 15.7964 18.7862C15.9429 18.9327 16.1786 18.9327 16.65 18.9327H20.25C20.7214 18.9327 20.9571 18.9327 21.1036 18.7862C21.25 18.6398 21.25 18.4041 21.25 17.9327V16.909C21.25 16.4376 21.25 16.2019 21.1036 16.0554C20.9571 15.909 20.7214 15.909 20.25 15.909H16.65C16.1786 15.909 15.9429 15.909 15.7964 16.0554ZM15.65 22.9543C15.65 22.4829 15.65 22.2472 15.7964 22.1008C15.9429 21.9543 16.1786 21.9543 16.65 21.9543H20.25C20.7214 21.9543 20.9571 21.9543 21.1036 22.1008C21.25 22.2472 21.25 22.4829 21.25 22.9543V23.978C21.25 24.4494 21.25 24.6851 21.1036 24.8316C20.9571 24.978 20.7214 24.978 20.25 24.978H16.65C16.1786 24.978 15.9429 24.978 15.7964 24.8316C15.65 24.6851 15.65 24.4494 15.65 23.978V22.9543Z" fill="#A5ABDE"/>
</svg>
