<svg width="64" height="64" viewBox="0 0 64 64" fill="none" xmlns="http://www.w3.org/2000/svg">
<circle cx="32" cy="32" r="31" fill="#F7F5FF" stroke="#50429B" stroke-width="2"/>
<path d="M39.4667 23.0799L31.9333 19.0265C31.1333 18.5999 30.1867 18.5999 29.3867 19.0265L21.8667 23.0799C21.32 23.3865 20.9733 23.9732 20.9733 24.6132C20.9733 25.2665 21.3067 25.8532 21.8667 26.1465L29.4 30.1999C29.8 30.4132 30.24 30.5199 30.6667 30.5199C31.0933 30.5199 31.5467 30.4132 31.9333 30.1999L39.4667 26.1465C40.0133 25.8532 40.36 25.2665 40.36 24.6132C40.36 23.9732 40.0133 23.3865 39.4667 23.0799Z" fill="#50429B"/>
<path d="M28.16 31.6135L21.16 28.1201C20.6133 27.8401 20 27.8801 19.48 28.1868C18.9733 28.5068 18.6667 29.0535 18.6667 29.6535V36.2668C18.6667 37.4135 19.3067 38.4401 20.3333 38.9601L27.3333 42.4535C27.5733 42.5735 27.84 42.6401 28.1067 42.6401C28.4133 42.6401 28.7333 42.5468 29.0133 42.3868C29.52 42.0668 29.8267 41.5201 29.8267 40.9201V34.3068C29.8133 33.1601 29.1733 32.1335 28.16 31.6135Z" fill="#50429B"/>
<path d="M42.6667 29.6535V32.9335C42.0267 32.7468 41.3467 32.6668 40.6667 32.6668C38.8533 32.6668 37.08 33.2935 35.68 34.4135C33.76 35.9201 32.6667 38.2001 32.6667 40.6668C32.6667 41.3201 32.7467 41.9735 32.92 42.6001C32.72 42.5735 32.52 42.4935 32.3333 42.3735C31.8267 42.0668 31.52 41.5201 31.52 40.9201V34.3068C31.52 33.1601 32.16 32.1335 33.1733 31.6135L40.1733 28.1201C40.72 27.8401 41.3333 27.8801 41.8533 28.1868C42.36 28.5068 42.6667 29.0535 42.6667 29.6535Z" fill="#50429B"/>
<path d="M46.1067 44.6665L44.9867 43.5465C45.5733 42.6665 45.92 41.5998 45.92 40.4665C45.92 37.3598 43.4 34.8398 40.2933 34.8398C37.1867 34.8398 34.6667 37.3598 34.6667 40.4665C34.6667 43.5732 37.1867 46.0932 40.2933 46.0932C41.4267 46.0932 42.4933 45.7465 43.3733 45.1598L44.4933 46.2798C44.72 46.5065 45 46.6132 45.2933 46.6132C45.5867 46.6132 45.88 46.5065 46.0933 46.2798C46.5467 45.8265 46.5467 45.1065 46.1067 44.6665Z" fill="#50429B"/>
</svg>
