<svg width="28" height="28" viewBox="0 0 28 28" fill="none" xmlns="http://www.w3.org/2000/svg">
<path fill-rule="evenodd" clip-rule="evenodd" d="M24 14C24 19.5228 19.5228 24 14 24C8.47715 24 4 19.5228 4 14C4 8.47715 8.47715 4 14 4C19.5228 4 24 8.47715 24 14ZM10.2929 17.7071C9.90236 17.3166 9.90236 16.6834 10.2929 16.2929L12.5858 14L10.2929 11.7071C9.90236 11.3166 9.90237 10.6834 10.2929 10.2929C10.6834 9.90237 11.3166 9.90236 11.7071 10.2929L14 12.5858L16.2929 10.2929C16.6834 9.90236 17.3166 9.90237 17.7071 10.2929C18.0976 10.6834 18.0976 11.3166 17.7071 11.7071L15.4142 14L17.7071 16.2929C18.0976 16.6834 18.0976 17.3166 17.7071 17.7071C17.3166 18.0976 16.6834 18.0976 16.2929 17.7071L14 15.4142L11.7071 17.7071C11.3166 18.0976 10.6834 18.0976 10.2929 17.7071Z" fill="#A5ABDE"/>
</svg>
