<svg width="333" height="56" viewBox="0 0 333 56" fill="none" xmlns="http://www.w3.org/2000/svg">
<path d="M330.589 55.9935C332.104 53.8514 333 51.2405 333 48.4083C333 41.1812 327.199 35.3215 320.044 35.3215C318.284 35.3215 316.608 35.6796 315.081 36.3242C313.102 34.1691 310.337 32.7692 307.243 32.5934C307.443 31.5256 307.552 30.4318 307.552 29.3054C307.552 19.6107 299.772 11.7456 290.168 11.7456C283.432 11.7456 277.592 15.6196 274.705 21.284C272.294 19.3764 269.264 18.237 265.964 18.237C260.079 18.237 255.039 21.857 252.886 27.0071C251.023 27.248 249.296 27.9251 247.813 28.9473C247.078 22.9117 241.999 18.237 235.824 18.237C235.089 18.237 234.374 18.3151 233.671 18.4388C231.95 13.3994 227.225 9.77282 221.656 9.77282C214.901 9.77282 209.396 15.0922 208.977 21.8114C206.792 19.6042 203.769 18.237 200.437 18.237C195.88 18.237 191.916 20.7892 189.859 24.546C188.57 24.0511 187.184 23.7712 185.721 23.7712C183.291 23.7712 181.035 24.5264 179.166 25.8091C177.445 18.1197 170.645 12.3772 162.51 12.3772C154.659 12.3772 148.052 17.7226 146.054 25.0083C145.184 24.572 144.256 24.2269 143.282 24.0186C139.234 20.5874 134.02 18.5169 128.322 18.5169C117.77 18.5169 108.862 25.6073 106 35.328C105.523 36.0637 105.117 36.845 104.788 37.6719C104.801 37.457 104.821 37.2422 104.821 37.0273C104.821 31.4345 100.328 26.8964 94.7911 26.8964C92.0581 26.8964 89.5829 28.0033 87.7781 29.7937C87.9651 28.8562 88.0682 27.8926 88.0682 26.8964C88.0682 18.875 81.6289 12.3707 73.6877 12.3707C69.6656 12.3707 66.0366 14.0374 63.4261 16.7264C63.9353 15.3722 64.2189 13.9072 64.2189 12.3707C64.2189 5.54075 58.7336 0 51.972 0C45.2104 0 39.7251 5.54075 39.7251 12.3707C39.7251 12.3772 39.7251 12.3837 39.7251 12.3902C37.4562 10.7429 34.6781 9.7663 31.6679 9.7663C24.0168 9.7663 17.8096 16.0363 17.8096 23.7647C17.8096 24.1228 17.8354 24.4678 17.8612 24.8194C10.5904 25.5682 4.9181 31.773 4.9181 39.3126C4.9181 40.8036 5.13726 42.2425 5.54979 43.5968C2.27535 45.1594 0 48.519 0 52.419C0 53.6886 0.244939 54.8932 0.68325 56H330.589V55.9935Z" fill="white"/>
</svg>
