<svg width="81" height="81" viewBox="0 0 81 81" fill="none" xmlns="http://www.w3.org/2000/svg">
<path d="M73.9125 40.5C73.9125 40.1287 73.71 39.7575 73.6087 39.3862C73.4525 38.7313 73.2495 38.0884 73.0012 37.4625C72.8325 37.0575 72.5963 36.6525 72.3938 36.2137C72.1913 35.775 71.8875 35.2012 71.5837 34.7287C71.28 34.2562 70.875 34.02 70.875 33.75C70.875 33.48 70.2 32.9062 69.8288 32.5012C69.4575 32.0962 69.12 31.8262 68.7488 31.4887L67.5 30.375L66.285 29.565C65.808 29.2731 65.3119 29.0138 64.8 28.7887L63.4837 28.1812C62.9325 27.9771 62.3689 27.808 61.7962 27.675C61.3427 27.5416 60.8803 27.4401 60.4125 27.3712L59.6362 27C58.2591 23.021 55.6759 19.5703 52.2461 17.128C48.8163 14.6857 44.7105 13.3732 40.5 13.3732C36.2895 13.3732 32.1837 14.6857 28.7539 17.128C25.3241 19.5703 22.7409 23.021 21.3637 27L20.7563 27.1687C20.2885 27.2376 19.8261 27.3391 19.3725 27.4725C18.7999 27.6055 18.2363 27.7746 17.685 27.9787L16.3687 28.5862C15.8568 28.8113 15.3607 29.0706 14.8837 29.3625L13.6688 30.375L12.42 31.4212C12.0488 31.7587 11.6775 32.0625 11.34 32.4337C11.0025 32.805 10.6312 33.2775 10.2937 33.6825C9.95625 34.0875 9.68625 34.4587 9.41625 34.8975C9.14625 35.3362 8.87625 35.8762 8.60625 36.3825C8.33625 36.8887 8.1675 37.2262 7.99875 37.6312C7.75049 38.2571 7.54747 38.9 7.39125 39.555C7.39125 39.9262 7.155 40.2975 7.0875 40.6687C6.87743 41.725 6.76446 42.7982 6.75 43.875C6.76582 44.9054 6.86742 45.9327 7.05375 46.9462C7.05375 47.2837 7.2225 47.5875 7.29 47.925C7.45682 48.588 7.65962 49.2415 7.8975 49.8825L8.3025 50.8612C8.59959 51.5121 8.93778 52.1433 9.315 52.7512L9.7875 53.4937C9.83606 53.5883 9.89251 53.6787 9.95625 53.7637L10.125 54C11.6969 56.0958 13.7351 57.7969 16.0783 58.9685C18.4215 60.14 21.0052 60.75 23.625 60.75H33.75V56.1262C32.7245 56.7211 31.5605 57.0354 30.375 57.0375C28.5466 57.0204 26.7993 56.2802 25.515 54.9787C24.8984 54.3408 24.4135 53.5876 24.0882 52.7622C23.7629 51.9367 23.6036 51.0552 23.6193 50.1681C23.6349 49.281 23.8253 48.4057 24.1796 47.5923C24.5338 46.7789 25.045 46.0432 25.6838 45.4275L35.8087 35.64C37.0685 34.4258 38.7504 33.7482 40.5 33.75C42.2873 33.7575 43.9987 34.4736 45.2588 35.7412L55.3838 45.8662C56.6409 47.1309 57.3466 48.8417 57.3466 50.625C57.3466 52.4082 56.6409 54.119 55.3838 55.3837C54.1237 56.6514 52.4123 57.3675 50.625 57.375C49.4378 57.3862 48.2703 57.0709 47.25 56.4637V60.75H57.375C59.9948 60.75 62.5785 60.14 64.9217 58.9685C67.2649 57.7969 69.3031 56.0958 70.875 54L71.0437 53.8312C71.1075 53.7462 71.1639 53.6558 71.2125 53.5612L71.685 52.8187C72.0622 52.2108 72.4004 51.5796 72.6975 50.9287L73.1025 49.95C73.3404 49.309 73.5432 48.6555 73.71 47.9925C73.71 47.655 73.8787 47.3512 73.9463 47.0137C74.1363 45.978 74.238 44.928 74.25 43.875C74.2461 42.7418 74.1331 41.6116 73.9125 40.5Z" fill="#50429B"/>
<path d="M42.8963 38.1038C42.2654 37.4854 41.4172 37.139 40.5338 37.139C39.6504 37.139 38.8022 37.4854 38.1713 38.1038L28.0463 47.8913C27.6882 48.1868 27.3949 48.553 27.1847 48.9671C26.9746 49.3811 26.8522 49.834 26.8251 50.2975C26.798 50.761 26.8668 51.2252 27.0273 51.6609C27.1877 52.0965 27.4364 52.4944 27.7576 52.8297C28.0789 53.1649 28.4658 53.4302 28.8943 53.6091C29.3228 53.7879 29.7836 53.8764 30.2478 53.8691C30.712 53.8617 31.1698 53.7586 31.5924 53.5663C32.015 53.374 32.3933 53.0965 32.7038 52.7513L37.125 48.4651V67.5001C37.125 68.3952 37.4806 69.2536 38.1136 69.8865C38.7465 70.5195 39.6049 70.8751 40.5 70.8751C41.3952 70.8751 42.2536 70.5195 42.8865 69.8865C43.5195 69.2536 43.875 68.3952 43.875 67.5001V48.6338L48.2288 53.0213C48.5425 53.3376 48.9158 53.5887 49.3271 53.7601C49.7384 53.9314 50.1795 54.0196 50.625 54.0196C51.0706 54.0196 51.5117 53.9314 51.923 53.7601C52.3343 53.5887 52.7075 53.3376 53.0213 53.0213C53.3376 52.7076 53.5887 52.3343 53.7601 51.923C53.9314 51.5117 54.0196 51.0706 54.0196 50.6251C54.0196 50.1795 53.9314 49.7384 53.7601 49.3271C53.5887 48.9158 53.3376 48.5426 53.0213 48.2288L42.8963 38.1038Z" fill="#50429B"/>
</svg>
