<svg width="69" height="99" viewBox="0 0 69 99" fill="none" xmlns="http://www.w3.org/2000/svg">
<g clip-path="url(#clip0_397_1899)">
<path d="M55.3593 15.1394H13.6041C10.0155 15.1394 7.08447 17.9028 7.08447 21.3261V30.4741C7.08447 38.6767 7.2909 74.3571 7.36609 85.4308C7.38523 87.5168 8.92595 89.2648 11.086 89.6742C14.732 90.3516 22.8689 92.2787 34.4811 92.2787C46.0945 92.2787 54.2315 90.3529 57.8761 89.6742C60.0238 89.2823 61.581 87.5061 61.5974 85.4308C61.6726 74.3396 61.879 38.6592 61.879 30.4741V21.3261C61.879 17.9028 58.9479 15.1394 55.3593 15.1394Z" fill="#EA3B3B"/>
<path d="M45.3806 16.2975C45.3806 16.2975 44.1406 38.1057 50.7929 48.0011C56.5607 56.5781 35.7412 95.5403 35.7412 95.5403L52.3336 94.2206C52.3336 94.2206 60.5267 60.2869 53.5545 46.272C47.8605 34.8252 56.5607 15.0667 56.5607 15.0667L45.3806 16.2975Z" fill="white"/>
<path d="M23.2255 18.0456C23.2255 18.0456 16.9683 23.8767 16.9683 32.7392V85.342L1.59668 82.4345L2.3103 15.0492L23.2255 18.0456Z" fill="#F25353"/>
<path d="M53.2347 15.1394C58.0072 15.1394 61.8788 18.8118 61.8788 23.342V30.4741C61.8788 38.6767 61.6724 74.357 61.5972 85.4308C61.578 87.5168 60.0373 89.2648 57.8759 89.6742C54.2313 90.3516 46.0943 92.2787 34.4809 92.2787C22.8865 92.2787 14.7318 90.3529 11.0858 89.6742C8.93806 89.2823 7.38094 87.506 7.36591 85.4308C7.29072 74.3395 7.08428 38.6592 7.08428 30.4741V23.342C7.08428 18.8118 10.9545 15.1394 15.7284 15.1394H53.2347ZM53.2347 8.41675H15.7284C7.04601 8.41675 0 15.1219 0 23.342V30.4741C0 38.6942 0.206431 74.6425 0.281621 85.4672C0.3199 90.7098 4.28447 95.2562 9.73371 96.2729C10.1479 96.3443 10.636 96.4507 11.1815 96.5584C15.5029 97.4136 23.5646 99.0013 34.5014 99.0013C45.4368 99.0013 53.4794 97.4136 57.8213 96.5584C58.3667 96.452 58.8357 96.3632 59.2677 96.2729C64.7169 95.2562 68.6828 90.7273 68.7197 85.4672C68.7949 74.6425 69.0014 38.6767 69.0014 30.4741V23.342C68.9631 15.1219 61.8979 8.41675 53.2347 8.41675Z" fill="#4C2F1B"/>
<path d="M34.4807 17.5634C5.99317 17.5634 5.99316 12.4097 5.99316 10.4664C5.99316 8.52179 5.99317 3.36938 34.4807 3.36938C62.9682 3.36938 62.9682 8.52179 62.9682 10.4664C62.9682 12.411 62.9682 17.5634 34.4807 17.5634Z" fill="#E4F1F7"/>
<path d="M34.4806 6.72264C48.2555 6.72264 59.4164 8.39926 59.4164 10.4678C59.4164 12.5363 48.2555 14.2129 34.4806 14.2129C20.7072 14.2129 9.54483 12.5363 9.54483 10.4678C9.54483 8.39926 20.7072 6.72264 34.4806 6.72264ZM34.4806 0C27.4524 0 20.8001 0.410738 15.746 1.177C11.7623 1.7655 2.46191 3.17413 2.46191 10.4678C2.46191 17.7614 11.7814 19.1687 15.7473 19.7585C20.8015 20.5248 27.4729 20.9355 34.482 20.9355C41.4911 20.9355 48.1625 20.5248 53.2167 19.7585C57.2004 19.17 66.5021 17.7614 66.5021 10.4678C66.5021 3.17413 57.1812 1.7655 53.2167 1.177C48.1612 0.410738 41.5089 0 34.4806 0Z" fill="#4C2F1B"/>
<path d="M34.481 95.6306C23.9202 95.6306 16.0854 94.0792 11.8953 93.2591C11.3306 93.1527 10.8426 93.0449 10.4106 92.9736C6.61417 92.2787 3.85264 89.1045 3.8335 85.4483V84.8073C3.8335 83.773 4.34069 82.7913 5.20469 82.1503C5.82535 81.687 6.59503 81.4365 7.38521 81.4365C7.68597 81.4365 7.98673 81.4729 8.26835 81.5429C8.38182 81.5793 20.0882 84.414 34.4441 84.414C48.8013 84.414 60.583 81.5793 60.7142 81.5429C61.015 81.4715 61.2966 81.4365 61.5973 81.4365C62.3684 81.4365 63.1381 81.6857 63.7779 82.1503C64.6419 82.7913 65.149 83.773 65.149 84.8073V85.4133C65.149 89.0695 62.3875 92.2423 58.572 92.956C58.14 93.0274 57.6519 93.1338 57.0873 93.2415C52.8589 94.0967 45.0418 95.6306 34.481 95.6306Z" fill="#E4F1F7"/>
<path d="M7.36612 84.8249C7.36612 84.8249 19.3925 87.8024 34.425 87.8024C49.4576 87.8024 61.5783 84.8249 61.5783 84.8249V85.4309C61.5783 87.5169 60.0184 89.2649 57.857 89.6743C54.2123 90.3516 46.0754 92.2788 34.4619 92.2788C22.8498 92.2788 14.7129 90.353 11.0668 89.6743C8.91914 89.2824 7.36202 87.5061 7.34698 85.4309V84.8249H7.36612ZM7.36612 78.0847C5.80626 78.0847 4.28469 78.5668 3.02559 79.4933C1.29622 80.7592 0.262695 82.7388 0.262695 84.8249V85.4309C0.299607 90.7274 4.26555 95.2563 9.71479 96.273C10.129 96.3444 10.6171 96.4508 11.1612 96.5585C15.4839 97.4136 23.5457 99.0014 34.4811 99.0014C45.4178 99.0014 53.4604 97.4136 57.801 96.5585C58.3464 96.4521 58.8167 96.3632 59.2487 96.273C64.7171 95.2563 68.7008 90.691 68.7008 85.4309V84.8249C68.7008 82.7388 67.6864 80.7767 65.9571 79.5109C64.698 78.5843 63.1764 78.1022 61.6165 78.1022C61.015 78.1022 60.4326 78.1736 59.8502 78.3163C59.7381 78.3338 48.3503 81.0797 34.4824 81.0797C20.5203 81.0797 9.30329 78.3514 9.20896 78.3338C8.56916 78.1561 7.96764 78.0847 7.36612 78.0847Z" fill="#4C2F1B"/>
<path d="M39.5923 10.4677C39.5923 11.0199 42.7803 11.4656 46.7135 11.4656C50.6466 11.4656 53.8347 11.0185 53.8347 10.4677C53.8347 9.9156 50.6466 9.46851 46.7135 9.46851C42.7817 9.46851 39.5923 9.9156 39.5923 10.4677Z" fill="#BECFD3"/>
</g>
<defs>
<clipPath id="clip0_397_1899">
<rect width="69" height="99" fill="white"/>
</clipPath>
</defs>
</svg>
