<svg width="75" height="109" viewBox="0 0 75 109" fill="none" xmlns="http://www.w3.org/2000/svg">
<g clip-path="url(#clip0_397_1871)">
<path d="M52.7863 9.42654H45.5294C45.4778 9.42654 45.4248 9.37493 45.4248 9.32198V2.06672C45.4248 2.01376 45.4778 1.96216 45.5294 1.96216H52.7863C52.8379 1.96216 52.8909 2.01376 52.8909 2.06672V9.32198C52.8895 9.39123 52.8555 9.42654 52.7863 9.42654Z" fill="#4274C6"/>
<path d="M52.0738 11.3887H46.2414C44.7137 11.3887 43.4643 10.1381 43.4643 8.61044V2.77691C43.4643 1.24927 44.7137 0 46.2414 0H52.0738C53.6015 0 54.8508 1.24927 54.8508 2.77691V8.60909C54.8522 10.1381 53.6029 11.3887 52.0738 11.3887ZM47.3698 7.48203H50.9453V3.90532H47.3698V7.48203ZM37.4921 109C25.3913 109 19.4027 107.368 16.9204 106.397C15.1319 105.702 13.8296 104.088 13.535 102.178L2.78809 34.3549H72.1431L62.6985 102.005C62.4038 104.053 61.0146 105.737 59.07 106.415C56.2237 107.369 49.6607 109 37.4921 109ZM19.8535 100.529C21.972 101.241 27.1444 102.474 37.4921 102.474C48.0991 102.474 53.8975 101.172 56.3459 100.425L64.6607 40.8293H10.4089L19.8535 100.529Z" fill="#4C2F1B"/>
<path d="M65.9451 30.9004H9.05615V20.3807C9.05615 12.4302 15.5132 5.97205 23.4654 5.97205H51.5195C59.4703 5.97205 65.9288 12.4302 65.9288 20.3807V30.9004H65.9451ZM15.5648 24.3906H59.435V20.3631C59.435 16.0056 55.8935 12.4642 51.5358 12.4642H23.4817C19.124 12.4642 15.5825 16.0056 15.5825 20.3631V24.3906H15.5648Z" fill="#4C2F1B"/>
<path d="M69.7477 38.7286L37.6836 39.944H36.9367L5.23652 38.7286C3.98584 38.677 3.0665 37.531 3.29192 36.298L5.44429 24.9283C5.82587 24.2168 6.98964 23.5568 7.87503 23.5568H67.7162C68.6368 23.5568 69.1746 24.2684 69.5399 25.0329L71.6923 36.2817C71.934 37.5133 71.0146 38.677 69.7477 38.7286Z" fill="#DAE3ED"/>
<path d="M36.9363 43.1907L5.11388 41.9754C3.56853 41.9238 2.12773 41.1946 1.15544 39.9793C0.183139 38.764 -0.198447 37.201 0.0962295 35.6748L2.35316 23.8176L2.59623 23.3668C3.55087 21.5784 5.79015 20.2938 7.89091 20.2938H67.732C68.9135 20.2938 71.1174 20.727 72.489 23.6438L72.6628 24.0253L74.902 35.6734C75.1981 37.201 74.8151 38.764 73.8428 39.9779C72.8705 41.1933 71.4297 41.9225 69.8844 41.9741L36.9363 43.1907ZM6.7638 35.5349L37.0748 36.6973H37.6994L68.2372 35.5349L66.571 26.8199H8.41372L6.7638 35.5349Z" fill="#4C2F1B"/>
<path d="M5.46191 49.4058C5.46191 49.4058 34.0198 53.0518 69.5562 49.4058L63.0285 91.8674C63.0285 91.8674 36.589 96.2941 12.909 92.1797L5.46191 49.4058Z" fill="#3E7EDB"/>
<path d="M35.4429 97.1958C28.1344 97.1958 20.1306 96.7273 12.3536 95.3911C10.9997 95.148 9.94182 94.0889 9.69875 92.7351L2.25171 49.9612C2.07789 48.9373 2.39022 47.8958 3.10179 47.149C3.81336 46.4021 4.83862 46.0382 5.86252 46.1767C6.1409 46.212 34.5073 49.7358 69.2112 46.1591C70.2175 46.0545 71.2074 46.4198 71.9027 47.149C72.5966 47.8782 72.909 48.8857 72.7528 49.8919L66.2427 92.3711C66.0336 93.7603 64.9405 94.8534 63.5689 95.0788C62.8207 95.1996 50.6507 97.1958 35.4429 97.1958ZM15.7213 89.3322C33.9668 92.0575 53.5662 89.8875 60.1808 89.0022L65.7009 53.0504C40.0423 55.3249 18.3421 53.9018 9.40136 53.0857L15.7213 89.3322Z" fill="#4C2F1B"/>
<path d="M37.6126 65.7237C34.2095 65.8445 31.5887 68.6405 30.7386 71.1403C29.4187 75.0104 31.8154 77.1979 34.0194 77.1979C35.4086 77.1979 36.9879 74.9764 36.3293 72.8757C35.304 69.6114 40.391 65.6368 37.6126 65.7237ZM37.6126 77.6148C41.0156 77.4926 43.411 74.698 44.2625 72.1982C45.5811 68.3268 43.1856 66.1392 40.8078 66.1392C39.9401 66.1392 38.0824 67.2676 38.6718 70.4614C39.2801 73.8643 34.8355 77.7017 37.6126 77.6148Z" fill="white"/>
</g>
<defs>
<clipPath id="clip0_397_1871">
<rect width="75" height="109" fill="white"/>
</clipPath>
</defs>
</svg>
