<svg width="10" height="12" viewBox="0 0 10 12" fill="none" xmlns="http://www.w3.org/2000/svg">
<path d="M9.50831 10.4485C9.81288 10.7293 9.8322 11.2037 9.55147 11.5083C9.27074 11.8129 8.79626 11.8322 8.49169 11.5515L9.50831 10.4485ZM8.49169 0.448525C8.79626 0.167795 9.27074 0.187122 9.55147 0.491694C9.8322 0.796264 9.81288 1.27074 9.50831 1.55147L8.49169 0.448525ZM8.49169 11.5515C6.851 10.0392 6.0425 8.97554 5.06652 7.48702L6.32092 6.66454C7.24467 8.07339 7.97644 9.03657 9.50831 10.4485L8.49169 11.5515ZM9.50831 1.55147C7.97644 2.96343 7.24467 3.92661 6.32092 5.33546L5.06652 4.51298C6.0425 3.02446 6.851 1.96079 8.49169 0.448525L9.50831 1.55147ZM5.06652 7.48702C4.47494 6.58479 4.47494 5.41521 5.06652 4.51298L6.32092 5.33546C6.05681 5.73826 6.05681 6.26174 6.32092 6.66454L5.06652 7.48702Z" fill="#50429B"/>
<path d="M5.50831 10.4485C5.81288 10.7293 5.8322 11.2037 5.55147 11.5083C5.27074 11.8129 4.79626 11.8322 4.49169 11.5515L5.50831 10.4485ZM4.49169 0.448525C4.79626 0.167795 5.27074 0.187122 5.55147 0.491694C5.8322 0.796264 5.81288 1.27074 5.50831 1.55147L4.49169 0.448525ZM4.49169 11.5515C2.851 10.0392 2.0425 8.97554 1.06652 7.48702L2.32092 6.66454C3.24467 8.07339 3.97644 9.03657 5.50831 10.4485L4.49169 11.5515ZM5.50831 1.55147C3.97644 2.96343 3.24467 3.92661 2.32092 5.33546L1.06652 4.51298C2.0425 3.02446 2.851 1.96079 4.49169 0.448525L5.50831 1.55147ZM1.06652 7.48702C0.474945 6.58479 0.474945 5.41521 1.06652 4.51298L2.32092 5.33546C2.05681 5.73826 2.05681 6.26174 2.32092 6.66454L1.06652 7.48702Z" fill="#50429B"/>
</svg>