<svg width="64" height="64" viewBox="0 0 64 64" fill="none" xmlns="http://www.w3.org/2000/svg">
<circle cx="32" cy="32" r="31" fill="#F7F5FF" stroke="#CDC6FF" stroke-width="2"/>
<path d="M44.7467 30.3202L42.9333 28.2136C42.5867 27.8136 42.3067 27.0669 42.3067 26.5336V24.2669C42.3067 22.8536 41.1467 21.6936 39.7333 21.6936H37.4667C36.9467 21.6936 36.1867 21.4136 35.7867 21.0669L33.68 19.2536C32.76 18.4669 31.2533 18.4669 30.32 19.2536L28.2267 21.0802C27.8267 21.4136 27.0667 21.6936 26.5467 21.6936H24.24C22.8267 21.6936 21.6667 22.8536 21.6667 24.2669V26.5469C21.6667 27.0669 21.3867 27.8136 21.0533 28.2136L19.2533 30.3336C18.48 31.2536 18.48 32.7469 19.2533 33.6669L21.0533 35.7869C21.3867 36.1869 21.6667 36.9336 21.6667 37.4536V39.7336C21.6667 41.1469 22.8267 42.3069 24.24 42.3069H26.5467C27.0667 42.3069 27.8267 42.5869 28.2267 42.9336L30.3333 44.7469C31.2533 45.5336 32.76 45.5336 33.6933 44.7469L35.8 42.9336C36.2 42.5869 36.9467 42.3069 37.48 42.3069H39.7467C41.16 42.3069 42.32 41.1469 42.32 39.7336V37.4669C42.32 36.9469 42.6 36.1869 42.9467 35.7869L44.76 33.6802C45.5333 32.7602 45.5333 31.2402 44.7467 30.3202ZM37.5467 29.4802L31.1067 35.9202C30.92 36.1069 30.6667 36.2136 30.4 36.2136C30.1333 36.2136 29.88 36.1069 29.6933 35.9202L26.4667 32.6936C26.08 32.3069 26.08 31.6669 26.4667 31.2802C26.8533 30.8936 27.4933 30.8936 27.88 31.2802L30.4 33.8002L36.1333 28.0669C36.52 27.6802 37.16 27.6802 37.5467 28.0669C37.9333 28.4536 37.9333 29.0936 37.5467 29.4802Z" fill="#CDC6FF"/>
</svg>
