<svg width="206" height="206" viewBox="0 0 206 206" fill="none" xmlns="http://www.w3.org/2000/svg">
<path d="M103 206C159.885 206 206 159.885 206 103C206 46.1147 159.885 0 103 0C46.1147 0 0 46.1147 0 103C0 159.885 46.1147 206 103 206Z" fill="#F7F5FF"/>
<path d="M157.749 106.917L157.128 107.061L157.558 107.491C166.921 116.568 157.94 132.094 145.423 128.511L144.802 128.32L144.945 128.893C145.996 132.667 145.375 136.107 143.703 138.782L161.666 177.145C161.857 177.575 161.427 178.052 160.949 177.861L142.652 170.313C142.366 170.17 142.031 170.361 141.936 170.647L136.059 189.518C135.916 189.996 135.247 190.043 135.056 189.566L116.329 149.579C113.08 151.012 109.258 151.012 106.01 149.579L87.2825 189.566C87.0914 189.996 86.4226 189.948 86.2793 189.518L80.4031 170.647C80.3076 170.361 79.9732 170.17 79.6865 170.313L61.437 177.861C60.9592 178.052 60.5293 177.575 60.7204 177.145L78.6833 138.782C77.0112 136.059 76.3424 132.62 77.4411 128.893L77.6322 128.32L77.0112 128.511C64.4945 132.094 55.513 116.568 64.8767 107.491L65.3544 107.061L64.7334 106.917C52.1211 103.764 52.1211 85.8013 64.7334 82.6483L65.3544 82.505L64.8767 82.075C55.513 73.0458 64.4945 57.4716 77.0112 61.0546L77.6322 61.2457L77.4411 60.6246C73.8581 48.1079 89.4323 39.1265 98.4616 48.4901L98.8915 48.9201L99.0348 48.299C102.188 35.6868 120.151 35.6868 123.304 48.299L123.447 48.9201L123.877 48.4901C132.954 39.1265 148.481 48.1079 144.898 60.6246L144.754 61.2457L145.375 61.0546C155.264 58.236 162.908 67.3129 161.141 75.7211C160.663 77.9665 159.516 80.1641 157.51 82.075L157.08 82.505L157.701 82.6483C170.409 85.8013 170.409 103.764 157.749 106.917Z" fill="#F7F5FF"/>
<path d="M97.8405 145.089L79.1132 185.123C78.9221 185.553 78.2533 185.505 78.11 185.075L72.2338 166.205C72.1383 165.918 71.8039 165.727 71.5172 165.87L53.2677 173.419C52.79 173.61 52.36 173.132 52.5511 172.702L70.514 134.34C72.1383 137.015 74.8136 139.022 77.7756 139.929C81.8841 141.171 86.6137 140.407 90.2923 136.633L90.7222 136.203L90.8656 136.824C91.9166 140.885 94.5919 143.703 97.8405 145.089Z" fill="#CDC6FF" stroke="#50429B" stroke-width="6" stroke-miterlimit="10" stroke-linecap="round"/>
<path d="M152.78 173.371L134.531 165.822C134.244 165.679 133.91 165.87 133.814 166.157L127.938 185.027C127.794 185.505 127.126 185.553 126.935 185.075L108.207 145.089C110.883 143.942 113.176 141.84 114.466 138.783C114.752 138.114 114.991 137.397 115.182 136.681L115.326 136.059L115.756 136.489C119.434 140.264 124.164 141.076 128.272 139.786C131.234 138.878 133.91 136.919 135.534 134.196L153.497 172.559C153.688 173.084 153.258 173.562 152.78 173.371Z" fill="#CDC6FF" stroke="#50429B" stroke-width="6" stroke-miterlimit="10" stroke-linecap="round"/>
<path d="M149.484 102.379L148.863 102.522L149.293 102.952C158.656 112.029 149.675 127.556 137.158 123.973L136.537 123.782L136.728 124.355C137.779 128.129 137.158 131.521 135.486 134.244C133.862 136.919 131.187 138.926 128.225 139.833C124.116 141.076 119.386 140.311 115.708 136.537L115.278 136.107L115.135 136.728C114.943 137.493 114.705 138.161 114.418 138.83C113.128 141.888 110.835 143.99 108.16 145.136C104.911 146.57 101.089 146.57 97.8405 145.136C94.5919 143.751 91.9166 140.932 90.8656 136.728L90.7223 136.107L90.2923 136.537C86.6137 140.311 81.8841 141.123 77.7756 139.833C74.8136 138.926 72.1383 136.967 70.514 134.244C68.8419 131.521 68.1731 128.081 69.2719 124.355L69.463 123.782L68.8419 123.973C56.3252 127.556 47.3438 112.029 56.7074 102.952L57.1374 102.522L56.5163 102.379C43.9041 99.2259 43.9041 81.263 56.5163 78.1099L57.1374 77.9666L56.7074 77.5366C47.3438 68.5074 56.3252 52.9332 68.8419 56.5162L69.463 56.7073L69.2719 56.0862C65.6889 43.5695 81.2153 34.5881 90.2923 43.9517L90.7223 44.3817L90.8656 43.7606C94.0186 31.1006 111.982 31.1006 115.135 43.7606L115.278 44.3817L115.708 43.9517C124.785 34.5881 140.311 43.5695 136.728 56.0862L136.537 56.7073L137.158 56.5162C147.047 53.6976 154.691 62.7746 152.924 71.1827C152.446 73.4281 151.299 75.6257 149.293 77.5366L148.863 77.9666L149.484 78.1099C162.096 81.263 162.096 99.2259 149.484 102.379Z" fill="#F7F5FF" stroke="#50429B" stroke-width="6" stroke-miterlimit="10" stroke-linecap="round" stroke-linejoin="round"/>
<path d="M119.578 113.988L104.003 106.01C103.526 105.771 103 105.771 102.522 106.01L87.1393 114.323C86.8526 114.466 86.4704 114.227 86.5182 113.893L89.2891 96.6463C89.3846 96.1208 89.1935 95.5953 88.8113 95.2609L76.1513 83.1742C75.9125 82.9353 76.0558 82.5053 76.3902 82.4575L93.6843 79.7344C94.2098 79.6389 94.6397 79.3045 94.8786 78.8745L102.427 63.1092C102.57 62.8226 103 62.7748 103.191 63.1092L111.122 78.6834C111.361 79.1612 111.79 79.4478 112.316 79.5434L129.658 81.8843C129.992 81.932 130.136 82.362 129.897 82.6009L117.428 94.9265C117.046 95.3087 116.902 95.8342 116.998 96.3119L120.151 113.51C120.199 113.893 119.864 114.131 119.578 113.988Z" fill="#FF8C21" stroke="#50429B" stroke-width="6" stroke-miterlimit="10" stroke-linecap="round"/>
<path d="M77.7754 65.1157L81.5973 68.0777" stroke="#50429B" stroke-width="2.5" stroke-miterlimit="10" stroke-linecap="round"/>
<path d="M77.7754 61.437L85.467 67.3132" stroke="#50429B" stroke-width="2.5" stroke-miterlimit="10" stroke-linecap="round"/>
<path d="M83.3171 61.9624L85.467 63.5867" stroke="#50429B" stroke-width="2.5" stroke-miterlimit="10" stroke-linecap="round"/>
<path d="M145.996 110.118C146.378 112.985 144.993 115.899 142.652 117.523" stroke="#50429B" stroke-width="3" stroke-miterlimit="10" stroke-linecap="round" stroke-linejoin="round"/>
<path d="M141.601 63.4912C143.751 64.7333 145.184 67.1698 145.184 69.654" stroke="#50429B" stroke-width="3" stroke-miterlimit="10" stroke-linecap="round" stroke-linejoin="round"/>
<path d="M183.642 136.537C171.699 135.916 172.033 122.683 172.033 122.683C171.699 137.254 159.755 136.537 159.755 136.537C159.755 136.537 172.033 137.731 172.033 150.057C172.033 150.057 173.562 137.731 183.642 136.537Z" fill="#FF8C21"/>
<path d="M190.378 121.488C185.027 121.202 185.171 115.278 185.171 115.278C185.027 121.823 179.677 121.488 179.677 121.488C179.677 121.488 185.171 122.014 185.171 127.556C185.171 127.556 185.887 122.014 190.378 121.488Z" fill="#FF8C21"/>
<path d="M176.428 109.879C173.036 109.688 173.132 105.962 173.132 105.962C173.036 110.07 169.644 109.879 169.644 109.879C169.644 109.879 173.132 110.214 173.132 113.701C173.132 113.701 173.562 110.214 176.428 109.879Z" fill="#FF8C21"/>
<path d="M44.3339 75.6255C40.942 75.4344 41.0375 71.708 41.0375 71.708C40.942 75.8165 37.55 75.6255 37.55 75.6255C37.55 75.6255 41.0375 75.9599 41.0375 79.4473C41.0853 79.4473 41.5153 75.9599 44.3339 75.6255Z" fill="#FF8C21"/>
<path d="M57.8063 51.9298C52.4556 51.6432 52.599 45.7192 52.599 45.7192C52.4556 52.2642 47.105 51.9298 47.105 51.9298C47.105 51.9298 52.599 52.4553 52.599 57.9971C52.599 57.9971 53.3156 52.4553 57.8063 51.9298Z" fill="#FF8C21"/>
<path d="M42.9006 58.1882C32.1993 57.615 32.486 45.7671 32.486 45.7671C32.1993 58.8093 21.498 58.1882 21.498 58.1882C21.498 58.1882 32.486 59.2393 32.486 70.3227C32.486 70.275 33.8236 59.1915 42.9006 58.1882Z" fill="#FF8C21"/>
</svg>
