<svg width="84" height="82" viewBox="0 0 84 82" fill="none" xmlns="http://www.w3.org/2000/svg">
<ellipse cx="42" cy="40.9961" rx="42" ry="40.9961" fill="#6050B3"/>
<path d="M41.8946 23.8677L37.6771 33.6852H33.4596C32.7596 33.6852 32.0771 33.7377 31.4121 33.8777L33.1621 29.6777L33.2321 29.5202L33.3371 29.2402C33.3896 29.1177 33.4246 29.0127 33.4771 28.9252C35.5071 24.2177 37.7821 22.7477 41.8946 23.8677Z" fill="white"/>
<path d="M53.7775 34.1577L53.7425 34.1402C52.6925 33.8427 51.625 33.6852 50.54 33.6852H39.585L43.5225 24.5327L43.575 24.4102C43.82 24.4977 44.0825 24.6202 44.345 24.7077L48.2125 26.3352C50.365 27.2277 51.87 28.1552 52.7975 29.2752C52.955 29.4852 53.095 29.6777 53.235 29.9052C53.3925 30.1502 53.515 30.3952 53.585 30.6577C53.655 30.8152 53.7075 30.9552 53.7425 31.1127C54.005 32.0052 54.0225 33.0202 53.7775 34.1577Z" fill="white"/>
<path d="M42.9102 50.9051H43.3477C43.8727 50.9051 44.3102 50.4326 44.3102 49.8551C44.3102 49.1201 44.1002 49.0151 43.6452 48.8401L42.9102 48.5776V50.9051Z" fill="white"/>
<path d="M53.0074 36.6601C52.2199 36.4326 51.3974 36.3101 50.5399 36.3101H33.4599C32.2699 36.3101 31.1499 36.5376 30.0999 36.9926C27.0549 38.3051 24.9199 41.3326 24.9199 44.8501V48.2626C24.9199 48.6826 24.9549 49.0851 25.0074 49.5051C25.3924 55.0701 28.3674 58.0451 33.9324 58.4126C34.3349 58.4651 34.7374 58.5001 35.1749 58.5001H48.8249C55.2999 58.5001 58.7124 55.4201 59.0449 49.2951C59.0624 48.9626 59.0799 48.6126 59.0799 48.2626V44.8501C59.0799 40.9826 56.5074 37.7276 53.0074 36.6601ZM44.2399 47.1251C45.0449 47.4051 46.1299 48.0001 46.1299 49.8551C46.1299 51.4476 44.8874 52.7251 43.3474 52.7251H42.9099V53.1101C42.9099 53.6176 42.5074 54.0201 41.9999 54.0201C41.4924 54.0201 41.0899 53.6176 41.0899 53.1101V52.7251H40.9324C39.2524 52.7251 37.8699 51.3076 37.8699 49.5576C37.8699 49.0501 38.2724 48.6476 38.7799 48.6476C39.2874 48.6476 39.6899 49.0501 39.6899 49.5576C39.6899 50.2926 40.2499 50.9051 40.9324 50.9051H41.0899V47.9476L39.7599 47.4751C38.9549 47.1951 37.8699 46.6001 37.8699 44.7451C37.8699 43.1526 39.1124 41.8751 40.6524 41.8751H41.0899V41.4901C41.0899 40.9826 41.4924 40.5801 41.9999 40.5801C42.5074 40.5801 42.9099 40.9826 42.9099 41.4901V41.8751H43.0674C44.7474 41.8751 46.1299 43.2926 46.1299 45.0426C46.1299 45.5501 45.7274 45.9526 45.2199 45.9526C44.7124 45.9526 44.3099 45.5501 44.3099 45.0426C44.3099 44.3076 43.7499 43.6951 43.0674 43.6951H42.9099V46.6526L44.2399 47.1251Z" fill="white"/>
<path d="M39.6904 44.7448C39.6904 45.4798 39.9004 45.5848 40.3554 45.7598L41.0904 46.0223V43.6948H40.6529C40.1104 43.6948 39.6904 44.1673 39.6904 44.7448Z" fill="white"/>
</svg>
