<svg width="84" height="82" viewBox="0 0 84 82" fill="none" xmlns="http://www.w3.org/2000/svg">
<ellipse cx="42" cy="40.9961" rx="42" ry="40.9961" fill="#6050B3"/>
<path d="M56.3674 33.685L42.8924 41.49C42.3499 41.805 41.6674 41.805 41.1074 41.49L27.6324 33.685C26.6699 33.125 26.4249 31.8125 27.1599 30.99C27.6674 30.4125 28.2449 29.94 28.8574 29.6075L38.3424 24.3575C40.3724 23.22 43.6624 23.22 45.6924 24.3575L55.1774 29.6075C55.7899 29.94 56.3674 30.43 56.8749 30.99C57.5749 31.8125 57.3299 33.125 56.3674 33.685Z" fill="white"/>
<path d="M41.0023 44.745V56.68C41.0023 58.01 39.6548 58.885 38.4648 58.3075C34.8598 56.54 28.7873 53.2325 28.7873 53.2325C26.6523 52.025 24.9023 48.98 24.9023 46.4775V37.4475C24.9023 36.065 26.3548 35.19 27.5448 35.8725L40.1273 43.17C40.6523 43.5025 41.0023 44.0975 41.0023 44.745Z" fill="white"/>
<path d="M42.9976 44.745V56.68C42.9976 58.01 44.3451 58.885 45.5351 58.3075C49.1401 56.54 55.2126 53.2325 55.2126 53.2325C57.3476 52.025 59.0976 48.98 59.0976 46.4775V37.4475C59.0976 36.065 57.6451 35.19 56.4551 35.8725L43.8726 43.17C43.3476 43.5025 42.9976 44.0975 42.9976 44.745Z" fill="white"/>
</svg>
