<svg width="106" height="106" viewBox="0 0 106 106" fill="none" xmlns="http://www.w3.org/2000/svg">
<path d="M53 0L76.055 13.0676L98.8993 26.5L99.11 53L98.8993 79.5L76.055 92.9324L53 106L29.945 92.9324L7.10065 79.5L6.89 53L7.10065 26.5L29.945 13.0676L53 0Z" fill="#50429B"/>
<path d="M45.7498 32.1666C40.2915 32.1666 35.854 36.6041 35.854 42.0625C35.854 47.4166 40.0415 51.75 45.4998 51.9375C45.6665 51.9166 45.8332 51.9166 45.9582 51.9375C45.9998 51.9375 46.0207 51.9375 46.0623 51.9375C46.0832 51.9375 46.0832 51.9375 46.104 51.9375C51.4373 51.75 55.6248 47.4166 55.6457 42.0625C55.6457 36.6041 51.2082 32.1666 45.7498 32.1666Z" fill="white"/>
<path d="M56.3335 57.4791C50.521 53.6041 41.0418 53.6041 35.1877 57.4791C32.5418 59.25 31.0835 61.6458 31.0835 64.2083C31.0835 66.7708 32.5418 69.1458 35.1668 70.8958C38.0835 72.8541 41.9168 73.8333 45.7502 73.8333C49.5835 73.8333 53.4168 72.8541 56.3335 70.8958C58.9585 69.125 60.4168 66.75 60.4168 64.1666C60.396 61.6041 58.9585 59.2291 56.3335 57.4791Z" fill="white"/>
<path d="M68.646 43.2917C68.9793 47.3334 66.1043 50.875 62.1252 51.3542C62.1043 51.3542 62.1043 51.3542 62.0835 51.3542H62.021C61.896 51.3542 61.771 51.3542 61.6668 51.3959C59.646 51.5 57.7918 50.8542 56.396 49.6667C58.5418 47.75 59.771 44.875 59.521 41.75C59.3752 40.0625 58.7918 38.5209 57.9168 37.2084C58.7085 36.8125 59.6252 36.5625 60.5627 36.4792C64.646 36.125 68.2918 39.1667 68.646 43.2917Z" fill="white"/>
<path d="M72.8127 62.5626C72.646 64.5834 71.3543 66.3334 69.1877 67.5209C67.1043 68.6667 64.4793 69.2084 61.8752 69.1459C63.3752 67.7917 64.2502 66.1042 64.4168 64.3126C64.6252 61.7292 63.396 59.2501 60.9377 57.2709C59.5418 56.1667 57.9168 55.2917 56.146 54.6459C60.7502 53.3126 66.5418 54.2084 70.1043 57.0834C72.021 58.6251 73.0002 60.5626 72.8127 62.5626Z" fill="white"/>
</svg>
