<svg width="69" height="76" viewBox="0 0 69 76" fill="none" xmlns="http://www.w3.org/2000/svg">
<rect x="13.5" y="1.5" width="53" height="73" rx="10.5" fill="#F7F5FF" stroke="#50429B" stroke-width="3"/>
<rect y="34" width="40" height="23" rx="5" fill="#50429B"/>
<path d="M10.2877 51.168C9.54102 51.168 8.85035 51.0327 8.21569 50.762C7.59035 50.4913 7.03969 50.1133 6.56369 49.628C6.09702 49.1427 5.73302 48.5733 5.47169 47.92C5.21035 47.2667 5.07969 46.5527 5.07969 45.778C5.07969 45.0033 5.20569 44.2893 5.45769 43.636C5.71902 42.9733 6.08302 42.404 6.54969 41.928C7.02569 41.4427 7.58102 41.0693 8.21569 40.808C8.85035 40.5373 9.54102 40.402 10.2877 40.402C11.0344 40.402 11.7017 40.528 12.2897 40.78C12.887 41.032 13.391 41.368 13.8017 41.788C14.2124 42.1987 14.5064 42.6513 14.6837 43.146L12.9757 43.944C12.7797 43.4213 12.4484 42.992 11.9817 42.656C11.515 42.3107 10.9504 42.138 10.2877 42.138C9.63435 42.138 9.05569 42.292 8.55169 42.6C8.05702 42.908 7.66969 43.3327 7.38969 43.874C7.11902 44.4153 6.98369 45.05 6.98369 45.778C6.98369 46.506 7.11902 47.1453 7.38969 47.696C7.66969 48.2373 8.05702 48.662 8.55169 48.97C9.05569 49.278 9.63435 49.432 10.2877 49.432C10.9504 49.432 11.515 49.264 11.9817 48.928C12.4484 48.5827 12.7797 48.1487 12.9757 47.626L14.6837 48.424C14.5064 48.9187 14.2124 49.376 13.8017 49.796C13.391 50.2067 12.887 50.538 12.2897 50.79C11.7017 51.042 11.0344 51.168 10.2877 51.168ZM19.3155 51L15.6755 40.57H17.7475L20.6035 49.208H20.1975L23.0535 40.57H25.1255L21.4995 51H19.3155ZM30.2879 51.168C29.6252 51.168 29.0092 51.0467 28.4399 50.804C27.8799 50.5613 27.3945 50.2253 26.9839 49.796C26.5825 49.3573 26.2885 48.8487 26.1019 48.27L27.6839 47.584C27.9359 48.1813 28.2999 48.6527 28.7759 48.998C29.2519 49.334 29.7885 49.502 30.3859 49.502C30.7219 49.502 31.0112 49.4507 31.2539 49.348C31.5059 49.236 31.6972 49.0867 31.8279 48.9C31.9679 48.7133 32.0379 48.4893 32.0379 48.228C32.0379 47.92 31.9445 47.668 31.7579 47.472C31.5805 47.2667 31.3099 47.108 30.9459 46.996L28.9439 46.352C28.1319 46.1 27.5205 45.722 27.1099 45.218C26.6992 44.714 26.4939 44.1213 26.4939 43.44C26.4939 42.8427 26.6385 42.3153 26.9279 41.858C27.2265 41.4007 27.6372 41.046 28.1599 40.794C28.6919 40.5327 29.2985 40.402 29.9799 40.402C30.6052 40.402 31.1792 40.514 31.7019 40.738C32.2245 40.9527 32.6725 41.256 33.0459 41.648C33.4285 42.0307 33.7132 42.4833 33.8999 43.006L32.3319 43.706C32.1265 43.1833 31.8185 42.782 31.4079 42.502C30.9972 42.2127 30.5212 42.068 29.9799 42.068C29.6625 42.068 29.3825 42.124 29.1399 42.236C28.8972 42.3387 28.7059 42.488 28.5659 42.684C28.4352 42.8707 28.3699 43.0947 28.3699 43.356C28.3699 43.6453 28.4632 43.902 28.6499 44.126C28.8365 44.3407 29.1212 44.5087 29.5039 44.63L31.4219 45.232C32.2525 45.5027 32.8732 45.876 33.2839 46.352C33.7039 46.828 33.9139 47.416 33.9139 48.116C33.9139 48.7133 33.7599 49.2407 33.4519 49.698C33.1439 50.1553 32.7192 50.5147 32.1779 50.776C31.6365 51.0373 31.0065 51.168 30.2879 51.168Z" fill="white"/>
<path d="M55.0041 21.5196C49.2052 21.5034 44.5173 16.7893 44.5335 10.9903L44.56 1.50418L56.074 1.53635C61.8729 1.55255 66.5608 6.26667 66.5446 12.0656L66.5181 21.5518L55.0041 21.5196Z" fill="#50429B" stroke="#50429B" stroke-width="3"/>
</svg>
