<svg width="28" height="28" viewBox="0 0 28 28" fill="none" xmlns="http://www.w3.org/2000/svg">
<path fill-rule="evenodd" clip-rule="evenodd" d="M9.00002 3.99968C9.5523 3.99968 10 4.44739 10 4.99968L10 7.01489H18L18 4.99968C18 4.44739 18.4477 3.99968 19 3.99968C19.5523 3.99968 20 4.44739 20 4.99968L20 7.01489C21.8856 7.01489 22.8284 7.01489 23.4142 7.60068C24 8.18647 24 9.1394 24 11.0453C24 11.5217 24 11.76 23.8536 11.9064C23.7071 12.0529 23.4714 12.0529 23 12.0529H5C4.5286 12.0529 4.29289 12.0529 4.14645 11.9064C4 11.76 4 11.5217 4 11.0453C4 9.1394 4 8.18647 4.58579 7.60068C5.17157 7.01489 6.11438 7.01489 8 7.01489H8.00001L8.00002 4.99968C8.00002 4.44739 8.44773 3.99968 9.00002 3.99968ZM4.58579 23.4143C4 22.8285 4 21.8857 4 20.0001V14.2044C4 13.733 4 13.4973 4.14645 13.3509C4.29289 13.2044 4.5286 13.2044 5 13.2044H23C23.4714 13.2044 23.7071 13.2044 23.8536 13.3509C24 13.4973 24 13.733 24 14.2044V20.0001C24 21.8857 24 22.8285 23.4142 23.4143C22.8284 24.0001 21.8856 24.0001 20 24.0001H8C6.11438 24.0001 5.17157 24.0001 4.58579 23.4143ZM9.14645 15.5099C9 15.6563 9 15.892 9 16.3634V16.5233C9 16.9947 9 17.2304 9.14645 17.3768C9.29289 17.5233 9.5286 17.5233 10 17.5233H12C12.4714 17.5233 12.7071 17.5233 12.8536 17.3768C13 17.2304 13 16.9947 13 16.5233V16.3634C13 15.892 13 15.6563 12.8536 15.5099C12.7071 15.3634 12.4714 15.3634 12 15.3634H10C9.5286 15.3634 9.29289 15.3634 9.14645 15.5099ZM9 20.6816C9 20.2102 9 19.9745 9.14645 19.8281C9.29289 19.6816 9.5286 19.6816 10 19.6816H12C12.4714 19.6816 12.7071 19.6816 12.8536 19.8281C13 19.9745 13 20.2102 13 20.6816V20.8415C13 21.3129 13 21.5486 12.8536 21.695C12.7071 21.8415 12.4714 21.8415 12 21.8415H10C9.5286 21.8415 9.29289 21.8415 9.14645 21.695C9 21.5486 9 21.3129 9 20.8415V20.6816ZM15.1464 15.5099C15 15.6563 15 15.892 15 16.3634V16.5233C15 16.9947 15 17.2304 15.1464 17.3768C15.2929 17.5233 15.5286 17.5233 16 17.5233H18C18.4714 17.5233 18.7071 17.5233 18.8536 17.3768C19 17.2304 19 16.9947 19 16.5233V16.3634C19 15.892 19 15.6563 18.8536 15.5099C18.7071 15.3634 18.4714 15.3634 18 15.3634H16C15.5286 15.3634 15.2929 15.3634 15.1464 15.5099ZM15 20.6816C15 20.2102 15 19.9745 15.1464 19.8281C15.2929 19.6816 15.5286 19.6816 16 19.6816H18C18.4714 19.6816 18.7071 19.6816 18.8536 19.8281C19 19.9745 19 20.2102 19 20.6816V20.8415C19 21.3129 19 21.5486 18.8536 21.695C18.7071 21.8415 18.4714 21.8415 18 21.8415H16C15.5286 21.8415 15.2929 21.8415 15.1464 21.695C15 21.5486 15 21.3129 15 20.8415V20.6816Z" fill="#A5ABDE"/>
</svg>
