<svg width="28" height="28" viewBox="0 0 28 28" fill="none" xmlns="http://www.w3.org/2000/svg">
<path fill-rule="evenodd" clip-rule="evenodd" d="M9.00037 4C9.55266 4 10.0004 4.44772 10.0004 5L10.0004 7.00016H18.0011L18.0011 5C18.0011 4.44771 18.4489 4 19.0011 4C19.5534 4 20.0012 4.44772 20.0011 5V7.0043C20.4992 7.01138 20.9443 7.03055 21.3292 7.0823C21.9847 7.17043 22.6131 7.36918 23.1228 7.87884C23.6324 8.3885 23.8312 9.01685 23.9193 9.67237C24.0015 10.284 24.0015 11.0479 24.0014 11.9344L24.0014 12.0002V19.0014L24.0014 19.0672C24.0015 19.9537 24.0015 20.7176 23.9193 21.3292C23.8312 21.9847 23.6324 22.6131 23.1228 23.1228C22.6131 23.6324 21.9847 23.8312 21.3292 23.9193C20.7176 24.0015 19.9538 24.0015 19.0673 24.0014L19.0014 24.0014H9.00001L8.93415 24.0014C8.04767 24.0015 7.28387 24.0015 6.67221 23.9193C6.0167 23.8312 5.38835 23.6324 4.87868 23.1228C4.36902 22.6131 4.17028 21.9847 4.08215 21.3292C3.99991 20.7176 3.99995 19.9538 4 19.0673L4 19.0014V12.0002L4 11.9343C3.99995 11.0478 3.99991 10.284 4.08215 9.67237C4.17028 9.01685 4.36902 8.3885 4.87868 7.87884C5.38835 7.36918 6.0167 7.17043 6.67221 7.0823C7.05713 7.03055 7.5023 7.01138 8.00037 7.00429L8.00037 5C8.00037 4.44771 8.44809 4 9.00037 4ZM6 12.0005V19.0014C6 19.9725 6.00213 20.6002 6.06431 21.0627C6.12263 21.4965 6.21677 21.6324 6.2929 21.7085C6.36902 21.7847 6.50497 21.8788 6.93871 21.9371C7.40122 21.9993 8.02893 22.0014 9.00001 22.0014H19.0014C19.9725 22.0014 20.6002 21.9993 21.0627 21.9371C21.4965 21.8788 21.6324 21.7847 21.7085 21.7085C21.7847 21.6324 21.8788 21.4965 21.9371 21.0627C21.9993 20.6002 22.0014 19.9725 22.0014 19.0014V12.0005H6Z" fill="#A5ABDE"/>
<rect x="9.00037" y="14.0007" width="4.00032" height="2.00017" rx="0.5" fill="#A5ABDE"/>
<rect x="9.00037" y="18.001" width="4.00032" height="2.00017" rx="0.5" fill="#A5ABDE"/>
<rect x="15.0008" y="14.0007" width="4.00032" height="2.00017" rx="0.5" fill="#A5ABDE"/>
<rect x="15.0008" y="18.001" width="4.00032" height="2.00017" rx="0.5" fill="#A5ABDE"/>
</svg>
