<svg width="21" height="20" viewBox="0 0 21 20" fill="none" xmlns="http://www.w3.org/2000/svg">
<path fill-rule="evenodd" clip-rule="evenodd" d="M5.50002 0C6.0523 0 6.50002 0.447715 6.50002 1L6.50001 3.01522H14.5L14.5 1C14.5 0.447715 14.9477 0 15.5 0C16.0523 0 16.5 0.447715 16.5 1L16.5 3.01522C18.3856 3.01522 19.3284 3.01522 19.9142 3.601C20.5 4.18679 20.5 5.13972 20.5 7.04559C20.5 7.52206 20.5 7.76029 20.3536 7.90674C20.2071 8.05318 19.9714 8.05318 19.5 8.05318H1.5C1.0286 8.05318 0.792893 8.05318 0.646447 7.90674C0.5 7.76029 0.5 7.52206 0.5 7.04559C0.5 5.13972 0.5 4.18679 1.08579 3.601C1.67157 3.01522 2.61438 3.01522 4.5 3.01522H4.50001L4.50002 1C4.50002 0.447715 4.94773 0 5.50002 0ZM1.08579 19.4146C0.5 18.8288 0.5 17.886 0.5 16.0004V10.2047C0.5 9.73334 0.5 9.49763 0.646447 9.35119C0.792893 9.20474 1.0286 9.20474 1.5 9.20474H19.5C19.9714 9.20474 20.2071 9.20474 20.3536 9.35119C20.5 9.49763 20.5 9.73334 20.5 10.2047V16.0004C20.5 17.886 20.5 18.8288 19.9142 19.4146C19.3284 20.0004 18.3856 20.0004 16.5 20.0004H4.5C2.61438 20.0004 1.67157 20.0004 1.08579 19.4146ZM5.64645 11.5102C5.5 11.6567 5.5 11.8924 5.5 12.3638V12.5236C5.5 12.995 5.5 13.2307 5.64645 13.3772C5.79289 13.5236 6.0286 13.5236 6.5 13.5236H8.5C8.9714 13.5236 9.20711 13.5236 9.35355 13.3772C9.5 13.2307 9.5 12.995 9.5 12.5236V12.3638C9.5 11.8924 9.5 11.6567 9.35355 11.5102C9.20711 11.3638 8.9714 11.3638 8.5 11.3638H6.5C6.0286 11.3638 5.79289 11.3638 5.64645 11.5102ZM5.5 16.6817C5.5 16.2103 5.5 15.9745 5.64645 15.8281C5.79289 15.6817 6.0286 15.6817 6.5 15.6817H8.5C8.97141 15.6817 9.20711 15.6817 9.35355 15.8281C9.5 15.9745 9.5 16.2103 9.5 16.6817V16.8415C9.5 17.3129 9.5 17.5486 9.35355 17.695C9.20711 17.8415 8.9714 17.8415 8.5 17.8415H6.5C6.0286 17.8415 5.79289 17.8415 5.64645 17.695C5.5 17.5486 5.5 17.3129 5.5 16.8415V16.6817ZM11.6464 11.5102C11.5 11.6567 11.5 11.8924 11.5 12.3638V12.5236C11.5 12.995 11.5 13.2307 11.6464 13.3772C11.7929 13.5236 12.0286 13.5236 12.5 13.5236H14.5C14.9714 13.5236 15.2071 13.5236 15.3536 13.3772C15.5 13.2307 15.5 12.995 15.5 12.5236V12.3638C15.5 11.8924 15.5 11.6567 15.3536 11.5102C15.2071 11.3638 14.9714 11.3638 14.5 11.3638H12.5C12.0286 11.3638 11.7929 11.3638 11.6464 11.5102ZM11.5 16.6817C11.5 16.2103 11.5 15.9745 11.6464 15.8281C11.7929 15.6817 12.0286 15.6817 12.5 15.6817H14.5C14.9714 15.6817 15.2071 15.6817 15.3536 15.8281C15.5 15.9745 15.5 16.2103 15.5 16.6817V16.8415C15.5 17.3129 15.5 17.5486 15.3536 17.695C15.2071 17.8415 14.9714 17.8415 14.5 17.8415H12.5C12.0286 17.8415 11.7929 17.8415 11.6464 17.695C11.5 17.5486 11.5 17.3129 11.5 16.8415V16.6817Z" fill="#50429B"/>
</svg>
