<svg width="88" height="85" viewBox="0 0 88 85" fill="none" xmlns="http://www.w3.org/2000/svg">
<path d="M80.565 39.2264V58.6749C80.565 68.9568 71.787 77.3218 60.9973 77.3218H26.9823C16.1926 77.3218 7.41458 68.9568 7.41458 58.6749V33.5452H79.6141C80.1627 35.1136 80.4553 36.7169 80.5285 38.4247C80.565 38.6687 80.565 38.9824 80.565 39.2264Z" fill="#EAE7FF"/>
<path opacity="0.4" d="M79.6141 33.5452H7.41458V23.0193C7.41458 14.515 14.6565 7.61389 23.5808 7.61389H32.1029C38.0646 7.61389 39.93 9.46115 42.3073 12.4934L47.4279 18.9763C48.5617 20.4053 48.708 20.6144 50.8294 20.6144H61.0339C69.7022 20.5796 77.0904 26.0168 79.6141 33.5452Z" fill="#EAE7FF"/>
</svg>
