<svg width="24" height="24" viewBox="0 0 24 24" fill="none" xmlns="http://www.w3.org/2000/svg">
<path fill-rule="evenodd" clip-rule="evenodd" d="M23.4284 12C23.4284 18.3118 18.3117 23.4286 11.9999 23.4286C5.68804 23.4286 0.571289 18.3118 0.571289 12C0.571289 5.68817 5.68804 0.571426 11.9999 0.571426C18.3117 0.571426 23.4284 5.68817 23.4284 12ZM7.86418 16.1357C7.47365 15.7452 7.47365 15.112 7.86418 14.7215L10.5856 12L7.86418 9.27853C7.47365 8.888 7.47365 8.25484 7.86418 7.86432C8.2547 7.47379 8.88787 7.47379 9.27839 7.86432L11.9999 10.5858L14.7213 7.86432C15.1118 7.47379 15.745 7.47379 16.1355 7.86432C16.5261 8.25484 16.5261 8.888 16.1355 9.27853L13.4141 12L16.1355 14.7215C16.5261 15.112 16.5261 15.7452 16.1355 16.1357C15.745 16.5262 15.1118 16.5262 14.7213 16.1357L11.9999 13.4142L9.27839 16.1357C8.88786 16.5262 8.2547 16.5262 7.86418 16.1357Z" fill="#8F8F8F"/>
</svg>
