<svg width="23" height="23" viewBox="0 0 23 23" fill="none" xmlns="http://www.w3.org/2000/svg">
<path d="M6.70817 1.91663H5.74984C2.87484 1.91663 1.9165 3.63204 1.9165 5.74996V6.70829V20.125C1.9165 20.9204 2.81734 21.3708 3.44984 20.8916L5.08859 19.665C5.47192 19.3775 6.00859 19.4158 6.35359 19.7608L7.94442 21.3612C8.31817 21.735 8.9315 21.735 9.30525 21.3612L10.9153 19.7512C11.2507 19.4158 11.7873 19.3775 12.1611 19.665L13.7998 20.8916C14.4323 21.3612 15.3332 20.9108 15.3332 20.125V3.83329C15.3332 2.77913 16.1957 1.91663 17.2498 1.91663H6.70817ZM6.29609 7.69538C6.82317 7.69538 7.25442 8.12663 7.25442 8.65371C7.25442 9.18079 6.82317 9.61204 6.29609 9.61204C5.769 9.61204 5.33775 9.18079 5.33775 8.65371C5.33775 8.12663 5.769 7.69538 6.29609 7.69538ZM10.9536 13.4933C10.4169 13.4933 9.99525 13.062 9.99525 12.535C9.99525 12.0079 10.4265 11.5766 10.9536 11.5766C11.4807 11.5766 11.9119 12.0079 11.9119 12.535C11.9119 13.062 11.4807 13.4933 10.9536 13.4933ZM11.749 8.43329L6.5165 13.6658C6.37275 13.8095 6.19067 13.8766 6.00859 13.8766C5.8265 13.8766 5.64442 13.8095 5.50067 13.6658C5.22275 13.3879 5.22275 12.9279 5.50067 12.65L10.7332 7.41746C11.0111 7.13954 11.4711 7.13954 11.749 7.41746C12.0269 7.69538 12.0269 8.15538 11.749 8.43329Z" fill="#FF8C21"/>
<path d="M17.2597 1.91663V3.35413C17.8922 3.35413 18.496 3.61288 18.9368 4.04413C19.3968 4.51371 19.646 5.11746 19.646 5.74996V8.06913C19.646 8.77829 19.3297 9.10413 18.611 9.10413H16.771V3.84288C16.771 3.57454 16.9914 3.35413 17.2597 3.35413V1.91663ZM17.2597 1.91663C16.196 1.91663 15.3335 2.77913 15.3335 3.84288V10.5416H18.611C20.1252 10.5416 21.0835 9.58329 21.0835 8.06913V5.74996C21.0835 4.69579 20.6522 3.73746 19.9622 3.03788C19.2627 2.34788 18.3139 1.92621 17.2597 1.91663C17.2693 1.91663 17.2597 1.91663 17.2597 1.91663Z" fill="#FF8C21"/>
</svg>