<svg width="24" height="24" viewBox="0 0 24 24" fill="none" xmlns="http://www.w3.org/2000/svg">
<g clip-path="url(#clip0_1908_159325)">
<path d="M23.5961 16.0972C23.3272 15.828 23 15.6934 22.6156 15.6934H15.923L13.9615 17.6548C13.4038 18.1932 12.75 18.4625 12 18.4625C11.2502 18.4625 10.5962 18.1935 10.0385 17.6548L8.09137 15.6934H1.3846C1.00005 15.6934 0.673153 15.8282 0.403841 16.0972C0.13458 16.3664 0 16.6933 0 17.0781V21.6933C0 22.078 0.13458 22.4049 0.403841 22.6741C0.673102 22.9433 1 23.0777 1.3846 23.0777H22.6156C23 23.0777 23.3272 22.9433 23.5962 22.6741C23.8655 22.4049 24 22.078 24 21.6933V17.0781C24 16.6933 23.8655 16.3664 23.5961 16.0972ZM18.1877 20.9577C18.0048 21.1405 17.7884 21.2318 17.5384 21.2318C17.2884 21.2318 17.0723 21.1405 16.8894 20.9577C16.7068 20.775 16.6155 20.5588 16.6155 20.3089C16.6155 20.0589 16.7068 19.8423 16.8894 19.6599C17.0723 19.477 17.2884 19.3855 17.5384 19.3855C17.7884 19.3855 18.0048 19.477 18.1877 19.6599C18.3703 19.8423 18.4616 20.0589 18.4616 20.3089C18.4616 20.5587 18.3703 20.775 18.1877 20.9577ZM21.8798 20.9577C21.6972 21.1405 21.4808 21.2318 21.2308 21.2318C20.9808 21.2318 20.7645 21.1405 20.5817 20.9577C20.3992 20.775 20.3079 20.5588 20.3079 20.3089C20.3079 20.0589 20.3992 19.8423 20.5817 19.6599C20.7645 19.477 20.9807 19.3855 21.2308 19.3855C21.4808 19.3855 21.6972 19.477 21.8798 19.6599C22.0625 19.8423 22.154 20.0589 22.154 20.3089C22.154 20.5587 22.0627 20.775 21.8798 20.9577Z" fill="#50429B"/>
<path d="M11.3511 16.3424C11.5242 16.5249 11.7406 16.6162 12.0001 16.6162C12.2598 16.6162 12.4758 16.5249 12.6491 16.3424L19.1107 9.88072C19.4087 9.60191 19.4761 9.26531 19.3126 8.87107C19.1494 8.49618 18.8657 8.3087 18.4617 8.3085H14.7693V1.84694C14.7693 1.59698 14.6778 1.38061 14.4954 1.19794C14.3125 1.01522 14.0963 0.923828 13.8464 0.923828H10.1537C9.90387 0.923828 9.6875 1.01522 9.50473 1.19794C9.3221 1.38061 9.23072 1.59693 9.23072 1.84694V8.30855H5.5384C5.13436 8.30855 4.85085 8.49623 4.68738 8.87112C4.524 9.26521 4.59124 9.60196 4.8894 9.88077L11.3511 16.3424Z" fill="#50429B"/>
</g>
<defs>
<clipPath id="clip0_1908_159325">
<rect width="24" height="23.9999" fill="white"/>
</clipPath>
</defs>
</svg>
