<svg width="74" height="106" viewBox="0 0 74 106" fill="none" xmlns="http://www.w3.org/2000/svg">
<path d="M28.673 96.9664C28.4294 96.9664 28.1871 96.9664 27.9436 96.9064C27.1536 96.6649 26.4253 96.1844 25.9394 95.5213C25.4536 94.8594 25.3324 94.0161 25.5747 93.1127L36.7524 47.521L38.4536 47.7612C39.3647 47.8814 40.2759 48.0616 41.1871 48.2429L43.0094 48.6646L31.7712 94.5579C31.4065 95.9418 30.1306 96.9664 28.673 96.9664Z" fill="#FF5A5A"/>
<path d="M38.1507 49.5668C38.9407 49.6269 39.8519 49.8671 40.6419 49.9884L29.8289 94.0149C29.7078 94.6168 29.1613 94.9784 28.5531 94.9784H28.2489C27.5801 94.8582 27.1548 94.075 27.2772 93.4732L38.1507 49.5668ZM35.2948 45.4116L34.5048 48.6634L23.7525 92.5686C23.4483 93.8936 23.6919 95.2787 24.3607 96.3623C25.0889 97.5071 26.1831 98.3492 27.5195 98.6507C27.8842 98.7107 28.3095 98.7708 28.6742 98.7708C31.043 98.7708 33.1089 97.1443 33.5948 94.9171L44.4077 50.8906L45.3189 47.2159L41.6124 46.3126C40.6407 46.0723 39.6083 45.8909 38.6972 45.8309L35.2948 45.4116Z" fill="#4C2F1B"/>
<path d="M60.8086 102.868H15.7939C15.1263 102.868 14.5181 102.265 14.5181 101.603V24.3317C14.5181 23.6698 15.1251 23.0668 15.7939 23.0668H60.8086C61.4774 23.0668 62.0845 23.6698 62.0845 24.3317V101.603C62.0845 102.327 61.538 102.868 60.8086 102.868Z" fill="white"/>
<path d="M14.6406 56.9149C14.6406 56.9149 28.1871 45.9534 42.2206 50.4112C56.2529 54.868 62.1465 49.3866 62.1465 49.3866V98.8332C62.1465 101.122 60.3241 102.868 58.0765 102.868H18.7106C16.4024 102.868 14.6406 101.062 14.6406 98.8332V56.9149Z" fill="#FFFDAB"/>
<path d="M28.673 96.9664C28.4294 96.9664 28.1871 96.9664 27.9436 96.9064C27.1536 96.6649 26.4253 96.1844 25.9394 95.5213C25.4536 94.8594 25.3324 94.0161 25.5747 93.1128L45.7441 11.0216C46.0483 9.99698 46.7765 9.15487 47.8088 8.73323L67.9782 2.04816C68.3429 1.92685 68.6459 1.92685 69.0106 1.92685C70.4076 1.92685 71.5624 2.83021 72.0482 4.03507C72.3524 4.81829 72.2918 5.72165 71.9271 6.4448C71.5624 7.16678 70.8947 7.7698 70.1047 8.07132L51.5759 14.1545L31.7724 94.5579C31.4065 95.9418 30.1306 96.9664 28.673 96.9664Z" fill="#FF5A5A"/>
<path d="M68.8896 3.7948C69.3755 3.7948 69.9219 4.15638 70.0443 4.69816C70.2866 5.36007 69.9231 6.08322 69.2543 6.32467L49.7537 12.8295L29.8279 94.1351C29.7067 94.7381 29.1602 95.0985 28.552 95.0985H28.2479C27.579 94.9784 27.1537 94.1951 27.2761 93.5933L47.5667 11.4433C47.6273 11.0216 47.992 10.7213 48.3567 10.5399L68.5249 3.85487C68.5855 3.7948 68.7684 3.7948 68.8896 3.7948ZM68.8896 0C68.4037 0 67.7955 0.0600667 67.249 0.301511L47.0808 6.98658C45.3796 7.58842 44.1643 8.85336 43.7996 10.5399L23.692 92.5698C23.0243 95.2799 24.7255 98.05 27.459 98.7131C27.8238 98.7732 28.249 98.8332 28.6126 98.8332C30.9814 98.8332 33.0473 97.2067 33.5331 94.9784L53.0337 15.6586L70.529 9.81678C71.8655 9.39513 72.8978 8.49178 73.4443 7.28691C74.0513 6.02198 74.1725 4.75704 73.7484 3.43204C73.0202 1.38507 71.1372 0 68.8896 0Z" fill="#4C2F1B"/>
<path d="M59.9584 106H16.7067C13.7902 106 11.4214 103.651 11.4214 100.76V25.2351C11.4214 22.3448 13.7914 19.9951 16.7067 19.9951H59.9596C62.876 19.9951 65.2449 22.3436 65.2449 25.2351V100.76C65.2437 103.651 62.8749 106 59.9584 106ZM17.7996 99.7366H58.926V26.3198H17.7996V99.7366Z" fill="#4C2F1B"/>
<path d="M54.8557 94.6768L50.9081 96.1219C50.5434 96.2421 49.9969 96.0619 49.8745 95.7003L48.4169 91.7854C48.2957 91.4238 48.4775 90.882 48.8422 90.7619L52.7898 89.3167C53.1545 89.1954 53.701 89.3768 53.8234 89.7384L55.281 93.6533C55.4639 94.135 55.2204 94.5567 54.8557 94.6768ZM37.6646 94.3164L37.7857 91.0646C37.7857 90.7631 38.0898 90.5829 38.3928 90.5829L41.6728 90.703C41.9769 90.703 42.1587 91.0045 42.1587 91.3048L42.0363 94.5567C42.0363 94.8582 41.7334 95.0384 41.4292 95.0384L38.1492 94.9183C37.8463 94.9183 37.6646 94.6167 37.6646 94.3164ZM44.4681 89.0164L41.7345 87.2097C41.6134 87.0896 41.4922 86.8481 41.674 86.728L43.4963 84.0179C43.6175 83.8978 43.861 83.7777 43.9822 83.9579L46.7157 85.7646C46.8369 85.8847 46.9592 86.1261 46.7763 86.2463L44.954 88.9563C44.8328 89.0765 44.6498 89.1365 44.4681 89.0164Z" fill="#FFEE88"/>
<path d="M52.67 75.525H51.0295C50.4224 75.525 49.9365 75.0433 49.9365 74.4414V58.6015C49.9365 57.9997 50.4224 57.5179 51.0295 57.5179H52.67C53.2771 57.5179 53.763 57.9997 53.763 58.6015V74.4414C53.763 75.0433 53.2153 75.525 52.67 75.525Z" fill="white"/>
<path d="M28.673 96.9664C28.4294 96.9664 28.1871 96.9664 27.9436 96.9064C27.1536 96.6649 26.4253 96.1844 25.9394 95.5213C25.4536 94.8594 25.3324 94.0161 25.5747 93.1127L36.7524 47.521L38.4536 47.7612C39.3647 47.8814 40.2759 48.0616 41.1871 48.2429L43.0094 48.6646L31.7712 94.5579C31.4065 95.9418 30.1306 96.9664 28.673 96.9664Z" fill="#FFB69C"/>
<path d="M38.1507 49.5668C38.9407 49.6269 39.8519 49.8671 40.6419 49.9884L29.8289 94.0149C29.7078 94.6168 29.1613 94.9784 28.5531 94.9784H28.2489C27.5801 94.8582 27.1548 94.075 27.2772 93.4732L38.1507 49.5668ZM35.2948 45.4116L34.5048 48.6634L23.7525 92.5686C23.4483 93.8936 23.6919 95.2787 24.3607 96.3623C25.0889 97.5071 26.1831 98.3492 27.5195 98.6507C27.8842 98.7107 28.3095 98.7708 28.6742 98.7708C31.043 98.7708 33.1089 97.1443 33.5948 94.9171L44.4077 50.8906L45.3189 47.2159L41.6124 46.3126C40.6407 46.0723 39.6083 45.8909 38.6972 45.8309L35.2948 45.4116Z" fill="#4C2F1B"/>
<path d="M49.9351 80.6448C49.9351 81.6765 50.7785 82.5116 51.8192 82.5116C52.8587 82.5116 53.7021 81.6765 53.7021 80.6448C53.7021 79.6142 52.8587 78.778 51.8192 78.778C50.7785 78.778 49.9351 79.6131 49.9351 80.6448Z" fill="white"/>
<path d="M58.0149 106H18.7108C14.762 106 11.4214 102.808 11.4214 98.7732V56.9149C11.4214 55.9515 11.8467 55.1082 12.5761 54.4451C13.1832 53.9634 27.6408 42.4601 43.0714 47.3985C54.856 51.1321 59.716 47.1582 59.899 46.9769C60.8707 46.0735 62.2072 45.9522 63.3013 46.375C64.4549 46.8567 65.1843 48.0616 65.1843 49.2665V98.7131C65.2437 102.808 62.0243 106 58.0149 106ZM17.7996 58.5415V98.7732C17.7996 99.2549 18.1643 99.6765 18.7108 99.6765H58.0766C58.5625 99.6765 58.9878 99.2549 58.9878 98.7732V54.4451C55.2219 55.5299 49.4496 56.0717 41.249 53.4217C31.2855 50.2899 21.2008 56.2519 17.7996 58.5415Z" fill="#4C2F1B"/>
<path d="M5.65596 30.9532C10.6134 35.8692 18.6536 35.8692 23.611 30.9532C28.5696 26.0371 28.5696 18.0671 23.611 13.1511C18.6536 8.23619 10.6134 8.23619 5.65596 13.1511C0.697362 18.0671 0.697362 26.0371 5.65596 30.9532Z" fill="#FFFA94"/>
<path d="M15.0055 18.0082H14.2155C13.9114 18.0082 13.7296 17.7679 13.7296 17.5265V14.8164C13.7296 14.5149 13.9719 14.3347 14.2155 14.3347H15.0055C15.3096 14.3347 15.4914 14.5762 15.4914 14.8164V17.5265C15.4914 17.7668 15.3084 18.0082 15.0055 18.0082ZM10.509 21.6817V22.4649C10.509 22.7664 10.2667 22.9466 10.0231 22.9466H7.28959C6.98547 22.9466 6.80371 22.7052 6.80371 22.4649V21.6817C6.80371 21.3802 7.04725 21.2 7.28959 21.2H10.0231C10.3272 21.1399 10.509 21.3802 10.509 21.6817ZM14.2155 26.0783H15.0055C15.3096 26.0783 15.4914 26.3198 15.4914 26.5601V29.2701C15.4914 29.5716 15.2478 29.7518 15.0055 29.7518H14.2155C13.9114 29.7518 13.7296 29.5104 13.7296 29.2701V26.5601C13.669 26.3198 13.9114 26.0783 14.2155 26.0783ZM18.7108 22.4649V21.6817C18.7108 21.3802 18.9543 21.2 19.1966 21.2H21.9302C22.2343 21.2 22.416 21.4403 22.416 21.6817V22.4649C22.416 22.7664 22.1737 22.9466 21.9302 22.9466H19.1966C18.8937 23.0668 18.7108 22.7653 18.7108 22.4649Z" fill="#242424"/>
<path d="M14.6406 36.4981C10.7523 36.4981 7.04705 34.9918 4.25175 32.2817C1.45764 29.5116 0 25.8381 0 21.9832C0 18.1283 1.51823 14.4549 4.25294 11.6835C7.04705 8.91341 10.7535 7.4671 14.6418 7.4671C18.53 7.4671 22.2353 8.97348 25.0294 11.6835C27.8247 14.4549 29.2823 18.1283 29.2823 21.9832C29.2823 25.8381 27.7641 29.5116 25.0294 32.2829C22.2341 35.0518 18.5288 36.4981 14.6406 36.4981ZM14.6406 11.3832C11.8453 11.3832 9.11294 12.4079 6.98647 14.5149C2.79411 18.6701 2.79411 25.5366 6.98647 29.6918C11.1776 33.847 18.1035 33.847 22.2947 29.6918C26.4859 25.5366 26.4859 18.6701 22.2947 14.5149C20.1682 12.4067 17.3741 11.3832 14.6406 11.3832Z" fill="#4C2F1B"/>
</svg>
