<svg width="21" height="21" viewBox="0 0 21 21" fill="none" xmlns="http://www.w3.org/2000/svg">
<path d="M1.31465 17.3576C1.39511 18.3154 2.13431 19.0935 3.08473 19.2368C4.70706 19.4814 6.39344 19.7583 8.12416 19.7583C9.85488 19.7583 11.5413 19.4814 13.1636 19.2368C14.114 19.0935 14.8532 18.3154 14.9337 17.3576C15.1242 15.09 15.3557 12.7231 15.3557 10.289C15.3557 7.55806 15.388 4.91173 15.2543 2.39539C15.2288 1.91548 14.8584 1.5267 14.3804 1.47708C10.2594 1.04931 5.98891 1.04931 1.86789 1.47708C1.38988 1.5267 1.0195 1.91548 0.994003 2.39538C0.860325 4.91172 0.892577 7.55806 0.892577 10.289C0.892577 12.7231 1.12415 15.09 1.31465 17.3576Z" fill="white" stroke="#9F9F9F" stroke-width="1.5" stroke-linejoin="round"/>
<path d="M3.97469 19.3712C2.50775 19.1517 1.36492 17.9384 1.23823 16.4606C1.06742 14.4681 0.892577 12.4038 0.892577 10.2888C0.892577 9.84191 0.891713 9.39728 0.890854 8.95512C0.889588 8.30328 0.888332 7.6568 0.889869 7.01631C5.67355 6.72487 10.5748 6.72487 15.3584 7.01631C15.36 7.65681 15.3587 8.3033 15.3575 8.95515C15.3566 9.3973 15.3557 9.84192 15.3557 10.2888C15.3557 12.4038 15.1809 14.4681 15.0101 16.4606C14.8834 17.9384 13.7406 19.1517 12.2736 19.3712C10.9274 19.5727 9.54061 19.7581 8.12416 19.7581C6.7077 19.7581 5.32094 19.5727 3.97469 19.3712Z" fill="white" stroke="#9F9F9F" stroke-width="1.5" stroke-linejoin="round"/>
<path d="M15.3469 5.85828C16.4217 5.91327 17.4709 6.02017 18.4866 6.1062C18.9655 6.14676 19.3538 6.51609 19.4223 6.99176C19.5721 8.03222 19.75 9.11722 19.75 10.2325C19.75 11.3478 19.5721 12.4328 19.4223 13.4733C19.3538 13.9489 18.9655 14.3183 18.4867 14.3588C17.4101 14.45 16.296 14.5646 15.1537 14.6161" stroke="#9F9F9F" stroke-width="1.5" stroke-linejoin="round"/>
<path d="M5.78625 14.6382L5.78625 9.7887" stroke="#9F9F9F" stroke-width="1.5" stroke-linecap="round" stroke-linejoin="round"/>
<path d="M10.3196 14.6382L10.3196 9.7887" stroke="#9F9F9F" stroke-width="1.5" stroke-linecap="round" stroke-linejoin="round"/>
</svg>
