<svg width="24" height="24" viewBox="0 0 24 24" fill="none" xmlns="http://www.w3.org/2000/svg">
<path d="M12 23C18.0751 23 23 18.0751 23 12C23 5.92487 18.0751 1 12 1C5.92487 1 1 5.92487 1 12C1 18.0751 5.92487 23 12 23Z" fill="#ECF1F9" stroke="#817CBA" stroke-width="1.5" stroke-linecap="round" stroke-linejoin="round"/>
<path d="M4.80761 16.2308C5.59306 16.2308 6.34634 15.9187 6.90174 15.3633C7.45713 14.808 7.76915 14.0547 7.76915 13.2692V10.7308C7.76915 9.94531 8.08117 9.19204 8.63657 8.63664C9.19196 8.08124 9.94524 7.76923 10.7307 7.76923C11.5161 7.76923 12.2694 7.45721 12.8248 6.90181C13.3802 6.34641 13.6922 5.59314 13.6922 4.80769V1.12936C13.1406 1.04419 12.5755 1 12 1C5.92487 1 1 5.92487 1 12C1 13.4992 1.29992 14.9284 1.84304 16.2308H4.80761Z" fill="white" stroke="#817CBA" stroke-width="1.5" stroke-linecap="round" stroke-linejoin="round"/>
<path d="M22.9985 11.8301C22.1515 11.3908 21.2122 11.159 20.258 11.1537H16.6534C15.868 11.1537 15.1147 11.4658 14.5593 12.0212C14.0039 12.5766 13.6919 13.3298 13.6919 14.1153C13.6919 14.9007 14.0039 15.654 14.5593 16.2094C15.1147 16.7648 15.868 17.0768 16.6534 17.0768C17.2145 17.0768 17.7525 17.2997 18.1492 17.6964C18.5459 18.0931 18.7688 18.6312 18.7688 19.1922V20.6645H18.7773C21.3319 18.6635 22.9792 15.5572 22.9996 12.0653V11.9345C22.9994 11.8996 22.999 11.8649 22.9985 11.8301Z" fill="white" stroke="#817CBA" stroke-width="1.5" stroke-linecap="round" stroke-linejoin="round"/>
</svg>
