<svg width="29" height="29" viewBox="0 0 29 29" fill="none" xmlns="http://www.w3.org/2000/svg">
<path fill-rule="evenodd" clip-rule="evenodd" d="M16.1124 8.62185L18.3426 6.39104C19.1924 5.54095 19.6173 5.1159 20.1134 4.97308C20.475 4.869 20.8585 4.869 21.22 4.97308C21.7162 5.1159 22.1411 5.54095 22.9909 6.39104C23.8402 7.24065 24.2649 7.66546 24.4076 8.1614C24.5116 8.52279 24.5116 8.90618 24.4076 9.26756C24.2649 9.76351 23.8402 10.1883 22.9909 11.0379L20.7854 13.2441C18.847 12.1324 17.2381 10.5353 16.1124 8.62185ZM14.6582 10.0765L6.42044 18.3169C5.99552 18.7419 5.78306 18.9544 5.64338 19.2155C5.50369 19.4766 5.44478 19.7713 5.32694 20.3606L4.54967 24.2482C4.48316 24.5808 4.44991 24.7471 4.54453 24.8417C4.63914 24.9363 4.80544 24.903 5.13805 24.8365L9.02346 24.0592L9.0235 24.0592L9.02354 24.0592C9.61303 23.9412 9.90779 23.8823 10.1689 23.7425C10.43 23.6027 10.6426 23.3901 11.0676 22.9649L19.3276 14.7024C17.44 13.5264 15.8455 11.9426 14.6582 10.0765Z" fill="#50429B"/>
</svg>
