<svg width="28" height="28" viewBox="0 0 28 28" fill="none" xmlns="http://www.w3.org/2000/svg">
<mask id="path-1-inside-1_297_681" fill="white">
<path fill-rule="evenodd" clip-rule="evenodd" d="M15.6285 7.72634L17.8586 5.49553C18.7084 4.64544 19.1334 4.2204 19.6295 4.07757C19.991 3.97349 20.3746 3.97349 20.7361 4.07757C21.2322 4.2204 21.6571 4.64544 22.5069 5.49553C23.3563 6.34514 23.781 6.76995 23.9237 7.26589C24.0277 7.62728 24.0277 8.01067 23.9237 8.37206C23.781 8.868 23.3563 9.2928 22.5069 10.1424L20.3014 12.3486C18.363 11.2369 16.7542 9.6398 15.6285 7.72634ZM14.1743 9.18102L5.9365 17.4214C5.51157 17.8464 5.29911 18.0589 5.15943 18.32C5.01975 18.5811 4.96083 18.8757 4.84299 19.4651L4.06572 23.3527C3.99922 23.6853 3.96597 23.8516 4.06058 23.9462C4.15519 24.0408 4.3215 24.0075 4.6541 23.941L8.53951 23.1637L8.53955 23.1637L8.53959 23.1637C9.12908 23.0457 9.42384 22.9867 9.68495 22.847C9.94608 22.7072 10.1586 22.4946 10.5837 22.0694L18.8436 13.8069C16.9561 12.6309 15.3615 11.0471 14.1743 9.18102Z"/>
</mask>
<path d="M17.8586 5.49553L19.2731 6.90952L17.8586 5.49553ZM15.6285 7.72634L14.2141 6.31235L13.12 7.4067L13.9047 8.74044L15.6285 7.72634ZM19.6295 4.07757L19.0762 2.15563L19.0762 2.15563L19.6295 4.07757ZM20.7361 4.07757L21.2894 2.15563L21.2894 2.15563L20.7361 4.07757ZM22.5069 5.49553L23.9214 4.08154L23.9214 4.08154L22.5069 5.49553ZM23.9237 7.26589L22.0017 7.81897V7.81898L23.9237 7.26589ZM23.9237 8.37206L22.0017 7.81897V7.81897L23.9237 8.37206ZM22.5069 10.1424L23.9214 11.5564L23.9214 11.5564L22.5069 10.1424ZM20.3014 12.3486L19.3064 14.0835L20.6339 14.8449L21.7158 13.7626L20.3014 12.3486ZM14.1743 9.18102L15.8617 8.10743L14.523 6.00332L12.7598 7.76703L14.1743 9.18102ZM5.9365 17.4214L7.35093 18.8353L7.35093 18.8353L5.9365 17.4214ZM5.15943 18.32L6.92288 19.2635L6.92288 19.2635L5.15943 18.32ZM4.84299 19.4651L6.80418 19.8572L4.84299 19.4651ZM4.06572 23.3527L6.0269 23.7448L6.0269 23.7448L4.06572 23.3527ZM4.06058 23.9462L2.64645 25.3605L4.06058 23.9462ZM4.6541 23.941L5.04645 25.9021H5.04645L4.6541 23.941ZM8.53951 23.1637L8.24641 21.1853L8.19657 21.1926L8.14716 21.2025L8.53951 23.1637ZM8.53955 23.1637L8.83265 25.1421L8.92957 25.1277L9.02462 25.104L8.53955 23.1637ZM8.53959 23.1637L8.14724 21.2025L8.10063 21.2118L8.05452 21.2234L8.53959 23.1637ZM9.68495 22.847L10.6289 24.6102L10.6289 24.6102L9.68495 22.847ZM10.5837 22.0694L11.9981 23.4834L11.9981 23.4834L10.5837 22.0694ZM18.8436 13.8069L20.2581 15.2209L22.0379 13.4405L19.9012 12.1093L18.8436 13.8069ZM16.4442 4.08153L14.2141 6.31235L17.0429 9.14034L19.2731 6.90952L16.4442 4.08153ZM19.0762 2.15563C18.4478 2.33653 17.9679 2.67296 17.5909 2.98942C17.2338 3.28911 16.844 3.68157 16.4442 4.08153L19.2731 6.90952C19.723 6.4594 19.9706 6.21429 20.1625 6.05323C20.3344 5.90894 20.315 5.96144 20.1828 5.99951L19.0762 2.15563ZM21.2894 2.15563C20.5663 1.94747 19.7992 1.94747 19.0762 2.15563L20.1828 5.99951L20.1828 5.99951L21.2894 2.15563ZM23.9214 4.08154C23.5215 3.68157 23.1317 3.28911 22.7747 2.98942C22.3976 2.67296 21.9178 2.33653 21.2894 2.15563L20.1828 5.99951C20.0505 5.96144 20.0312 5.90894 20.2031 6.05323C20.395 6.21429 20.6425 6.4594 21.0925 6.90953L23.9214 4.08154ZM25.8457 6.71281C25.6649 6.0847 25.3288 5.60495 25.0126 5.22799C24.7131 4.87101 24.321 4.48127 23.9214 4.08154L21.0925 6.90952C21.5423 7.35941 21.7871 7.60687 21.948 7.79869C22.0922 7.97052 22.0397 7.95115 22.0017 7.81897L25.8457 6.71281ZM25.8457 8.92514C26.0537 8.20236 26.0537 7.43559 25.8457 6.71281L22.0017 7.81898V7.81897L25.8457 8.92514ZM23.9214 11.5564C24.321 11.1567 24.7131 10.7669 25.0126 10.41C25.3288 10.033 25.6649 9.55325 25.8457 8.92514L22.0017 7.81897C22.0397 7.6868 22.0922 7.66743 21.948 7.83926C21.7871 8.03108 21.5423 8.27854 21.0925 8.72842L23.9214 11.5564ZM21.7158 13.7626L23.9214 11.5564L21.0925 8.72842L18.887 10.9346L21.7158 13.7626ZM13.9047 8.74044C15.2058 10.9522 17.0653 12.7982 19.3064 14.0835L21.2964 10.6137C19.6607 9.67558 18.3025 8.32745 17.3523 6.71224L13.9047 8.74044ZM12.7598 7.76703L4.52206 16.0074L7.35093 18.8353L15.5887 10.595L12.7598 7.76703ZM4.52206 16.0074C4.17957 16.35 3.70746 16.7943 3.39598 17.3765L6.92288 19.2635C6.89384 19.3178 6.87448 19.3298 6.93461 19.2623C7.01116 19.1763 7.12295 19.0634 7.35093 18.8353L4.52206 16.0074ZM3.39598 17.3765C3.0845 17.9586 2.97678 18.598 2.88181 19.073L6.80418 19.8572C6.8674 19.541 6.89929 19.3854 6.92833 19.274C6.95114 19.1865 6.95192 19.2093 6.92288 19.2635L3.39598 17.3765ZM2.88181 19.073L2.10453 22.9606L6.0269 23.7448L6.80418 19.8572L2.88181 19.073ZM2.10453 22.9606C2.08421 23.0622 2.01931 23.36 2.00528 23.6378C1.98926 23.9549 2.00806 24.7222 2.64645 25.3605L5.47471 22.5319C5.72103 22.7782 5.87035 23.0684 5.94377 23.342C6.00867 23.5838 6.00358 23.7724 6.00018 23.8396C5.99662 23.9102 5.98859 23.9464 5.99456 23.9118C6.00005 23.8799 6.0087 23.8358 6.0269 23.7448L2.10453 22.9606ZM2.64645 25.3605C3.28484 25.9988 4.05213 26.0175 4.36926 26.0015C4.64702 25.9874 4.94482 25.9225 5.04645 25.9021L4.26175 21.9799C4.1707 21.9981 4.12669 22.0067 4.0948 22.0122C4.06012 22.0182 4.09635 22.0102 4.16693 22.0066C4.23418 22.0032 4.42275 21.9981 4.66459 22.0629C4.93821 22.1363 5.22838 22.2856 5.47471 22.5319L2.64645 25.3605ZM5.04645 25.9021L8.93186 25.1248L8.14716 21.2025L4.26175 21.9799L5.04645 25.9021ZM8.83261 25.1421L8.83265 25.1421L8.24645 21.1853L8.24641 21.1853L8.83261 25.1421ZM9.02462 25.104L9.02466 25.1039L8.05452 21.2234L8.05448 21.2234L9.02462 25.104ZM8.93195 25.1248C9.40708 25.0297 10.0466 24.9219 10.6289 24.6102L8.74106 21.0837C8.79534 21.0547 8.8181 21.0554 8.7306 21.0783C8.6192 21.1073 8.46351 21.1392 8.14724 21.2025L8.93195 25.1248ZM10.6289 24.6102C11.2111 24.2985 11.6555 23.8261 11.9981 23.4834L9.16925 20.6554C8.94119 20.8835 8.82828 20.9954 8.74231 21.072C8.67479 21.1322 8.68675 21.1128 8.74104 21.0837L10.6289 24.6102ZM11.9981 23.4834L20.2581 15.2209L17.4292 12.3929L9.16925 20.6554L11.9981 23.4834ZM19.9012 12.1093C18.2685 11.0922 16.8889 9.72193 15.8617 8.10743L12.4868 10.2546C13.8342 12.3723 15.6436 14.1696 17.7861 15.5044L19.9012 12.1093Z" fill="#A5ABDE" mask="url(#path-1-inside-1_297_681)"/>
</svg>
