<svg width="10" height="12" viewBox="0 0 10 12" fill="none" xmlns="http://www.w3.org/2000/svg">
<path d="M0.491693 1.55147C0.187122 1.27074 0.167795 0.796264 0.448526 0.491693C0.729256 0.187122 1.20374 0.167795 1.50831 0.448526L0.491693 1.55147ZM1.50831 11.5515C1.20374 11.8322 0.729257 11.8129 0.448526 11.5083C0.167796 11.2037 0.187123 10.7293 0.491694 10.4485L1.50831 11.5515ZM1.50831 0.448526C3.149 1.96079 3.9575 3.02446 4.93348 4.51298L3.67908 5.33546C2.75533 3.92661 2.02356 2.96343 0.491693 1.55147L1.50831 0.448526ZM0.491694 10.4485C2.02356 9.03657 2.75533 8.07339 3.67908 6.66454L4.93348 7.48702C3.9575 8.97554 3.149 10.0392 1.50831 11.5515L0.491694 10.4485ZM4.93348 4.51298C5.52506 5.41521 5.52506 6.58479 4.93348 7.48702L3.67908 6.66454C3.94319 6.26174 3.94319 5.73826 3.67908 5.33546L4.93348 4.51298Z" fill="#50429B"/>
<path d="M4.49169 1.55147C4.18712 1.27074 4.1678 0.796264 4.44853 0.491693C4.72926 0.187122 5.20374 0.167795 5.50831 0.448526L4.49169 1.55147ZM5.50831 11.5515C5.20374 11.8322 4.72926 11.8129 4.44853 11.5083C4.1678 11.2037 4.18712 10.7293 4.49169 10.4485L5.50831 11.5515ZM5.50831 0.448526C7.149 1.96079 7.9575 3.02446 8.93348 4.51298L7.67908 5.33546C6.75533 3.92661 6.02356 2.96343 4.49169 1.55147L5.50831 0.448526ZM4.49169 10.4485C6.02356 9.03657 6.75533 8.07339 7.67908 6.66454L8.93348 7.48702C7.9575 8.97554 7.149 10.0392 5.50831 11.5515L4.49169 10.4485ZM8.93348 4.51298C9.52506 5.41521 9.52506 6.58479 8.93348 7.48702L7.67908 6.66454C7.94319 6.26174 7.94319 5.73826 7.67908 5.33546L8.93348 4.51298Z" fill="#50429B"/>
</svg>
