<svg width="26" height="23" viewBox="0 0 26 23" fill="none" xmlns="http://www.w3.org/2000/svg">
<path d="M25 11.9374C25 13.7751 19.6274 20.2499 13 20.2499C6.37258 20.2499 1 13.7751 1 11.9374C1 10.0998 6.37258 3.62494 13 3.62494C19.6274 3.62494 25 10.0998 25 11.9374Z" fill="white"/>
<path d="M1.75 11.9374C1.75 11.8649 1.78407 11.6776 1.92698 11.3621C2.06286 11.0621 2.27266 10.6993 2.55697 10.2941C3.12504 9.48449 3.95976 8.54934 5.00085 7.66318C7.09343 5.882 9.92689 4.37494 13 4.37494V2.87494C9.44568 2.87494 6.27915 4.60529 4.02859 6.52094C2.8981 7.4832 1.97546 8.51132 1.32907 9.43257C1.00614 9.89281 0.744439 10.3373 0.56061 10.7432C0.383819 11.1335 0.25 11.5506 0.25 11.9374H1.75ZM13 4.37494C15.3598 4.37494 17.58 5.26266 19.4396 6.49005L20.2659 5.23816C18.2397 3.9008 15.7354 2.87494 13 2.87494V4.37494ZM6.86555 17.5811C5.29376 16.5965 3.98728 15.3747 3.07965 14.2672C2.62577 13.7133 2.28126 13.1998 2.05429 12.7711C1.81387 12.3171 1.75 12.0412 1.75 11.9374H0.25C0.25 12.4185 0.458174 12.9622 0.728661 13.4731C1.0126 14.0093 1.41787 14.6059 1.91946 15.218C2.92277 16.4422 4.34999 17.7753 6.06925 18.8523L6.86555 17.5811Z" fill="#9F9F9F"/>
<path d="M23.733 8.248C23.4593 7.93713 22.9854 7.90703 22.6745 8.18077C22.3636 8.45451 22.3335 8.92843 22.6073 9.2393L23.733 8.248ZM10.7163 19.2295C10.313 19.1348 9.9094 19.385 9.81476 19.7883C9.72012 20.1915 9.9703 20.5951 10.3736 20.6898L10.7163 19.2295ZM24.2501 11.9375C24.2501 12.0101 24.2161 12.1973 24.0731 12.5128C23.9373 12.8128 23.7275 13.1756 23.4432 13.5808C22.8751 14.3904 22.0404 15.3256 20.9993 16.2118C18.9067 17.9929 16.0732 19.5 13.0001 19.5V21C16.5544 21 19.721 19.2696 21.9715 17.354C23.102 16.3917 24.0247 15.3636 24.6711 14.4424C24.994 13.9821 25.2557 13.5376 25.4395 13.1317C25.6163 12.7414 25.7501 12.3243 25.7501 11.9375H24.2501ZM22.6073 9.2393C23.1603 9.86729 23.5851 10.4615 23.8671 10.9601C24.1664 11.4894 24.2501 11.8161 24.2501 11.9375H25.7501C25.7501 11.4097 25.4986 10.7979 25.1728 10.2217C24.8296 9.6149 24.3395 8.93674 23.733 8.248L22.6073 9.2393ZM13.0001 19.5C12.221 19.5 11.4573 19.4034 10.7163 19.2295L10.3736 20.6898C11.2176 20.8879 12.0964 21 13.0001 21V19.5Z" fill="#9F9F9F"/>
<path d="M13.1583 7.34375C10.2889 7.34375 7.96289 9.46384 7.96289 12.0791C7.96289 14.5473 11.1684 14.5175 12.9866 12.8485L13.8604 12.0465C15.6705 10.3849 15.6154 7.34375 13.1583 7.34375Z" fill="#9F9F9F"/>
<path d="M24.04 1C16.2496 10.0957 11.1931 14.6552 1 22" stroke="#9F9F9F" stroke-width="1.5" stroke-linecap="round" stroke-linejoin="round"/>
</svg>
