<svg width="61" height="60" viewBox="0 0 61 60" fill="none" xmlns="http://www.w3.org/2000/svg">
<rect x="0.5" width="60" height="60" rx="16" fill="#50429B"/>
<path d="M38.9746 14H23C18.6063 14 15 17.6063 15 22.0254V38C15 42.3937 18.6063 46 23 46H38.9746C43.3937 46 47 42.3937 47 37.9746V22.0254C47 17.6063 43.3937 14 38.9746 14ZM35.2921 30H32.2698V39.9048H28.4603V30H26.4286V25.9365H28.2064V24.2095C28.2064 22.5841 29.019 20.019 32.4476 20.019H35.5714V23.3968H33.3619C33.0064 23.3968 32.5238 23.6254 32.5238 24.4127V25.9365H35.6476L35.2921 30Z" fill="white"/>
</svg>
