<svg width="86" height="86" viewBox="0 0 86 86" fill="none" xmlns="http://www.w3.org/2000/svg">
<path d="M78.8333 39.6675V59.6625C78.8333 70.2333 70.2333 78.8333 59.6625 78.8333H26.3375C15.7666 78.8333 7.16663 70.2333 7.16663 59.6625V33.8267H77.9016C78.4391 35.4392 78.7258 37.0875 78.7975 38.8433C78.8333 39.0942 78.8333 39.4167 78.8333 39.6675Z" fill="#EAE7FF"/>
<path opacity="0.4" d="M77.9016 33.8267H7.16663V23.005C7.16663 14.2617 14.2616 7.16666 23.005 7.16666H31.3541C37.195 7.16666 39.0225 9.06582 41.3516 12.1833L46.3683 18.8483C47.4791 20.3175 47.6225 20.5325 49.7008 20.5325H59.6983C68.1908 20.4967 75.4291 26.0867 77.9016 33.8267Z" fill="#EAE7FF"/>
</svg>
