<svg width="24" height="22" viewBox="0 0 24 22" fill="none" xmlns="http://www.w3.org/2000/svg">
<path d="M6.66667 2.0625C6.66667 0.923398 7.5625 0 8.66667 0H10.6667V3.4375C10.6667 3.81734 10.9667 4.125 11.3333 4.125H12.6667C13.0333 4.125 13.3333 3.81734 13.3333 3.4375V0H15.3333C16.4375 0 17.3333 0.923398 17.3333 2.0625V7.5625C17.3333 8.70117 16.4375 9.625 15.3333 9.625H8.66667C7.5625 9.625 6.66667 8.70117 6.66667 7.5625V2.0625ZM4 12.375V15.8125C4 16.1906 4.3 16.5 4.66667 16.5H6C6.36667 16.5 6.66667 16.1906 6.66667 15.8125V12.375H8.66667C9.77083 12.375 10.6667 13.2988 10.6667 14.4375V19.9375C10.6667 21.0762 9.77083 22 8.66667 22H2C0.895417 22 0 21.0762 0 19.9375V14.4375C0 13.2988 0.895417 12.375 2 12.375H4ZM17.3333 12.375V15.8125C17.3333 16.1906 17.6333 16.5 18 16.5H19.3333C19.7 16.5 20 16.1906 20 15.8125V12.375H22C23.1042 12.375 24 13.2988 24 14.4375V19.9375C24 21.0762 23.1042 22 22 22H15.3333C14.2292 22 13.3333 21.0762 13.3333 19.9375V14.4375C13.3333 13.2988 14.2292 12.375 15.3333 12.375H17.3333Z" fill="#50429B"/>
</svg>
