<svg width="28" height="28" viewBox="0 0 28 28" fill="none" xmlns="http://www.w3.org/2000/svg">
<path d="M17.8403 13.5147C19.9628 13.5147 21.6835 11.7144 21.6835 9.49372C21.6835 7.77586 20.6539 6.3096 19.205 5.73365" stroke="#A5ABDE" stroke-width="2" stroke-linecap="round" stroke-linejoin="round"/>
<path d="M11.3734 12.7174C13.6742 12.7174 15.5394 10.7659 15.5394 8.3587C15.5394 5.95146 13.6742 4 11.3734 4C9.07253 4 7.20734 5.95146 7.20734 8.3587C7.20734 10.7659 9.07253 12.7174 11.3734 12.7174Z" stroke="#A5ABDE" stroke-width="2" stroke-linecap="round" stroke-linejoin="round"/>
<path d="M17.7546 18.8412C19.7924 20.2613 18.4163 23 15.9679 23H6.77337C4.32494 23 2.94891 20.2613 4.98672 18.8412C6.81459 17.5675 9.00977 16.8252 11.3706 16.8252C13.7315 16.8252 15.9267 17.5675 17.7546 18.8412Z" stroke="#A5ABDE" stroke-width="2"/>
<path d="M23.0897 19.1632L22.518 19.9837L23.0897 19.1632ZM21 21.9998C20.4477 21.9998 20 22.4475 20 22.9998C20 23.552 20.4477 23.9998 21 23.9998V21.9998ZM21.8559 17.313C21.3533 17.0841 20.7603 17.306 20.5314 17.8087C20.3025 18.3113 20.5245 18.9043 21.0271 19.1332L21.8559 17.313ZM21 23.9998H21.4415V21.9998H21V23.9998ZM21.4415 23.9998C22.9508 23.9998 24.1944 23.1502 24.7266 21.9895C24.9945 21.4053 25.085 20.7303 24.9104 20.0624C24.7339 19.3873 24.3055 18.7915 23.6614 18.3427L22.518 19.9837C22.8139 20.1898 22.9317 20.4012 22.9754 20.5682C23.0209 20.7424 23.0054 20.9448 22.9086 21.1559C22.7114 21.586 22.1909 21.9998 21.4415 21.9998V23.9998ZM21.0271 19.1332C21.5491 19.3708 22.0477 19.6559 22.518 19.9837L23.6614 18.3427C23.0935 17.947 22.4897 17.6016 21.8559 17.313L21.0271 19.1332Z" fill="#A5ABDE"/>
</svg>
