<svg width="28" height="28" viewBox="0 0 28 28" fill="none" xmlns="http://www.w3.org/2000/svg">
<path d="M17.8403 13.5147C19.9629 13.5147 21.6836 11.7144 21.6836 9.49372C21.6836 7.77585 20.6539 6.3096 19.2051 5.73364" stroke="#50429B" stroke-width="2" stroke-linecap="round" stroke-linejoin="round"/>
<path d="M11.3734 12.7174C13.6743 12.7174 15.5394 10.7659 15.5394 8.3587C15.5394 5.95146 13.6743 4 11.3734 4C9.07259 4 7.2074 5.95146 7.2074 8.3587C7.2074 10.7659 9.07259 12.7174 11.3734 12.7174Z" fill="#50429B" stroke="#50429B" stroke-width="2" stroke-linecap="round" stroke-linejoin="round"/>
<path d="M17.7546 18.8412C19.7924 20.2612 18.4163 23 15.9679 23H6.77337C4.32494 23 2.94891 20.2612 4.98672 18.8412C6.81459 17.5675 9.00977 16.8252 11.3706 16.8252C13.7315 16.8252 15.9267 17.5675 17.7546 18.8412Z" fill="#50429B" stroke="#50429B" stroke-width="2"/>
<path d="M21.4415 21.9998C20.8892 21.9998 20.4415 22.4475 20.4415 22.9998C20.4415 23.5521 20.8892 23.9998 21.4415 23.9998V21.9998ZM23.0897 19.1632L22.518 19.9837L23.0897 19.1632ZM21.8559 17.313C21.3533 17.0841 20.7603 17.3061 20.5314 17.8087C20.3026 18.3113 20.5245 18.9043 21.0271 19.1332L21.8559 17.313ZM21.4415 23.9998C22.9508 23.9998 24.1944 23.1502 24.7266 21.9895C24.9945 21.4053 25.085 20.7304 24.9104 20.0624C24.734 19.3873 24.3055 18.7916 23.6615 18.3428L22.518 19.9837C22.8139 20.1899 22.9318 20.4012 22.9754 20.5682C23.021 20.7425 23.0054 20.9448 22.9086 21.1559C22.7114 21.586 22.191 21.9998 21.4415 21.9998V23.9998ZM21.0271 19.1332C21.5491 19.3709 22.0478 19.656 22.518 19.9837L23.6615 18.3428C23.0935 17.947 22.4897 17.6016 21.8559 17.313L21.0271 19.1332Z" fill="#50429B"/>
</svg>