<svg width="23" height="24" viewBox="0 0 23 24" fill="none" xmlns="http://www.w3.org/2000/svg">
<path d="M0.930514 11.2593C0.918079 11.6733 1.24363 12.019 1.65766 12.0315C2.07169 12.0439 2.4174 11.7183 2.42984 11.3043L0.930514 11.2593ZM20.5693 11.2789C20.5825 11.6929 20.9287 12.0178 21.3427 12.0047C21.7567 11.9915 22.0817 11.6453 22.0686 11.2313L20.5693 11.2789ZM2.42984 11.3043C2.49991 8.97122 3.12309 6.57356 4.52844 4.77667C5.9097 3.01059 8.10284 1.75 11.5 1.75V0.25C7.67776 0.25 5.03413 1.69527 3.3469 3.85258C1.68376 5.97907 1.00671 8.72232 0.930514 11.2593L2.42984 11.3043ZM11.5 1.75C14.891 1.75 17.0822 3.00608 18.4638 4.76684C19.8694 6.55818 20.4953 8.94926 20.5693 11.2789L22.0686 11.2313C21.9881 8.69776 21.3077 5.9613 19.6439 3.84089C17.9561 1.68989 15.3151 0.25 11.5 0.25V1.75Z" fill="#817CBA"/>
<path d="M1 14.2496C1 10.2116 3.66667 9.20209 5 9.20209C7.4 9.20209 8 11.2211 8 12.2306V16.2686C8 18.6914 6 19.2971 5 19.2971C3.66667 19.2971 1 18.2876 1 14.2496Z" fill="#ECF1F9"/>
<path d="M5 8.45209C4.17192 8.45209 2.98453 8.75804 1.99566 9.65648C0.983507 10.5761 0.25 12.0514 0.25 14.2496H1.75C1.75 12.4097 2.34983 11.3614 3.00434 10.7667C3.68214 10.1509 4.49475 9.95209 5 9.95209V8.45209ZM0.25 14.2496C0.25 16.4477 0.983507 17.9231 1.99566 18.8427C2.98453 19.7411 4.17192 20.0471 5 20.0471V18.5471C4.49475 18.5471 3.68214 18.3483 3.00434 17.7325C2.34983 17.1378 1.75 16.0894 1.75 14.2496H0.25ZM5 20.0471C5.62146 20.0471 6.53582 19.8651 7.31596 19.2981C8.13395 18.7035 8.75 17.7215 8.75 16.2686H7.25C7.25 17.2385 6.86605 17.7707 6.43404 18.0847C5.96418 18.4262 5.37854 18.5471 5 18.5471V20.0471ZM8.75 16.2686V12.2306H7.25V16.2686H8.75ZM8.75 12.2306C8.75 11.6072 8.57087 10.6878 8.01061 9.90228C7.42281 9.07813 6.44744 8.45209 5 8.45209V9.95209C5.95256 9.95209 6.47719 10.3355 6.78939 10.7733C7.12913 11.2496 7.25 11.8444 7.25 12.2306H8.75Z" fill="#817CBA"/>
<path d="M22 14.2496C22 10.2116 19.3333 9.20215 18 9.20215C15.6 9.20215 15 11.2211 15 12.2306V16.2686C15 18.6914 17 19.2971 18 19.2971C19.3333 19.2971 22 18.2876 22 14.2496Z" fill="#ECF1F9"/>
<path d="M18 8.45215C18.8281 8.45215 20.0155 8.7581 21.0043 9.65654C22.0165 10.5761 22.75 12.0515 22.75 14.2496H21.25C21.25 12.4098 20.6502 11.3614 19.9957 10.7668C19.3179 10.1509 18.5053 9.95215 18 9.95215V8.45215ZM22.75 14.2496C22.75 16.4478 22.0165 17.9232 21.0043 18.8428C20.0155 19.7412 18.8281 20.0471 18 20.0471V18.5471C18.5053 18.5471 19.3179 18.3484 19.9957 17.7325C20.6502 17.1379 21.25 16.0895 21.25 14.2496H22.75ZM18 20.0471C17.3785 20.0471 16.4642 19.8652 15.684 19.2981C14.8661 18.7036 14.25 17.7215 14.25 16.2686H15.75C15.75 17.2386 16.134 17.7708 16.566 18.0848C17.0358 18.4263 17.6215 18.5471 18 18.5471V20.0471ZM14.25 16.2686V12.2306H15.75V16.2686H14.25ZM14.25 12.2306C14.25 11.6073 14.4291 10.6879 14.9894 9.90234C15.5772 9.07819 16.5526 8.45215 18 8.45215V9.95215C17.0474 9.95215 16.5228 10.3356 16.2106 10.7733C15.8709 11.2497 15.75 11.8445 15.75 12.2306H14.25Z" fill="#817CBA"/>
<path d="M22.1751 17.0604C22.1573 16.6465 21.8073 16.3255 21.3935 16.3433C20.9797 16.3612 20.6587 16.7111 20.6765 17.1249L22.1751 17.0604ZM14.2668 22.2498C13.8526 22.247 13.5145 22.5805 13.5117 22.9947C13.5089 23.4089 13.8424 23.747 14.2566 23.7498L14.2668 22.2498ZM21.4258 17.0927C20.6765 17.1249 20.6765 17.1247 20.6765 17.1246C20.6765 17.1245 20.6765 17.1244 20.6764 17.1243C20.6764 17.1241 20.6764 17.124 20.6764 17.124C20.6764 17.1238 20.6764 17.1239 20.6764 17.1241C20.6765 17.1246 20.6765 17.1258 20.6766 17.1278C20.6767 17.1316 20.6769 17.1384 20.6772 17.1479C20.6777 17.167 20.6783 17.197 20.6785 17.2367C20.679 17.3162 20.6782 17.4341 20.6725 17.5811C20.661 17.8764 20.6302 18.282 20.5535 18.7243C20.3936 19.6465 20.0623 20.5635 19.4617 21.0773L20.4368 22.2171C21.4494 21.3508 21.8564 19.9905 22.0315 18.9805C22.1223 18.4566 22.1581 17.9823 22.1714 17.6393C22.1781 17.4671 22.1791 17.3263 22.1785 17.2268C22.1782 17.177 22.1774 17.1375 22.1767 17.1093C22.1763 17.0953 22.176 17.084 22.1757 17.0758C22.1755 17.0717 22.1754 17.0684 22.1753 17.0658C22.1753 17.0645 22.1752 17.0634 22.1752 17.0625C22.1752 17.0621 22.1751 17.0617 22.1751 17.0613C22.1751 17.0611 22.1751 17.0609 22.1751 17.0608C22.1751 17.0606 22.1751 17.0604 21.4258 17.0927ZM19.4617 21.0773C19.1676 21.3289 18.7187 21.5481 18.1549 21.7254C17.6001 21.8999 16.9845 22.0185 16.3996 22.0979C15.8171 22.177 15.2803 22.2151 14.8886 22.2334C14.6933 22.2425 14.5353 22.2466 14.4272 22.2484C14.3732 22.2493 14.3318 22.2497 14.3045 22.2498C14.2909 22.2498 14.2808 22.2499 14.2744 22.2498C14.2713 22.2498 14.269 22.2498 14.2677 22.2498C14.2671 22.2498 14.2667 22.2498 14.2665 22.2498C14.2665 22.2498 14.2664 22.2498 14.2665 22.2498C14.2665 22.2498 14.2666 22.2498 14.2666 22.2498C14.2667 22.2498 14.2668 22.2498 14.2617 22.9998C14.2566 23.7498 14.2568 23.7498 14.2569 23.7498C14.257 23.7498 14.2572 23.7498 14.2573 23.7498C14.2576 23.7498 14.258 23.7498 14.2584 23.7498C14.2592 23.7498 14.2603 23.7498 14.2616 23.7498C14.2643 23.7498 14.2679 23.7498 14.2725 23.7498C14.2816 23.7499 14.2946 23.7498 14.3112 23.7498C14.3444 23.7496 14.3921 23.7492 14.4526 23.7482C14.5737 23.7461 14.7466 23.7416 14.9584 23.7317C15.3811 23.712 15.9637 23.6708 16.6014 23.5843C17.2367 23.498 17.9421 23.3648 18.605 23.1563C19.2589 22.9506 19.9242 22.6556 20.4368 22.2171L19.4617 21.0773Z" fill="#817CBA"/>
</svg>
