<svg width="28" height="28" viewBox="0 0 28 28" fill="none" xmlns="http://www.w3.org/2000/svg">
<path fill-rule="evenodd" clip-rule="evenodd" d="M22 13.7308V19.0152C22 20.2547 21.9945 20.9541 21.9187 21.4454C21.8876 21.6477 21.8539 21.7387 21.8406 21.7688C21.8382 21.7705 21.835 21.7725 21.831 21.7748C21.8201 21.781 21.7959 21.7936 21.7512 21.8096C21.6555 21.8439 21.4855 21.8875 21.1878 21.9224C20.5535 21.9968 19.6821 22 18.2857 22H18V18C18 16.8954 17.1046 16 16 16H12C10.8954 16 10 16.8954 10 18V22H9.71429C8.31793 22 7.44646 21.9968 6.81219 21.9224C6.51454 21.8875 6.34448 21.8439 6.24877 21.8096C6.20413 21.7936 6.17989 21.781 6.16899 21.7748C6.16496 21.7725 6.16185 21.7705 6.15937 21.7688C6.14612 21.7387 6.11244 21.6477 6.08127 21.4454C6.00555 20.9541 6 20.2547 6 19.0152V13.7308C6 11.8378 6.05305 11.5871 6.16125 11.3819C6.20186 11.3048 6.2917 11.1667 6.61096 10.8849C6.95316 10.5828 7.42879 10.2253 8.19088 9.65544L9.61945 8.58727C10.9889 7.56327 11.8771 6.90333 12.613 6.47933C13.2979 6.08477 13.6782 6 14 6C14.3218 6 14.7021 6.08477 15.387 6.47933C16.1229 6.90333 17.0111 7.56326 18.3805 8.58727L19.8091 9.65544C20.5712 10.2253 21.0468 10.5828 21.389 10.8849C21.7083 11.1667 21.7981 11.3048 21.8388 11.3819C21.947 11.5871 22 11.8378 22 13.7308ZM12 22V18H16V22H12ZM17 24H18.2857C20.9795 24 22.3263 24 23.1632 23.27C24 22.54 24 21.3651 24 19.0152V13.7308C24 12.0388 24 11.1928 23.6079 10.4491C23.2158 9.70544 22.4795 9.15485 21.0068 8.05369L19.5782 6.98552C16.9163 4.99517 15.5854 4 14 4C12.4146 4 11.0837 4.99517 8.42179 6.98552L6.99322 8.05369C5.52052 9.15485 4.78418 9.70544 4.39209 10.4491C4 11.1928 4 12.0388 4 13.7308V19.0152C4 21.3651 4 22.54 4.83684 23.27C5.67368 24 7.02055 24 9.71429 24H11H17Z" fill="#A5ABDE"/>
</svg>
