<svg width="28" height="28" viewBox="0 0 28 28" fill="none" xmlns="http://www.w3.org/2000/svg">
<path fill-rule="evenodd" clip-rule="evenodd" d="M4.39209 10.4491C4 11.1928 4 12.0388 4 13.7308V19.0152C4 21.3651 4 22.54 4.83684 23.27C5.64355 23.9737 6.92424 23.9991 9.42859 24V18.4587C9.42859 17.1175 10.5159 16.0302 11.8572 16.0302H16.1428C17.4841 16.0302 18.5714 17.1175 18.5714 18.4587V24C21.0758 23.9991 22.3564 23.9737 23.1632 23.27C24 22.54 24 21.3651 24 19.0152V13.7308C24 12.0388 24 11.1928 23.6079 10.4491C23.2158 9.70544 22.4795 9.15485 21.0068 8.05369L19.5782 6.98552C16.9163 4.99517 15.5854 4 14 4C12.4146 4 11.0837 4.99517 8.42179 6.98551L8.42179 6.98552L6.99322 8.05369C5.52052 9.15485 4.78418 9.70544 4.39209 10.4491ZM16.5714 24V18.4587C16.5714 18.222 16.3795 18.0302 16.1428 18.0302H11.8572C11.6205 18.0302 11.4286 18.222 11.4286 18.4587V24H16.5714Z" fill="#A5ABDE"/>
</svg>