<svg width="123" height="70" viewBox="0 0 123 70" fill="none" xmlns="http://www.w3.org/2000/svg">
<g clip-path="url(#clip0_397_1808)">
<path d="M61.7095 39.4333C38.6986 39.4333 21.692 28.1514 19.8295 26.8692C16.9685 24.8878 15.0315 21.9209 14.4055 18.494C13.7794 15.0657 14.5101 11.593 16.4915 8.73204C18.9212 5.19923 22.9454 3.08321 27.2376 3.08321C29.8751 3.08321 32.4093 3.87394 34.5999 5.36391C35.0612 5.67628 46.4935 13.2778 61.5004 13.2778C70.3383 13.2778 78.6691 10.6246 86.2562 5.39397C88.4467 3.88831 90.9954 3.08321 93.6486 3.08321C97.9407 3.08321 101.965 5.18485 104.395 8.71766C106.377 11.5787 107.107 15.0514 106.481 18.4796C105.855 21.9078 103.918 24.8891 101.055 26.8561C88.9682 35.2013 75.7349 39.4333 61.7095 39.4333Z" fill="#F4A360"/>
<path d="M61.7099 42.4865C38.6689 42.4865 21.3303 31.5848 18.0877 29.3995C14.5575 26.9607 12.1788 23.2841 11.3985 19.0521C10.6169 14.8122 11.5292 10.5305 13.972 6.99634C16.9715 2.63359 21.9303 0.0287539 27.238 0.0287539C30.4845 0.0287539 33.6174 0.98286 36.298 2.78782C36.383 2.85055 47.2886 10.1946 61.5008 10.1946C69.6957 10.1946 77.4409 7.72172 84.5209 2.84402C87.2198 0.98286 90.3762 0 93.6503 0C98.958 0 103.917 2.60484 106.915 6.96628C109.354 10.5174 110.269 14.8004 109.488 19.0233C108.708 23.2554 106.329 26.9319 102.791 29.3747C90.1828 38.0754 76.3613 42.4865 61.7099 42.4865ZM27.238 6.13634C23.9679 6.13634 20.8886 7.74786 19 10.4468C15.8723 14.9768 17.0173 21.2047 21.5499 24.3336C22.2544 24.8224 39.0963 36.3645 61.6956 36.3645C75.0648 36.3645 87.7191 32.3167 99.3056 24.3336C101.5 22.8267 102.977 20.5512 103.461 17.9293C103.944 15.3049 103.376 12.6478 101.859 10.4494C99.9957 7.74786 96.9217 6.13503 93.6333 6.13503C91.5983 6.13503 89.6417 6.74409 87.9753 7.89686C79.8628 13.4908 70.9504 16.3283 61.4864 16.3283C45.9894 16.3283 34.1533 8.73987 32.8541 7.87464C31.206 6.74017 29.2612 6.13634 27.238 6.13634Z" fill="#4C2F1B"/>
<path d="M62.8875 52.7425C42.633 52.7425 24.0933 44.6051 13.4818 36.9893C10.6509 34.9621 8.78709 31.9521 8.21986 28.5095C7.65393 25.0668 8.45904 21.6242 10.5006 18.792C12.9446 15.3938 16.9088 13.3523 21.0977 13.3523C23.8254 13.3523 26.4485 14.1874 28.6691 15.782C28.8482 15.9009 33.2893 19.0455 40.1902 21.9222C47.9107 25.1413 55.5265 26.7816 62.8287 26.7816C73.4101 26.7816 83.0688 23.2632 91.5185 16.3191C93.8437 14.4109 96.7805 13.3523 99.7905 13.3523C103.71 13.3523 107.392 15.0958 109.88 18.1215C112.087 20.8034 113.13 24.2016 112.787 27.6743C112.445 31.147 110.776 34.2616 108.093 36.4821C94.9311 47.274 79.7281 52.7425 62.8875 52.7425Z" fill="#FF6C4A"/>
<path d="M62.8874 55.827C41.9297 55.827 22.7038 47.3864 11.6989 39.4882C8.20404 36.9736 5.89589 33.2525 5.20057 29.0087C4.50656 24.778 5.50771 20.5159 8.01714 17.0079C11.0258 12.8072 15.9166 10.2991 21.0975 10.2991C24.4709 10.2991 27.7005 11.3316 30.4373 13.2843C30.4739 13.3104 34.7217 16.327 41.3651 19.1056C48.7196 22.1718 55.9407 23.7272 62.8286 23.7272C72.6728 23.7272 81.6689 20.4388 89.5671 13.9522C92.4294 11.5865 96.0589 10.2834 99.7904 10.2834C104.645 10.2834 109.179 12.4387 112.228 16.1963C114.955 19.5056 116.227 23.6919 115.814 27.988C115.402 32.271 113.341 36.1332 110.014 38.8635C96.3072 50.1193 80.4521 55.827 62.8874 55.827ZM21.0975 16.4198C17.8915 16.4198 14.8593 17.9725 12.985 20.5721C9.77244 25.0446 10.7958 31.2947 15.2631 34.5059C25.4851 41.846 43.3635 49.6893 62.8874 49.6893C79.0052 49.6893 93.5573 44.4456 106.14 34.1021C108.197 32.4121 109.475 30.0217 109.735 27.3711C109.997 24.7166 109.209 22.1196 107.513 20.0571C105.597 17.7359 102.782 16.4054 99.7891 16.4054C97.4822 16.4054 95.2316 17.2144 93.4514 18.6848C84.4449 26.0928 74.1419 29.8478 62.8273 29.8478C55.1225 29.8478 47.1107 28.133 39.0125 24.7505C31.6228 21.6608 26.9476 18.3136 26.9019 18.2796C25.2002 17.0628 23.1927 16.4198 21.0975 16.4198Z" fill="#4C2F1B"/>
<path d="M36.9397 36.1096C33.6918 36.1096 32.5142 32.9794 31.7235 30.9078C30.904 28.7316 30.3825 27.6887 29.6819 27.6887C27.9829 27.6887 26.6118 26.3176 26.6118 24.6185C26.6118 22.9194 27.9829 21.5484 29.6819 21.5484C34.6446 21.5484 36.4326 26.0053 37.4024 28.5539C38.7133 26.7215 40.845 24.0225 44.4967 24.0225C48.1772 24.0225 50.4279 26.7202 51.9335 28.4938C52.2015 28.8218 52.5596 29.2531 52.8576 29.5668C53.3634 29.1198 54.0495 28.3448 54.4965 27.839C56.0911 26.0353 57.9091 23.9938 60.4434 23.9938C63.0809 23.9938 65.0793 26.2288 66.8372 28.2115C67.0463 28.4493 67.2842 28.7173 67.5377 28.9865C67.5822 28.9264 67.6122 28.882 67.6423 28.8218C68.9532 26.8992 70.9516 23.9938 74.3485 23.9938C77.0161 23.9938 78.8798 26.1242 80.5031 28.018C80.6678 28.1971 80.8612 28.4206 81.0547 28.6441C81.0547 28.614 81.0704 28.5996 81.0704 28.584C81.9343 25.9164 83.5288 20.9681 88.447 20.9681C90.1461 20.9681 91.5172 22.3391 91.5172 24.0382C91.5172 25.7373 90.1461 27.1084 88.447 27.1084C87.8955 27.4064 87.225 29.4779 86.9126 30.4765C86.1676 32.8003 85.139 35.9907 81.8755 35.9907C79.2667 35.9907 77.4487 33.9047 75.8541 32.0553C75.4071 31.5338 74.7066 30.73 74.2295 30.3118C73.7525 30.7444 73.082 31.7273 72.6795 32.3089C71.5019 34.0367 70.1609 35.9894 67.7469 35.9894C65.4962 35.9894 63.9174 34.2014 62.2326 32.3089C61.7412 31.7573 61.0106 30.9365 60.459 30.4464C60.0121 30.8634 59.4605 31.5038 59.0723 31.9364C57.3889 33.8433 55.4663 35.9894 52.753 35.9894C50.1599 35.9894 48.5197 34.0367 47.1944 32.4566C46.2546 31.3391 45.2862 30.1772 44.4667 30.1772C43.8106 30.1772 43.0956 31.1156 42.1415 32.4422C41.0829 33.9792 39.5628 36.1096 36.9397 36.1096Z" fill="#F9AF38"/>
<path d="M61.3673 66.9312C39.9509 66.9312 23.0645 58.4658 20.0245 56.3798C17.1622 54.3971 15.2095 51.8929 14.39 49.1364C13.4516 45.9918 14.0476 42.6381 16.0734 39.7026C18.5031 36.1698 22.5274 34.0537 26.8195 34.0537C29.4571 34.0537 31.9913 34.8432 34.1831 36.3331C34.6445 36.6455 46.0768 44.247 61.085 44.247C69.9229 44.247 78.2537 41.5938 85.8408 36.3632C88.0313 34.8588 90.5799 34.0537 93.2331 34.0537C97.5266 34.0537 101.55 36.1541 103.979 39.6869C105.992 42.608 106.723 45.7683 106.097 48.8084C105.485 51.7596 103.637 54.3814 100.731 56.3798C87.255 65.649 73.8557 66.9312 61.3673 66.9312Z" fill="#F4A360"/>
<path d="M61.3531 70C36.0758 70 18.4248 58.9951 18.2497 58.884C14.8241 56.5236 12.4597 53.4482 11.439 50.0043C10.2378 45.933 10.9828 41.6526 13.538 37.9525C16.5375 33.5898 21.4963 30.9849 26.804 30.9849C30.0649 30.9849 33.1965 31.9482 35.8588 33.7701C35.953 33.8381 46.9578 41.1782 61.0668 41.1782C69.2617 41.1782 77.0056 38.7053 84.0869 33.8276C86.7859 31.9678 89.941 30.9836 93.215 30.9836C98.5227 30.9836 103.481 33.5884 106.48 37.9499C108.98 41.5729 109.877 45.5409 109.071 49.424C108.294 53.1751 106.003 56.4504 102.446 58.8971C88.3085 68.6551 74.3407 70 61.3531 70ZM26.8053 37.1069C23.5313 37.1069 20.4468 38.7184 18.5542 41.4173C15.6044 45.6964 16.8225 50.4565 21.7289 53.8456C21.8766 53.9462 38.1905 63.8637 61.3374 63.8637C73.3278 63.8637 86.1834 62.6495 98.9632 53.8456C101.258 52.268 102.691 50.2552 103.101 48.0255C103.498 45.8677 102.919 43.5856 101.427 41.4213C99.5618 38.7197 96.4877 37.1069 93.2006 37.1069C91.1669 37.1069 89.2104 37.7159 87.5426 38.8687C79.4301 44.4626 70.5164 47.3001 61.0538 47.3001C45.545 47.3001 33.7193 39.7117 32.4215 38.8465C30.7733 37.7107 28.8272 37.1069 26.8053 37.1069Z" fill="#4C2F1B"/>
<path d="M36.8953 57.1993C36.4627 57.1993 36.03 57.0203 35.7321 56.6634C35.1818 56.023 35.255 55.0532 35.9111 54.5017C39.2505 51.655 38.1918 47.6007 38.1461 47.4374C37.9226 46.6166 38.3996 45.7827 39.2191 45.5448C40.0386 45.3213 40.8738 45.784 41.1116 46.6022C41.1861 46.8558 42.7807 52.698 37.9069 56.8412C37.5958 57.0804 37.2521 57.1993 36.8953 57.1993ZM61.9033 61.0745C61.6354 61.0745 61.3674 61 61.1139 60.8654C60.3833 60.4328 60.1454 59.4944 60.578 58.7651C62.8875 54.8899 60.3388 52.0132 60.3244 51.9831C59.7585 51.357 59.803 50.3886 60.429 49.8226C61.0551 49.2554 62.0235 49.3011 62.5895 49.9272C64.0049 51.4917 65.9733 55.695 63.2155 60.3296C62.9319 60.8053 62.4248 61.0745 61.9033 61.0745Z" fill="#4C2F1B"/>
<path d="M87.6276 56.8124C87.3885 56.8124 87.1506 56.7523 86.9271 56.6477C86.1677 56.2609 85.8841 55.3368 86.271 54.5762C88.1491 50.9401 84.9888 48.0922 84.8555 47.9732C84.2295 47.4073 84.155 46.4532 84.7065 45.8115C85.2568 45.171 86.2265 45.1109 86.867 45.6625C88.6563 47.2126 91.3983 51.3557 88.9987 55.9903C88.7164 56.5131 88.1792 56.8124 87.6276 56.8124Z" fill="#4C2F1B"/>
<path d="M118.628 28.9264C118.241 28.9264 117.853 28.8218 117.511 28.6284L114.142 26.6914C113.114 26.0941 112.726 24.7989 113.263 23.7402L114.978 20.3721C115.364 19.6127 116.125 19.1501 116.975 19.1501C117.959 19.1501 118.823 19.7761 119.106 20.7145L120.761 26.0209C120.97 26.7071 120.851 27.4364 120.433 28.018C120.013 28.584 119.343 28.9264 118.628 28.9264Z" fill="#FF6C4A"/>
<path d="M116.973 20.6701C117.257 20.6701 117.539 20.8335 117.644 21.1615L119.299 26.4666C119.448 26.9581 119.075 27.3907 118.628 27.3907C118.509 27.3907 118.39 27.3606 118.271 27.3018L114.903 25.3648C114.575 25.1714 114.456 24.7688 114.619 24.4408L116.349 21.057C116.482 20.8034 116.72 20.6701 116.973 20.6701ZM116.973 17.6C115.542 17.6 114.261 18.3894 113.605 19.6559L111.892 23.024C110.983 24.812 111.638 27.0025 113.382 28.001L116.75 29.938C117.33 30.2661 117.972 30.4451 118.628 30.4451C119.821 30.4451 120.969 29.8635 121.668 28.895C122.369 27.9409 122.576 26.6744 122.22 25.5413L120.565 20.2349C120.074 18.6717 118.628 17.6 116.973 17.6Z" fill="#4C2F1B"/>
<path d="M3.77865 24.6643C3.06373 24.6643 2.39324 24.3219 1.975 23.7403C1.55807 23.1586 1.43913 22.4437 1.64695 21.7432L3.3016 16.4368C3.5996 15.4984 4.44914 14.8723 5.44769 14.8723C6.29723 14.8723 7.0579 15.3337 7.44477 16.0943L9.15955 19.4625C9.69542 20.5198 9.30855 21.8177 8.27994 22.4137L4.91182 24.3506C4.5537 24.5597 4.16683 24.6643 3.77865 24.6643Z" fill="#FF6C4A"/>
<path d="M5.43341 16.4224C5.68697 16.4224 5.92484 16.5413 6.05946 16.8093L7.77293 20.1774C7.93631 20.5054 7.81737 20.9224 7.48931 21.1014L4.12119 23.0384C4.00225 23.0985 3.88332 23.1273 3.76438 23.1273C3.31739 23.1273 2.94489 22.6947 3.09389 22.2032L4.74855 16.8968C4.86618 16.5858 5.14979 16.4224 5.43341 16.4224ZM5.43341 13.3523C3.77876 13.3523 2.31754 14.4109 1.82611 16.0041L0.171452 21.3105C-0.185358 22.4581 0.0224544 23.7102 0.723003 24.6643C1.43793 25.6341 2.57109 26.2144 3.76307 26.2144C4.41918 26.2144 5.07399 26.0366 5.64122 25.7073L9.00935 23.7703C10.7529 22.7705 11.409 20.5812 10.4849 18.792L8.77147 15.4238C8.14542 14.1417 6.86457 13.3523 5.43341 13.3523Z" fill="#4C2F1B"/>
</g>
<defs>
<clipPath id="clip0_397_1808">
<rect width="122.391" height="70" fill="white"/>
</clipPath>
</defs>
</svg>
