<svg width="28" height="28" viewBox="0 0 28 28" fill="none" xmlns="http://www.w3.org/2000/svg">
<path fill-rule="evenodd" clip-rule="evenodd" d="M4.67157 4.67157C3.5 5.84315 3.5 7.72876 3.5 11.5V16.5C3.5 20.2712 3.5 22.1569 4.67157 23.3284C5.84315 24.5 7.72876 24.5 11.5 24.5H16.5C20.2712 24.5 22.1569 24.5 23.3284 23.3284C24.5 22.1569 24.5 20.2712 24.5 16.5V11.5C24.5 7.72876 24.5 5.84315 23.3284 4.67157C22.1569 3.5 20.2712 3.5 16.5 3.5H11.5C7.72876 3.5 5.84315 3.5 4.67157 4.67157ZM13 8.16667V13H8.16667V15H13V19.8333H15V15H19.8333V13H15V8.16667H13Z" fill="white"/>
</svg>
