<svg width="80" height="80" viewBox="0 0 80 80" fill="none" xmlns="http://www.w3.org/2000/svg">
<rect width="80" height="80" rx="16" fill="#F7F5FF"/>
<path opacity="0.4" d="M55.6442 34.5494V42.4714L53.4733 40.6502C52.4344 39.7787 50.7563 39.7787 49.7175 40.6502L44.177 45.2941C43.1381 46.1657 41.46 46.1657 40.4212 45.2941L39.9683 44.9299C39.0227 44.1234 37.5177 44.0454 36.4522 44.7478L29.8995 49.0405L29.753 49.1445C29.2603 48.1039 29.0072 46.8681 29.0072 45.4502V34.5494C29.0072 29.8145 31.8973 26.9917 36.7452 26.9917H47.9062C52.7541 26.9917 55.6442 29.8145 55.6442 34.5494Z" fill="#EAE7FF"/>
<path d="M38.3302 37.8926C40.0808 37.8926 41.5 36.5065 41.5 34.7966C41.5 33.0868 40.0808 31.7007 38.3302 31.7007C36.5796 31.7007 35.1604 33.0868 35.1604 34.7966C35.1604 36.5065 36.5796 37.8926 38.3302 37.8926Z" fill="#EAE7FF"/>
<path d="M55.6442 42.4714V45.4502C55.6442 50.1852 52.7541 53.008 47.9062 53.008H36.7453C33.349 53.008 30.8984 51.6161 29.7531 49.1446L29.8996 49.0405L36.4523 44.7478C37.5177 44.0454 39.0227 44.1234 39.9683 44.9299L40.4212 45.2941C41.46 46.1657 43.1381 46.1657 44.177 45.2941L49.7175 40.6502C50.7563 39.7787 52.4345 39.7787 53.4733 40.6502L55.6442 42.4714Z" fill="#EAE7FF"/>
</svg>
