<svg width="61" height="60" viewBox="0 0 61 60" fill="none" xmlns="http://www.w3.org/2000/svg">
<rect x="0.5" width="60" height="60" rx="16" fill="#50429B"/>
<g clip-path="url(#clip0_2316_184172)">
<path d="M33.8125 30C33.8125 31.5532 32.5532 32.8125 31 32.8125C29.4468 32.8125 28.1875 31.5532 28.1875 30C28.1875 28.4468 29.4468 27.1875 31 27.1875C32.5532 27.1875 33.8125 28.4468 33.8125 30Z" fill="white"/>
<path d="M35.75 21.5H26.25C24.1821 21.5 22.5 23.1821 22.5 25.25V34.75C22.5 36.8179 24.1821 38.5 26.25 38.5H35.75C37.8179 38.5 39.5 36.8179 39.5 34.75V25.25C39.5 23.1821 37.8179 21.5 35.75 21.5ZM31 34.6875C28.4153 34.6875 26.3125 32.5847 26.3125 30C26.3125 27.4153 28.4153 25.3125 31 25.3125C33.5847 25.3125 35.6875 27.4153 35.6875 30C35.6875 32.5847 33.5847 34.6875 31 34.6875ZM36.375 25.5625C35.8572 25.5625 35.4375 25.1428 35.4375 24.625C35.4375 24.1072 35.8572 23.6875 36.375 23.6875C36.8928 23.6875 37.3125 24.1072 37.3125 24.625C37.3125 25.1428 36.8928 25.5625 36.375 25.5625Z" fill="white"/>
<path d="M38.5625 14H23.4375C18.7852 14 15 17.7852 15 22.4375V37.5625C15 42.2148 18.7852 46 23.4375 46H38.5625C43.2148 46 47 42.2148 47 37.5625V22.4375C47 17.7852 43.2148 14 38.5625 14ZM41.375 34.75C41.375 37.8516 38.8516 40.375 35.75 40.375H26.25C23.1484 40.375 20.625 37.8516 20.625 34.75V25.25C20.625 22.1484 23.1484 19.625 26.25 19.625H35.75C38.8516 19.625 41.375 22.1484 41.375 25.25V34.75Z" fill="white"/>
</g>
<defs>
<clipPath id="clip0_2316_184172">
<rect width="32" height="32" fill="white" transform="translate(15 14)"/>
</clipPath>
</defs>
</svg>
