<svg width="28" height="28" viewBox="0 0 28 28" fill="none" xmlns="http://www.w3.org/2000/svg">
<path d="M17.8769 5.65601C17.3607 5.46811 16.7932 5.46811 16.2769 5.65601L11.8595 7.26502C11.8105 7.28293 11.7682 7.31517 11.7383 7.35741C11.7084 7.39966 11.6924 7.44989 11.6923 7.50137V10.3224C11.1827 10.2422 10.6634 10.2422 10.1538 10.3224V7.50036C10.1539 7.13923 10.2663 6.78679 10.4759 6.49046C10.6855 6.19413 10.9822 5.96813 11.3262 5.84287L15.7436 4.23488C16.604 3.92171 17.5498 3.92171 18.4103 4.23488L22.8277 5.84287C23.1716 5.96813 23.4684 6.19413 23.6779 6.49046C23.8875 6.78679 23.9999 7.13923 24 7.50036V18.2775C24.0001 18.6388 23.8878 18.9915 23.6782 19.288C23.4686 19.5846 23.1718 19.8107 22.8277 19.936L18.7067 21.4349C18.8144 21.14 18.8718 20.8249 18.8718 20.4986V19.7603L22.2944 18.5149C22.3435 18.4969 22.3859 18.4645 22.4158 18.4221C22.4457 18.3796 22.4617 18.3292 22.4615 18.2775V7.50036C22.4615 7.44888 22.4454 7.39865 22.4155 7.3564C22.3856 7.31416 22.3434 7.28192 22.2944 7.26401L17.8769 5.65601ZM13.7641 9.62549C13.5712 9.55986 13.4128 9.42147 13.3235 9.24076C13.2343 9.06006 13.2216 8.85184 13.2882 8.66191C13.3548 8.47198 13.4954 8.31591 13.6789 8.22801C13.8624 8.14012 14.0738 8.12762 14.2667 8.19325L16.9928 9.12249C17.047 9.14088 17.1058 9.14088 17.16 9.12249L19.878 8.19325C20.0708 8.12735 20.2824 8.1396 20.466 8.2273C20.6497 8.315 20.7905 8.47097 20.8574 8.6609C20.9244 8.85083 20.9119 9.05915 20.8229 9.24005C20.7338 9.42095 20.5754 9.55959 20.3826 9.62549L17.6646 10.5537C17.2842 10.6834 16.8706 10.6834 16.4903 10.5537L13.7631 9.62549H13.7641ZM7.61026 16.6958C7.4174 16.6302 7.25891 16.4918 7.16966 16.3111C7.08041 16.1304 7.06772 15.9222 7.13436 15.7322C7.201 15.5423 7.34153 15.3862 7.52503 15.2983C7.70853 15.2104 7.91996 15.1979 8.11282 15.2636L10.9231 16.2211L13.7251 15.2646C13.8214 15.2286 13.924 15.212 14.0269 15.2158C14.1297 15.2196 14.2308 15.2437 14.3241 15.2866C14.4173 15.3296 14.5009 15.3905 14.5698 15.4659C14.6387 15.5412 14.6915 15.6294 14.7251 15.7252C14.7588 15.821 14.7726 15.9225 14.7656 16.0237C14.7587 16.1249 14.7313 16.2236 14.6849 16.3141C14.6385 16.4046 14.5741 16.4851 14.4956 16.5506C14.417 16.6162 14.326 16.6656 14.2277 16.6958L11.6923 17.5614V20.2885C11.6923 20.4895 11.6113 20.6821 11.467 20.8242C11.3227 20.9663 11.1271 21.0461 10.9231 21.0461C10.7191 21.0461 10.5234 20.9663 10.3791 20.8242C10.2349 20.6821 10.1538 20.4895 10.1538 20.2885V17.5614L7.61026 16.6958ZM12.2564 11.5072C11.396 11.194 10.4502 11.194 9.58974 11.5072L5.17231 13.1152C4.82837 13.2405 4.53164 13.4665 4.32206 13.7628C4.11247 14.0591 4.00007 14.4116 4 14.7727V20.4996C3.99987 20.8609 4.11216 21.2136 4.32176 21.5101C4.53137 21.8067 4.82821 22.0328 5.17231 22.1581L9.58974 23.7651C10.4502 24.0783 11.396 24.0783 12.2564 23.7651L16.6738 22.1571C17.0179 22.0318 17.3148 21.8057 17.5244 21.5091C17.734 21.2126 17.8463 20.8599 17.8462 20.4986V14.7717C17.8461 14.4105 17.7337 14.0581 17.5241 13.7618C17.3145 13.4654 17.0178 13.2395 16.6738 13.1142L12.2564 11.5062V11.5072ZM10.1231 12.9283C10.6393 12.7404 11.2068 12.7404 11.7231 12.9283L16.1405 14.5363C16.1895 14.5542 16.2318 14.5865 16.2617 14.6287C16.2916 14.671 16.3076 14.7212 16.3077 14.7727V20.4996C16.3078 20.5513 16.2919 20.6017 16.262 20.6442C16.2321 20.6866 16.1897 20.719 16.1405 20.737L11.7231 22.344C11.2068 22.5319 10.6393 22.5319 10.1231 22.344L5.70564 20.736C5.65647 20.718 5.61408 20.6856 5.58418 20.6432C5.55429 20.6007 5.53833 20.5503 5.53846 20.4986V14.7717C5.53854 14.7202 5.55459 14.67 5.58447 14.6277C5.61435 14.5855 5.65663 14.5532 5.70564 14.5353L10.1231 12.9273V12.9283Z" fill="#A5ABDE"/>
</svg>
