<svg width="28" height="28" viewBox="0 0 28 28" fill="none" xmlns="http://www.w3.org/2000/svg">
<path d="M18.4103 4.23488C17.5498 3.92171 16.604 3.92171 15.7436 4.23488L11.3262 5.84287C10.9822 5.96813 10.6855 6.19413 10.4759 6.49046C10.2663 6.78679 10.1539 7.13923 10.1538 7.50036V10.3214C10.9804 10.1912 11.8271 10.273 12.6123 10.5588L17.0287 12.1668C17.5696 12.3635 18.0362 12.7188 18.3657 13.1847C18.6953 13.6507 18.8719 14.2049 18.8718 14.7727V20.4996C18.8718 20.8249 18.8144 21.14 18.7077 21.4349L22.8277 19.936C23.1718 19.8107 23.4686 19.5846 23.6782 19.288C23.8878 18.9915 24.0001 18.6388 24 18.2775V7.50036C23.9999 7.13923 23.8875 6.78679 23.6779 6.49046C23.4684 6.19413 23.1716 5.96813 22.8277 5.84287L18.4103 4.23488ZM13.7641 9.16188C13.6686 9.12938 13.5805 9.07868 13.505 9.01267C13.4294 8.94666 13.3677 8.86663 13.3235 8.77715C13.2793 8.68768 13.2535 8.5905 13.2474 8.49118C13.2413 8.39186 13.2552 8.29234 13.2882 8.1983C13.3212 8.10426 13.3727 8.01753 13.4397 7.94309C13.5068 7.86864 13.588 7.80792 13.6789 7.7644C13.7697 7.72088 13.8684 7.69541 13.9693 7.68945C14.0701 7.68348 14.1712 7.69714 14.2667 7.72964L16.9928 8.65888C17.047 8.67727 17.1058 8.67727 17.16 8.65888L19.8779 7.72964C20.0708 7.66374 20.2824 7.67599 20.466 7.76369C20.6497 7.85139 20.7905 8.00736 20.8574 8.19729C20.9244 8.38722 20.9119 8.59554 20.8229 8.77644C20.7338 8.95733 20.5754 9.09598 20.3826 9.16188L17.6646 10.0901C17.2842 10.2198 16.8706 10.2198 16.4903 10.0901L13.7631 9.16188H13.7641ZM9.58974 11.5072C10.4502 11.194 11.396 11.194 12.2564 11.5072L16.6738 13.1152C17.0178 13.2405 17.3145 13.4665 17.5241 13.7628C17.7337 14.0591 17.8461 14.4116 17.8462 14.7727V20.4996C17.8463 20.8609 17.734 21.2136 17.5244 21.5101C17.3148 21.8067 17.0179 22.0328 16.6738 22.1581L12.2564 23.7651C11.396 24.0783 10.4502 24.0783 9.58974 23.7651L5.17231 22.1571C4.82821 22.0318 4.53137 21.8057 4.32176 21.5091C4.11216 21.2126 3.99987 20.8599 4 20.4986V14.7717C4.00007 14.4105 4.11247 14.0581 4.32206 13.7618C4.53164 13.4654 4.82837 13.2394 5.17231 13.1142L9.58974 11.5062V11.5072ZM7.13333 15.7332C7.10032 15.8273 7.08643 15.9268 7.09248 16.0261C7.09853 16.1255 7.12439 16.2226 7.16858 16.3121C7.21278 16.4016 7.27444 16.4816 7.35005 16.5476C7.42565 16.6136 7.51373 16.6643 7.60923 16.6968L10.1528 17.5624V20.2896C10.1528 20.4905 10.2339 20.6831 10.3781 20.8252C10.5224 20.9673 10.718 21.0471 10.9221 21.0471C11.1261 21.0471 11.3217 20.9673 11.466 20.8252C11.6102 20.6831 11.6913 20.4905 11.6913 20.2896V17.5624L14.2287 16.6968C14.4173 16.628 14.5711 16.4891 14.657 16.31C14.7429 16.1308 14.7541 15.9257 14.6882 15.7385C14.6223 15.5513 14.4846 15.397 14.3046 15.3086C14.1246 15.2202 13.9166 15.2047 13.7251 15.2656L10.9231 16.2211L8.11282 15.2636C8.01726 15.2309 7.91611 15.2171 7.81513 15.223C7.71416 15.2289 7.61535 15.2543 7.52437 15.2978C7.43339 15.3414 7.35202 15.4021 7.28492 15.4767C7.21782 15.5512 7.16631 15.6381 7.13333 15.7322V15.7332Z" fill="#A5ABDE"/>
</svg>
