<svg width="28" height="28" viewBox="0 0 28 28" fill="none" xmlns="http://www.w3.org/2000/svg">
<path d="M8.66667 5.0625C8.66667 3.9234 9.5625 3 10.6667 3H12.6667V6.4375C12.6667 6.81734 12.9667 7.125 13.3333 7.125H14.6667C15.0333 7.125 15.3333 6.81734 15.3333 6.4375V3H17.3333C18.4375 3 19.3333 3.9234 19.3333 5.0625V10.5625C19.3333 11.7012 18.4375 12.625 17.3333 12.625H10.6667C9.5625 12.625 8.66667 11.7012 8.66667 10.5625V5.0625ZM6 15.375V18.8125C6 19.1906 6.3 19.5 6.66667 19.5H8C8.36667 19.5 8.66667 19.1906 8.66667 18.8125V15.375H10.6667C11.7708 15.375 12.6667 16.2988 12.6667 17.4375V22.9375C12.6667 24.0762 11.7708 25 10.6667 25H4C2.89542 25 2 24.0762 2 22.9375V17.4375C2 16.2988 2.89542 15.375 4 15.375H6ZM19.3333 15.375V18.8125C19.3333 19.1906 19.6333 19.5 20 19.5H21.3333C21.7 19.5 22 19.1906 22 18.8125V15.375H24C25.1042 15.375 26 16.2988 26 17.4375V22.9375C26 24.0762 25.1042 25 24 25H17.3333C16.2292 25 15.3333 24.0762 15.3333 22.9375V17.4375C15.3333 16.2988 16.2292 15.375 17.3333 15.375H19.3333Z" fill="white"/>
</svg>