<svg width="73" height="107" viewBox="0 0 73 107" fill="none" xmlns="http://www.w3.org/2000/svg">
<g clip-path="url(#clip0_397_1968)">
<path d="M10.1032 65.9596C10.0439 65.0729 10.6326 64.3052 11.5168 64.1291C15.9356 63.3019 28.9534 61.5892 35.8457 65.2514C43.2092 69.1506 54.3422 65.9596 59.2904 64.3064C60.469 63.8934 61.6463 64.8384 61.4695 66.0786L57.5812 104.652C57.5219 105.538 56.7563 106.129 55.9314 106.129H16.2893C15.4051 106.129 14.7582 105.479 14.6395 104.652L10.1032 65.9596Z" fill="#F6BF54"/>
<path d="M28.1371 96.9533C27.8864 96.9533 27.5726 96.9533 27.3849 96.8914C25.6927 96.5136 24.6885 94.8167 25.0653 93.0554L45.0044 11.0657C45.2551 9.99678 46.0074 9.1793 47.0103 8.80154L66.9483 2.1378C67.262 2.07464 67.6375 2.01147 67.9512 2.01147C69.2679 2.01147 70.5216 2.89212 70.8983 4.21248C71.149 4.96801 71.149 5.84744 70.7723 6.60175C70.3956 7.35607 69.7694 7.92211 69.0172 8.17355L50.7084 14.2105L31.146 94.5653C30.8335 95.9476 29.5168 96.9533 28.1371 96.9533Z" fill="#F6BF54"/>
<path d="M67.9524 3.70963C68.5168 3.70963 68.9553 4.02424 69.1431 4.59028C69.3938 5.21827 69.0171 5.97258 68.3909 6.22524L49.1422 12.7007L29.329 94.0612C29.2042 94.6273 28.7027 95.0038 28.0753 95.0038H27.7616C27.0711 94.8775 26.6956 94.1232 26.8216 93.432L46.7595 11.4435C46.8225 11.067 47.1362 10.6892 47.6377 10.4997L67.5757 3.83475C67.6386 3.83475 67.7634 3.70963 67.9524 3.70963ZM67.9524 0C67.3879 0 66.8864 0.0631634 66.322 0.251439L46.384 6.91639C44.7536 7.48243 43.4999 8.80279 43.1232 10.4997L23.2471 92.6158C22.6208 95.3196 24.25 98.0867 26.9464 98.7147C27.3219 98.7778 27.6986 98.841 28.1371 98.841C30.4567 98.841 32.4638 97.2692 33.0283 95.0062L52.277 15.6572L69.5828 9.80976C70.8365 9.37005 71.9024 8.4894 72.4669 7.23221C73.0943 5.9738 73.1573 4.65344 72.7176 3.39625C71.9654 1.38352 70.1472 0 67.9524 0Z" fill="#4C2F1B"/>
<path d="M27.8237 95.005H28.1374C28.7019 95.005 29.2034 94.6273 29.3911 94.0625L36.602 64.2591C36.3512 64.1971 36.1635 64.0076 35.9115 63.9444C35.3483 63.693 34.8456 63.3784 34.2811 63.2533L26.8825 93.4964C26.7578 94.1244 27.1345 94.8787 27.8237 95.005Z" fill="#F6BF54"/>
<path d="M15.0334 107C14.8844 107 14.7173 106.951 14.521 106.853C14.0208 106.649 13.6986 106.237 13.6671 105.787L8.83762 64.7084C8.83278 64.6283 8.85579 64.5117 8.88244 64.3768L8.89576 64.3076L8.89334 64.2068L7.78743 54.8112L7.41314 54.7845C3.32501 54.4991 0 50.9364 0 46.8417C0 42.5211 3.63995 38.871 7.94853 38.871H9.88297L9.95928 38.5102C12.7501 25.2848 23.3962 16.0471 35.8495 16.0471C48.1842 16.0471 58.9926 25.4913 61.5508 38.5041L61.6235 38.871H62.6228C66.9314 38.871 70.5714 42.5211 70.5714 46.8417C70.5714 50.6242 67.7502 53.9937 64.0085 54.6788L63.673 54.7408L58.7237 104.138C58.7031 104.35 58.6558 104.571 58.5783 104.814L58.4717 105.772C58.3748 106.449 57.8382 106.934 57.1671 106.934H56.2841C56.0067 106.979 55.8056 106.998 55.5997 106.998H15.0334V107ZM22.9965 67.388C20.5242 67.388 18.104 67.5884 15.9673 67.7646L14.7197 67.8666L18.6431 101.495H53.6289L56.742 70.217L56.1303 70.3531C51.9864 71.2774 48.3877 71.7256 45.1305 71.7256C40.4985 71.7256 36.4346 70.8341 33.0502 69.074C31.9261 68.4472 29.1099 67.388 22.9965 67.388ZM22.9965 62.0106C28.52 62.0106 32.7086 62.7735 35.4438 64.2797C38.1268 65.6547 41.3391 66.3483 45.0045 66.3483C48.6057 66.3483 52.6563 65.7239 57.0448 64.4922L57.3428 64.4084L58.2961 54.8756H13.2068L14.1068 62.607L14.5586 62.5524C17.4948 62.1928 20.334 62.0106 22.9965 62.0106ZM8.07329 44.1864C6.68272 44.1864 5.55016 45.3209 5.55016 46.7166C5.55016 48.1353 6.6585 49.2468 8.07329 49.2468H62.7476C64.1151 49.2468 65.2707 48.088 65.2707 46.7166C65.2707 45.2978 64.1624 44.1864 62.7476 44.1864H62.1201C59.3911 44.1864 56.9927 42.2223 56.4198 39.5172C54.2407 29.0345 45.5884 21.4257 35.8495 21.4257C26.0187 21.4257 17.393 29.0381 15.3411 39.5245C14.8238 42.2271 12.4279 44.1876 9.64071 44.1876H8.07329V44.1864Z" fill="#4C2F1B"/>
<path d="M42.6206 78.0918C42.6206 79.2372 43.5472 80.1664 44.6895 80.1664C45.833 80.1664 46.7596 79.2372 46.7596 78.0918C46.7596 76.9463 45.833 76.0171 44.6895 76.0171C43.5472 76.0159 42.6206 76.9451 42.6206 78.0918Z" fill="#F7D5A4"/>
<path d="M46.7598 87.0828C46.7598 88.2283 47.6864 89.1575 48.8287 89.1575C49.9709 89.1575 50.8976 88.2283 50.8976 87.0828C50.8976 85.9374 49.9709 85.007 48.8287 85.007C47.6864 85.007 46.7598 85.9362 46.7598 87.0828Z" fill="#F7D5A4"/>
<path d="M22.2432 87.1461C22.2432 87.9794 22.9166 88.6547 23.7488 88.6547C24.5798 88.6547 25.2544 87.9794 25.2544 87.1461C25.2544 86.3128 24.581 85.6362 23.7488 85.6362C22.9179 85.6362 22.2432 86.3116 22.2432 87.1461Z" fill="#F7D5A4"/>
<path d="M22.7446 78.0918C22.7446 78.6481 23.194 79.0976 23.7476 79.0976C24.3024 79.0976 24.7505 78.6469 24.7505 78.0918C24.7505 77.5367 24.3011 77.0861 23.7476 77.0861C23.194 77.0848 22.7446 77.5355 22.7446 78.0918Z" fill="#F7D5A4"/>
<path d="M43.6865 94.8787C43.6865 95.2601 43.9954 95.571 44.3757 95.571C44.7573 95.571 45.0662 95.2613 45.0662 94.8787C45.0662 94.4972 44.7573 94.1875 44.3757 94.1875C43.9954 94.1875 43.6865 94.4972 43.6865 94.8787Z" fill="#F7D5A4"/>
</g>
<defs>
<clipPath id="clip0_397_1968">
<rect width="73" height="107" fill="white"/>
</clipPath>
</defs>
</svg>
