<svg width="19" height="23" viewBox="0 0 19 23" fill="none" xmlns="http://www.w3.org/2000/svg">
<path d="M1 15.0002C1 18.9104 4.52726 21.9577 8.43734 21.9951C8.78531 21.9984 9.1391 22.0001 9.5 22.0001C9.8609 22.0001 10.2147 21.9984 10.5627 21.9951C14.4727 21.9577 18 18.9104 18 15.0002C18 11.0899 14.4727 8.04263 10.5627 8.0052C10.2147 8.00186 9.8609 8.00018 9.5 8.00018C9.1391 8.00018 8.78531 8.00186 8.43734 8.0052C4.52726 8.04263 1 11.0899 1 15.0002Z" fill="white"/>
<path d="M8.43734 8.0052L8.43016 7.25523L8.43734 8.0052ZM9.5 21.2501C9.14143 21.2501 8.79004 21.2485 8.44452 21.2451L8.43016 22.7451C8.78059 22.7484 9.13677 22.7501 9.5 22.7501V21.2501ZM10.5555 21.2451C10.21 21.2485 9.85857 21.2501 9.5 21.2501V22.7501C9.86323 22.7501 10.2194 22.7484 10.5698 22.7451L10.5555 21.2451ZM9.5 8.75018C9.85857 8.75018 10.21 8.75185 10.5555 8.75516L10.5698 7.25523C10.2194 7.25187 9.86323 7.25018 9.5 7.25018V8.75018ZM8.44452 8.75516C8.79003 8.75185 9.14143 8.75018 9.5 8.75018V7.25018C9.13677 7.25018 8.78058 7.25187 8.43016 7.25523L8.44452 8.75516ZM18.75 15.0002C18.75 10.6117 14.8212 7.29593 10.5698 7.25523L10.5555 8.75516C14.1243 8.78933 17.25 11.5681 17.25 15.0002H18.75ZM10.5698 22.7451C14.8212 22.7044 18.75 19.3886 18.75 15.0002H17.25C17.25 18.4322 14.1243 21.211 10.5555 21.2451L10.5698 22.7451ZM8.43016 7.25523C4.17883 7.29593 0.25 10.6117 0.25 15.0002H1.75C1.75 11.5681 4.87568 8.78933 8.44452 8.75516L8.43016 7.25523ZM8.44452 21.2451C4.87568 21.211 1.75 18.4322 1.75 15.0002H0.25C0.25 19.3886 4.17883 22.7044 8.43016 22.7451L8.44452 21.2451Z" fill="#9F9F9F"/>
<path d="M14.2602 7.99997V5.89998C14.2602 4.60042 13.7587 3.3541 12.8661 2.43517C11.9734 1.51625 10.7627 1 9.50023 1C8.2378 1 7.02708 1.51625 6.13441 2.43517C5.24173 3.3541 4.74023 4.60042 4.74023 5.89998V7.99997" stroke="#9F9F9F" stroke-width="1.5" stroke-linecap="round" stroke-linejoin="round"/>
<ellipse cx="9.49996" cy="15" rx="2.04" ry="2.09999" fill="#9F9F9F"/>
</svg>
