<svg width="28" height="28" viewBox="0 0 28 28" fill="none" xmlns="http://www.w3.org/2000/svg">
<path d="M19.6 2.33325H16.5667C12.8333 2.33325 10.5 4.66658 10.5 8.39992V13.1249H15.68L13.265 10.7099C13.09 10.5349 13.0083 10.3133 13.0083 10.0916C13.0083 9.86992 13.09 9.64825 13.265 9.47325C13.6033 9.13492 14.1633 9.13492 14.5017 9.47325L18.41 13.3816C18.7483 13.7199 18.7483 14.2799 18.41 14.6183L14.5017 18.5266C14.1633 18.8649 13.6033 18.8649 13.265 18.5266C12.9267 18.1883 12.9267 17.6283 13.265 17.2899L15.68 14.8749H10.5V19.5999C10.5 23.3333 12.8333 25.6666 16.5667 25.6666H19.5883C23.3217 25.6666 25.655 23.3333 25.655 19.5999V8.39992C25.6667 4.66658 23.3333 2.33325 19.6 2.33325Z" fill="#A5ABDE"/>
<path d="M3.20837 13.125C2.73004 13.125 2.33337 13.5217 2.33337 14C2.33337 14.4783 2.73004 14.875 3.20837 14.875H10.5V13.125H3.20837Z" fill="#A5ABDE"/>
</svg>
