<svg width="24" height="24" viewBox="0 0 24 24" fill="none" xmlns="http://www.w3.org/2000/svg">
<path d="M21.8939 9.96456L12.5335 0.602803C11.9815 0.0521139 11.0885 0.0586296 10.5436 0.602099C9.99571 1.15143 9.99571 2.04337 10.5436 2.59199L19.9054 11.9531C20.4538 12.5015 21.3454 12.5015 21.8939 11.9531C22.4439 11.4032 22.4439 10.5144 21.8939 9.96456Z" fill="white"/>
<path d="M9.84918 3.88623L9.77873 4.23939C9.28246 6.7218 8.07637 9.08013 6.44507 10.9916L11.5379 16.0844C13.4491 14.4534 15.7749 13.2149 18.2575 12.7181L18.6113 12.6476L9.84918 3.88623Z" fill="white"/>
<path d="M5.51132 12.0464L2.0307 15.5263C1.20828 16.3487 1.20485 17.6839 2.0307 18.5098L4.01923 20.4983C4.84166 21.3207 6.17685 21.3241 7.00269 20.4983L10.483 17.018L5.51132 12.0464ZM6.00847 17.5155C5.73383 17.7902 5.28885 17.7902 5.01421 17.5155C4.73956 17.2409 4.73956 16.7959 5.01421 16.5213L6.00847 15.527C6.28311 15.2524 6.7281 15.2524 7.00274 15.527C7.27738 15.8016 7.27738 16.2466 7.00274 16.5213L6.00847 17.5155Z" fill="white"/>
<path d="M13.4187 20.8726L14.3752 19.9161C15.2011 19.0903 15.1984 17.7551 14.3752 16.9334L13.6648 16.2224C13.2721 16.4862 12.8971 16.7728 12.5325 17.0786L13.381 17.9283C13.655 18.2009 13.6569 18.6445 13.381 18.9219L12.4087 19.8941L10.9798 18.5098L8.99121 20.4984L12.1814 23.5897C12.7258 24.1355 13.6197 24.1386 14.1692 23.589C14.7178 23.0403 14.7178 22.1484 14.1692 21.5997L13.4187 20.8726Z" fill="white"/>
<path d="M16.2593 0C15.8706 0 15.5562 0.314485 15.5562 0.703126V2.10938C15.5562 2.49802 15.8706 2.81251 16.2593 2.81251C16.6479 2.81251 16.9624 2.49802 16.9624 2.10938V0.703126C16.9624 0.314485 16.6479 0 16.2593 0Z" fill="white"/>
<path d="M21.8843 5.625H20.478C20.0894 5.625 19.7749 5.93948 19.7749 6.32813C19.7749 6.71677 20.0894 7.03125 20.478 7.03125H21.8843C22.2729 7.03125 22.5874 6.71677 22.5874 6.32813C22.5874 5.93948 22.2729 5.625 21.8843 5.625Z" fill="white"/>
<path d="M20.9752 1.61223C20.7005 1.33759 20.2555 1.33759 19.9809 1.61223L18.5746 3.01848C18.3 3.29312 18.3 3.73811 18.5746 4.01275C18.8493 4.28739 19.2943 4.28744 19.5689 4.01275L20.9752 2.6065C21.2498 2.33186 21.2498 1.88687 20.9752 1.61223Z" fill="white"/>
</svg>