<svg width="82" height="100" viewBox="0 0 82 100" fill="none" xmlns="http://www.w3.org/2000/svg">
<g clip-path="url(#clip0_397_1956)">
<path d="M20.5009 29.6465C18.469 29.6465 16.8389 27.9942 16.8389 25.954L16.8672 7.35375C16.8672 6.37628 17.2535 5.44286 17.9397 4.7538C18.626 4.06474 19.5557 3.67688 20.5292 3.67688L60.9717 3.7195C61.9438 3.7195 62.8749 4.10736 63.5612 4.79642C64.2475 5.48548 64.6338 6.42032 64.6338 7.39637L64.6055 26.0109C64.6055 28.0496 62.9598 29.6877 60.9434 29.6877C60.9278 29.7048 20.5009 29.6465 20.5009 29.6465Z" fill="white"/>
<path d="M20.5292 7.36794L60.9561 7.41198L60.9278 26.0123L20.5009 25.9697L20.5292 7.36794ZM20.5292 0C18.5835 0 16.7242 0.775722 15.3502 2.15384C13.9762 3.53337 13.205 5.40022 13.1909 7.35373L13.1626 25.9398C13.1626 30.0045 16.4384 33.3078 20.4867 33.3078L60.915 33.3518H60.9292C62.8748 33.3518 64.7342 32.5761 66.1081 31.198C67.4807 29.8184 68.2533 27.9516 68.2689 25.9981L68.2972 7.41198C68.2972 3.34726 65.0214 0.0426221 60.9731 0.0426221L20.5292 0Z" fill="#4C2F1B"/>
<path d="M15.4647 22.1478L3.66211 36.152V96.306H55.8775V36.152L65.9057 22.1478H15.4647Z" fill="white"/>
<path d="M55.8774 99.9844H3.66205C1.63151 99.9844 0 98.3335 0 96.3075V36.1535C0 35.2769 0.299983 34.4443 0.873063 33.7695L12.6757 19.7795C13.3775 18.9469 14.3921 18.4724 15.4802 18.4724H65.9226C67.2952 18.4724 68.5545 19.2481 69.1842 20.4685C69.8139 21.7032 69.6993 23.1836 68.8984 24.3031L59.5565 37.3313V96.3075C59.5565 97.285 59.1702 98.2184 58.4839 98.9074C57.7806 99.6121 56.851 99.9844 55.8774 99.9844ZM7.33826 92.6306H52.2154V36.1535C52.2154 35.3778 52.4588 34.6305 52.9017 33.9996L58.7527 25.8418H17.1669L7.33826 37.5046V92.6306Z" fill="#4C2F1B"/>
<path d="M66.7646 21.8907L55.8774 37.3739V96.3075H78.3224V36.8142L66.7646 21.8907Z" fill="#EFEFEF"/>
<path d="M78.3237 100H55.8774C53.8468 100 52.2153 98.3477 52.2153 96.3231V37.3739C52.2153 36.6124 52.4446 35.8665 52.8875 35.2485L63.7746 19.7639C64.4467 18.8163 65.5193 18.2266 66.6923 18.2124C67.8654 18.1684 68.9521 18.714 69.6681 19.6346L81.2259 34.558C81.7269 35.2045 81.9985 35.9944 81.9985 36.8127V96.3061C81.9858 98.3477 80.3416 100 78.3237 100ZM59.5409 92.6306H74.6475V38.0772L66.9074 28.0795L59.5394 38.5503V92.6306H59.5409Z" fill="#4C2F1B"/>
<path d="M55.8775 37.6624H3.66211V67.5674H55.8775V37.6624Z" fill="#526FFF"/>
<path d="M55.8774 71.2429H3.66205C1.63151 71.2429 0 69.592 0 67.566V37.6623C0 35.6222 1.64566 33.9855 3.66205 33.9855H55.8774C57.9094 33.9855 59.5395 35.6378 59.5395 37.6623V67.5674C59.5409 69.6062 57.9094 71.2429 55.8774 71.2429ZM7.33826 63.8892H52.2154V41.3378H7.33826V63.8892Z" fill="#4C2F1B"/>
<path d="M21.644 46.7536H26.2655L29.8285 54.5535L33.3193 46.7252H37.8969V58.4747H35.1928V49.8707H34.9777L30.9011 58.4747H28.5691L24.5632 49.8707H24.3481V58.4889H21.6582V46.7536H21.644Z" fill="white"/>
</g>
<defs>
<clipPath id="clip0_397_1956">
<rect width="82" height="100" fill="white"/>
</clipPath>
</defs>
</svg>
