<svg width="23" height="22" viewBox="0 0 23 22" fill="none" xmlns="http://www.w3.org/2000/svg">
<path d="M22.8679 7.08125L21.7974 3.32383C21.2403 1.36675 19.4335 0 17.4058 0H16.5088V3.66667C16.5034 4.86567 14.6866 4.86475 14.682 3.66667V0H9.20163V3.66667C9.19615 4.86567 7.3803 4.86475 7.37482 3.66667V0H6.47695C4.4492 0 2.64341 1.36675 2.08532 3.32383L1.01664 7.08125C0.869581 8.05842 1.30345 9.04108 1.89442 9.73317V18.3333C1.89442 20.3555 3.53306 22 5.54802 22H11.0284C13.0434 22 14.682 20.3555 14.682 18.3333V10.4903C15.0273 10.2878 15.3342 10.0338 15.5954 9.73317C16.2659 10.5032 17.2386 11 18.3356 11H19.249C19.566 11 19.8683 10.9468 20.1624 10.8698V21.0833C20.1679 22.2823 21.9847 22.2814 21.9892 21.0833V9.73317C22.5811 9.042 23.0141 8.05933 22.8679 7.08125ZM12.8552 15.5833H3.72122V10.8698C4.01533 10.9468 4.31767 11 4.63462 11H5.54802C6.6441 11 7.61779 10.5032 8.28823 9.73317C8.95866 10.5032 9.93235 11 11.0284 11H12.8552V15.5833Z" fill="white"/>
</svg>
