<svg width="394" height="477" viewBox="0 0 394 477" fill="none" xmlns="http://www.w3.org/2000/svg">
<g opacity="0.05">
<path d="M119.139 350.91C68.7766 372.233 27.2376 390.675 14.3603 443.828C3.64586 488.053 12.8861 523.322 44.0147 556.514C81.0492 596.004 125.303 585.397 179.436 586.169C237.346 586.994 281.303 594.818 324.743 556.514C360.903 524.629 382.532 491.47 375.155 443.828C367.63 395.225 333.732 373.694 290.146 350.91C230.962 319.973 180.637 324.874 119.139 350.91Z" stroke="#CDC6FF" stroke-width="2"/>
<path d="M75.2553 292.114C-2.16647 329.059 -66.0239 361.012 -85.8199 453.107C-102.291 529.735 -88.0862 590.844 -40.2326 648.355C16.7001 716.777 84.7314 698.398 167.949 699.735C256.973 701.166 324.548 714.722 391.327 648.355C446.916 593.109 480.166 535.655 468.826 453.107C457.257 368.896 405.146 331.59 338.142 292.114C247.159 238.511 169.795 247.001 75.2553 292.114Z" stroke="#CDC6FF" stroke-width="2"/>
<path d="M81.2723 245.129C-13.5354 290.41 -91.7327 329.574 -115.974 442.452C-136.144 536.373 -118.749 611.271 -60.1496 681.76C9.5679 765.622 92.8764 743.096 194.782 744.735C303.797 746.489 386.547 763.104 468.322 681.76C536.393 614.047 577.11 543.628 563.223 442.452C549.057 339.238 485.244 293.513 403.193 245.129C291.779 179.429 197.042 189.836 81.2723 245.129Z" stroke="#CDC6FF" stroke-width="2"/>
<path d="M375.839 210.67C480.97 262.98 567.682 308.224 594.563 438.625C616.929 547.125 597.64 633.65 532.66 715.081C455.351 811.961 362.972 785.939 249.971 787.832C129.086 789.858 37.326 809.053 -53.353 715.081C-128.836 636.857 -173.986 555.506 -158.588 438.625C-142.879 319.388 -72.1176 266.565 18.8669 210.67C142.413 134.771 247.465 146.793 375.839 210.67Z" stroke="#CDC6FF" stroke-width="2"/>
<path d="M403.855 147.039C528.002 208.831 630.398 262.275 662.141 416.311C688.552 544.476 665.775 646.684 589.041 742.875C497.749 857.315 388.66 826.576 255.219 828.813C112.469 831.206 4.112 853.879 -102.969 742.875C-192.105 650.473 -245.422 554.377 -227.238 416.311C-208.688 275.462 -125.128 213.065 -17.686 147.039C128.206 57.3837 252.26 71.5847 403.855 147.039Z" stroke="#CDC6FF" stroke-width="2"/>
<path d="M431.071 71.2198C573.69 142.166 691.322 203.528 727.788 380.384C758.13 527.537 731.963 644.887 643.812 755.328C538.936 886.722 413.615 851.429 260.319 853.997C96.328 856.744 -28.1525 882.777 -151.167 755.328C-253.566 649.236 -314.816 538.904 -293.927 380.384C-272.617 218.669 -176.623 147.028 -53.194 71.2198C114.407 -31.7177 256.919 -15.4129 431.071 71.2198Z" stroke="#CDC6FF" stroke-width="2"/>
<path d="M265.498 302.638C202.561 284.118 149.658 269.759 78.141 316.146C18.6353 354.743 -15.3425 400.133 -30.3222 461.278C-48.1438 534.025 -2.28627 559.011 37.8353 604.308C80.7558 652.765 104.973 697.261 182.395 691.894C246.843 687.427 301.76 669.657 351.528 612.537C402.298 554.265 401.63 503.342 395.076 443.119C386.176 361.343 342.35 325.253 265.498 302.638Z" stroke="#CDC6FF" stroke-width="2"/>
<path d="M113.531 409.085C86.9498 437.788 65.277 462.027 72.5027 500.902C78.5148 533.247 94.9093 553.884 124.97 566.8C160.734 582.166 186.481 562.319 222.017 547.129C260.031 530.88 291.002 523.304 308.076 485.382C322.288 453.816 326.648 425.621 307.832 396.263C288.636 366.314 260.197 361.911 225.07 359.49C177.373 356.201 145.989 374.036 113.531 409.085Z" stroke="#CDC6FF" stroke-width="2"/>
<path d="M268.537 487.338C286.204 462.19 300.527 441.072 291.17 413.612C283.384 390.764 268.747 378.104 244.34 373.203C215.302 367.373 197.414 385.886 171.534 402.471C143.849 420.214 120.74 430.509 111.294 460.978C103.43 486.341 102.824 507.723 120.177 526.421C137.88 545.495 160.208 544.389 187.491 540.806C224.539 535.94 246.964 518.045 268.537 487.338Z" stroke="#CDC6FF" stroke-width="2"/>
</g>
</svg>
