<svg width="226" height="226" viewBox="0 0 226 226" fill="none" xmlns="http://www.w3.org/2000/svg">
<path d="M102.826 16.2648C107.527 8.7497 118.473 8.7497 123.174 16.2648L131.829 30.1023C134.915 35.0361 141.096 37.0445 146.493 34.8669L161.629 28.7597C169.849 25.4428 178.705 31.8767 178.09 40.7195L176.959 57.0018C176.556 62.8073 180.376 68.0653 186.022 69.4757L201.857 73.4314C210.457 75.5798 213.839 85.99 208.144 92.7829L197.659 105.291C193.92 109.75 193.92 116.25 197.659 120.709L208.144 133.217C213.839 140.01 210.457 150.42 201.857 152.569L186.022 156.524C180.376 157.935 176.556 163.193 176.959 168.998L178.09 185.28C178.705 194.123 169.849 200.557 161.629 197.24L146.493 191.133C141.096 188.956 134.915 190.964 131.829 195.898L123.174 209.735C118.473 217.25 107.527 217.25 102.826 209.735L94.1709 195.898C91.0849 190.964 84.9037 188.956 79.507 191.133L64.3712 197.24C56.1509 200.557 47.2955 194.123 47.9098 185.28L49.0409 168.998C49.4442 163.193 45.624 157.935 39.9781 156.524L24.1432 152.569C15.5433 150.42 12.1608 140.01 17.8555 133.217L28.3411 120.709C32.0797 116.25 32.0797 109.75 28.3411 105.291L17.8555 92.7829C12.1608 85.99 15.5433 75.5798 24.1432 73.4314L39.9781 69.4757C45.6241 68.0653 49.4442 62.8073 49.0409 57.0018L47.9098 40.7195C47.2955 31.8767 56.1509 25.4428 64.3712 28.7597L79.507 34.8669C84.9037 37.0445 91.0849 35.0361 94.1709 30.1023L102.826 16.2648Z" fill="#F7F5FF"/>
<path d="M130.115 156.978C127.469 156.968 124.895 156.116 122.765 154.545L115.205 149.015C114.267 148.324 113.132 147.952 111.967 147.952C110.803 147.952 109.668 148.324 108.73 149.015L101.17 154.545C99.215 155.973 96.8873 156.802 94.47 156.932C92.0526 157.061 89.6496 156.486 87.5531 155.276C85.4566 154.065 83.7569 152.272 82.6606 150.113C81.5642 147.955 81.1185 145.525 81.3775 143.118L82.3925 133.808C82.5228 132.651 82.2787 131.483 81.6959 130.475C81.1132 129.467 80.2226 128.672 79.155 128.208L70.5975 124.428C68.3772 123.454 66.4886 121.855 65.1624 119.826C63.8362 117.796 63.13 115.425 63.13 113C63.13 110.576 63.8362 108.204 65.1624 106.175C66.4886 104.145 68.3772 102.546 70.5975 101.573L79.155 97.7927C80.2226 97.3283 81.1132 96.5338 81.6959 95.5259C82.2787 94.5179 82.5228 93.3497 82.3925 92.1927L81.3775 82.8827C81.1185 80.4758 81.5642 78.0454 82.6606 75.8871C83.7569 73.7287 85.4566 71.9353 87.5531 70.7249C89.6496 69.5144 92.0526 68.9391 94.47 69.0687C96.8873 69.1984 99.215 70.0275 101.17 71.4552L108.73 76.9852C109.668 77.676 110.803 78.0486 111.967 78.0486C113.132 78.0486 114.267 77.676 115.205 76.9852L122.765 71.4552C124.111 70.4588 125.648 69.749 127.279 69.3697C128.91 68.9905 130.602 68.9498 132.25 69.2502C133.933 69.5556 135.537 70.1983 136.966 71.1397C138.394 72.081 139.618 73.3015 140.562 74.7277C140.824 75.1114 141.007 75.5433 141.101 75.9983C141.194 76.4534 141.196 76.9224 141.106 77.3782C141.016 77.8339 140.836 78.2672 140.577 78.6528C140.318 79.0384 139.985 79.3686 139.597 79.6241C139.209 79.8796 138.774 80.0554 138.318 80.1411C137.861 80.2268 137.392 80.2208 136.938 80.1234C136.484 80.026 136.054 79.8392 135.672 79.5738C135.291 79.3084 134.967 78.9698 134.717 78.5777C134.295 77.943 133.749 77.4003 133.111 76.9823C132.474 76.5643 131.758 76.2795 131.007 76.1452C130.285 76.012 129.542 76.0319 128.828 76.2037C128.113 76.3756 127.443 76.6955 126.86 77.1427L119.3 82.6727C117.16 84.241 114.577 85.0865 111.924 85.0865C109.271 85.0865 106.687 84.241 104.547 82.6727L97.005 77.1427C96.1478 76.4919 95.1179 76.108 94.0438 76.0389C92.9698 75.9699 91.8992 76.2188 90.9658 76.7546C90.0323 77.2904 89.2774 78.0893 88.7953 79.0516C88.3132 80.0138 88.1253 81.0968 88.255 82.1652L89.27 91.4577C89.5751 94.0871 89.0337 96.7453 87.7244 99.0459C86.4152 101.346 84.4064 103.17 81.99 104.25L73.415 108.03C72.443 108.462 71.6171 109.166 71.0375 110.057C70.4578 110.949 70.1492 111.989 70.1492 113.053C70.1492 114.116 70.4578 115.157 71.0375 116.048C71.6171 116.94 72.443 117.644 73.415 118.075L81.99 121.75C84.4196 122.816 86.4449 124.63 87.7703 126.929C89.0957 129.227 89.6519 131.889 89.3575 134.525L88.3425 143.818C88.2128 144.886 88.4007 145.969 88.8828 146.931C89.3649 147.894 90.1198 148.693 91.0533 149.228C91.9867 149.764 93.0573 150.013 94.1313 149.944C95.2054 149.875 96.2353 149.491 97.0925 148.84L104.635 143.31C106.775 141.742 109.358 140.896 112.011 140.896C114.664 140.896 117.248 141.742 119.387 143.31L126.947 148.84C127.805 149.491 128.835 149.875 129.909 149.944C130.983 150.013 132.053 149.764 132.987 149.228C133.92 148.693 134.675 147.894 135.157 146.931C135.639 145.969 135.827 144.886 135.697 143.818L134.682 134.525C134.377 131.9 134.917 129.246 136.223 126.949C137.529 124.652 139.533 122.831 141.945 121.75L150.52 117.97C151.492 117.539 152.318 116.835 152.898 115.943C153.477 115.052 153.786 114.011 153.786 112.948C153.786 111.884 153.477 110.844 152.898 109.952C152.318 109.061 151.492 108.357 150.52 107.925L145.865 106C145.432 105.824 145.038 105.562 144.708 105.231C144.377 104.9 144.117 104.506 143.941 104.073C143.765 103.639 143.678 103.175 143.685 102.707C143.692 102.239 143.793 101.778 143.981 101.349C144.17 100.921 144.442 100.535 144.782 100.214C145.122 99.8927 145.523 99.643 145.961 99.4795C146.4 99.3159 146.866 99.2419 147.334 99.2618C147.801 99.2817 148.26 99.3951 148.682 99.5952L153.337 101.643C155.558 102.616 157.446 104.215 158.773 106.245C160.099 108.274 160.805 110.646 160.805 113.07C160.805 115.495 160.099 117.866 158.773 119.896C157.446 121.925 155.558 123.524 153.337 124.498L144.78 128.278C143.713 128.744 142.821 129.538 142.236 130.545C141.651 131.552 141.402 132.719 141.525 133.878L142.54 143.188C142.834 145.597 142.405 148.04 141.308 150.205C140.212 152.371 138.496 154.161 136.38 155.35C134.47 156.431 132.31 156.993 130.115 156.978Z" fill="#50429B"/>
<path d="M112.37 125.25C111.908 125.251 111.451 125.159 111.024 124.982C110.598 124.805 110.211 124.545 109.885 124.218L94.8175 109.15C94.442 108.838 94.1359 108.451 93.9189 108.013C93.702 107.576 93.579 107.098 93.5578 106.61C93.5367 106.122 93.6178 105.635 93.7961 105.181C93.9743 104.726 94.2458 104.314 94.5929 103.97C94.94 103.627 95.3552 103.36 95.8116 103.187C96.2681 103.013 96.7558 102.937 97.2434 102.963C97.731 102.99 98.2077 103.118 98.6428 103.34C99.078 103.561 99.4619 103.871 99.77 104.25L112.37 116.85L156.89 72.2602C157.557 71.658 158.43 71.3354 159.328 71.3591C160.226 71.3828 161.081 71.751 161.715 72.3874C162.349 73.0239 162.714 73.8798 162.735 74.778C162.755 75.6762 162.429 76.5479 161.825 77.2127L114.838 124.2C114.515 124.529 114.132 124.791 113.708 124.971C113.285 125.151 112.83 125.246 112.37 125.25Z" fill="#FF8C21"/>
<ellipse cx="113.5" cy="159" rx="42.5" ry="4" fill="url(#paint0_radial_3661_419555)"/>
<defs>
<radialGradient id="paint0_radial_3661_419555" cx="0" cy="0" r="1" gradientUnits="userSpaceOnUse" gradientTransform="translate(113.5 159) rotate(90) scale(4 42.5)">
<stop stop-color="#E1E1E1"/>
<stop offset="1" stop-color="#D9D9D9" stop-opacity="0"/>
</radialGradient>
</defs>
</svg>
