<svg width="64" height="64" viewBox="0 0 64 64" fill="none" xmlns="http://www.w3.org/2000/svg">
<circle cx="32" cy="32" r="31" fill="#F7F5FF" stroke="#CDC6FF" stroke-width="2"/>
<path d="M22.6667 36C19.72 36 17.3333 38.3867 17.3333 41.3333C17.3333 42.3333 17.6133 43.28 18.1067 44.08C19.0267 45.6267 20.72 46.6667 22.6667 46.6667C24.6133 46.6667 26.3067 45.6267 27.2267 44.08C27.72 43.28 28 42.3333 28 41.3333C28 38.3867 25.6133 36 22.6667 36ZM25.2933 40.8933L22.4533 43.52C22.2667 43.6933 22.0133 43.7867 21.7733 43.7867C21.52 43.7867 21.2667 43.6933 21.0667 43.4933L19.7467 42.1733C19.36 41.7867 19.36 41.1467 19.7467 40.76C20.1333 40.3733 20.7733 40.3733 21.16 40.76L21.8 41.4L23.9333 39.4267C24.3333 39.0533 24.9733 39.08 25.3467 39.48C25.72 39.88 25.6933 40.52 25.2933 40.8933Z" fill="#CDC6FF"/>
<path d="M44.6667 32.6665H41.3333C39.8667 32.6665 38.6667 33.8665 38.6667 35.3332C38.6667 36.7998 39.8667 37.9998 41.3333 37.9998H44.6667C45.04 37.9998 45.3333 37.7065 45.3333 37.3332V33.3332C45.3333 32.9598 45.04 32.6665 44.6667 32.6665Z" fill="#CDC6FF"/>
<path d="M38.04 23.1999C38.44 23.5865 38.1067 24.1865 37.5467 24.1865L26.5067 24.1732C25.8667 24.1732 25.5467 23.3999 26 22.9465L28.3333 20.5999C30.3067 18.6399 33.4933 18.6399 35.4667 20.5999L37.9867 23.1465C38 23.1599 38.0267 23.1865 38.04 23.1999Z" fill="#CDC6FF"/>
<path d="M45.16 40.8802C44.3467 43.6268 42 45.3335 38.8 45.3335H30.1333C29.6133 45.3335 29.28 44.7602 29.4933 44.2802C29.8933 43.3468 30.1467 42.2935 30.1467 41.3335C30.1467 37.2935 26.8533 34.0002 22.8133 34.0002C21.8 34.0002 20.8133 34.2135 19.9067 34.6135C19.4133 34.8268 18.8133 34.4935 18.8133 33.9602V32.0002C18.8133 28.3735 21 25.8402 24.4 25.4135C24.7333 25.3602 25.0933 25.3335 25.4667 25.3335H38.8C39.1467 25.3335 39.48 25.3468 39.8 25.4002C42.4933 25.7068 44.44 27.3468 45.16 29.7868C45.2933 30.2268 44.9733 30.6668 44.52 30.6668H41.4667C38.5733 30.6668 36.28 33.3068 36.9067 36.3068C37.3467 38.4935 39.3733 40.0002 41.6 40.0002H44.52C44.9867 40.0002 45.2933 40.4535 45.16 40.8802Z" fill="#CDC6FF"/>
</svg>
