<svg width="28" height="28" viewBox="0 0 28 28" fill="none" xmlns="http://www.w3.org/2000/svg">
<mask id="path-1-outside-1_358_84" maskUnits="userSpaceOnUse" x="3" y="2" width="22" height="24" fill="black">
<rect fill="white" x="3" y="2" width="22" height="24"/>
<path fill-rule="evenodd" clip-rule="evenodd" d="M14.3942 23.9032C16.1292 23.042 23 19.2252 23 12.7896C23 7.93522 18.9706 4 14 4C9.02944 4 5 7.93522 5 12.7896C5 19.2252 11.8709 23.042 13.6058 23.9032C13.8555 24.0272 14.1445 24.0272 14.3942 23.9032ZM14 16.5567C16.1303 16.5567 17.8572 14.8701 17.8572 12.7897C17.8572 10.7093 16.1303 9.02276 14 9.02276C11.8698 9.02276 10.1429 10.7093 10.1429 12.7897C10.1429 14.8701 11.8698 16.5567 14 16.5567Z"/>
</mask>
<path d="M14.3942 23.9032L15.2834 25.6947L15.2834 25.6947L14.3942 23.9032ZM13.6058 23.9032L14.4951 22.1118H14.4951L13.6058 23.9032ZM21 12.7896C21 15.249 19.6915 17.3262 17.9591 18.9974C16.2337 20.662 14.286 21.7241 13.505 22.1118L15.2834 25.6947C16.2374 25.2212 18.5926 23.9443 20.7363 21.8762C22.8731 19.8149 25 16.7658 25 12.7896H21ZM14 6C17.9109 6 21 9.08414 21 12.7896H25C25 6.7863 20.0303 2 14 2V6ZM7 12.7896C7 9.08414 10.0891 6 14 6V2C7.96975 2 3 6.7863 3 12.7896H7ZM14.4951 22.1118C13.714 21.7241 11.7663 20.662 10.0409 18.9974C8.30849 17.3262 7 15.249 7 12.7896H3C3 16.7658 5.12694 19.8149 7.26371 21.8762C9.40745 23.9443 11.7626 25.2212 12.7166 25.6947L14.4951 22.1118ZM13.505 22.1118C13.8155 21.9577 14.1845 21.9577 14.4951 22.1118L12.7166 25.6947C13.5265 26.0967 14.4735 26.0967 15.2834 25.6947L13.505 22.1118ZM15.8572 12.7897C15.8572 13.7212 15.0706 14.5567 14 14.5567V18.5567C17.19 18.5567 19.8572 16.0191 19.8572 12.7897H15.8572ZM14 11.0228C15.0706 11.0228 15.8572 11.8582 15.8572 12.7897H19.8572C19.8572 9.56037 17.19 7.02276 14 7.02276V11.0228ZM12.1429 12.7897C12.1429 11.8582 12.9295 11.0228 14 11.0228V7.02276C10.8101 7.02276 8.14288 9.56037 8.14288 12.7897H12.1429ZM14 14.5567C12.9295 14.5567 12.1429 13.7212 12.1429 12.7897H8.14288C8.14288 16.0191 10.8101 18.5567 14 18.5567V14.5567Z" fill="#9F9F9F" mask="url(#path-1-outside-1_358_84)"/>
</svg>
