<svg width="100" height="100" viewBox="0 0 100 100" fill="none" xmlns="http://www.w3.org/2000/svg">
<g clip-path="url(#clip0_397_1850)">
<path d="M2.74365 59.0123V70.2292H91.4347C93.9279 70.2292 95.8302 58.8146 95.8302 58.8146L2.74365 59.0123Z" fill="#F2C05A"/>
<path d="M2.7427 72.973C1.20562 72.973 0 71.7674 0 70.2292V59.0112C0 57.4989 1.23034 56.2686 2.7427 56.2686L95.8955 56.0708C96.6697 56.0708 97.4708 56.4382 97.936 57.0068C98.4708 57.6483 98.6764 58.4281 98.5202 59.2079C96.2472 72.973 92.7989 72.973 91.5011 72.973H2.7427ZM90.6674 67.5517L90.8517 67.182C91.2674 66.3506 91.7472 64.8753 92.4079 62.3978L92.6326 61.5562L5.55169 61.7562V67.5517H6.2191H90.6674Z" fill="#4C2F1B"/>
<path d="M71.9518 3.51348C70.0495 2.52921 67.6877 2.79213 66.1136 4.23595L2.80908 59.0124H14.6181V90.5663C14.6181 94.3056 17.6349 97.3225 21.3743 97.3225C25.1136 97.3225 28.1304 94.3056 28.1304 90.5663V59.0124H35.1495V73.9034C35.1495 77.7079 38.2978 80.8573 42.1035 80.8573C45.908 80.8573 49.0574 77.709 49.0574 73.9034V59.0124H59.0945C60.0787 62.7517 63.4248 65.5067 67.4259 65.5067C71.4282 65.5067 74.8383 62.7517 75.7574 59.0124L95.9619 58.9472C102.324 22.6697 80.545 7.84381 71.9518 3.51348Z" fill="#FFDE8A"/>
<path d="M51.0911 27.3921C54.9607 27.3921 58.045 24.309 58.045 20.4382C58.045 17.7483 56.536 15.518 54.3708 14.3382L44.5967 22.8C45.5809 25.4899 48.0731 27.3921 51.0911 27.3921Z" fill="#FF5C5C"/>
<path d="M51.0912 28.7697C47.6136 28.7697 44.4653 26.5393 43.2844 23.2596C43.0878 22.7348 43.2181 22.1449 43.6777 21.7517L53.4518 13.2888C53.8451 12.8955 54.5013 12.8292 54.9597 13.0921C57.7148 14.536 59.3552 17.3562 59.3552 20.3742C59.4226 25.0303 55.6833 28.7697 51.0912 28.7697ZM46.2361 23.1944C47.2204 24.9663 49.0575 26.0809 51.0912 26.0809C54.1743 26.0809 56.6676 23.5888 56.6676 20.5045C56.6676 18.7337 55.8148 17.0933 54.4361 16.0438L46.2361 23.1944Z" fill="#4C2F1B"/>
<path d="M74.1166 33.3618C73.329 36.7079 75.4942 40.1191 78.8391 40.8405C81.2009 41.3652 83.4964 40.5124 84.9402 38.8067L79.4301 28.5079C76.8717 28.836 74.7065 30.6719 74.1166 33.3618Z" fill="#FF5C5C"/>
<path d="M80.2168 42.3494C79.692 42.3494 79.1022 42.2843 78.5774 42.1528C74.51 41.2348 71.8864 37.1674 72.8044 33.0348C73.5257 29.9517 76.0842 27.5899 79.2988 27.1966C79.8235 27.1315 80.4145 27.3933 80.6763 27.918L86.1864 38.1517C86.4493 38.6764 86.383 39.2663 85.9898 39.6607C84.4808 41.3652 82.3819 42.3494 80.2168 42.3494ZM75.428 33.6247C75.1651 34.9371 75.3628 36.2483 76.0831 37.2978C76.8055 38.4124 77.855 39.2 79.1662 39.4629C80.61 39.791 82.1179 39.3978 83.2988 38.4787L78.7729 30.0169C77.0684 30.6067 75.8213 31.918 75.428 33.6247Z" fill="#4C2F1B"/>
<path d="M21.308 100C16.0698 100 11.8069 95.7382 11.8069 90.4989V61.6888H2.74287C1.57433 61.6888 0.586689 60.9933 0.227138 59.9158C-0.204322 58.8315 0.112532 57.636 1.00242 56.9023L64.3193 2.11576C65.7867 0.864071 67.6474 0.171936 69.5564 0.171936C70.8137 0.171936 72.026 0.459577 73.1609 1.02812C80.8485 4.9034 105.406 20.5551 98.5833 59.2236C98.3755 60.5214 97.2204 61.4922 95.8946 61.4922L77.5777 61.5596L77.3923 61.9191C75.4384 65.7023 71.5934 68.0528 67.3586 68.0528C63.1249 68.0528 59.28 65.7034 57.3249 61.9191L57.1373 61.5573H51.7339V73.7057C51.7339 79.0169 47.4137 83.3371 42.1024 83.3371C36.7912 83.3371 32.4721 79.0169 32.4721 73.7068V61.5585H30.8732V90.3686C30.8125 95.6764 26.5215 100 21.308 100ZM69.4889 5.66295C68.871 5.66295 68.2991 5.88093 67.8339 6.29441L10.0687 56.2686H14.5507C15.3114 56.2686 15.9743 56.5394 16.4159 57.0315C16.9564 57.5731 17.2283 58.2495 17.2283 59.0124V90.5663C17.2283 92.8158 19.0586 94.6461 21.3069 94.6461C23.5946 94.6461 25.3856 92.854 25.3856 90.5663V59.0113C25.3856 57.4989 26.6159 56.2686 28.1283 56.2686H35.1474C35.9069 56.2686 36.5698 56.5394 37.0125 57.0315C37.553 57.5731 37.8249 58.2495 37.8249 59.0124V73.9034C37.8249 76.2248 39.7137 78.1135 42.035 78.1135C44.3564 78.1135 46.2451 76.2248 46.2451 73.9034V58.9461C46.2451 57.4326 47.4755 56.2023 48.9878 56.2023H59.0249C60.2788 56.2023 61.3373 57.0304 61.6586 58.2618C62.3294 60.8731 64.6732 62.6978 67.3564 62.6978C70.0395 62.6978 72.3833 60.8731 73.0541 58.2607C73.3755 57.0315 74.4339 56.2034 75.6867 56.2034L93.5867 56.136L93.6665 55.563C98.135 23.5742 79.0799 10.2012 70.68 5.93598C70.2732 5.75059 69.8811 5.66295 69.4889 5.66295Z" fill="#4C2F1B"/>
<path d="M95.8955 58.8146C102.456 21.882 79.627 7.25283 71.427 3.25171C69.7865 2.46407 67.818 2.72699 66.4405 3.90789L61.4551 8.23823C72.345 16.3719 90.6472 31.3955 85.0708 58.882L95.8955 58.8146Z" fill="#FFB07B"/>
<path d="M85.072 61.5584C84.2754 61.5584 83.4855 61.182 82.9619 60.5517C82.4394 59.9258 82.2226 59.0809 82.381 58.2888C87.1832 34.5472 73.6383 20.7528 59.7563 10.391C59.1001 9.93596 58.7023 9.16517 58.645 8.26067C58.5945 7.44494 58.9372 6.66629 59.5866 6.12584L64.5821 1.78652C65.9158 0.634831 67.6023 0 69.3304 0C70.4293 0 71.5248 0.264045 72.5012 0.762921C80.3529 4.59213 105.393 20.1112 98.4529 59.2888C98.245 60.5876 97.09 61.5584 95.7653 61.5584H85.072ZM69.3686 5.49101C68.9158 5.49101 68.4709 5.65506 68.1124 5.95393L65.7282 8.07191L66.3574 8.56517C72.6495 13.5067 91.7978 28.5449 88.345 55.318L88.2484 56.0708H93.5259L93.6057 55.4955C98.1574 22.8966 78.7124 9.78989 70.1417 5.66742C69.9136 5.55393 69.6439 5.49101 69.3686 5.49101Z" fill="#4C2F1B"/>
<path d="M85.072 58.8146C85.072 58.8146 84.481 66.0303 81.8574 70.2292H91.5001C91.5001 70.2292 94.9114 68.3921 95.8956 58.8146H85.072Z" fill="#E2803D"/>
<path d="M81.8572 72.973C80.8471 72.973 79.9651 72.4438 79.4954 71.5573C79.0044 70.682 79.0235 69.636 79.537 68.8124C81.4257 65.736 82.2033 60.2742 82.3269 58.6023C82.4291 57.2191 83.6066 56.1371 85.0066 56.1371H95.8302C96.6336 56.1371 97.3527 56.4539 97.8066 57.0079C98.3785 57.6382 98.6156 58.3596 98.5134 59.1202C97.401 69.6618 93.4729 72.2461 92.6965 72.6573C92.3819 72.8629 91.9359 72.973 91.4999 72.973H81.8572ZM87.4336 62.0955C87.1741 63.3944 86.8505 65.0112 86.3358 66.6876L86.0707 67.5517H90.4707L90.6707 67.2663C91.1224 66.6202 91.9763 65.1258 92.6111 62.3764L92.7999 61.5584H87.5415L87.4336 62.0955Z" fill="#4C2F1B"/>
<path d="M32.9854 45.1045C32.9854 47.6045 35.0112 49.6304 37.5112 49.6304C40.0112 49.6304 42.037 47.6045 42.037 45.1045C42.037 42.6045 40.0112 40.5787 37.5112 40.5787C35.0112 40.5787 32.9854 42.6045 32.9854 45.1045Z" fill="#FF5C5C"/>
<path d="M37.5114 51.009C34.2968 51.009 31.6069 48.3854 31.6069 45.1056C31.6069 41.8258 34.2305 39.2011 37.5114 39.2011C40.7912 39.2011 43.4148 41.8247 43.4148 45.1056C43.4148 48.3843 40.7912 51.009 37.5114 51.009ZM37.5114 41.9562C35.7406 41.9562 34.3631 43.4 34.3631 45.1045C34.3631 46.8101 35.8058 48.2528 37.5114 48.2528C39.217 48.2528 40.6597 46.809 40.6597 45.1045C40.6597 43.3989 39.2822 41.9562 37.5114 41.9562Z" fill="#4C2F1B"/>
<path d="M59.816 49.6315H50.3036C49.7789 49.6315 49.3193 49.1719 49.3193 48.6472V46.482C49.3193 45.9573 49.7789 45.4977 50.3036 45.4977H59.816C60.3407 45.4977 60.8002 45.9573 60.8002 46.482V48.6472C60.8654 49.1719 60.4058 49.6315 59.816 49.6315Z" fill="#3DE25C"/>
<path d="M58.7662 51.009H51.419C49.5168 51.009 48.0078 49.5 48.0078 47.5978C48.0078 45.6955 49.5168 44.1865 51.419 44.1865H58.7662C60.6685 44.1865 62.1775 45.6955 62.1775 47.5978C62.1775 49.5 60.6685 51.009 58.7662 51.009ZM51.419 46.8753C51.0258 46.8753 50.6977 47.2034 50.6977 47.5966C50.6977 47.991 51.0258 48.3191 51.419 48.3191H58.7662C59.1595 48.3191 59.4876 47.991 59.4876 47.5966C59.4876 47.2034 59.1595 46.8753 58.7662 46.8753H51.419Z" fill="#4C2F1B"/>
<path d="M66.3754 39.7247L61.3237 34.2146C61.1271 34.018 61.1271 33.6899 61.3237 33.4932L63.6192 31.3944C63.8159 31.1977 64.144 31.1977 64.3417 31.3944L69.3934 36.9045C69.59 37.1011 69.59 37.4292 69.3934 37.6258L67.0979 39.7247C66.9653 39.9224 66.5721 39.9224 66.3754 39.7247Z" fill="#3DE25C"/>
<path d="M66.835 41.0371H66.7047C66.0485 41.0371 65.4575 40.709 64.9991 40.2495L60.6699 35.5922C60.2103 35.1326 60.0137 34.4776 60.0137 33.8214C60.0137 33.1663 60.3418 32.5753 60.8013 32.1158L62.244 30.8034C62.7036 30.3438 63.3597 30.1472 64.0159 30.1472C64.6721 30.1472 65.262 30.4753 65.7215 30.9349L70.0507 35.5922C70.5103 36.0517 70.7069 36.7079 70.7069 37.3641C70.7069 38.0203 70.3788 38.6101 69.9193 39.0697L68.4766 40.382C68.0159 40.7742 67.4249 41.0371 66.835 41.0371ZM62.8991 33.8865L66.835 38.1506L67.8845 37.1663L63.9485 32.9023L62.8991 33.8865Z" fill="#4C2F1B"/>
</g>
<defs>
<clipPath id="clip0_397_1850">
<rect width="99.7674" height="100" fill="white"/>
</clipPath>
</defs>
</svg>
