<svg width="28" height="28" viewBox="0 0 28 28" fill="none" xmlns="http://www.w3.org/2000/svg">
<path d="M3.5 11.5C3.5 7.72876 3.5 5.84315 4.67157 4.67157C5.84315 3.5 7.72876 3.5 11.5 3.5H16.5C20.2712 3.5 22.1569 3.5 23.3284 4.67157C24.5 5.84315 24.5 7.72876 24.5 11.5V16.5C24.5 20.2712 24.5 22.1569 23.3284 23.3284C22.1569 24.5 20.2712 24.5 16.5 24.5H11.5C7.72876 24.5 5.84315 24.5 4.67157 23.3284C3.5 22.1569 3.5 20.2712 3.5 16.5V11.5Z" fill="#FF8C21"/>
<path d="M13.9998 8.16699L13.9998 19.8337M19.8332 14.0003L8.1665 14.0003" stroke="white" stroke-width="2" stroke-linejoin="round"/>
</svg>
