<svg width="28" height="28" viewBox="0 0 28 28" fill="none" xmlns="http://www.w3.org/2000/svg">
<path d="M10.5 18.6667H17.5V21H10.5V18.6667ZM25.6667 19.8333H22.1667V23.3333C22.1667 23.9522 21.9209 24.5457 21.4833 24.9832C21.0457 25.4208 20.4522 25.6667 19.8334 25.6667H8.16671C7.54787 25.6667 6.95438 25.4208 6.51679 24.9832C6.07921 24.5457 5.83337 23.9522 5.83337 23.3333V19.8333H2.33337V10.5C2.33337 9.88116 2.57921 9.28767 3.01679 8.85008C3.45438 8.4125 4.04787 8.16667 4.66671 8.16667H5.83337V5.83333C5.83337 5.21449 6.07921 4.621 6.51679 4.18342C6.95438 3.74583 7.54787 3.5 8.16671 3.5H19.8334C20.4522 3.5 21.0457 3.74583 21.4833 4.18342C21.9209 4.621 22.1667 5.21449 22.1667 5.83333V8.16667H23.3334C23.9522 8.16667 24.5457 8.4125 24.9833 8.85008C25.4209 9.28767 25.6667 9.88116 25.6667 10.5V19.8333ZM8.16671 8.16667H19.8334V5.83333H8.16671V8.16667ZM19.8334 16.3333H8.16671V23.3333H19.8334V16.3333ZM23.3334 12.25C23.3333 12.0201 23.2879 11.7925 23.1999 11.5801C23.1119 11.3678 22.9828 11.1748 22.8202 11.0123C22.6576 10.8498 22.4646 10.7209 22.2522 10.633C22.0398 10.5451 21.8121 10.4999 21.5822 10.5C21.3523 10.5001 21.1247 10.5454 20.9123 10.6335C20.7 10.7215 20.507 10.8505 20.3445 11.0131C20.182 11.1758 20.0531 11.3688 19.9652 11.5812C19.8773 11.7936 19.8321 12.0213 19.8322 12.2512C19.8324 12.7155 20.0169 13.1607 20.3454 13.4888C20.6738 13.817 21.1191 14.0013 21.5834 14.0012C22.0477 14.001 22.4929 13.8164 22.8211 13.488C23.1492 13.1596 23.3335 12.7143 23.3334 12.25Z" fill="#50429B"/>
</svg>
