<svg width="28" height="28" viewBox="0 0 28 28" fill="none" xmlns="http://www.w3.org/2000/svg">
<path d="M18.6662 8.66722H18.67H18.6662ZM23.3139 7.33379H19.5199L19.8916 5.84785L21.4881 5.30406C21.8277 5.18864 22.0298 4.82778 21.9318 4.48275C21.9069 4.39596 21.8647 4.31513 21.8076 4.24518C21.7505 4.17522 21.6798 4.11758 21.5998 4.07577C21.5197 4.03396 21.4321 4.00885 21.342 4.00195C21.252 3.99505 21.1615 4.00651 21.0761 4.03564L19.1178 4.70235C19.0124 4.73832 18.9176 4.80015 18.8422 4.88218C18.7668 4.96422 18.7132 5.06385 18.6862 5.17197L18.1458 7.33379H12.6853C12.3266 7.33379 12.0187 7.60965 12.0008 7.96842C11.9964 8.05857 12.0104 8.14866 12.0419 8.23323C12.0734 8.31781 12.1218 8.3951 12.184 8.46044C12.2463 8.52578 12.3211 8.5778 12.4041 8.61334C12.487 8.64888 12.5763 8.66722 12.6666 8.66722H12.7811L12.8228 9.02808C12.8326 9.11236 12.8731 9.19008 12.9364 9.24647C12.9998 9.30287 13.0817 9.334 13.1665 9.33394C14.7914 9.33394 16.2355 9.78814 17.338 10.6474C17.9511 11.1199 18.4482 11.7264 18.7912 12.4204C18.9832 12.8108 19.1249 13.224 19.2128 13.6501C19.2304 13.7331 19.2795 13.8061 19.3499 13.8534C19.9167 14.2381 20.3348 14.8051 20.5348 15.4603C20.7347 16.1154 20.7044 16.8193 20.449 17.4549C20.4193 17.5285 20.4171 17.6103 20.4428 17.6854C20.5904 18.1084 20.6659 18.5532 20.6661 19.0013C20.6661 19.9322 20.3494 20.8194 19.7745 21.4994C19.4485 21.8875 19.0384 22.1963 18.5754 22.4024C18.4953 22.4377 18.4323 22.5031 18.4 22.5845C18.2269 23.0353 17.9826 23.4554 17.6763 23.8287C17.6635 23.8439 17.6554 23.8624 17.6527 23.882C17.6501 23.9016 17.6531 23.9216 17.6614 23.9395C17.6697 23.9575 17.683 23.9727 17.6996 23.9835C17.7163 23.9942 17.7356 23.9999 17.7554 24H19.8057C20.3077 23.9979 20.7907 23.808 21.1597 23.4676C21.5287 23.1272 21.7569 22.661 21.7994 22.1607L23.2243 8.66722H23.3326C23.4229 8.66733 23.5123 8.64908 23.5953 8.61359C23.6784 8.57809 23.7534 8.52609 23.8157 8.46074C23.878 8.39539 23.9264 8.31806 23.958 8.23343C23.9895 8.1488 24.0036 8.05864 23.9992 7.96842C23.9817 7.60965 23.6726 7.33379 23.3139 7.33379Z" fill="#50429B"/>
<path d="M7.77813 16.85C7.90675 16.8494 8.03422 16.8742 8.15316 16.923C8.2721 16.9718 8.38015 17.0437 8.47106 17.1344L9.10326 17.7645C9.1184 17.7796 9.13639 17.7916 9.15618 17.7997C9.17597 17.8079 9.19719 17.8121 9.21861 17.8121C9.24004 17.8121 9.26126 17.8079 9.28105 17.7997C9.30084 17.7916 9.31883 17.7796 9.33397 17.7645L9.96495 17.1344C10.0559 17.0437 10.1639 16.9718 10.2828 16.923C10.4018 16.8742 10.5293 16.8494 10.6579 16.85H18.6707C18.7135 16.8504 18.756 16.8424 18.7957 16.8265C18.8354 16.8106 18.8716 16.787 18.9022 16.7571C18.9328 16.7272 18.9572 16.6916 18.9739 16.6524C18.9907 16.6131 18.9996 16.5709 19 16.5282V16.525C18.9995 16.1505 18.8696 15.7877 18.632 15.4976C18.3944 15.2075 18.0637 15.0079 17.6957 14.9325C17.6622 13.7263 17.1658 12.7168 16.2482 12.0075C15.3996 11.3478 14.2656 11 12.9674 11H10.0326C7.2519 11 5.36834 12.575 5.30435 14.9325C4.93632 15.0079 4.60564 15.2075 4.36804 15.4976C4.13044 15.7877 4.00046 16.1505 4 16.525C4 16.6112 4.03436 16.6939 4.09551 16.7548C4.15666 16.8158 4.2396 16.85 4.32609 16.85H7.77813ZM10.9269 18.15C10.8841 18.15 10.8416 18.1583 10.8021 18.1747C10.7625 18.191 10.7265 18.2149 10.6962 18.2451L9.79375 19.1449C9.64087 19.2972 9.43356 19.3828 9.21739 19.3828C9.00123 19.3828 8.79391 19.2972 8.64103 19.1449L7.73859 18.2451C7.70828 18.2149 7.67231 18.191 7.63272 18.1747C7.59314 18.1583 7.55072 18.15 7.50788 18.15H4.67908C4.52588 18.1493 4.37737 18.2027 4.25982 18.3006C4.14226 18.3985 4.06323 18.5347 4.03669 18.685C4.0122 18.8304 3.99993 18.9776 4 19.125C4 20.3677 4.86128 21.3801 5.92636 21.4C6.02541 22.0142 6.26508 22.5692 6.62582 23.0035C7.15938 23.6458 7.93505 24 8.80978 24H14.1902C15.0649 24 15.8406 23.6458 16.3742 23.0027C16.7349 22.5684 16.9746 22.0134 17.0736 21.3992C18.1387 21.3801 19 20.3677 19 19.1242C19.0001 18.9768 18.9878 18.8296 18.9633 18.6842C18.9366 18.534 18.8575 18.398 18.74 18.3002C18.6224 18.2025 18.474 18.1493 18.3209 18.15H10.9269Z" fill="#50429B"/>
</svg>