<svg width="30" height="30" viewBox="0 0 30 30" fill="none" xmlns="http://www.w3.org/2000/svg">
<path d="M11.25 2.5C7.975 2.5 5.3125 5.1625 5.3125 8.4375C5.3125 11.65 7.825 14.25 11.1 14.3625C11.2 14.35 11.3 14.35 11.375 14.3625C11.4 14.3625 11.4125 14.3625 11.4375 14.3625C11.45 14.3625 11.45 14.3625 11.4625 14.3625C14.6625 14.25 17.175 11.65 17.1875 8.4375C17.1875 5.1625 14.525 2.5 11.25 2.5Z" fill="#50429B"/>
<path d="M17.6 17.6876C14.1125 15.3626 8.42501 15.3626 4.91251 17.6876C3.32501 18.7501 2.45001 20.1876 2.45001 21.7251C2.45001 23.2626 3.32501 24.6876 4.90001 25.7376C6.65001 26.9126 8.95001 27.5001 11.25 27.5001C13.55 27.5001 15.85 26.9126 17.6 25.7376C19.175 24.6751 20.05 23.2501 20.05 21.7001C20.0375 20.1626 19.175 18.7376 17.6 17.6876Z" fill="#50429B"/>
<path d="M24.9875 9.17512C25.1875 11.6001 23.4625 13.7251 21.075 14.0126C21.0625 14.0126 21.0625 14.0126 21.05 14.0126H21.0125C20.9375 14.0126 20.8625 14.0126 20.8 14.0376C19.5875 14.1001 18.475 13.7126 17.6375 13.0001C18.925 11.8501 19.6625 10.1251 19.5125 8.25012C19.425 7.23762 19.075 6.31262 18.55 5.52512C19.025 5.28762 19.575 5.13762 20.1375 5.08762C22.5875 4.87512 24.775 6.70012 24.9875 9.17512Z" fill="#50429B"/>
<path d="M27.4875 20.7375C27.3875 21.95 26.6125 23 25.3125 23.7125C24.0625 24.4 22.4875 24.725 20.925 24.6875C21.825 23.875 22.35 22.8625 22.45 21.7875C22.575 20.2375 21.8375 18.75 20.3625 17.5625C19.525 16.9 18.55 16.375 17.4875 15.9875C20.25 15.1875 23.725 15.725 25.8625 17.45C27.0125 18.375 27.6 19.5375 27.4875 20.7375Z" fill="#50429B"/>
</svg>
