<svg width="32" height="28" viewBox="0 0 32 28" fill="none" xmlns="http://www.w3.org/2000/svg">
<path d="M21.7702 22.7709H20.3379V15.7679V13.3369C20.3379 12.1042 19.3386 11.1049 18.1059 11.1049H10.2298C8.94213 11.1049 7.89832 12.1487 7.89832 13.4364C7.89832 14.724 8.94219 15.7679 10.2298 15.7679H12.2473V22.7709H10.2298C8.94213 22.7709 7.89832 23.8147 7.89832 25.1024C7.89832 26.39 8.94219 27.4339 10.2298 27.4339H21.7702C23.0579 27.4339 24.1017 26.39 24.1017 25.1024C24.1017 23.8147 23.0578 22.7709 21.7702 22.7709Z" fill="#CDC6FF"/>
<path d="M14.9034 15.7676V22.7695H12.8854C11.5975 22.7695 10.554 23.8146 10.554 25.1025C10.554 25.7449 10.8157 26.3277 11.2371 26.7507C11.6586 27.1722 12.2414 27.4339 12.8854 27.4339H10.2297C9.58575 27.4339 9.00294 27.1722 8.58144 26.7507C8.15838 26.3277 7.89832 25.7449 7.89832 25.1025C7.89832 23.8146 8.94182 22.7695 10.2297 22.7695H12.2477V15.7676H10.2297C9.58575 15.7676 9.00294 15.5075 8.58144 15.0845C8.15838 14.663 7.89832 14.0802 7.89832 13.4362C7.89832 12.1484 8.94182 11.1049 10.2297 11.1049H12.8854C11.5975 11.1049 10.554 12.1484 10.554 13.4362C10.554 14.0802 10.8157 14.663 11.2371 15.0845C11.6586 15.5075 12.2414 15.7676 12.8854 15.7676H14.9034Z" fill="#50429B"/>
<path d="M16.2925 8.65667C18.5267 8.65667 20.3378 6.84552 20.3378 4.61135C20.3378 2.37719 18.5267 0.56604 16.2925 0.56604C14.0583 0.56604 12.2472 2.37719 12.2472 4.61135C12.2472 6.84552 14.0583 8.65667 16.2925 8.65667Z" fill="#CDC6FF"/>
<path d="M17.6793 8.41236C17.2468 8.57061 16.7799 8.65679 16.2926 8.65679C14.0584 8.65679 12.2472 6.84561 12.2472 4.61136C12.2472 2.37717 14.0584 0.565918 16.2926 0.565918C16.7799 0.565918 17.2468 0.652105 17.6793 0.810355C16.1281 1.37598 15.0204 2.86442 15.0204 4.61136C15.0204 6.35829 16.1281 7.84673 17.6793 8.41236Z" fill="#50429B"/>
<path d="M27.1533 8.99836L27.2282 9.14586C27.4923 9.66598 28.114 9.8928 28.651 9.66492L30.3027 8.96398C30.8943 8.71292 31.1496 8.0133 30.8586 7.44023L30.6725 7.0738C30.3816 6.50073 29.6661 6.29398 29.1143 6.62348L27.5738 7.54336C27.073 7.84242 26.8893 8.47823 27.1533 8.99836Z" fill="#FF8C21"/>
<path d="M27.9883 13.1066L27.9794 13.2718C27.948 13.8543 28.3731 14.3616 28.952 14.4327L30.7329 14.6515C31.3708 14.7299 31.9417 14.2516 31.9762 13.6099L31.9983 13.1995C32.0329 12.5578 31.5166 12.021 30.874 12.0304L29.0799 12.0568C28.4967 12.0653 28.0197 12.5241 27.9883 13.1066Z" fill="#FF8C21"/>
<path d="M26.8059 17.1309L26.7157 17.2695C26.3973 17.7582 26.5118 18.4101 26.9776 18.7612L28.4104 19.8411C28.9237 20.2279 29.6572 20.0992 30.008 19.5607L30.2323 19.2163C30.5831 18.6778 30.4044 17.9548 29.8432 17.6417L28.2763 16.7675C27.7668 16.4834 27.1243 16.6422 26.8059 17.1309Z" fill="#FF8C21"/>
<path d="M4.84657 8.99836L4.7717 9.14586C4.50764 9.66598 3.88589 9.8928 3.34889 9.66492L1.6972 8.96398C1.10557 8.71292 0.850325 8.0133 1.14132 7.44023L1.32739 7.0738C1.61832 6.50073 2.33382 6.29398 2.88557 6.62348L4.42614 7.54336C4.92689 7.84242 5.11064 8.47823 4.84657 8.99836Z" fill="#FF8C21"/>
<path d="M4.01164 13.1066L4.02051 13.2718C4.05189 13.8543 3.62683 14.3616 3.04789 14.4327L1.26701 14.6515C0.62914 14.7299 0.0582649 14.2516 0.0237024 13.6099L0.0016399 13.1995C-0.0329226 12.5578 0.483328 12.021 1.12595 12.0304L2.92008 12.0568C3.50326 12.0653 3.98026 12.5241 4.01164 13.1066Z" fill="#FF8C21"/>
<path d="M5.19397 17.1309L5.28422 17.2695C5.60259 17.7582 5.48815 18.4101 5.02234 18.7612L3.58947 19.8411C3.07622 20.2279 2.34272 20.0992 1.9919 19.5607L1.76759 19.2163C1.41678 18.6778 1.59547 17.9548 2.15672 17.6417L3.72365 16.7675C4.23309 16.4834 4.87559 16.6422 5.19397 17.1309Z" fill="#FF8C21"/>
</svg>