<svg width="92" height="95" viewBox="0 0 92 95" fill="none" xmlns="http://www.w3.org/2000/svg">
<g clip-path="url(#clip0_397_1911)">
<path d="M81.3607 19.8511L88.3759 69.827C88.9908 74.2805 87.5144 78.7958 84.2534 81.8874C79.0853 86.7122 68.2557 91.8455 45.4882 91.8455C21.183 91.8455 10.6 85.8462 6.04557 80.4649C3.33817 77.3104 2.41524 73.0432 3.21543 68.9598L12.7527 19.8499" fill="#F6BF54"/>
<path d="M78.6521 85.8462C78.6521 85.8462 69.8537 30.7369 67.6998 30.8603C65.3618 30.9837 68.0692 89.3103 69.1762 89.9284C70.2844 90.5477 78.6521 85.8462 78.6521 85.8462Z" fill="#E5AA48"/>
<path d="M76.2526 84.3003L72.6836 58.1984H73.9759L78.1598 83.0013L76.2526 84.3003Z" fill="#ECAA43"/>
<path d="M12.7524 85.8462C12.7524 85.8462 26.2281 28.0143 28.382 28.1389C30.72 28.2622 23.3354 89.3103 22.2284 89.9284C21.1201 90.5477 12.7524 85.8462 12.7524 85.8462Z" fill="#E5AA48"/>
<path d="M68.6839 86.7122L66.7767 51.9511L69.2374 53.6215L70.5911 86.2792L68.6839 86.7122ZM24.1345 46.8795L16.0122 83.9907L13.3662 83.0013L23.0888 44.0347L24.1345 46.8795Z" fill="#ECAA43"/>
<path d="M36.5029 91.0424C36.5029 91.0424 43.2714 33.0254 46.9631 33.0254C50.5935 33.0254 54.2851 88.3209 54.7773 90.8573C55.0853 92.0318 36.5029 91.0424 36.5029 91.0424Z" fill="#E5AA48"/>
<path d="M54.7172 89.9284L50.3481 44.0347L48.0715 44.9007L51.3937 89.9284H54.7172ZM27.5193 49.6022C27.5193 49.6022 23.5195 86.8368 22.5352 88.8156L19.7051 87.8262L26.4736 49.0446L27.5193 49.6022ZM36.503 91.0424L42.3486 48.5499H44.8105L39.4571 91.1658L36.503 91.0424Z" fill="#ECAA43"/>
<path d="M8.32178 43.725C8.32178 43.725 18.5979 39.1481 25.9199 45.1474C33.2419 51.1467 37.3656 51.4564 47.2723 48.3019C57.179 45.1474 66.7776 53.1268 70.9615 57.5791C76.1296 62.9604 88.3755 68.0937 86.3443 53.8682C84.3144 39.6428 81.2376 20.9009 81.2376 20.9009H12.7523L8.32178 43.725Z" fill="#8E5C36"/>
<path d="M45.7324 95C24.9961 95 10.9055 90.7944 3.89033 82.5066C0.629415 78.6723 -0.66292 73.4761 0.321372 68.3428L9.85865 19.2329L16.0123 20.4703L6.475 69.5802C5.86012 72.7964 6.66031 76.1371 8.62889 78.4244C12.6286 83.1259 22.2899 88.6922 45.671 88.6922C67.8837 88.6922 77.8518 83.7439 82.2823 79.6C84.743 77.2499 85.974 73.7858 85.4819 70.2599L78.5906 20.284L84.8056 19.418L91.8208 69.3939C92.621 74.9602 90.7126 80.4661 86.714 84.177C79.0214 91.352 65.2389 95 45.7324 95Z" fill="#4C2F1B"/>
<path d="M13.3672 30.1794C13.3672 30.1794 24.5048 37.046 48.626 36.365C66.7777 35.8703 73.7315 34.0765 76.1308 33.2722C76.7469 33.0871 77.3618 33.3339 77.5459 33.9532L82.5299 48.5499L80.5601 27.0878L13.9821 25.7271L13.3672 30.1794Z" fill="#935D36"/>
<path d="M12.1977 36.8597C12.1977 36.8597 24.2583 34.3862 30.596 40.3238C40.9949 49.9724 43.0874 39.3961 54.4705 41.0653C72.9302 43.7251 83.2063 64.3224 83.6985 54.3642C83.6985 54.3642 87.6356 58.1985 86.6513 60.7966C85.667 63.3947 84.9896 63.8277 81.4206 63.0233C77.913 62.1573 59.7 48.9213 54.8387 49.168C49.9786 49.4148 38.4716 49.5393 34.964 49.168C31.395 48.7967 11.7056 41.993 11.7056 41.993L12.1977 36.8597Z" fill="#824C28"/>
<path d="M81.7289 66.1778C76.8676 66.1778 71.5153 62.5903 68.7453 59.6838C66.1607 56.9623 57.1155 48.4266 48.2557 51.2714C38.2263 54.4876 32.6262 54.6738 23.9504 47.5605C18.1662 42.8602 9.6746 46.5711 9.55186 46.5711L4.07568 48.9829L10.1679 17.7477H83.8827L84.3135 20.3458C84.3749 20.532 87.5131 39.2727 89.4817 53.3748C90.5899 61.1062 87.8199 64.1373 85.2978 65.3735C84.2522 65.9299 83.0212 66.1778 81.7289 66.1778ZM52.01 44.406C61.6712 44.406 69.8548 51.7661 73.2998 55.3536C76.3766 58.5698 81.114 60.4881 82.6518 59.7455C83.328 59.4358 83.8214 57.5804 83.328 54.3025C81.7902 43.4166 79.575 29.7464 78.5907 24.1183H15.3361L12.3832 39.3344C16.691 38.593 22.8434 38.5301 27.9514 42.7369C34.2277 47.8702 37.1193 48.3032 46.4111 45.335C48.3171 44.6528 50.1629 44.406 52.01 44.406Z" fill="#4C2F1B"/>
<path d="M47.3327 30.2422C36.9952 30.2422 12.874 29.3145 12.874 20.9033C12.874 12.491 36.9338 11.5632 47.3327 11.5632C57.7315 11.5632 81.7901 12.491 81.7901 20.9033C81.7901 29.3133 57.6701 30.2422 47.3327 30.2422Z" fill="#8E5C36"/>
<path d="M47.3327 14.7794C64.6227 14.7794 78.6519 17.5626 78.6519 20.965C78.6519 24.3663 64.6227 27.1494 47.3327 27.1494C30.0426 27.1494 16.0122 24.3663 16.0122 20.965C16.0134 17.5626 30.0426 14.7794 47.3327 14.7794ZM47.3327 8.47046C38.5956 8.47046 30.288 9.15143 23.9503 10.3876C19.7051 11.2536 9.73584 13.1707 9.73584 20.965C9.73584 28.7581 19.7039 30.6753 23.9503 31.5413C30.2267 32.7787 38.533 33.4584 47.2713 33.4584C56.0096 33.4584 64.3159 32.7775 70.5923 31.5413C74.8375 30.6753 84.8055 28.7581 84.8055 20.965C84.8055 13.172 74.8988 11.1919 70.6536 10.3876C64.3773 9.15022 56.071 8.47046 47.3327 8.47046Z" fill="#4C2F1B"/>
<path d="M58.7158 63.2701C58.7158 63.8507 59.8457 64.3224 61.2391 64.3224C62.6325 64.3224 63.7624 63.8519 63.7624 63.2701C63.7624 62.6895 62.6325 62.219 61.2391 62.219C59.8457 62.219 58.7158 62.6907 58.7158 63.2701Z" fill="#F8D089"/>
<path d="M77.4834 68.8992C77.4834 69.4798 78.6133 69.9503 80.0067 69.9503C81.4001 69.9503 82.53 69.4798 82.53 68.8992C82.53 68.3187 81.4001 67.8481 80.0067 67.8481C78.6133 67.8481 77.4834 68.3187 77.4834 68.8992Z" fill="#F8D089"/>
<path d="M31.4575 63.27C31.4575 63.6462 31.9388 63.9933 32.7198 64.1808C33.5007 64.3683 34.4621 64.3683 35.2431 64.1808C36.024 63.9933 36.5041 63.6462 36.5041 63.27C36.5041 62.8939 36.0228 62.5479 35.2431 62.3592C34.4621 62.1718 33.5007 62.1718 32.7198 62.3592C31.9388 62.5479 31.4575 62.8951 31.4575 63.27Z" fill="#F8D089"/>
<path d="M56.1938 55.6016C56.1938 56.0116 57.0482 56.343 58.1023 56.343C59.1551 56.343 60.0095 56.0104 60.0095 55.6016C60.0095 55.1915 59.1551 54.8601 58.1023 54.8601C57.0482 54.8589 56.1938 55.1915 56.1938 55.6016Z" fill="#F3B13E"/>
<path d="M53.917 59.3741C53.917 59.6814 54.5499 59.9305 55.3321 59.9305C56.1142 59.9305 56.7471 59.6814 56.7471 59.3741C56.7471 59.0669 56.113 58.8177 55.3321 58.8177C54.5511 58.8177 53.917 59.0669 53.917 59.3741Z" fill="#F3B13E"/>
<path d="M82.5288 71.9921C82.5288 72.2993 83.1629 72.5485 83.9439 72.5485C84.726 72.5485 85.3589 72.2993 85.3589 71.9921C85.3589 71.6848 84.7248 71.4357 83.9439 71.4357C83.1629 71.4345 82.5288 71.6848 82.5288 71.9921Z" fill="#F3B13E"/>
<path d="M34.6572 57.642C34.6572 57.9517 35.0567 58.2371 35.7041 58.392C36.3515 58.5468 37.1492 58.5468 37.7966 58.392C38.444 58.2371 38.8423 57.9517 38.8423 57.642C38.8423 57.1631 37.9061 56.776 36.7497 56.776C35.5934 56.776 34.6572 57.1643 34.6572 57.642Z" fill="#F3B13E"/>
<path d="M15.3359 51.9511C15.3359 52.5317 15.887 53.0034 16.5669 53.0034C17.2468 53.0034 17.7979 52.5329 17.7979 51.9511C17.7979 51.3705 17.2468 50.9 16.5669 50.9C15.887 50.9 15.3359 51.3717 15.3359 51.9511Z" fill="#F8D089"/>
<path d="M30.9653 71.2494C30.9653 71.6594 31.7366 71.9908 32.6884 71.9908C33.6402 71.9908 34.4116 71.6582 34.4116 71.2494C34.4116 70.8406 33.6402 70.5079 32.6884 70.5079C31.7366 70.5079 30.9653 70.8393 30.9653 71.2494Z" fill="#F8D089"/>
<path d="M29.2422 79.4138C29.2422 79.8238 30.0135 80.1565 30.9653 80.1565C31.9171 80.1565 32.6884 79.8238 32.6884 79.4138C32.6884 79.0038 31.9171 78.6724 30.9653 78.6724C30.0135 78.6724 29.2422 79.0038 29.2422 79.4138Z" fill="#F8D089"/>
<path d="M57.1167 73.4145C57.1167 73.7907 57.8339 74.0943 58.7159 74.0943C59.5991 74.0943 60.3163 73.7894 60.3163 73.4145C60.3163 73.0383 59.5991 72.7335 58.7159 72.7335C57.8327 72.7335 57.1167 73.0383 57.1167 73.4145Z" fill="#F8D089"/>
<path d="M26.4121 66.9821C26.4121 67.3583 27.1293 67.6619 28.0113 67.6619C28.8945 67.6619 29.6117 67.3571 29.6117 66.9821C29.6117 66.606 28.8957 66.3011 28.0113 66.3011C27.1281 66.3011 26.4121 66.606 26.4121 66.9821Z" fill="#F3B13E"/>
<path d="M9.18359 66.3629C9.18359 66.606 9.48923 66.831 9.98378 66.9519C10.4795 67.0729 11.0884 67.0729 11.583 66.9519C12.0775 66.8298 12.3831 66.606 12.3831 66.3629C12.3831 66.1198 12.0775 65.8948 11.583 65.7738C11.0884 65.6529 10.4783 65.6529 9.98378 65.7738C9.48803 65.896 9.18359 66.1198 9.18359 66.3629Z" fill="#F3B13E"/>
<path d="M10.7827 71.2493C10.7827 71.4925 11.0884 71.7174 11.5829 71.8384C12.0775 71.9606 12.6875 71.9606 13.1833 71.8384C13.6778 71.7174 13.9835 71.4925 13.9835 71.2493C13.9835 71.0062 13.6778 70.7812 13.1833 70.6603C12.6875 70.5393 12.0787 70.5393 11.5829 70.6603C11.0884 70.7812 10.7827 71.0062 10.7827 71.2493Z" fill="#F3B13E"/>
<path d="M12.3833 62.0339C12.3833 62.277 12.6179 62.502 12.9982 62.6229C13.3796 62.7439 13.8489 62.7439 14.2291 62.6229C14.6094 62.5008 14.844 62.277 14.844 62.0339C14.844 61.7908 14.6094 61.5658 14.2291 61.4448C13.8489 61.3239 13.3796 61.3239 12.9982 61.4448C12.6167 61.5658 12.3833 61.7908 12.3833 62.0339Z" fill="#F8D089"/>
<path d="M11.1523 75.703C11.1523 75.9461 11.387 76.1698 11.7684 76.292C12.1487 76.413 12.618 76.413 12.9994 76.292C13.3808 76.1698 13.6155 75.9461 13.6155 75.703C13.6155 75.4598 13.3808 75.2349 12.9994 75.1139C12.6192 74.993 12.1499 74.993 11.7684 75.1139C11.387 75.2361 11.1523 75.4598 11.1523 75.703Z" fill="#F8D089"/>
<path d="M14.0435 57.457C14.0435 57.8331 14.4839 58.1367 15.0278 58.1367C15.5716 58.1367 16.012 57.8319 16.012 57.457C16.012 57.0808 15.5716 56.776 15.0278 56.776C14.4851 56.776 14.0435 57.0808 14.0435 57.457Z" fill="#F3B13E"/>
<path d="M10.6602 52.9417C10.6602 53.1848 10.8479 53.4098 11.1523 53.5308C11.4579 53.6517 11.8322 53.6517 12.1366 53.5308C12.441 53.4098 12.6287 53.1848 12.6287 52.9417C12.6287 52.5656 12.1883 52.262 11.6444 52.262C11.1006 52.262 10.6602 52.5656 10.6602 52.9417Z" fill="#F3B13E"/>
<path d="M34.0425 77.6817C34.0425 78.0579 34.7584 78.3627 35.6417 78.3627C36.5249 78.3627 37.2408 78.0579 37.2408 77.6817C37.2408 77.3056 36.5249 77.002 35.6417 77.002C34.7584 77.002 34.0425 77.3068 34.0425 77.6817Z" fill="#F3B13E"/>
<path d="M61.7925 69.827C61.7925 70.1003 62.3159 70.3217 62.9621 70.3217C63.607 70.3217 64.1305 70.1003 64.1305 69.827C64.1305 69.5536 63.607 69.3323 62.9621 69.3323C62.3159 69.3323 61.7925 69.5536 61.7925 69.827Z" fill="#F3B13E"/>
<path d="M78.2212 74.5889C78.2212 74.8623 78.7446 75.0836 79.3908 75.0836C80.0358 75.0836 80.5604 74.8623 80.5604 74.5889C80.5604 74.3156 80.037 74.0942 79.3908 74.0942C78.7458 74.0942 78.2212 74.3168 78.2212 74.5889Z" fill="#F3B13E"/>
<path d="M61.7925 80.2182C61.7925 80.4916 62.3159 80.7129 62.9621 80.7129C63.607 80.7129 64.1305 80.4916 64.1305 80.2182C64.1305 79.9449 63.607 79.7235 62.9621 79.7235C62.3159 79.7235 61.7925 79.9449 61.7925 80.2182Z" fill="#F3B13E"/>
<path d="M47.3938 18.6754C34.9024 18.6754 34.9638 21.0256 35.764 22.7576C36.995 25.4791 49.8545 27.5196 58.6542 23.3757C61.3002 22.1396 59.8852 18.6754 47.3938 18.6754Z" fill="#864D27"/>
<path d="M56.8698 19.5414C56.8698 23.4386 38.1021 23.4386 38.1021 19.5414C38.1021 14.3464 42.3473 11.6866 47.5166 11.6866C52.6859 11.6866 56.8698 14.3464 56.8698 19.5414Z" fill="#EA5150"/>
<path d="M47.4552 24.3663C44.8104 24.3663 42.3485 24.0578 40.5026 23.5619C36.9336 22.5725 36.1948 20.8404 36.1948 19.5414C36.1948 13.7271 40.7481 9.82996 47.5166 9.82996C54.2237 9.82996 58.777 13.7259 58.777 19.5414C58.777 23.9332 50.9014 24.3663 47.4552 24.3663ZM40.0105 19.2946C40.6867 19.7893 43.2714 20.5937 47.5166 20.5937C51.7618 20.5937 54.3465 19.7893 55.0239 19.2946C54.8386 14.0367 49.3011 13.6037 47.578 13.6037C43.9488 13.6037 40.1332 15.0878 40.0105 19.2946Z" fill="#4C2F1B"/>
<path d="M48.1943 11.7483C48.1943 11.7483 50.2869 3.64552 56.6246 1.91345L48.1943 11.7483Z" fill="#EA5150"/>
<path d="M48.1943 13.6038C48.009 13.6038 47.8863 13.6038 47.7022 13.5421C46.7179 13.2941 46.103 12.243 46.3485 11.2536C46.4712 10.8823 48.8092 2.09978 56.1324 0.0580677C57.1167 -0.189889 58.1636 0.367711 58.4704 1.4188C58.7159 2.40821 58.1624 3.45931 57.1167 3.76895C51.886 5.19137 50.0402 12.1813 49.9788 12.243C49.7947 13.0474 48.9945 13.6038 48.1943 13.6038Z" fill="#4C2F1B"/>
<path d="M49.3013 16.2018C49.3013 16.9529 49.9077 17.5625 50.655 17.5625C51.4022 17.5625 52.0087 16.9541 52.0087 16.2018C52.0087 15.4507 51.4022 14.8411 50.655 14.8411C49.9077 14.8411 49.3013 15.4507 49.3013 16.2018Z" fill="white"/>
</g>
<defs>
<clipPath id="clip0_397_1911">
<rect width="92" height="95" fill="white"/>
</clipPath>
</defs>
</svg>
