<svg width="28" height="28" viewBox="0 0 28 28" fill="none" xmlns="http://www.w3.org/2000/svg">
<path d="M18.41 2.33325H9.59C5.18 2.33325 4.08333 3.51158 4.08333 8.21325V21.3499C4.08333 24.4533 5.78666 25.1883 7.85166 22.9716L7.86333 22.9599C8.81999 21.9449 10.2783 22.0266 11.1067 23.1349L12.285 24.7099C13.23 25.9583 14.7583 25.9583 15.7033 24.7099L16.8817 23.1349C17.7217 22.0149 19.18 21.9333 20.1367 22.9599C22.2133 25.1766 23.905 24.4416 23.905 21.3383V8.21325C23.9167 3.51158 22.82 2.33325 18.41 2.33325ZM9.07666 13.9999C8.435 13.9999 7.91 13.4749 7.91 12.8333C7.91 12.1916 8.435 11.6666 9.07666 11.6666C9.71833 11.6666 10.2433 12.1916 10.2433 12.8333C10.2433 13.4749 9.71833 13.9999 9.07666 13.9999ZM9.07666 9.33325C8.435 9.33325 7.91 8.80825 7.91 8.16658C7.91 7.52492 8.435 6.99992 9.07666 6.99992C9.71833 6.99992 10.2433 7.52492 10.2433 8.16658C10.2433 8.80825 9.71833 9.33325 9.07666 9.33325ZM18.935 13.7083H12.5183C12.04 13.7083 11.6433 13.3116 11.6433 12.8333C11.6433 12.3549 12.04 11.9583 12.5183 11.9583H18.935C19.4133 11.9583 19.81 12.3549 19.81 12.8333C19.81 13.3116 19.4133 13.7083 18.935 13.7083ZM18.935 9.04158H12.5183C12.04 9.04158 11.6433 8.64492 11.6433 8.16658C11.6433 7.68825 12.04 7.29158 12.5183 7.29158H18.935C19.4133 7.29158 19.81 7.68825 19.81 8.16658C19.81 8.64492 19.4133 9.04158 18.935 9.04158Z" fill="white"/>
</svg>
