<svg width="21" height="21" viewBox="0 0 21 21" fill="none" xmlns="http://www.w3.org/2000/svg">
<path fill-rule="evenodd" clip-rule="evenodd" d="M20.9731 10.8955C20.9731 16.4184 16.496 20.8955 10.9731 20.8955C5.4503 20.8955 0.973145 16.4184 0.973145 10.8955C0.973145 5.37266 5.4503 0.895508 10.9731 0.895508C16.496 0.895508 20.9731 5.37266 20.9731 10.8955ZM7.26603 14.6026C6.87551 14.2121 6.87551 13.5789 7.26603 13.1884L9.55893 10.8955L7.26603 8.60261C6.87551 8.21209 6.87551 7.57892 7.26603 7.1884C7.65656 6.79787 8.28972 6.79787 8.68025 7.1884L10.9731 9.48129L13.266 7.1884C13.6566 6.79787 14.2897 6.79787 14.6802 7.1884C15.0708 7.57892 15.0708 8.21209 14.6802 8.60261L12.3874 10.8955L14.6803 13.1884C15.0708 13.5789 15.0708 14.2121 14.6803 14.6026C14.2897 14.9931 13.6566 14.9931 13.266 14.6026L10.9731 12.3097L8.68025 14.6026C8.28972 14.9931 7.65656 14.9931 7.26603 14.6026Z" fill="#50429B"/>
</svg>
