<svg width="28" height="28" viewBox="0 0 28 28" fill="none" xmlns="http://www.w3.org/2000/svg">
<path fill-rule="evenodd" clip-rule="evenodd" d="M10.1661 5.48788C6.92353 6.95062 4.66663 10.2117 4.66663 14C4.66663 14.3159 4.68232 14.6281 4.71298 14.936L12.1628 12.9398L10.1661 5.48788ZM13.0643 4.71294L15.19 12.6463L15.2017 12.6897C15.2517 12.8754 15.3222 13.1373 15.3531 13.3775C15.3921 13.6802 15.4013 14.159 15.1196 14.6469C14.8379 15.1348 14.4187 15.3663 14.1371 15.4838C13.9136 15.5771 13.6515 15.647 13.4657 15.6966L13.4222 15.7082L5.48802 17.8341C6.95083 21.0765 10.2118 23.3333 14 23.3333C19.1546 23.3333 23.3333 19.1546 23.3333 14C23.3333 8.8453 19.1546 4.66663 14 4.66663C13.6842 4.66663 13.372 4.68231 13.0643 4.71294Z" fill="#A5ABDE"/>
<path d="M11.4118 4.34074C11.1616 3.40685 11.0365 2.9399 10.6168 2.74219C10.1971 2.54448 9.80283 2.72457 9.01428 3.08476C8.19293 3.45992 7.41461 3.92748 6.69486 4.47976C5.44465 5.43908 4.39563 6.63526 3.6077 8C2.81976 9.36474 2.30835 10.8713 2.10266 12.4337C1.98424 13.3332 1.96849 14.241 2.05426 15.1399C2.13661 16.0029 2.17778 16.4344 2.55884 16.699C2.9399 16.9635 3.40685 16.8384 4.34074 16.5882L12.0681 14.5176C12.9788 14.2736 13.4342 14.1516 13.6413 13.7929C13.8484 13.4342 13.7264 12.9788 13.4824 12.0681L11.4118 4.34074Z" fill="#A5ABDE"/>
</svg>
