<svg width="84" height="82" viewBox="0 0 84 82" fill="none" xmlns="http://www.w3.org/2000/svg">
<ellipse cx="42" cy="40.9961" rx="42" ry="40.9961" fill="#6050B3"/>
<path d="M37.625 44.0624C37.625 45.7599 38.9375 47.1249 40.5475 47.1249H43.8375C45.2375 47.1249 46.375 45.9349 46.375 44.4474C46.375 42.8549 45.675 42.2774 44.6425 41.9099L39.375 40.0724C38.3425 39.7049 37.6425 39.1449 37.6425 37.5349C37.6425 36.0649 38.78 34.8574 40.18 34.8574H43.47C45.08 34.8574 46.3925 36.2224 46.3925 37.9199" stroke="white" stroke-width="2.5" stroke-linecap="round" stroke-linejoin="round"/>
<path d="M42 33.125V48.875" stroke="white" stroke-width="2.5" stroke-linecap="round" stroke-linejoin="round"/>
<path d="M59.5 41C59.5 50.66 51.66 58.5 42 58.5C32.34 58.5 24.5 50.66 24.5 41C24.5 31.34 32.34 23.5 42 23.5" stroke="white" stroke-width="2.5" stroke-linecap="round" stroke-linejoin="round"/>
<path d="M59.5 30.5V23.5H52.5" stroke="white" stroke-width="2.5" stroke-linecap="round" stroke-linejoin="round"/>
<path d="M50.75 32.25L59.5 23.5" stroke="white" stroke-width="2.5" stroke-linecap="round" stroke-linejoin="round"/>
</svg>
