<svg width="225" height="243" viewBox="0 0 225 243" fill="none" xmlns="http://www.w3.org/2000/svg">
<circle cx="127.5" cy="94.4996" r="80.4996" fill="#50429B"/>
<path d="M208 94.4996C208 138.958 171.959 174.999 127.5 174.999C83.0416 174.999 47.0007 138.958 47.0007 94.4996C47.0007 50.0409 63.5383 106.533 107.997 106.533C152.456 106.533 208 50.0409 208 94.4996Z" fill="url(#paint0_linear_4357_446187)"/>
<path d="M76.4197 72.9224V80.3831" stroke="white" stroke-width="1.1175" stroke-miterlimit="10" stroke-linecap="round" stroke-linejoin="round"/>
<path d="M80.1126 76.6569H72.7266" stroke="white" stroke-width="1.1175" stroke-miterlimit="10" stroke-linecap="round" stroke-linejoin="round"/>
<path d="M186.679 122.875L180.273 126.698" stroke="#A5ABDE" stroke-width="1.1175" stroke-miterlimit="10" stroke-linecap="round" stroke-linejoin="round"/>
<path d="M185.365 127.96L181.58 121.618" stroke="#A5ABDE" stroke-width="1.1175" stroke-miterlimit="10" stroke-linecap="round" stroke-linejoin="round"/>
<path d="M146.96 30.5978V38.0586" stroke="white" stroke-width="1.1175" stroke-miterlimit="10" stroke-linecap="round" stroke-linejoin="round"/>
<path d="M150.654 34.3324H143.268" stroke="white" stroke-width="1.1175" stroke-miterlimit="10" stroke-linecap="round" stroke-linejoin="round"/>
<path d="M167.334 94.4996H172.656" stroke="#A5ABDE" stroke-width="1.1175" stroke-miterlimit="10" stroke-linecap="round" stroke-linejoin="round"/>
<path d="M174.461 94.4996H175.94" stroke="#A5ABDE" stroke-width="1.1175" stroke-miterlimit="10" stroke-linecap="round" stroke-linejoin="round"/>
<path d="M177.269 94.4996H178.748" stroke="#A5ABDE" stroke-width="1.1175" stroke-miterlimit="10" stroke-linecap="round" stroke-linejoin="round"/>
<path d="M168.369 97.7445H173.686" stroke="#A5ABDE" stroke-width="1.1175" stroke-miterlimit="10" stroke-linecap="round" stroke-linejoin="round"/>
<path d="M175.496 97.7445H176.976" stroke="#A5ABDE" stroke-width="1.1175" stroke-miterlimit="10" stroke-linecap="round" stroke-linejoin="round"/>
<path d="M178.303 97.7445H179.783" stroke="#A5ABDE" stroke-width="1.1175" stroke-miterlimit="10" stroke-linecap="round" stroke-linejoin="round"/>
<path d="M81.0256 45.5359H90.3702" stroke="white" stroke-width="1.1175" stroke-miterlimit="10" stroke-linecap="round" stroke-linejoin="round"/>
<path d="M93.5405 45.5359H96.1381" stroke="white" stroke-width="1.1175" stroke-miterlimit="10" stroke-linecap="round" stroke-linejoin="round"/>
<path d="M98.47 45.5359H101.068" stroke="white" stroke-width="1.1175" stroke-miterlimit="10" stroke-linecap="round" stroke-linejoin="round"/>
<path d="M82.843 48.7808H92.1793" stroke="white" stroke-width="1.1175" stroke-miterlimit="10" stroke-linecap="round" stroke-linejoin="round"/>
<path d="M95.3579 48.7808H97.9555" stroke="white" stroke-width="1.1175" stroke-miterlimit="10" stroke-linecap="round" stroke-linejoin="round"/>
<path d="M100.287 48.7808H102.885" stroke="white" stroke-width="1.1175" stroke-miterlimit="10" stroke-linecap="round" stroke-linejoin="round"/>
<path d="M87.6648 94.4996H97.0094" stroke="white" stroke-width="1.1175" stroke-miterlimit="10" stroke-linecap="round" stroke-linejoin="round"/>
<path d="M100.18 94.4996H102.777" stroke="white" stroke-width="1.1175" stroke-miterlimit="10" stroke-linecap="round" stroke-linejoin="round"/>
<path d="M105.109 94.4996H107.707" stroke="white" stroke-width="1.1175" stroke-miterlimit="10" stroke-linecap="round" stroke-linejoin="round"/>
<path d="M89.4822 97.7445H98.8185" stroke="white" stroke-width="1.1175" stroke-miterlimit="10" stroke-linecap="round" stroke-linejoin="round"/>
<path d="M101.997 97.7445H104.595" stroke="white" stroke-width="1.1175" stroke-miterlimit="10" stroke-linecap="round" stroke-linejoin="round"/>
<path d="M106.927 97.7445H109.524" stroke="white" stroke-width="1.1175" stroke-miterlimit="10" stroke-linecap="round" stroke-linejoin="round"/>
<path d="M139.948 149.273H144.56" stroke="#A5ABDE" stroke-width="1.1175" stroke-miterlimit="10" stroke-linecap="round" stroke-linejoin="round"/>
<path d="M146.125 149.272H147.407" stroke="#A5ABDE" stroke-width="1.1175" stroke-miterlimit="10" stroke-linecap="round" stroke-linejoin="round"/>
<path d="M148.558 149.272H149.84" stroke="#A5ABDE" stroke-width="1.1175" stroke-miterlimit="10" stroke-linecap="round" stroke-linejoin="round"/>
<path d="M140.845 152.517H145.453" stroke="#A5ABDE" stroke-width="1.1175" stroke-miterlimit="10" stroke-linecap="round" stroke-linejoin="round"/>
<path d="M147.021 152.517H148.304" stroke="#A5ABDE" stroke-width="1.1175" stroke-miterlimit="10" stroke-linecap="round" stroke-linejoin="round"/>
<path d="M149.455 152.517H150.737" stroke="#A5ABDE" stroke-width="1.1175" stroke-miterlimit="10" stroke-linecap="round" stroke-linejoin="round"/>
<g filter="url(#filter0_d_4357_446187)">
<path d="M96.8477 166.238C87.6993 177.805 67.4813 182.468 67.4813 182.468C67.4813 182.468 66.8917 157.62 74.2316 148.345C81.5716 139.071 98.7092 140.648 98.7092 140.648C98.7092 140.648 105.996 154.678 96.8477 166.238Z" fill="#FF8C21"/>
<path d="M95.5295 160.793C89.1567 168.848 75.0995 172.121 75.0995 172.121C75.0995 172.121 74.7219 154.837 79.836 148.379C84.9502 141.92 96.8544 142.993 96.8544 142.993C96.8544 142.993 101.902 152.738 95.5295 160.793Z" fill="#FAA251"/>
<path d="M114.476 176.566C108.196 171.597 108.666 154.4 108.666 154.4C108.666 154.4 134.078 131.095 136.595 133.089C144.65 139.462 116.993 178.553 114.476 176.566Z" fill="#CDC6FF"/>
<path d="M137.854 135.13C135.402 142.012 131.971 148.557 127.864 154.586C124.909 158.918 121.928 163.542 118.483 167.51C116.523 169.769 114.35 171.737 111.746 172.949C112.475 174.426 113.369 175.685 114.476 176.559C116.794 178.401 140.503 145.285 137.854 135.13Z" fill="#A5ABDE"/>
<path d="M60.4196 133.798C66.6996 138.766 83.3272 134.348 83.3272 134.348C83.3272 134.348 100.16 104.253 97.6427 102.265C89.5873 95.8992 57.9089 131.811 60.4196 133.798Z" fill="#CDC6FF"/>
<path d="M95.3638 101.517C89.2295 105.478 83.6516 110.327 78.7296 115.713C75.1921 119.588 71.383 123.55 68.3093 127.816C66.5604 130.241 65.1427 132.811 64.5664 135.62C62.9633 135.249 61.5324 134.672 60.4261 133.798C58.1009 131.963 84.8705 101.272 95.3638 101.517Z" fill="#A5ABDE"/>
<path d="M107.798 157.891C106.328 159.746 103.943 160.309 102.472 159.15L79.8361 141.237C78.3655 140.071 78.3655 137.627 79.8361 135.766L80.2137 135.289C81.6844 133.434 84.0692 132.871 85.5398 134.03L108.176 151.943C109.646 153.108 109.646 155.553 108.176 157.414L107.798 157.891Z" fill="#CDC6FF"/>
<path d="M161.814 60.7164C161.814 60.7164 131.196 55.4367 100.014 94.8459C84.758 114.13 79.2397 135.6 79.2397 135.6L93.5818 146.948L107.924 158.295C107.924 158.295 127.552 147.988 142.809 128.704C173.997 89.3012 161.814 60.7164 161.814 60.7164Z" fill="white"/>
<path d="M106.533 134.268C103.724 133.268 100.564 135.885 98.2854 137.229C97.2984 137.812 94.9268 139.389 93.9662 137.912C92.2372 135.269 94.2776 130.068 95.0792 127.485C97.093 121.013 99.8952 114.627 102.664 108.439C108.408 95.6143 117.576 85.4855 128.99 77.4234C134.343 73.6475 140 70.2292 145.922 67.4204C151.136 64.9495 156.892 63.8035 161.914 60.9549C161.854 60.7959 161.821 60.7098 161.821 60.7098C161.821 60.7098 131.203 55.4301 100.021 94.8393C84.7648 114.123 79.2466 135.593 79.2466 135.593L107.937 158.289C107.937 158.289 108.454 158.017 109.375 157.487C103.843 151.625 102.412 142.112 106.533 134.268Z" fill="#F7F5FF"/>
<path d="M163.239 86.3003C165.948 70.4147 161.821 60.7164 161.821 60.7164C161.821 60.7164 151.434 58.9278 136.595 65.2211L163.239 86.3003Z" fill="#CDC6FF"/>
<path d="M140.841 116.124C134.859 123.682 123.876 124.968 116.317 118.986C108.752 113.004 107.474 102.02 113.455 94.4617C119.437 86.8965 130.414 85.618 137.979 91.5999C145.545 97.5818 146.83 108.559 140.841 116.124Z" fill="#50429B"/>
<path d="M137.642 113.587C133.057 119.376 124.651 120.357 118.854 115.779C115.801 113.361 114.078 109.877 113.813 106.267C113.747 105.326 113.773 104.372 113.913 103.438C113.972 102.968 114.065 102.51 114.178 102.06C114.489 100.801 114.986 99.5824 115.681 98.4363C115.973 97.9395 116.297 97.4625 116.662 96.9988C121.246 91.209 129.659 90.2286 135.449 94.8061C138.324 97.0783 140.013 100.298 140.424 103.67C140.583 104.968 140.556 106.293 140.324 107.591C140.245 108.055 140.139 108.512 140.013 108.963C139.755 109.864 139.404 110.745 138.947 111.593C138.582 112.282 138.145 112.944 137.642 113.587Z" fill="#CDC6FF"/>
<path d="M140.331 107.585L114.177 102.053C114.489 100.795 114.985 99.5758 115.681 98.4298L140.424 103.67C140.583 104.962 140.556 106.286 140.331 107.585Z" fill="white"/>
<path d="M138.947 111.586L113.813 106.267C113.747 105.326 113.773 104.372 113.913 103.438L140.02 108.963C139.755 109.857 139.404 110.738 138.947 111.586Z" fill="white"/>
<path d="M140.132 102.093C140.384 105.333 139.463 108.671 137.29 111.42C132.706 117.21 124.3 118.191 118.503 113.613C116.079 111.699 114.502 109.108 113.82 106.32C114.098 109.91 115.807 113.375 118.854 115.779C124.651 120.364 133.057 119.383 137.641 113.587C140.304 110.221 141.086 105.962 140.132 102.093Z" fill="#A5ABDE"/>
</g>
<defs>
<filter id="filter0_d_4357_446187" x="0.27832" y="0.47403" width="223.882" height="241.994" filterUnits="userSpaceOnUse" color-interpolation-filters="sRGB">
<feFlood flood-opacity="0" result="BackgroundImageFix"/>
<feColorMatrix in="SourceAlpha" type="matrix" values="0 0 0 0 0 0 0 0 0 0 0 0 0 0 0 0 0 0 127 0" result="hardAlpha"/>
<feOffset/>
<feGaussianBlur stdDeviation="30"/>
<feComposite in2="hardAlpha" operator="out"/>
<feColorMatrix type="matrix" values="0 0 0 0 0 0 0 0 0 0 0 0 0 0 0 0 0 0 0.5 0"/>
<feBlend mode="normal" in2="BackgroundImageFix" result="effect1_dropShadow_4357_446187"/>
<feBlend mode="normal" in="SourceGraphic" in2="effect1_dropShadow_4357_446187" result="shape"/>
</filter>
<linearGradient id="paint0_linear_4357_446187" x1="127.5" y1="77.4408" x2="127.5" y2="174.999" gradientUnits="userSpaceOnUse">
<stop stop-color="#2B2162"/>
<stop offset="1" stop-color="#50429B" stop-opacity="0"/>
</linearGradient>
</defs>
</svg>
