<svg width="28" height="28" viewBox="0 0 28 28" fill="none" xmlns="http://www.w3.org/2000/svg">
<path fill-rule="evenodd" clip-rule="evenodd" d="M15.9838 4.54161C16.0712 4.71093 16.0929 4.92777 16.1362 5.36144C16.2183 6.18229 16.2594 6.59271 16.4311 6.8179C16.649 7.10357 17.0035 7.25037 17.3596 7.20246C17.6402 7.1647 17.9595 6.90351 18.5979 6.38114C18.9352 6.10516 19.1039 5.96718 19.2853 5.9092C19.5159 5.83556 19.7652 5.848 19.9873 5.94421C20.1621 6.01996 20.3162 6.17404 20.6243 6.4822L21.5178 7.37569C21.826 7.68388 21.9801 7.83797 22.0558 8.01278C22.152 8.2348 22.1645 8.48418 22.0908 8.71467C22.0329 8.89615 21.8949 9.06481 21.6189 9.40213C21.0965 10.0406 20.8353 10.3599 20.7975 10.6406C20.7496 10.9966 20.8964 11.351 21.1821 11.5689C21.4073 11.7407 21.8177 11.7818 22.6386 11.8639C23.0723 11.9072 23.2892 11.9289 23.4585 12.0163C23.6735 12.1272 23.8411 12.3123 23.93 12.5373C24.0001 12.7145 24.0001 12.9324 24.0001 13.3683V14.6319C24.0001 15.0677 24.0001 15.2855 23.9301 15.4626C23.8411 15.6877 23.6735 15.8729 23.4584 15.9838C23.2891 16.0711 23.0723 16.0928 22.6387 16.1362C21.8181 16.2182 21.4078 16.2593 21.1827 16.431C20.8969 16.6489 20.75 17.0034 20.798 17.3596C20.8358 17.6402 21.0969 17.9594 21.6191 18.5976C21.895 18.9348 22.0329 19.1034 22.0909 19.2848C22.1646 19.5154 22.1522 19.7649 22.0559 19.987C21.9802 20.1617 21.8261 20.3157 21.518 20.6238L20.6245 21.5174C20.3163 21.8256 20.1622 21.9797 19.9874 22.0554C19.7654 22.1516 19.516 22.1641 19.2855 22.0904C19.104 22.0325 18.9353 21.8945 18.598 21.6185C17.9595 21.0961 17.6403 20.8349 17.3596 20.7971C17.0035 20.7492 16.6491 20.896 16.4312 21.1817C16.2594 21.4068 16.2184 21.8174 16.1363 22.6384C16.0929 23.0723 16.0712 23.2892 15.9838 23.4586C15.8729 23.6735 15.6878 23.841 15.4629 23.93C15.2857 24.0001 15.0677 24.0001 14.6317 24.0001H13.3683C12.9325 24.0001 12.7145 24.0001 12.5373 23.93C12.3123 23.8411 12.1272 23.6735 12.0163 23.4585C11.929 23.2892 11.9073 23.0723 11.8639 22.6386C11.7818 21.8177 11.7408 21.4072 11.569 21.182C11.3511 20.8964 10.9967 20.7496 10.6407 20.7975C10.3599 20.8352 10.0407 21.0965 9.40212 21.6189L9.4021 21.6189C9.06474 21.8949 8.89606 22.033 8.71456 22.0909C8.48409 22.1645 8.23475 22.1521 8.01274 22.0559C7.83791 21.9802 7.6838 21.8261 7.37559 21.5179L6.48217 20.6244C6.17397 20.3162 6.01987 20.1621 5.94412 19.9873C5.84793 19.7653 5.83549 19.5159 5.90912 19.2855C5.96709 19.104 6.1051 18.9353 6.3811 18.598C6.90352 17.9594 7.16473 17.6402 7.20249 17.3595C7.25038 17.0034 7.10359 16.649 6.81794 16.4311C6.59275 16.2593 6.18231 16.2183 5.36144 16.1362C4.92776 16.0928 4.71093 16.0711 4.54161 15.9838C4.32656 15.8729 4.15902 15.6878 4.07005 15.4627C4 15.2856 4 15.0676 4 14.6318V13.3684C4 12.9324 4 12.7144 4.07009 12.5372C4.15906 12.3123 4.32654 12.1272 4.54151 12.0163C4.71087 11.9289 4.92777 11.9072 5.36158 11.8639C6.18271 11.7818 6.59327 11.7407 6.81851 11.5688C7.10402 11.3509 7.25076 10.9967 7.20294 10.6407C7.16522 10.3599 6.90392 10.0405 6.38133 9.40182C6.10522 9.06434 5.96716 8.89561 5.90919 8.71405C5.83563 8.48364 5.84806 8.23438 5.94419 8.01244C6.01994 7.83754 6.17409 7.68339 6.4824 7.37508L7.37572 6.48176C7.68392 6.17356 7.83802 6.01946 8.01284 5.94372C8.23485 5.84752 8.48421 5.83508 8.7147 5.90871C8.89619 5.96669 9.06488 6.10471 9.40227 6.38075C10.0407 6.90309 10.3599 7.16426 10.6405 7.20205C10.9967 7.25002 11.3512 7.10317 11.5691 6.8174C11.7408 6.59225 11.7819 6.18193 11.8639 5.3613C11.9073 4.92776 11.929 4.71098 12.0163 4.54171C12.1272 4.32658 12.3124 4.15898 12.5375 4.07001C12.7146 4 12.9325 4 13.3682 4H14.6319C15.0677 4 15.2856 4 15.4628 4.07005C15.6878 4.15901 15.8729 4.32656 15.9838 4.54161ZM13.9999 18C16.2091 18 18 16.2091 18 14C18 11.7908 16.2091 9.99998 13.9999 9.99998C11.7908 9.99998 9.99992 11.7908 9.99992 14C9.99992 16.2091 11.7908 18 13.9999 18Z" fill="#A5ABDE"/>
</svg>
