<svg width="28" height="28" viewBox="0 0 28 28" fill="none" xmlns="http://www.w3.org/2000/svg">
<path d="M16.1361 5.36143L15.1411 5.46094V5.46094L16.1361 5.36143ZM15.9837 4.54161L16.8725 4.08323L16.8725 4.08322L15.9837 4.54161ZM16.431 6.81792L17.2261 6.2114L17.2261 6.2114L16.431 6.81792ZM17.3594 7.20247L17.4927 8.19354L17.4927 8.19354L17.3594 7.20247ZM18.5978 6.38112L17.9646 5.60716L17.9646 5.60716L18.5978 6.38112ZM19.2853 5.90917L18.981 4.9566L18.981 4.9566L19.2853 5.90917ZM19.9872 5.94418L19.5896 6.86174L19.5896 6.86174L19.9872 5.94418ZM20.6242 6.48217L21.3456 5.78964L21.3386 5.78228L21.3313 5.77506L20.6242 6.48217ZM20.6243 6.48219L19.9029 7.17472L19.9099 7.18208L19.9171 7.18929L20.6243 6.48219ZM21.5177 7.37565L20.8106 8.08276L20.8106 8.08276L21.5177 7.37565ZM22.0557 8.01275L21.1382 8.41032L21.1382 8.41033L22.0557 8.01275ZM22.0908 8.71462L23.0433 9.01893L23.0433 9.01892L22.0908 8.71462ZM21.6188 9.4021L22.3536 10.0804L22.3738 10.0584L22.3927 10.0353L21.6188 9.4021ZM21.6188 9.40212L20.884 8.72384L20.8637 8.74578L20.8448 8.76889L21.6188 9.40212ZM20.7974 10.6406L21.7885 10.7739L21.7885 10.7739L20.7974 10.6406ZM21.1819 11.5689L20.5754 12.364L20.5754 12.364L21.1819 11.5689ZM22.6385 11.8639L22.738 10.8688L22.6385 11.8639ZM23.4585 12.0163L23.9169 11.1276L23.4585 12.0163ZM23.93 12.5373L23 12.905L23.93 12.5373ZM23.93 15.4627L23 15.0951L23 15.0951L23.93 15.4627ZM23.4583 15.9838L23 15.0951L23 15.0951L23.4583 15.9838ZM22.6387 16.1362L22.7382 17.1312H22.7382L22.6387 16.1362ZM21.1826 16.4309L20.5763 15.6358V15.6358L21.1826 16.4309ZM20.7979 17.3597L19.8069 17.4932L19.8069 17.4932L20.7979 17.3597ZM21.619 18.5976L22.4278 18.0094L22.411 17.9864L22.393 17.9644L21.619 18.5976ZM21.619 18.5976L20.8103 19.1858L20.8271 19.2088L20.8451 19.2309L21.619 18.5976ZM22.0908 19.2848L21.1383 19.5892V19.5892L22.0908 19.2848ZM22.0558 19.987L21.1383 19.5892L21.1383 19.5892L22.0558 19.987ZM19.9873 22.0554L19.5897 21.1378L19.5897 21.1378L19.9873 22.0554ZM19.2854 22.0904L18.9811 23.043L18.9811 23.043L19.2854 22.0904ZM18.5979 21.6184L19.2312 20.8445L19.2312 20.8445L18.5979 21.6184ZM17.3594 20.797L17.2261 21.7881H17.2261L17.3594 20.797ZM16.4311 21.1816L15.636 20.575L16.4311 21.1816ZM16.1361 22.6383L17.1312 22.7378V22.7378L16.1361 22.6383ZM15.9837 23.4586L16.8723 23.9171L16.8723 23.9171L15.9837 23.4586ZM15.4628 23.9299L15.8306 24.8598L15.4628 23.9299ZM12.5372 23.93L12.1695 24.8599L12.1695 24.8599L12.5372 23.93ZM12.0162 23.4584L11.1274 23.9169L11.1274 23.9169L12.0162 23.4584ZM11.8638 22.6386L12.8588 22.5391V22.5391L11.8638 22.6386ZM11.5689 21.182L10.7738 21.7886L10.7738 21.7886L11.5689 21.182ZM10.6405 20.7975L10.7738 21.7886H10.7738L10.6405 20.7975ZM9.40201 21.6189L8.76878 20.8449L8.76877 20.8449L9.40201 21.6189ZM8.71452 22.0909L8.41023 21.1383H8.41023L8.71452 22.0909ZM8.01266 22.0558L8.41023 21.1383L8.41022 21.1383L8.01266 22.0558ZM7.37556 21.5178L6.65357 22.2097L6.66094 22.2174L6.66846 22.2249L7.37556 21.5178ZM7.37555 21.5178L8.09753 20.8259L8.09017 20.8182L8.08265 20.8107L7.37555 21.5178ZM6.4821 20.6244L5.72952 21.2829L5.75145 21.3079L5.77499 21.3315L6.4821 20.6244ZM6.48209 20.6243L7.23466 19.9658L7.21274 19.9408L7.18919 19.9172L6.48209 20.6243ZM5.94408 19.9873L6.86164 19.5897L6.86164 19.5897L5.94408 19.9873ZM5.90907 19.2854L6.86164 19.5897L6.86164 19.5897L5.90907 19.2854ZM6.38104 18.5979L5.67393 17.8908L5.63866 17.9261L5.60708 17.9647L6.38104 18.5979ZM6.38105 18.5979L7.08815 19.305L7.12342 19.2697L7.155 19.2311L6.38105 18.5979ZM7.20239 17.3595L6.21132 17.2262L6.21132 17.2262L7.20239 17.3595ZM6.81782 16.4311L6.21132 17.2262L6.81782 16.4311ZM5.36141 16.1362L5.46092 15.1411L5.41129 15.1362H5.36141V16.1362ZM5.3614 16.1362L5.26189 17.1312L5.31152 17.1362H5.3614V16.1362ZM4.54163 15.9838L4.08326 16.8726L4.08326 16.8726L4.54163 15.9838ZM4.07004 15.4627L5 15.0951L5 15.0951L4.07004 15.4627ZM4.07009 12.5372L3.14018 12.1695L3.14017 12.1695L4.07009 12.5372ZM4.54151 12.0163L5 12.905H5L4.54151 12.0163ZM5.36157 11.8639L5.46107 12.8589H5.46107L5.36157 11.8639ZM6.81846 11.5688L6.21181 10.7739L6.21181 10.7739L6.81846 11.5688ZM7.20291 10.6407L8.194 10.5075L7.20291 10.6407ZM6.38129 9.40182L5.60734 10.0351H5.60734L6.38129 9.40182ZM5.90914 8.71403L4.95651 9.01819L4.95651 9.01819L5.90914 8.71403ZM5.94413 8.01244L5.0265 7.615H5.0265L5.94413 8.01244ZM7.37568 6.48174L8.08279 7.18884L8.08279 7.18884L7.37568 6.48174ZM8.01276 5.94372L7.61517 5.02616L7.61517 5.02616L8.01276 5.94372ZM8.71466 5.90871L9.01897 4.95614L9.01897 4.95614L8.71466 5.90871ZM9.40219 6.38073L10.0354 5.60677V5.60677L9.40219 6.38073ZM10.6404 7.202L10.5069 8.19305H10.5069L10.6404 7.202ZM11.569 6.81734L12.3642 7.42372L12.3642 7.42372L11.569 6.81734ZM11.8638 5.36129L10.8688 5.26178V5.26178L11.8638 5.36129ZM12.0161 4.54172L11.1273 4.08344L11.1273 4.08344L12.0161 4.54172ZM12.5374 4.07L12.1698 3.14001V3.14001L12.5374 4.07ZM15.4626 4.07005L15.095 5L15.095 5L15.4626 4.07005ZM17.1311 5.26193C17.1108 5.05831 17.0912 4.85693 17.0626 4.6868C17.0324 4.50684 16.9828 4.29705 16.8725 4.08323L15.095 5C15.072 4.95549 15.0769 4.93878 15.0902 5.01798C15.1051 5.10701 15.1181 5.23089 15.1411 5.46094L17.1311 5.26193ZM17.2261 6.2114C17.2893 6.29432 17.2692 6.33101 17.2341 6.13594C17.2007 5.95044 17.1739 5.68915 17.1311 5.26193L15.1411 5.46094C15.1804 5.85459 15.2151 6.20894 15.2657 6.49016C15.3146 6.76183 15.4009 7.11633 15.636 7.42444L17.2261 6.2114ZM17.2261 6.2114H17.2261L15.636 7.42444C16.0718 7.99575 16.7806 8.28934 17.4927 8.19354L17.2261 6.2114ZM17.9646 5.60716C17.6323 5.87904 17.4285 6.0448 17.2738 6.15237C17.111 6.26548 17.1227 6.2253 17.2261 6.2114L17.4927 8.19354C17.8768 8.14188 18.1885 7.95223 18.4151 7.7947C18.6498 7.63163 18.9249 7.40559 19.2311 7.15508L17.9646 5.60716ZM18.981 4.9566C18.7518 5.02981 18.5684 5.14307 18.4197 5.24896C18.2792 5.34906 18.123 5.47758 17.9646 5.60716L19.2311 7.15508C19.41 7.00867 19.5067 6.93021 19.5803 6.87782C19.6457 6.83123 19.6373 6.8465 19.5896 6.86174L18.981 4.9566ZM20.3848 5.02661C19.9407 4.8342 19.442 4.80932 18.981 4.9566L19.5896 6.86174L19.5896 6.86174L20.3848 5.02661ZM21.3313 5.77506C21.1866 5.63037 21.0439 5.48694 20.9141 5.37336C20.7768 5.25321 20.6055 5.12227 20.3848 5.02661L19.5896 6.86174C19.5436 6.84183 19.5368 6.8258 19.5973 6.87867C19.6652 6.93811 19.7537 7.0258 19.9171 7.18928L21.3313 5.77506ZM21.3456 5.78966L21.3456 5.78964L19.9029 7.1747L19.9029 7.17472L21.3456 5.78966ZM22.2248 6.66854L21.3314 5.77508L19.9171 7.18929L20.8106 8.08276L22.2248 6.66854ZM22.9733 7.61519C22.8777 7.39442 22.7467 7.22316 22.6266 7.0858C22.513 6.95596 22.3695 6.81325 22.2248 6.66854L20.8106 8.08276C20.9741 8.24624 21.0618 8.33468 21.1212 8.40263C21.1741 8.46308 21.1581 8.45628 21.1382 8.41032L22.9733 7.61519ZM23.0433 9.01892C23.1906 8.55794 23.1657 8.05921 22.9733 7.61518L21.1382 8.41033V8.41033L23.0433 9.01892ZM22.3927 10.0353C22.5223 9.87696 22.6509 9.72068 22.751 9.58018C22.8569 9.43155 22.9701 9.24812 23.0433 9.01893L21.1382 8.41032C21.1534 8.36262 21.1687 8.35426 21.1221 8.41967C21.0697 8.4932 20.9912 8.58992 20.8448 8.76887L22.3927 10.0353ZM22.3536 10.0804L22.3536 10.0804L20.884 8.72382L20.884 8.72384L22.3536 10.0804ZM21.7885 10.7739C21.7746 10.8773 21.7344 10.889 21.8475 10.7262C21.9551 10.5714 22.1208 10.3677 22.3927 10.0354L20.8448 8.76889C20.5943 9.07508 20.3682 9.35019 20.2052 9.58484C20.0476 9.81152 19.858 10.1232 19.8063 10.5073L21.7885 10.7739ZM21.7885 10.7739L21.7885 10.7739L19.8063 10.5073C19.7105 11.2194 20.0041 11.9282 20.5754 12.364L21.7885 10.7739ZM22.738 10.8688C22.3108 10.8261 22.0495 10.7992 21.8639 10.7659C21.6689 10.7308 21.7055 10.7106 21.7885 10.7739L20.5754 12.364C20.8835 12.5991 21.238 12.6854 21.5097 12.7342C21.791 12.7849 22.1453 12.8196 22.539 12.8589L22.738 10.8688ZM23.9169 11.1276C23.703 11.0172 23.4932 10.9676 23.3132 10.9374C23.1431 10.9088 22.9417 10.8892 22.738 10.8688L22.539 12.8589C22.7691 12.8819 22.893 12.8948 22.9821 12.9098C23.0613 12.9231 23.0446 12.928 23 12.905L23.9169 11.1276ZM24.8599 12.1696C24.682 11.7196 24.3469 11.3494 23.9169 11.1276L23 12.905L23 12.905L24.8599 12.1696ZM25 13.3683C25 13.1637 25.0006 12.9613 24.9891 12.7891C24.9769 12.607 24.9484 12.3933 24.8599 12.1696L23 12.905C22.9816 12.8584 22.9882 12.8423 22.9935 12.9224C22.9995 13.0125 23 13.1371 23 13.3683H25ZM25 14.6319V13.3683H23V14.6319H25ZM24.86 15.8302C24.9484 15.6066 24.9769 15.3929 24.9891 15.2109C25.0006 15.0388 25 14.8365 25 14.6319H23C23 14.8631 22.9995 14.9876 22.9935 15.0776C22.9882 15.1578 22.9816 15.1416 23 15.0951L24.86 15.8302ZM23.9167 16.8726C24.3469 16.6508 24.6821 16.2804 24.86 15.8302L23 15.0951L23 15.0951L23.9167 16.8726ZM22.7382 17.1312C22.9418 17.1109 23.1431 17.0912 23.3132 17.0627C23.4931 17.0325 23.7029 16.9829 23.9167 16.8726L23 15.0951C23.0445 15.0721 23.0612 15.077 22.9821 15.0903C22.893 15.1052 22.7692 15.1181 22.5392 15.1411L22.7382 17.1312ZM21.789 17.2261C21.7061 17.2894 21.6694 17.2692 21.8644 17.2342C22.0499 17.2008 22.3111 17.1739 22.7382 17.1312L22.5392 15.1411C22.1456 15.1805 21.7914 15.2152 21.5103 15.2658C21.2387 15.3146 20.8843 15.4009 20.5763 15.6358L21.789 17.2261ZM21.789 17.2261L21.789 17.2261L20.5763 15.6358C20.0046 16.0716 19.7109 16.7808 19.8069 17.4932L21.789 17.2261ZM22.393 17.9644C22.1212 17.6322 21.9555 17.4285 21.848 17.2738C21.7349 17.1111 21.775 17.1228 21.789 17.2261L19.8069 17.4932C19.8586 17.8771 20.0482 18.1887 20.2057 18.4152C20.3687 18.6498 20.5946 18.9248 20.8451 19.2308L22.393 17.9644ZM22.4278 18.0095L22.4278 18.0094L20.8103 19.1858L20.8103 19.1858L22.4278 18.0095ZM23.0434 18.9803C22.9701 18.7513 22.8569 18.5679 22.7511 18.4194C22.651 18.2789 22.5225 18.1227 22.393 17.9644L20.8451 19.2309C20.9914 19.4097 21.0699 19.5064 21.1222 19.5799C21.1688 19.6453 21.1535 19.6369 21.1383 19.5892L23.0434 18.9803ZM22.9733 20.3847C23.1659 19.9405 23.1907 19.4415 23.0434 18.9803L21.1383 19.5892L21.1383 19.5892L22.9733 20.3847ZM22.2251 21.3309C22.3697 21.1862 22.5131 21.0436 22.6266 20.9138C22.7468 20.7765 22.8777 20.6053 22.9733 20.3847L21.1383 19.5892C21.1582 19.5433 21.1742 19.5365 21.1214 19.5969C21.0619 19.6649 20.9743 19.7533 20.8109 19.9167L22.2251 21.3309ZM21.3315 22.2245L22.2251 21.3309L20.8109 19.9167L19.9173 20.8102L21.3315 22.2245ZM20.3848 22.973C20.6056 22.8773 20.7769 22.7464 20.9142 22.6262C21.0441 22.5126 21.1868 22.3692 21.3315 22.2245L19.9173 20.8102C19.7538 20.9737 19.6654 21.0614 19.5974 21.1209C19.537 21.1738 19.5438 21.1577 19.5897 21.1378L20.3848 22.973ZM18.9811 23.043C19.4421 23.1902 19.9408 23.1654 20.3849 22.973L19.5897 21.1378V21.1378L18.9811 23.043ZM17.9647 22.3924C18.1231 22.522 18.2794 22.6505 18.4199 22.7506C18.5685 22.8565 18.7519 22.9698 18.9811 23.043L19.5897 21.1378C19.6374 21.1531 19.6458 21.1683 19.5804 21.1217C19.5068 21.0694 19.4101 20.9909 19.2312 20.8445L17.9647 22.3924ZM17.2261 21.7881C17.1228 21.7742 17.1111 21.734 17.2738 21.8471C17.4286 21.9547 17.6324 22.1205 17.9647 22.3924L19.2312 20.8445C18.925 20.5939 18.6498 20.3679 18.4152 20.2048C18.1885 20.0473 17.8768 19.8576 17.4927 19.806L17.2261 21.7881ZM17.2261 21.7881L17.2261 21.7881L17.4927 19.806C16.7806 19.7102 16.0719 20.0038 15.636 20.575L17.2261 21.7881ZM17.1312 22.7378C17.1739 22.3105 17.2008 22.0492 17.2342 21.8636C17.2693 21.6685 17.2894 21.7052 17.2261 21.7881L15.636 20.575C15.401 20.8832 15.3147 21.2377 15.2658 21.5094C15.2152 21.7907 15.1805 22.1451 15.1411 22.5388L17.1312 22.7378ZM16.8723 23.9171C16.9827 23.7032 17.0323 23.4933 17.0626 23.3132C17.0912 23.143 17.1108 22.9416 17.1312 22.7378L15.1411 22.5388C15.1181 22.769 15.1052 22.893 15.0902 22.982C15.0769 23.0613 15.072 23.0446 15.095 23L16.8723 23.9171ZM15.8306 24.8598C16.2804 24.6819 16.6505 24.347 16.8723 23.9171L15.095 23L15.8306 24.8598ZM14.6316 25C14.8363 25 15.0387 25.0006 15.2109 24.9891C15.393 24.9769 15.6068 24.9484 15.8306 24.8598L15.095 23C15.1416 22.9816 15.1577 22.9881 15.0775 22.9935C14.9874 22.9995 14.8628 23 14.6316 23V25ZM13.3682 25H14.6316V23H13.3682V25ZM12.1695 24.8599C12.3933 24.9484 12.607 24.9769 12.7891 24.9891C12.9612 25.0006 13.1636 25 13.3682 25V23C13.137 23 13.0124 22.9995 12.9224 22.9935C12.8422 22.9882 12.8584 22.9816 12.9049 23L12.1695 24.8599ZM11.1274 23.9169C11.3493 24.3469 11.7195 24.682 12.1695 24.8599L12.9049 23H12.9049L11.1274 23.9169ZM10.8688 22.7381C10.8891 22.9417 10.9087 23.1431 10.9373 23.3132C10.9675 23.4932 11.0172 23.703 11.1274 23.9169L12.9049 23C12.9279 23.0446 12.923 23.0613 12.9097 22.9821C12.8948 22.893 12.8818 22.7691 12.8588 22.5391L10.8688 22.7381ZM10.7738 21.7886C10.7105 21.7056 10.7307 21.6689 10.7658 21.864C10.7992 22.0495 10.826 22.3108 10.8688 22.7381L12.8588 22.5391C12.8195 22.1454 12.7848 21.791 12.7342 21.5098C12.6853 21.2381 12.599 20.8836 12.3639 20.5755L10.7738 21.7886ZM10.7738 21.7886L10.7738 21.7886L12.3639 20.5755C11.9281 20.0042 11.2193 19.7106 10.5072 19.8064L10.7738 21.7886ZM10.0353 22.3928C10.3676 22.1209 10.5713 21.9552 10.7261 21.8476C10.8889 21.7345 10.8772 21.7747 10.7738 21.7886L10.5072 19.8064C10.1231 19.8581 9.81144 20.0477 9.58476 20.2053C9.3501 20.3683 9.07498 20.5944 8.76878 20.8449L10.0353 22.3928ZM9.01881 23.0434C9.248 22.9702 9.43144 22.857 9.58008 22.7511C9.72059 22.651 9.87686 22.5224 10.0353 22.3928L8.76877 20.8449C8.58983 20.9913 8.4931 21.0698 8.41957 21.1222C8.35417 21.1688 8.36253 21.1535 8.41023 21.1383L9.01881 23.0434ZM7.61509 22.9734C8.05912 23.1658 8.55785 23.1907 9.01881 23.0434L8.41023 21.1383L8.41023 21.1383L7.61509 22.9734ZM6.66846 22.2249C6.81316 22.3696 6.95587 22.5131 7.08572 22.6267C7.22307 22.7468 7.39433 22.8778 7.61511 22.9734L8.41022 21.1383C8.45618 21.1582 8.46298 21.1742 8.40254 21.1213C8.33459 21.0619 8.24615 20.9742 8.08266 20.8107L6.66846 22.2249ZM6.65356 22.2097L6.65357 22.2097L8.09755 20.8259L8.09753 20.8259L6.65356 22.2097ZM5.77499 21.3315L6.66844 22.2249L8.08265 20.8107L7.1892 19.9173L5.77499 21.3315ZM5.72951 21.2829L5.72952 21.2829L7.23467 19.9659L7.23466 19.9658L5.72951 21.2829ZM5.02651 20.3849C5.12216 20.6056 5.25311 20.7769 5.37326 20.9142C5.48685 21.0441 5.63028 21.1868 5.77498 21.3315L7.18919 19.9172C7.02571 19.7538 6.93801 19.6653 6.87858 19.5974C6.8257 19.5369 6.84173 19.5437 6.86164 19.5897L5.02651 20.3849ZM4.9565 18.9811C4.80923 19.4421 4.8341 19.9408 5.02651 20.3849L6.86164 19.5897V19.5897L4.9565 18.9811ZM5.60708 17.9647C5.47749 18.1231 5.34896 18.2793 5.24886 18.4198C5.14297 18.5685 5.02971 18.7519 4.95649 18.9811L6.86164 19.5897C6.8464 19.6374 6.83113 19.6458 6.87773 19.5803C6.93012 19.5068 7.00859 19.4101 7.15499 19.2311L5.60708 17.9647ZM5.67393 17.8908L5.67393 17.8908L7.08814 19.305L7.08815 19.305L5.67393 17.8908ZM5.67394 17.8908L5.67393 17.8908L7.08815 19.305L7.08815 19.305L5.67394 17.8908ZM6.21132 17.2262C6.22522 17.1228 6.2654 17.1111 6.15229 17.2738C6.04472 17.4286 5.87896 17.6324 5.60709 17.9647L7.155 19.2311C7.40551 18.925 7.63154 18.6499 7.79461 18.4152C7.95213 18.1886 8.14178 17.8769 8.19346 17.4929L6.21132 17.2262ZM6.21132 17.2262H6.21132L8.19346 17.4929C8.28928 16.7807 7.99567 16.0718 7.42432 15.636L6.21132 17.2262ZM5.26191 17.1312C5.6891 17.1739 5.95038 17.2008 6.13587 17.2342C6.33092 17.2693 6.29424 17.2894 6.21132 17.2262L7.42432 15.636C7.11621 15.401 6.76174 15.3147 6.49008 15.2658C6.20888 15.2152 5.85454 15.1805 5.46092 15.1411L5.26191 17.1312ZM5.36141 17.1362H5.36141V15.1362H5.36141V17.1362ZM5.3614 17.1362H5.36141V15.1362H5.3614V17.1362ZM4.08326 16.8726C4.29708 16.9829 4.50685 17.0325 4.6868 17.0627C4.85692 17.0912 5.05829 17.1109 5.26189 17.1312L5.4609 15.1411C5.23087 15.1181 5.107 15.1052 5.01798 15.0903C4.93879 15.077 4.95549 15.0721 5 15.0951L4.08326 16.8726ZM3.14008 15.8304C3.31802 16.2804 3.65312 16.6507 4.08326 16.8726L5 15.0951H5L3.14008 15.8304ZM3 14.6318C3 14.8365 2.99948 15.0388 3.01098 15.2109C3.02314 15.393 3.05163 15.6066 3.14008 15.8304L5 15.0951C5.01841 15.1416 5.01188 15.1578 5.00653 15.0776C5.00052 14.9876 5 14.863 5 14.6318H3ZM3 13.3684V14.6318H5V13.3684H3ZM3.14017 12.1695C3.05166 12.3933 3.02315 12.607 3.01099 12.7891C2.99948 12.9613 3 13.1637 3 13.3684H5C5 13.1371 5.00052 13.0125 5.00654 12.9224C5.01189 12.8423 5.01842 12.8584 5 12.905L3.14017 12.1695ZM4.08303 11.1276C3.65308 11.3494 3.31811 11.7196 3.14018 12.1695L5 12.905L5 12.905L4.08303 11.1276ZM5.26206 10.8688C5.05839 10.8892 4.85695 10.9088 4.68677 10.9374C4.50675 10.9676 4.2969 11.0173 4.08303 11.1276L5 12.905C4.95548 12.928 4.93877 12.9231 5.01799 12.9098C5.10704 12.8948 5.23095 12.8819 5.46107 12.8589L5.26206 10.8688ZM6.21181 10.7739C6.29475 10.7106 6.33145 10.7307 6.13634 10.7658C5.95078 10.7992 5.68941 10.8261 5.26206 10.8688L5.46107 12.8589C5.85484 12.8195 6.2093 12.7848 6.4906 12.7342C6.76235 12.6853 7.11695 12.599 7.42512 12.3638L6.21181 10.7739ZM6.21181 10.7739L6.21181 10.7739L7.42511 12.3638C7.99616 11.928 8.28965 11.2195 8.194 10.5075L6.21181 10.7739ZM5.60734 10.0351C5.87932 10.3675 6.04514 10.5713 6.15275 10.7262C6.2659 10.889 6.2257 10.8773 6.21181 10.7739L8.194 10.5075C8.14238 10.1233 7.95267 9.81155 7.7951 9.58481C7.63198 9.35009 7.40586 9.07489 7.15525 8.76859L5.60734 10.0351ZM4.95651 9.01819C5.02973 9.24749 5.14303 9.431 5.24896 9.57969C5.3491 9.72026 5.47769 9.8766 5.60734 10.0351L7.15525 8.76859C7.00878 8.58956 6.93027 8.49279 6.87786 8.41922C6.83123 8.35378 6.84652 8.36214 6.86176 8.40987L4.95651 9.01819ZM5.0265 7.615C4.83425 8.05887 4.80939 8.55739 4.95651 9.01819L6.86176 8.40987L5.0265 7.615ZM5.77524 6.66796C5.63048 6.81272 5.48698 6.95549 5.37335 7.08539C5.25315 7.2228 5.12216 7.39413 5.0265 7.615L6.86176 8.40987C6.84185 8.45585 6.82581 8.46265 6.8787 8.40218C6.93817 8.3342 7.0259 8.24573 7.18946 8.08217L5.77524 6.66796ZM6.66857 5.77463L5.77524 6.66796L7.18946 8.08217L8.08279 7.18884L6.66857 5.77463ZM7.61517 5.02616C7.39441 5.12181 7.22317 5.25276 7.08582 5.37291C6.95598 5.4865 6.81327 5.62993 6.66857 5.77463L8.08279 7.18884C8.24627 7.02536 8.3347 6.93766 8.40265 6.87822C8.46309 6.82535 8.4563 6.84137 8.41035 6.86129L7.61517 5.02616ZM9.01897 4.95614C8.55798 4.80887 8.05922 4.83375 7.61517 5.02616L8.41034 6.86129L8.41035 6.86129L9.01897 4.95614ZM10.0354 5.60677C9.87702 5.47717 9.72073 5.34863 9.58022 5.24852C9.4316 5.14263 9.24816 5.02936 9.01897 4.95614L8.41035 6.86129C8.36263 6.84604 8.35427 6.83077 8.4197 6.87738C8.49324 6.92978 8.58999 7.00826 8.76895 7.15469L10.0354 5.60677ZM10.7739 6.21095C10.8772 6.22487 10.8889 6.26503 10.7262 6.15192C10.5714 6.04435 10.3677 5.87861 10.0354 5.60677L8.76895 7.15469C9.07509 7.40517 9.35014 7.63116 9.58473 7.7942C9.81132 7.9517 10.1229 8.14133 10.5069 8.19305L10.7739 6.21095ZM10.7739 6.21095H10.7739L10.5069 8.19305C11.2193 8.28901 11.9283 7.9953 12.3642 7.42372L10.7739 6.21095ZM10.8688 5.26178C10.8261 5.68886 10.7992 5.95007 10.7658 6.13552C10.7308 6.33053 10.7106 6.29386 10.7739 6.21095L12.3642 7.42372C12.5991 7.11567 12.6854 6.76128 12.7342 6.4897C12.7848 6.20856 12.8195 5.85431 12.8589 5.46079L10.8688 5.26178ZM11.1273 4.08344C11.0171 4.29721 10.9675 4.50693 10.9373 4.68684C10.9087 4.85692 10.8891 5.05823 10.8688 5.26178L12.8589 5.46079C12.8819 5.23081 12.8948 5.10698 12.9097 5.01797C12.923 4.9388 12.9279 4.9555 12.9049 5L11.1273 4.08344ZM12.1698 3.14001C11.7196 3.31795 11.3492 3.65316 11.1273 4.08344L12.9049 5L12.9049 5L12.1698 3.14001ZM13.368 3C13.1635 3 12.9612 2.99948 12.7891 3.01097C12.6071 3.02312 12.3935 3.0516 12.1698 3.14001L12.9049 5C12.8584 5.0184 12.8422 5.01188 12.9223 5.00653C13.0124 5.00052 13.1369 5 13.368 5V3ZM14.6317 3H13.368V5H14.6317V3ZM15.8303 3.14009C15.6066 3.05163 15.3929 3.02314 15.2108 3.01098C15.0387 2.99948 14.8364 3 14.6317 3V5C14.8629 5 14.9875 5.00052 15.0776 5.00653C15.1577 5.01188 15.1415 5.01841 15.095 5L15.8303 3.14009ZM16.8725 4.08322C16.6506 3.65312 16.2804 3.31803 15.8303 3.14009L15.095 5V5L16.8725 4.08322ZM17 14C17 15.6568 15.6569 17 14 17V19C16.7615 19 19 16.7614 19 14H17ZM14 11C15.6569 11 17 12.3431 17 14H19C19 11.2386 16.7615 8.99997 14 8.99997V11ZM11 14C11 12.3431 12.3432 11 14 11V8.99997C11.2386 8.99997 9.00003 11.2386 9.00003 14H11ZM14 17C12.3432 17 11 15.6568 11 14H9.00003C9.00003 16.7614 11.2386 19 14 19V17Z" fill="#A5ABDE"/>
</svg>
