<svg width="26" height="26" viewBox="0 0 26 26" fill="none" xmlns="http://www.w3.org/2000/svg">
<path opacity="0.4" d="M23.1508 12.3392V18.8284C23.1508 21.8184 20.7241 24.2451 17.7341 24.2451H8.26579C5.27579 24.2451 2.84912 21.8184 2.84912 18.8284V12.4151C3.67245 13.3034 4.84245 13.8126 6.10995 13.8126C7.47495 13.8126 8.78579 13.1301 9.60912 12.0359C10.3458 13.1301 11.6025 13.8126 13 13.8126C14.3866 13.8126 15.6216 13.1626 16.3691 12.0792C17.2033 13.1517 18.4925 13.8126 19.8358 13.8126C21.1466 13.8126 22.3383 13.2817 23.1508 12.3392Z" fill="#50429B"/>
<path d="M16.2392 1.35425H9.73921L8.93754 9.32758C8.87254 10.0642 8.98088 10.7576 9.25171 11.3859C9.88004 12.8592 11.3534 13.8126 13 13.8126C14.6684 13.8126 16.1092 12.8809 16.7592 11.3967C16.9542 10.9309 17.0734 10.3892 17.0842 9.83675V9.63091L16.2392 1.35425Z" fill="#50429B"/>
<path opacity="0.6" d="M24.2234 8.95925L23.9092 5.95841C23.4542 2.68675 21.97 1.35425 18.7959 1.35425H14.6359L15.4375 9.47925C15.4484 9.58758 15.4592 9.70675 15.4592 9.91258C15.5242 10.4759 15.6975 10.9959 15.9575 11.4617C16.7375 12.8917 18.2542 13.8126 19.8359 13.8126C21.2767 13.8126 22.5767 13.1734 23.3892 12.0467C24.0392 11.1801 24.3317 10.0859 24.2234 8.95925Z" fill="#50429B"/>
<path opacity="0.6" d="M7.13915 1.35425C3.95415 1.35425 2.48082 2.68675 2.01499 5.99091L1.72249 8.97008C1.61415 10.1292 1.92832 11.2559 2.61082 12.1334C3.43415 13.2059 4.70165 13.8126 6.10999 13.8126C7.69165 13.8126 9.20832 12.8917 9.97749 11.4834C10.2592 10.9959 10.4433 10.4326 10.4975 9.84758L11.3425 1.36508H7.13915V1.35425Z" fill="#50429B"/>
<path d="M12.2958 18.0484C10.92 18.1893 9.88 19.3593 9.88 20.7459V24.2451H16.1092V21.1251C16.12 18.8609 14.7875 17.7884 12.2958 18.0484Z" fill="#50429B"/>
</svg>
