<svg width="28" height="28" viewBox="0 0 28 28" fill="none" xmlns="http://www.w3.org/2000/svg">
<path fill-rule="evenodd" clip-rule="evenodd" d="M6.00001 14.0501H5.00001V19.9954L5 20.0613V20.0613C4.99995 20.9478 4.99991 21.7116 5.08215 22.3232C5.17028 22.9787 5.36902 23.6071 5.87869 24.1168C6.38835 24.6264 7.0167 24.8252 7.67221 24.9133C8.28387 24.9955 9.04769 24.9955 9.93417 24.9954L10 24.9954H18L18.0658 24.9954C18.9523 24.9955 19.7161 24.9955 20.3278 24.9133C20.9833 24.8252 21.6117 24.6264 22.1213 24.1168C22.631 23.6071 22.8297 22.9787 22.9179 22.3232C23.0001 21.7116 23.0001 20.9477 23 20.0612L23 19.9954V14.0501H22H21H7.00001H6.00001ZM10 19C10 17.8954 10.8954 17 12 17H16C17.1046 17 18 17.8954 18 19V24V25H16V24V19H12V24V25H10V24V19Z" fill="#A5ABDE"/>
<path d="M5.87536 4.56802C6.04163 3.81635 6.12477 3.44052 6.39908 3.22026C6.67339 3 7.05831 3 7.82815 3H20.1719C20.9417 3 21.3266 3 21.6009 3.22026C21.8752 3.44052 21.9584 3.81635 22.1246 4.56802L23.5977 11.2272C23.719 11.7754 23.7796 12.0495 23.7293 12.269C23.661 12.5673 23.4598 12.8179 23.1833 12.949C22.9798 13.0456 22.6991 13.0456 22.1376 13.0456C21.3297 13.0456 20.9257 13.0456 20.5911 12.9224C20.1366 12.755 19.7582 12.4284 19.5263 12.0031C19.3557 11.6901 19.2967 11.2904 19.1788 10.4911L19.1567 10.3407C19.1139 10.0507 19.0925 9.90566 19.0559 9.88099C19.0221 9.8582 18.9779 9.8582 18.9441 9.88099C18.9075 9.90566 18.8861 10.0507 18.8433 10.3407L18.7281 11.1219C18.6982 11.3248 18.6833 11.4263 18.6622 11.5137C18.4615 12.3475 17.7514 12.9606 16.8972 13.0375C16.8076 13.0456 16.7051 13.0456 16.5 13.0456C16.2949 13.0456 16.1924 13.0456 16.1028 13.0375C15.2486 12.9606 14.5385 12.3475 14.3378 11.5137C14.3168 11.4263 14.3018 11.3248 14.2719 11.1219L14.1567 10.3407C14.1139 10.0507 14.0925 9.90566 14.0559 9.88099C14.0221 9.8582 13.9779 9.8582 13.9441 9.88099C13.9075 9.90566 13.8861 10.0507 13.8433 10.3407L13.7281 11.1219C13.6982 11.3248 13.6833 11.4263 13.6622 11.5137C13.4615 12.3475 12.7514 12.9606 11.8972 13.0375C11.8076 13.0456 11.7051 13.0456 11.5 13.0456C11.2949 13.0456 11.1924 13.0456 11.1028 13.0375C10.2486 12.9606 9.53853 12.3475 9.33779 11.5137C9.31675 11.4263 9.30179 11.3248 9.27187 11.1219L9.15665 10.3407C9.11388 10.0507 9.09249 9.90566 9.05591 9.88099C9.02212 9.8582 8.97788 9.8582 8.94409 9.88099C8.90751 9.90566 8.88612 10.0507 8.84335 10.3407L8.82117 10.4911C8.70329 11.2904 8.64435 11.6901 8.47366 12.0031C8.24176 12.4284 7.8634 12.755 7.40886 12.9224C7.07429 13.0456 6.67031 13.0456 5.86236 13.0456C5.30091 13.0456 5.02019 13.0456 4.81672 12.949C4.54023 12.8179 4.33903 12.5673 4.27066 12.269C4.22035 12.0495 4.28099 11.7754 4.40226 11.2272L5.87536 4.56802Z" fill="#A5ABDE"/>
</svg>
