<svg width="28" height="28" viewBox="0 0 28 28" fill="none" xmlns="http://www.w3.org/2000/svg">
<path d="M17 23V18C17 17.4477 16.5523 17 16 17H12C11.4477 17 11 17.4477 11 18V23" stroke="#9F9F9F" stroke-width="2" stroke-linecap="round" stroke-linejoin="round"/>
<path d="M6 13V20C6 21.8856 6 22.8284 6.58579 23.4142C7.17157 24 8.11438 24 10 24H18C19.8856 24 20.8284 24 21.4142 23.4142C22 22.8284 22 21.8856 22 20V13" stroke="#9F9F9F" stroke-width="2"/>
<path d="M5.84677 5.52057C6.02705 4.79044 6.11719 4.42538 6.38878 4.21269C6.66038 4 7.0364 4 7.78846 4H20.2115C20.9636 4 21.3396 4 21.6112 4.21269C21.8828 4.42538 21.9729 4.79044 22.1532 5.52057L23.5427 11.1477C23.6799 11.7035 23.7485 11.9814 23.702 12.2044C23.6384 12.509 23.4366 12.7666 23.1561 12.9014C22.9508 13 22.6621 13 22.0845 13V13C21.3011 13 20.9094 13 20.5853 12.8852C20.1236 12.7216 19.738 12.3943 19.5016 11.9652C19.3357 11.6641 19.2726 11.2809 19.1464 10.5144V10.5144C19.1107 10.2978 19.0929 10.1895 19.0664 10.1659C19.0285 10.1323 18.9715 10.1323 18.9336 10.1659C18.9071 10.1895 18.8893 10.2978 18.8536 10.5144L18.7603 11.0814C18.7225 11.311 18.7036 11.4259 18.6767 11.5247C18.4597 12.3228 17.7738 12.9051 16.951 12.9895C16.8491 13 16.7328 13 16.5 13V13C16.2672 13 16.1509 13 16.049 12.9895C15.2262 12.9051 14.5403 12.3228 14.3233 11.5247C14.2964 11.4259 14.2775 11.311 14.2397 11.0814L14.1464 10.5144C14.1107 10.2978 14.0929 10.1895 14.0664 10.1659C14.0285 10.1323 13.9715 10.1323 13.9336 10.1659C13.9071 10.1895 13.8893 10.2978 13.8536 10.5144L13.7603 11.0814C13.7225 11.311 13.7036 11.4259 13.6767 11.5247C13.4597 12.3228 12.7738 12.9051 11.951 12.9895C11.8491 13 11.7328 13 11.5 13V13C11.2672 13 11.1509 13 11.049 12.9895C10.2262 12.9051 9.54029 12.3228 9.3233 11.5247C9.29644 11.4259 9.27754 11.311 9.23973 11.0814L9.14641 10.5144C9.11075 10.2978 9.09292 10.1895 9.06644 10.1659C9.02855 10.1323 8.97145 10.1323 8.93356 10.1659C8.90708 10.1895 8.88925 10.2978 8.85359 10.5144V10.5144C8.72743 11.2809 8.66434 11.6641 8.4984 11.9652C8.262 12.3943 7.87638 12.7216 7.41467 12.8852C7.09058 13 6.69887 13 5.91545 13V13C5.33794 13 5.04919 13 4.84389 12.9014C4.56341 12.7666 4.36164 12.509 4.29805 12.2044C4.25151 11.9814 4.32012 11.7035 4.45735 11.1477L5.84677 5.52057Z" stroke="#9F9F9F" stroke-width="2"/>
</svg>
