<svg width="28" height="28" viewBox="0 0 28 28" fill="none" xmlns="http://www.w3.org/2000/svg">
<path d="M22.5777 22.1788L22.0071 22.2985C16.7265 23.4063 11.2735 23.4063 5.99288 22.2985L5.42229 22.1788C6.02647 21.1249 6.97355 20.1713 8.21261 19.4269C9.85266 18.4417 11.8873 17.8948 14 17.8948C16.1127 17.8948 18.1473 18.4417 19.7874 19.4269C21.0264 20.1713 21.9735 21.1249 22.5777 22.1788Z" stroke="#9F9F9F" stroke-width="2" stroke-linecap="round"/>
<path d="M18.7515 8.78947C18.7515 11.4408 16.618 13.5789 13.9999 13.5789C11.3819 13.5789 9.24841 11.4408 9.24841 8.78947C9.24841 6.13811 11.3819 4 13.9999 4C16.618 4 18.7515 6.13811 18.7515 8.78947Z" stroke="#9F9F9F" stroke-width="2" stroke-linecap="round"/>
</svg>
