<svg width="305" height="305" viewBox="0 0 305 305" fill="none" xmlns="http://www.w3.org/2000/svg">
<rect width="305" height="305" rx="16" fill="white"/>
<path d="M229.343 96.3912C232.39 96.3912 234.859 93.9141 234.859 90.8585C234.859 87.8028 232.39 85.3257 229.343 85.3257C226.297 85.3257 223.827 87.8028 223.827 90.8585C223.827 93.9141 226.297 96.3912 229.343 96.3912Z" fill="#50429B"/>
<path d="M235.22 81.3518C237.278 81.3518 238.946 79.6784 238.946 77.6141C238.946 75.5498 237.278 73.8763 235.22 73.8763C233.162 73.8763 231.493 75.5498 231.493 77.6141C231.493 79.6784 233.162 81.3518 235.22 81.3518Z" fill="#50429B"/>
<path d="M229.107 71.2543C230.575 71.2543 231.765 70.0604 231.765 68.5876C231.765 67.1149 230.575 65.9209 229.107 65.9209C227.639 65.9209 226.448 67.1149 226.448 68.5876C226.448 70.0604 227.639 71.2543 229.107 71.2543Z" fill="#50429B"/>
<path d="M288.598 61.2747L288.988 58.416C289.017 58.2059 288.991 57.9919 288.915 57.7943C288.838 57.5968 288.712 57.4221 288.549 57.2868C288.386 57.1516 288.192 57.0602 287.984 57.0212C287.776 56.9823 287.561 56.9971 287.361 57.0643L264.575 64.8498L242.047 99.7296C241.931 99.9066 241.863 100.11 241.847 100.321C241.832 100.532 241.871 100.744 241.961 100.935C242.05 101.127 242.186 101.293 242.358 101.417C242.529 101.54 242.728 101.618 242.938 101.643L248.417 102.322C248.656 102.352 248.898 102.312 249.115 102.207C249.332 102.103 249.514 101.937 249.64 101.731L268.412 70.4194C268.554 70.1918 268.762 70.0138 269.008 69.9097L287.832 62.2571C288.034 62.1744 288.211 62.0403 288.345 61.868C288.48 61.6957 288.567 61.4912 288.598 61.2747V61.2747Z" fill="#50429B"/>
<path d="M270.717 111.792L270.474 113.772C270.367 114.645 269.92 115.441 269.23 115.985C268.54 116.529 267.664 116.777 266.792 116.675C266.362 116.625 265.928 116.738 265.577 116.992C265.23 117.247 264.993 117.625 264.914 118.049L254.854 173.227C254.806 173.486 254.696 173.729 254.534 173.937C254.371 174.144 254.162 174.308 253.922 174.416C253.683 174.525 253.42 174.573 253.158 174.558C252.896 174.542 252.642 174.463 252.416 174.328C250.602 173.289 248.599 172.626 246.525 172.377C244.215 172.092 241.872 172.321 239.661 173.05C239.448 173.119 239.222 173.142 239 173.119C238.777 173.095 238.561 173.025 238.367 172.913C238.173 172.801 238.004 172.65 237.872 172.468C237.74 172.287 237.647 172.08 237.599 171.86C235.124 161.519 226.066 153.216 214.401 151.791C202.735 150.365 191.968 156.223 187.078 165.67C186.978 165.871 186.837 166.049 186.664 166.192C186.491 166.335 186.291 166.44 186.076 166.501C185.86 166.563 185.634 166.578 185.413 166.547C185.191 166.516 184.978 166.439 184.788 166.32C182.878 165.119 180.734 164.341 178.5 164.036C176.267 163.732 173.994 163.909 171.833 164.555C171.581 164.636 171.313 164.653 171.052 164.607C170.791 164.561 170.545 164.451 170.336 164.289C170.126 164.126 169.96 163.914 169.85 163.673C169.74 163.431 169.69 163.166 169.705 162.9L173.328 106.828C173.358 106.397 173.222 105.971 172.948 105.637C172.674 105.303 172.283 105.087 171.856 105.033C170.984 104.928 170.189 104.48 169.647 103.787C169.104 103.095 168.857 102.215 168.961 101.34L169.197 99.3603C169.254 98.9133 169.485 98.507 169.84 98.2302C170.194 97.9534 170.644 97.8286 171.09 97.883L178.454 98.7842L179.257 98.8876C179.793 98.9562 180.286 99.2197 180.641 99.6281C180.997 100.036 181.191 100.561 181.186 101.104C181.186 103.645 180.082 107.449 180.406 109.561C180.73 111.674 185.222 113.336 185.664 105.07C185.863 101.377 187.247 100.527 187.513 101.591C188.919 107.161 190.9 102.972 190.458 101.296C190.458 101.296 190.458 101.251 190.458 101.222C190.458 101.192 189.884 100.542 190.952 100.321L269.347 109.923C269.769 110.003 270.145 110.24 270.4 110.587C270.654 110.934 270.767 111.364 270.717 111.792Z" fill="#50429B"/>
<path d="M255.539 192.912C255.206 195.394 254.176 197.729 252.57 199.645C250.963 201.561 248.846 202.979 246.466 203.734V203.734C245.907 203.916 245.411 204.254 245.035 204.707C244.66 205.161 244.42 205.712 244.345 206.297L243.674 211.756C243.625 212.161 243.497 212.553 243.297 212.909C243.096 213.264 242.828 213.577 242.507 213.829C242.187 214.081 241.82 214.266 241.427 214.376C241.035 214.485 240.625 214.516 240.22 214.467L174.241 206.378C173.837 206.329 173.447 206.2 173.092 205.999C172.737 205.798 172.425 205.529 172.174 205.208C171.924 204.886 171.738 204.518 171.629 204.124C171.52 203.731 171.489 203.319 171.539 202.914L172.201 197.47C172.273 196.887 172.178 196.296 171.928 195.765C171.677 195.234 171.282 194.785 170.788 194.471L170.441 194.249C168.489 193.006 166.907 191.258 165.859 189.19C164.812 187.122 164.339 184.81 164.49 182.495C164.64 180.18 165.409 177.949 166.715 176.035C168.022 174.121 169.817 172.595 171.914 171.617C173.921 170.647 176.122 170.151 178.349 170.165C180.576 170.179 182.771 170.703 184.765 171.698C185.463 172.064 186.273 172.153 187.033 171.944C187.793 171.736 188.446 171.247 188.86 170.575C193.662 162.553 203.221 157.678 213.517 158.941C223.812 160.204 231.928 167.244 234.66 176.196C234.902 176.943 235.415 177.57 236.098 177.953C236.78 178.337 237.582 178.448 238.342 178.265C239.965 177.907 241.635 177.827 243.284 178.028C245.963 178.35 248.498 179.417 250.604 181.108C252.364 182.489 253.741 184.299 254.605 186.365C255.469 188.432 255.79 190.686 255.539 192.912V192.912Z" fill="#50429B"/>
<path d="M170.861 208.469C169.263 221.536 179.205 233.908 194.126 239.057C193.257 241.517 191.541 244.774 188.315 246.444C193.877 246.319 199.271 244.503 203.781 241.236C223.577 243.526 241.089 232.859 242.982 217.303L170.861 208.469ZM195.113 224.675C194.575 224.692 194.046 224.544 193.596 224.25C193.145 223.956 192.795 223.531 192.593 223.031C192.391 222.532 192.346 221.983 192.465 221.457C192.584 220.931 192.86 220.455 193.257 220.091C193.654 219.728 194.152 219.496 194.685 219.425C195.218 219.354 195.759 219.449 196.237 219.697C196.714 219.944 197.104 220.332 197.355 220.809C197.606 221.286 197.705 221.828 197.639 222.363C197.604 223.004 197.32 223.605 196.848 224.038C196.375 224.47 195.752 224.699 195.113 224.675V224.675ZM209.554 230.37C209 231.169 208.239 231.801 207.353 232.198C206.467 232.596 205.49 232.744 204.527 232.626C203.564 232.508 202.651 232.129 201.886 231.53C201.121 230.931 200.534 230.134 200.187 229.225C200.08 228.899 200.103 228.544 200.252 228.236C200.402 227.927 200.664 227.688 200.986 227.57C201.307 227.452 201.661 227.464 201.974 227.603C202.287 227.743 202.533 227.999 202.661 228.317C202.843 228.767 203.142 229.16 203.526 229.456C203.91 229.751 204.366 229.939 204.847 229.998C205.327 230.058 205.815 229.987 206.26 229.794C206.704 229.601 207.089 229.293 207.375 228.9C207.57 228.606 207.874 228.402 208.219 228.333C208.564 228.264 208.923 228.335 209.216 228.531C209.509 228.727 209.712 229.031 209.781 229.378C209.85 229.724 209.779 230.084 209.584 230.378L209.554 230.37ZM215.579 227.187C215.042 227.204 214.513 227.056 214.062 226.762C213.612 226.469 213.262 226.044 213.059 225.545C212.857 225.046 212.812 224.497 212.93 223.972C213.047 223.446 213.323 222.969 213.719 222.606C214.115 222.242 214.613 222.009 215.145 221.937C215.678 221.866 216.219 221.959 216.697 222.206C217.174 222.452 217.565 222.839 217.817 223.315C218.069 223.791 218.169 224.332 218.105 224.867C218.067 225.505 217.781 226.103 217.309 226.532C216.837 226.962 216.216 227.189 215.579 227.164V227.187Z" fill="#50429B"/>
<path d="M113.204 194.294C113.891 190.761 114.271 187.175 114.338 183.576C114.417 179.794 114.459 176.137 114.463 172.607C114.463 169.499 114.505 166.348 114.589 163.152C114.67 159.935 114.966 156.727 115.472 153.549L115.848 151.532L117.859 151.156C123.387 150.663 128.898 150.368 134.392 150.269C139.873 150.188 145.352 150.484 150.793 151.156L152.811 151.532L163.121 228.701L161.869 229.713C151.747 236.36 140.684 241.44 129.053 244.782C117.36 248.051 105.224 249.435 93.0989 248.881C87.8018 248.636 82.5295 248.004 77.3241 246.99C72.2358 246 67.2487 244.543 62.4256 242.639C57.6389 240.747 53.0828 238.313 48.8454 235.386C44.4937 232.36 40.5354 228.802 37.0621 224.793C30.0735 216.9 24.7322 207.682 21.3535 197.684C17.9316 187.696 16.1265 177.222 16.0068 166.66C15.885 156.045 17.3902 145.475 20.4698 135.319C23.4707 125.213 28.0842 115.661 34.131 107.035C40.2129 98.3477 47.5899 90.6496 56.0037 84.2103C63.9175 78.2336 72.6385 73.416 81.9048 69.9023C91.3017 66.375 101.097 64.0255 111.068 62.9072C121.543 61.7196 132.096 61.3812 142.625 61.8952H144.135L144.872 63.4095C147.832 69.2072 149.929 75.409 151.095 81.817C152.296 88.2739 153.074 94.803 153.422 101.362V104.272H150.528C145.755 104.272 140.455 104.42 134.628 104.716C128.8 105.011 122.938 105.602 117.041 106.488C111.246 107.347 105.521 108.626 99.9111 110.315C94.8067 111.803 89.9391 114.012 85.4545 116.874C83.0495 118.426 80.8261 120.245 78.8264 122.296C77.2858 123.829 75.8559 125.471 74.5476 127.208C73.2629 128.94 72.0872 130.751 71.0274 132.63C69.139 136.016 67.6016 139.588 66.4393 143.289C65.2295 147.094 64.4706 151.028 64.1783 155.011C63.8808 158.974 64.0911 162.958 64.8043 166.867C65.4911 170.705 66.8314 174.395 68.7664 177.777C70.4008 180.814 72.5488 183.544 75.1147 185.843C77.5682 188.016 80.3214 189.822 83.2893 191.206C86.3141 192.61 89.5037 193.625 92.7822 194.227C96.1377 194.863 99.5452 195.182 102.96 195.18C104.639 195.18 106.358 195.116 108.115 194.988C109.824 194.865 111.524 194.633 113.204 194.294Z" fill="#50429B"/>
</svg>
