<svg width="19" height="24" viewBox="0 0 19 24" fill="none" xmlns="http://www.w3.org/2000/svg">
<path d="M1.51979 20.2662C1.59941 21.2242 2.33887 22.0031 3.29569 22.0955C7.56885 22.5083 11.4311 22.5083 15.7043 22.0955C16.6611 22.0031 17.4006 21.2242 17.4802 20.2662C17.7081 17.524 18 14.6555 18 11.7026C18 8.74964 17.7081 5.88114 17.4802 3.13889C17.4006 2.18091 16.6611 1.40205 15.7043 1.30961C11.4311 0.896796 7.56885 0.896795 3.29569 1.30961C2.33887 1.40205 1.59941 2.18091 1.51979 3.13889C1.2919 5.88114 1 8.74964 1 11.7026C1 14.6555 1.2919 17.524 1.51979 20.2662Z" fill="#ECF1F9" stroke="#817CBA" stroke-width="1.5"/>
<path d="M8.28125 17.3199H10.7189" stroke="#817CBA" stroke-width="1.5" stroke-linecap="round" stroke-linejoin="round"/>
</svg>
