<svg width="61" height="60" viewBox="0 0 61 60" fill="none" xmlns="http://www.w3.org/2000/svg">
<rect x="0.5" width="60" height="60" rx="16" fill="#50429B"/>
<g clip-path="url(#clip0_2316_184181)">
<path d="M41.2764 45.4545C34.4473 46.1831 27.56 46.1831 20.7309 45.4545C19.4048 45.3145 18.1667 44.7241 17.2231 43.7818C16.2795 42.8396 15.6874 41.6023 15.5455 40.2764C14.8169 33.4473 14.8169 26.56 15.5455 19.7309C15.6855 18.4048 16.2759 17.1667 17.2182 16.2231C18.1604 15.2795 19.3977 14.6874 20.7236 14.5455C27.5527 13.8169 34.44 13.8169 41.2691 14.5455C42.5952 14.6855 43.8333 15.2759 44.7769 16.2182C45.7205 17.1604 46.3126 18.3977 46.4545 19.7236C47.1831 26.5527 47.1831 33.44 46.4545 40.2691C46.3145 41.5952 45.7241 42.8333 44.7818 43.7769C43.8396 44.7205 42.6023 45.3126 41.2764 45.4545Z" fill="white"/>
<path d="M28.5873 40C26.8947 40 25.2715 39.3276 24.0746 38.1308C22.8778 36.934 22.2054 35.3107 22.2054 33.6182C22.2054 31.9256 22.8778 30.3024 24.0746 29.1056C25.2715 27.9087 26.8947 27.2364 28.5873 27.2364H30.1454V30.3509H28.5873C27.94 30.3509 27.3072 30.5429 26.769 30.9025C26.2308 31.2621 25.8114 31.7732 25.5637 32.3712C25.316 32.9692 25.2511 33.6273 25.3774 34.2621C25.5037 34.897 25.8154 35.4801 26.2731 35.9378C26.7308 36.3955 27.3139 36.7072 27.9488 36.8335C28.5836 36.9598 29.2417 36.8949 29.8397 36.6472C30.4377 36.3995 30.9488 35.9801 31.3084 35.4419C31.668 34.9037 31.86 34.2709 31.86 33.6236V20H34.9745V21.5564C34.9745 22.4243 35.3193 23.2568 35.9331 23.8705C36.5469 24.4843 37.3793 24.8291 38.2473 24.8291H39.8054V27.9382H38.2364C37.0829 27.9398 35.951 27.6254 34.9636 27.0291V33.6182C34.9622 35.3094 34.2901 36.9309 33.0948 38.1273C31.8994 39.3236 30.2784 39.9971 28.5873 40Z" fill="#50429B"/>
</g>
<defs>
<clipPath id="clip0_2316_184181">
<rect width="32" height="32" fill="white" transform="translate(15 14)"/>
</clipPath>
</defs>
</svg>
