<svg width="28" height="28" viewBox="0 0 28 28" fill="none" xmlns="http://www.w3.org/2000/svg">
<path fill-rule="evenodd" clip-rule="evenodd" d="M14 24.0001C19.5229 24.0001 24.0001 19.5229 24.0001 14C24.0001 8.47717 19.5229 4 14 4C8.47717 4 4 8.47717 4 14C4 19.5229 8.47717 24.0001 14 24.0001ZM15 10.25C15 9.6977 14.5523 9.24999 14 9.24999C13.4477 9.24999 13 9.6977 13 10.25V15C13 15.6904 13.5596 16.25 14.25 16.25H19C19.5523 16.25 20 15.8023 20 15.25C20 14.6977 19.5523 14.25 19 14.25H15V10.25Z" fill="#A5ABDE"/>
</svg>
