<svg width="97" height="90" viewBox="0 0 97 90" fill="none" xmlns="http://www.w3.org/2000/svg">
<g clip-path="url(#clip0_397_1761)">
<path d="M50.2323 86.8044C49.2456 86.8044 48.3212 86.4344 47.7045 85.6955L47.6434 85.6333L47.5812 85.5711C38.3967 73.86 26.1312 61.3478 22.3712 61.1011C20.7067 62.0256 18.7345 62.4578 16.7 62.4578C10.9067 62.4578 5.29671 58.76 3.38671 53.5822C2.09226 50.2544 1.29115 43.4122 10.1667 35.5844C20.09 26.8933 29.2123 19.99 48.6278 17.0933C50.3534 16.8467 51.9567 16.7233 53.4356 16.7233C66.6878 16.7233 67.6734 26.9544 68.2289 32.4411C68.3523 33.7978 68.4756 35.03 68.7223 35.8933C69.1534 37.3722 72.6667 42.18 91.6512 58.0822C93.0067 59.1922 93.7467 60.98 93.5623 62.7056C93.3767 64.4933 92.3289 66.0333 90.7878 66.8967L90.2945 67.1433C56.4567 85.3244 52.1423 86.8044 50.2323 86.8044Z" fill="#E7A664"/>
<path d="M50.2924 89.4133C48.5813 89.4133 46.9535 88.7022 45.8268 87.4611L45.6213 87.2544L45.5746 87.1633C37.1335 76.4566 26.9213 66.0667 22.779 63.9633L22.5213 63.8333L22.2546 63.9433C20.5768 64.6378 18.6346 65.0055 16.639 65.0055C9.68682 65.0055 3.21127 60.6867 0.893487 54.5033C-0.30429 51.27 -1.96985 42.7644 8.42349 33.6844C18.6635 24.6711 28.0924 17.5389 48.1668 14.54C49.8646 14.2578 51.6135 14.1155 53.3746 14.1155C60.0302 14.1155 64.9113 16.5255 67.8824 21.2789C70.0924 24.9233 70.5079 29.1444 70.8102 32.2255C70.8724 33.2411 71.0002 34.3655 71.1268 35L71.1457 35.0955L71.1935 35.1811C72.3346 37.2355 77.1046 42.5389 93.3435 56.1289C95.3791 57.8167 96.4246 60.3755 96.1424 62.9778C95.9157 65.5867 94.3791 67.8889 92.0313 69.1489L91.5557 69.3855C54.3257 89.4133 52.4568 89.4133 50.2924 89.4133ZM49.4524 83.8455C49.5524 84.02 49.7546 84.1955 50.1702 84.1955C52.1424 84.1955 65.3702 77.5755 89.4857 64.5189C90.3057 64.0711 90.8513 63.2544 90.9435 62.3322C91.0357 61.4133 90.6679 60.5089 89.9602 59.9133L89.3646 59.41C83.3702 54.35 67.4457 40.91 66.1835 36.4311C65.9024 35.4055 65.7713 34.0533 65.6324 32.6211C65.0835 26.9611 64.3313 19.2089 53.3757 19.2089C52.0535 19.2089 50.6113 19.3322 48.9657 19.5855C30.2424 22.4278 21.4279 29.0822 11.8502 37.4855C4.09904 44.25 4.67571 49.8844 5.71015 52.6411C7.27682 56.8178 11.8735 59.85 16.6402 59.85C18.3968 59.85 19.9535 59.47 21.2657 58.7189C21.509 58.5733 21.8402 58.4933 22.1868 58.4933C28.1413 58.4933 43.8479 76.7444 49.4524 83.8455Z" fill="#4C2F1B"/>
<path d="M49.6157 75.0322V84.5856C49.6157 86.1267 51.2802 87.1744 52.6979 86.4344L93.0091 65.2933C93.6868 64.9233 94.1802 64.1833 94.1802 63.4444V52.72L50.8479 73.1211C50.1091 73.4289 49.6157 74.1689 49.6157 75.0322Z" fill="#E7A664"/>
<path d="M89.3712 63.3822C89.3712 62.0878 89.0634 61.9644 88.6312 61.9644C88.2001 61.9644 87.8301 63.0122 87.8301 64.3067C87.8301 65.6011 88.1379 66.2178 88.5701 66.2178C89.0634 66.2178 89.3712 64.6767 89.3712 63.3822ZM66.9357 68.8067C66.9357 67.5122 66.6279 67.3889 66.1957 67.3889C65.7645 67.3889 65.3945 68.4367 65.3945 69.7311C65.3945 71.0256 65.7023 71.6411 66.1345 71.6411C66.5657 71.6422 66.9357 70.1011 66.9357 68.8067ZM65.6412 73.3678C65.6412 72.0733 65.3334 71.95 64.9012 71.95C64.469 71.95 64.1001 72.9978 64.1001 74.2922C64.1001 75.5867 64.4079 76.2033 64.8401 76.2033C65.2723 76.2033 65.6412 74.6622 65.6412 73.3678ZM72.8523 73.06C72.8523 71.7656 72.5445 71.6422 72.1123 71.6422C71.6812 71.6422 71.3112 72.69 71.3112 73.9844C71.3112 75.2789 71.619 75.8944 72.0512 75.8944C72.5445 75.8333 72.8523 74.3544 72.8523 73.06ZM79.4479 68.56C79.4479 67.5122 79.2012 67.3889 78.8934 67.3889C78.5857 67.3889 78.2779 68.2522 78.2779 69.3C78.2779 70.3478 78.5245 70.8411 78.8934 70.8411C79.2634 70.84 79.4479 69.6078 79.4479 68.56Z" fill="#DB914D"/>
<path d="M51.7423 90C50.839 90 50.0423 89.77 49.3079 89.2989C47.8812 88.4211 47.0679 86.9756 47.0679 85.3278V75.7733C47.0679 73.9333 48.1312 72.31 49.8434 71.5367L96.7256 49.3967V64.1856C96.7256 65.98 95.7701 67.5456 94.1679 68.3744L53.9168 89.5167C53.0856 89.8322 52.3523 90 51.7423 90ZM52.2245 76.0522V84.5756L91.6334 63.9489V57.5267L52.2245 76.0522Z" fill="#4C2F1B"/>
<path d="M73.2234 66.2789C73.2234 65.6633 73.1001 65.5389 72.8534 65.5389C72.669 65.5389 72.4834 66.0322 72.4834 66.71C72.4834 67.3878 72.669 67.6344 72.8534 67.6344C73.0378 67.6355 73.2234 66.9578 73.2234 66.2789Z" fill="#DB914D"/>
<path d="M50.7869 72.69C49.8014 72.69 48.8769 72.32 48.2602 71.58L48.198 71.5178L48.1358 71.4567C38.9525 59.7456 26.6869 47.2322 22.9269 46.9867C21.2625 47.9111 19.2902 48.3433 17.2558 48.3433C11.4613 48.3433 5.85246 44.6445 3.94246 39.4678C2.64802 36.0778 1.84579 29.2367 10.7836 21.47C20.708 12.7778 29.8302 5.87446 49.2458 2.97779C50.9714 2.73112 52.5736 2.60779 54.0536 2.60779C67.3058 2.60779 68.2914 12.8389 68.8469 18.3245C68.9702 19.6811 69.0936 20.9133 69.3402 21.7767C69.7714 23.2567 73.2847 28.0645 92.2691 43.9667C93.6247 45.1378 94.3647 46.8633 94.1791 48.5889C93.9947 50.3767 92.9469 51.9178 91.4058 52.78L90.9125 53.0267C56.9502 71.21 52.6358 72.69 50.7869 72.69Z" fill="#F9D59A"/>
<path d="M50.9043 75.2978C49.1943 75.2978 47.5655 74.5867 46.4366 73.3456L46.2321 73.14L46.1877 73.0511C37.7455 62.3411 27.531 51.9511 23.3899 49.8478L23.1321 49.7178L22.8655 49.8278C21.1866 50.5222 19.2455 50.89 17.2499 50.89C10.2977 50.89 3.82323 46.5711 1.50434 40.3867C0.259896 37.1856 -1.49233 28.7644 9.03434 19.5678C19.2743 10.5556 28.701 3.42444 48.7788 0.424444C50.4755 0.142222 52.2243 0 53.9877 0C60.6421 0 65.5232 2.41 68.4955 7.16333C70.7088 10.8111 71.121 15.03 71.4232 18.11C71.4866 19.1356 71.6155 20.2589 71.741 20.8844L71.7599 20.98L71.8077 21.0656C72.9477 23.1189 77.7166 28.42 93.9577 42.0133C95.9943 43.7 97.0399 46.2589 96.7566 48.8611C96.5288 51.4711 94.9932 53.7733 92.6455 55.0333L92.1677 55.2722C54.9388 75.2978 53.0688 75.2978 50.9043 75.2978ZM50.0643 69.7922C50.1643 69.9667 50.3666 70.1422 50.781 70.1422C52.7555 70.1422 65.9832 63.5222 90.0966 50.4656C90.9177 50.0178 91.4621 49.2 91.5555 48.2778C91.6477 47.3589 91.2799 46.4544 90.5721 45.8589L89.981 45.36C83.9855 40.2989 68.0588 26.8556 66.7955 22.3767C66.5143 21.3511 66.3832 19.9989 66.2443 18.5667C65.6954 12.9078 64.9432 5.15556 53.9877 5.15556C52.6732 5.15556 51.2532 5.27556 49.5188 5.53222C30.7688 8.31778 22.3321 14.7089 12.4599 23.4344C4.7099 30.1967 5.28656 35.8311 6.32101 38.5889C7.88767 42.7656 12.4843 45.7978 17.251 45.7978C19.0088 45.7978 20.5655 45.4178 21.8766 44.6678C22.121 44.5211 22.4521 44.4411 22.7977 44.4411C28.7543 44.44 44.4599 62.6911 50.0643 69.7922Z" fill="#4C2F1B"/>
<path d="M50.2322 64.1222C49.6778 64.1222 49.1222 63.8756 48.7522 63.4445C48.0745 62.6434 48.1978 61.41 48.9989 60.7322L75.5645 38.6667C76.3656 37.9889 77.5989 38.1122 78.2767 38.9134C78.9545 39.7145 78.8311 40.9478 78.03 41.6256L51.4645 63.69C51.0956 63.9989 50.6634 64.1222 50.2322 64.1222ZM34.3911 48.4667C33.8367 48.4667 33.2822 48.22 32.9122 47.7889C32.2334 46.9878 32.3578 45.7545 33.1589 45.0767L61.6356 21.4078C62.4367 20.73 63.67 20.8534 64.3478 21.6545C65.0256 22.4556 64.9022 23.6878 64.1011 24.3656L35.6234 48.0345C35.2545 48.2811 34.8222 48.4667 34.3911 48.4667ZM18.7967 37.1867C18.2422 37.1867 17.6878 36.94 17.3178 36.5089C16.6389 35.7078 16.7634 34.4745 17.5645 33.7967L46.04 10.1278C46.8411 9.45002 48.0745 9.57335 48.7522 10.3745C49.43 11.1756 49.3067 12.4078 48.5056 13.0856L20.03 36.7556C19.66 37.0634 19.2278 37.1867 18.7967 37.1867Z" fill="#E7A664"/>
<path d="M47.0889 19.99C66.1345 14.5666 60.2789 28.8044 65.95 30.9611C70.3267 32.6255 78.9556 38.1111 72.2989 42.61C66.8745 46.3089 57.9989 59.1911 48.0756 50.3144C42.4667 45.3833 37.2889 48.65 34.7611 44.2744C32.2345 39.8978 32.4811 38.4811 28.2278 38.2955C23.9745 38.1111 18.6745 32.1933 23.2356 23.5644C29.3367 12.1 41.6645 21.5311 47.0889 19.99Z" fill="#F4E87C"/>
<path d="M55.1623 55.3078C52.5123 55.3078 49.6767 54.3211 46.8412 51.7944C44.4378 49.6989 42.1567 49.3289 39.9378 49.02C37.5345 48.65 34.8223 48.28 33.0967 45.3222C32.5423 44.3978 32.1723 43.6578 31.8023 42.98C30.5078 40.5144 30.4456 40.3911 28.1045 40.2689C25.33 40.1455 22.4956 38.2955 20.9545 35.5233C19.7223 33.4267 18.1811 28.9278 21.5089 22.7644C26.3778 13.6422 34.9456 15.8611 40.6167 17.3411C42.9589 17.9567 45.3011 18.5733 46.5956 18.2044C60.0323 14.3822 62.8678 19.6833 64.6545 25.4778C65.2712 27.5733 65.7645 28.8055 66.6889 29.1755C67.0589 29.2989 75.9956 32.7511 76.6745 38.36C76.8589 39.9011 76.4278 42.1811 73.4689 44.2155C72.4212 44.8944 71.1878 46.0644 69.8323 47.2978C66.1967 50.5 61.0189 55.3078 55.1623 55.3078ZM32.3567 19.7433C29.2134 19.7433 26.81 20.9144 24.8989 24.5511C23.1111 27.9411 22.8645 31.1467 24.2834 33.6122C25.3311 35.4611 27.0567 36.3855 28.2889 36.4466C32.6034 36.6322 33.6511 38.1722 35.1923 41.1922C35.5012 41.8089 35.9323 42.5489 36.4256 43.4111C37.1656 44.7055 38.2123 44.9522 40.4934 45.26C43.02 45.63 46.1023 46.0611 49.3689 48.9589C55.4711 54.3822 60.8334 50.3144 67.1812 44.4589C68.5989 43.1644 69.9556 41.9322 71.1878 41.0689C72.2978 40.2678 72.8523 39.5278 72.7912 38.7878C72.5445 36.8155 68.7223 34.0422 65.2712 32.7478C62.4967 31.7 61.6956 28.9878 60.9567 26.5844C59.6623 22.3933 58.5523 18.6944 47.5812 21.8389C45.3 22.4555 42.65 21.7767 39.63 20.9755C36.8567 20.2978 34.4534 19.7433 32.3567 19.7433Z" fill="#4C2F1B"/>
<path d="M57.5053 28.9889C57.012 28.9889 56.5809 28.7422 56.3342 28.31C55.2865 26.2755 54.362 25.4744 53.0053 25.5978C52.4509 25.66 51.7731 25.8444 50.972 26.1522C48.8142 26.8922 45.7942 27.8167 41.542 26.3989C36.4265 24.6733 31.4953 24.7344 31.4331 24.7344C30.7553 24.7344 30.1387 24.18 30.1387 23.5022C30.1387 22.8244 30.6931 22.2078 31.3709 22.2078C31.5564 22.2078 36.7331 22.1455 42.342 23.9955C45.7931 25.1667 48.1353 24.3655 50.1698 23.7489C51.0942 23.44 51.8953 23.1944 52.7587 23.1322C56.3953 22.8244 57.9976 26.0289 58.6142 27.2622C58.9231 27.8778 58.6765 28.68 58.0598 28.9878C57.8753 28.9278 57.6898 28.9889 57.5053 28.9889Z" fill="white"/>
<path d="M41.9731 34.4744C41.9731 35.1889 43.6831 35.7689 45.7943 35.7689C47.9043 35.7689 49.6154 35.1889 49.6154 34.4744C49.6154 33.76 47.9043 33.18 45.7943 33.18C43.6831 33.18 41.9731 33.76 41.9731 34.4744Z" fill="white"/>
<path d="M28.5356 58.39C28.5356 59.0711 28.7556 59.6222 29.029 59.6222C29.3012 59.6222 29.5212 59.07 29.5212 58.39C29.5212 57.7089 29.3012 57.1578 29.029 57.1578C28.7568 57.1578 28.5356 57.7089 28.5356 58.39Z" fill="#DB914D"/>
<path d="M39.7534 70.1633C39.7534 70.7422 39.919 71.2111 40.1234 71.2111C40.3279 71.2111 40.4934 70.7422 40.4934 70.1633C40.4934 69.5844 40.3279 69.1156 40.1234 69.1156C39.9201 69.1144 39.7534 69.5833 39.7534 70.1633Z" fill="#DB914D"/>
<path d="M17.2568 54.8767C17.2568 55.6933 17.5324 56.3556 17.8724 56.3556C18.2135 56.3556 18.4891 55.6933 18.4891 54.8767C18.4891 54.06 18.2135 53.3967 17.8724 53.3967C17.5324 53.3967 17.2568 54.06 17.2568 54.8767Z" fill="#DB914D"/>
<path d="M34.1445 64.0611C34.1445 64.8778 34.4201 65.54 34.7601 65.54C35.1012 65.54 35.3768 64.8778 35.3768 64.0611C35.3768 63.2444 35.1012 62.5811 34.7601 62.5811C34.4201 62.5811 34.1445 63.2433 34.1445 64.0611Z" fill="#DB914D"/>
<path d="M8.50342 53.0889C8.50342 54.6211 8.80675 55.8633 9.1812 55.8633C9.55564 55.8633 9.85897 54.6211 9.85897 53.0889C9.85897 51.5567 9.55564 50.3156 9.1812 50.3156C8.80675 50.3156 8.50342 51.5567 8.50342 53.0889Z" fill="#DB914D"/>
<path d="M84.5024 62.6433C84.5024 61.5956 84.2557 61.4722 83.948 61.4722C83.6391 61.4722 83.3313 62.3356 83.3313 63.3822C83.3313 64.43 83.578 64.9233 83.948 64.9233C84.2557 64.9233 84.5024 63.69 84.5024 62.6433ZM58.4302 76.5733C58.4302 75.6489 58.2446 75.5256 57.8757 75.5256C57.568 75.5256 57.3213 76.3267 57.3213 77.2511C57.3213 78.1756 57.568 78.6689 57.8757 78.6689C58.1835 78.6067 58.4302 77.4978 58.4302 76.5733Z" fill="#DB914D"/>
<path d="M61.9431 47.1722C61.6965 47.1722 61.4498 47.11 61.2031 46.9256C60.6487 46.5556 60.4631 45.7545 60.8954 45.1378C62.1276 43.35 65.1487 41.2545 67.3676 39.7145C67.922 39.3445 68.4154 38.9745 68.7854 38.7278C68.1065 38.1122 66.4431 37.1867 64.4709 36.8178C60.6498 36.0778 58.7387 31.3322 58.6154 31.1467C58.3687 30.4678 58.6776 29.7289 59.2931 29.4822C59.9709 29.2356 60.7109 29.5433 60.9576 30.16C61.3887 31.1467 62.8676 33.8578 64.902 34.2889C67.3054 34.7822 70.8809 36.3233 71.4354 38.2956C71.6198 39.0356 71.4354 39.7756 70.8809 40.2689C70.4498 40.6389 69.772 41.1322 68.7231 41.81C66.812 43.1045 63.9154 45.1378 62.9287 46.5556C62.7443 46.9867 62.3743 47.1722 61.9431 47.1722Z" fill="white"/>
<path d="M36.5755 12.92C36.7555 13.3978 38.2444 13.28 39.9011 12.6556C41.5577 12.0322 42.7544 11.1389 42.5755 10.6611C42.3955 10.1833 40.9066 10.3011 39.25 10.9256C37.5933 11.5489 36.3955 12.4411 36.5755 12.92Z" fill="#F8CD8C"/>
<path d="M48.7191 66.7289C48.9135 67.2433 49.6635 67.5044 50.689 67.4133C51.7146 67.3211 52.8579 66.8911 53.6891 66.2844C54.5202 65.6767 54.9124 64.9855 54.7179 64.47C54.5235 63.9555 53.7735 63.6944 52.7479 63.7856C51.7224 63.8767 50.579 64.3078 49.7479 64.9144C48.9168 65.5222 48.5257 66.2133 48.7191 66.7289Z" fill="#F8CD8C"/>
<path d="M14.3335 40.7033C14.6501 41.4189 16.2201 41.4189 17.8379 40.7022C19.4568 39.9867 20.5124 38.8256 20.1957 38.1089C19.879 37.3933 18.3101 37.3933 16.6912 38.1089C15.0724 38.8267 14.0168 39.9878 14.3335 40.7033Z" fill="#F8CD8C"/>
<path d="M77.561 49.5289C77.8777 50.2445 79.4466 50.2445 81.0654 49.5278C82.6843 48.8122 83.7399 47.6511 83.4232 46.9345C83.1066 46.2178 81.5366 46.2189 79.9177 46.9345C78.2999 47.6522 77.2443 48.8133 77.561 49.5289Z" fill="#F8CD8C"/>
<path d="M56.9131 62.7611C57.2298 63.4767 58.7987 63.4767 60.4175 62.7611C62.0364 62.0456 63.092 60.8833 62.7742 60.1678C62.4575 59.4522 60.8887 59.4522 59.2698 60.1689C57.6509 60.8844 56.5964 62.0456 56.9131 62.7611Z" fill="#F8CD8C"/>
<path d="M10.5735 28.4433C10.7524 28.8478 11.6546 28.8411 12.588 28.4278C13.5224 28.0145 14.1335 27.3511 13.9558 26.9467C13.7769 26.5422 12.8746 26.5489 11.9402 26.9622C11.0069 27.3756 10.3946 28.0378 10.5735 28.4433Z" fill="#F8CD8C"/>
</g>
<defs>
<clipPath id="clip0_397_1761">
<rect width="96.8011" height="90" fill="white"/>
</clipPath>
</defs>
</svg>
