<svg width="28" height="28" viewBox="0 0 28 28" fill="none" xmlns="http://www.w3.org/2000/svg">
<path d="M11.6667 17.5L11.6667 14" stroke="#A5ABDE" stroke-width="2" stroke-linecap="round"/>
<path d="M16.3333 17.5L16.3333 14" stroke="#A5ABDE" stroke-width="2" stroke-linecap="round"/>
<path d="M4 8H24V8C22.7538 8 22.1308 8 21.6667 8.26795C21.3626 8.44349 21.1102 8.69596 20.9346 9C20.6667 9.4641 20.6667 10.0872 20.6667 11.3333V19C20.6667 20.8856 20.6667 21.8284 20.0809 22.4142C19.4951 23 18.5523 23 16.6667 23H11.3333C9.44771 23 8.50491 23 7.91912 22.4142C7.33333 21.8284 7.33333 20.8856 7.33333 19V11.3333C7.33333 10.0872 7.33333 9.4641 7.06538 9C6.88985 8.69596 6.63737 8.44349 6.33333 8.26795C5.86923 8 5.24615 8 4 8V8Z" stroke="#A5ABDE" stroke-width="2" stroke-linecap="round"/>
<path d="M12.0681 4.37059C12.1821 4.26427 12.4332 4.17033 12.7825 4.10332C13.1318 4.03632 13.5597 4 14 4C14.4403 4 14.8682 4.03632 15.2175 4.10332C15.5668 4.17033 15.8179 4.26427 15.9319 4.37059" stroke="#A5ABDE" stroke-width="2" stroke-linecap="round"/>
</svg>
