<svg width="29" height="29" viewBox="0 0 29 29" fill="none" xmlns="http://www.w3.org/2000/svg">
<path fill-rule="evenodd" clip-rule="evenodd" d="M24.0049 8.22656H4.00488V11.5599C5.23218 11.5599 6.22711 12.5548 6.22711 13.7821V17.1155C6.22711 20.183 6.22711 21.7167 6.94361 22.8294C7.29139 23.3696 7.75078 23.8289 8.29089 24.1767C9.40363 24.8932 10.9374 24.8932 14.0049 24.8932C17.0724 24.8932 18.6061 24.8932 19.7189 24.1767C20.259 23.8289 20.7184 23.3696 21.0662 22.8294C21.7827 21.7167 21.7827 20.183 21.7827 17.1155V13.7821C21.7827 12.5548 22.7776 11.5599 24.0049 11.5599V8.22656ZM12.7266 13.7812C12.7266 12.9528 12.055 12.2812 11.2266 12.2812C10.3981 12.2812 9.72656 12.9528 9.72656 13.7812V19.3368C9.72656 20.1652 10.3981 20.8368 11.2266 20.8368C12.055 20.8368 12.7266 20.1652 12.7266 19.3368V13.7812ZM18.2821 13.7812C18.2821 12.9528 17.6105 12.2812 16.7821 12.2812C15.9537 12.2812 15.2821 12.9528 15.2821 13.7812V19.3368C15.2821 20.1652 15.9537 20.8368 16.7821 20.8368C17.6105 20.8368 18.2821 20.1652 18.2821 19.3368V13.7812Z" fill="#463796"/>
<path d="M12.074 5.26512C12.188 5.15881 12.439 5.06486 12.7883 4.99785C13.1376 4.93085 13.5656 4.89453 14.0059 4.89453C14.4461 4.89453 14.8741 4.93085 15.2234 4.99785C15.5727 5.06486 15.8238 5.1588 15.9377 5.26512" stroke="#463796" stroke-width="3" stroke-linecap="round"/>
</svg>
