<svg width="61" height="60" viewBox="0 0 61 60" fill="none" xmlns="http://www.w3.org/2000/svg">
<rect x="0.5" width="60" height="60" rx="16" fill="#50429B"/>
<g clip-path="url(#clip0_2316_184191)">
<path d="M41.6667 24.0417C40.8889 24.3889 40.0486 24.625 39.1458 24.75C40.0903 24.1944 40.7361 23.3819 41.0833 22.3125C40.1806 22.8403 39.25 23.1944 38.2917 23.375C37.4444 22.4583 36.3819 22 35.1042 22C33.8958 22 32.8646 22.4271 32.0104 23.2812C31.1562 24.1354 30.7292 25.1667 30.7292 26.375C30.7292 26.7778 30.7639 27.1111 30.8333 27.375C29.0417 27.2778 27.3611 26.8264 25.7917 26.0208C24.2222 25.2153 22.8889 24.1389 21.7917 22.7917C21.3889 23.4861 21.1875 24.2222 21.1875 25C21.1875 26.5833 21.8194 27.7986 23.0833 28.6458C22.4306 28.6319 21.7361 28.4514 21 28.1042V28.1458C21 29.1875 21.3472 30.1146 22.0417 30.9271C22.7361 31.7396 23.5903 32.2431 24.6042 32.4375C24.2014 32.5486 23.8472 32.6042 23.5417 32.6042C23.3611 32.6042 23.0903 32.5764 22.7292 32.5208C23.0208 33.3958 23.5382 34.1181 24.2812 34.6875C25.0243 35.2569 25.8681 35.5486 26.8125 35.5625C25.2014 36.8125 23.3889 37.4375 21.375 37.4375C21.0139 37.4375 20.6667 37.4167 20.3333 37.375C22.3889 38.6806 24.625 39.3333 27.0417 39.3333C28.5972 39.3333 30.0556 39.0868 31.4167 38.5938C32.7778 38.1007 33.9444 37.441 34.9167 36.6146C35.8889 35.7882 36.7257 34.8368 37.4271 33.7604C38.1285 32.684 38.6493 31.559 38.9896 30.3854C39.3299 29.2118 39.5 28.0417 39.5 26.875C39.5 26.625 39.4931 26.4375 39.4792 26.3125C40.3542 25.6875 41.0833 24.9306 41.6667 24.0417ZM47 20V40C47 41.6528 46.4132 43.066 45.2396 44.2396C44.066 45.4132 42.6528 46 41 46H21C19.3472 46 17.934 45.4132 16.7604 44.2396C15.5868 43.066 15 41.6528 15 40V20C15 18.3472 15.5868 16.934 16.7604 15.7604C17.934 14.5868 19.3472 14 21 14H41C42.6528 14 44.066 14.5868 45.2396 15.7604C46.4132 16.934 47 18.3472 47 20Z" fill="white"/>
</g>
<defs>
<clipPath id="clip0_2316_184191">
<rect width="32" height="32" fill="white" transform="translate(15 14)"/>
</clipPath>
</defs>
</svg>
