<svg width="17" height="17" viewBox="0 0 17 17" fill="none" xmlns="http://www.w3.org/2000/svg">
<path d="M5.84373 16.0172V12.3516L3.10779 14.3703C3.8781 15.0875 4.80779 15.6453 5.84373 16.0172ZM11.1562 16.0172C12.1922 15.6453 13.1219 15.0875 13.8922 14.3703L11.1562 12.325V16.0172ZM0.982788 11.1562C1.06248 11.4219 1.16873 11.6609 1.30154 11.9266L2.33748 11.1562H0.982788ZM14.6625 11.1562L15.6984 11.9266C15.8047 11.6875 15.9109 11.4219 16.0172 11.1562H14.6625Z" fill="#2A5F9E"/>
<path d="M6.24224 10.0938H0.690674C0.770361 10.4656 0.876611 10.8109 0.982861 11.1562H2.33755L1.30161 11.9266C1.51411 12.3781 1.75317 12.7766 2.04536 13.175L4.7813 11.1562H5.8438V11.6875L2.73599 13.9719L3.10786 14.3438L5.8438 12.3516V16.0172C6.18911 16.15 6.53442 16.2297 6.9063 16.3094V10.0938H6.24224ZM16.3094 10.0938H10.0938V16.3094C10.4657 16.2297 10.811 16.1234 11.1563 16.0172V12.3516L13.8922 14.3438C14.2641 13.9984 14.5829 13.6266 14.9016 13.2281L12.0594 11.1562H13.8657L15.486 12.3516C15.5657 12.2188 15.6454 12.0594 15.6985 11.9266L14.6625 11.1562H16.0172C16.1235 10.8109 16.2297 10.4656 16.3094 10.0938Z" fill="white"/>
<path d="M2.04529 13.175C2.25779 13.4672 2.47029 13.7328 2.70935 13.9984L5.84373 11.7141V11.1828H4.78123L2.04529 13.175ZM12.0859 11.1562L14.9281 13.2281C15.0344 13.0953 15.114 12.9625 15.2203 12.8297C15.2469 12.8031 15.2469 12.7766 15.2734 12.7766C15.3531 12.6437 15.4594 12.4844 15.539 12.3516L13.8656 11.1562H12.0859Z" fill="#ED4C5C"/>
<path d="M11.1562 0.982788V4.64841L13.8922 2.62966C13.1219 1.91248 12.1922 1.35466 11.1562 0.982788ZM5.84373 0.982788C4.80779 1.35466 3.8781 1.91248 3.10779 2.62966L5.84373 4.67498V0.982788ZM16.0172 5.84373C15.9375 5.5781 15.8312 5.33904 15.6984 5.07341L14.6625 5.84373H16.0172ZM2.33748 5.84373L1.30154 5.07341C1.19529 5.33904 1.08904 5.5781 0.982788 5.84373H2.33748Z" fill="#2A5F9E"/>
<path d="M10.7579 6.9063H16.2829C16.2032 6.53442 16.0969 6.18911 15.9907 5.8438H14.636L15.6719 5.07349C15.4594 4.62192 15.2204 4.22349 14.9282 3.82505L12.2188 5.8438H11.1563V5.31255L14.2641 3.02817L13.8922 2.6563L11.1563 4.64849V0.982861C10.811 0.850049 10.4657 0.770361 10.0938 0.690674V6.9063H10.7579ZM0.690674 6.9063H6.9063V0.690674C6.53442 0.770361 6.18911 0.876611 5.8438 0.982861V4.64849L3.10786 2.6563C2.73599 3.00161 2.41724 3.37349 2.09849 3.77192L4.94067 5.8438H3.13442L1.51411 4.64849C1.43442 4.7813 1.35474 4.94067 1.30161 5.07349L2.33755 5.8438H0.982861C0.876611 6.18911 0.770361 6.53442 0.690674 6.9063Z" fill="white"/>
<path d="M14.9547 3.82502C14.7422 3.53284 14.5297 3.26721 14.2907 3.00159L11.1563 5.28596V5.81721H12.2188L14.9547 3.82502ZM4.91411 5.84377L2.09849 3.7719C1.99224 3.90471 1.91255 4.03752 1.8063 4.17034C1.77974 4.1969 1.77974 4.22346 1.75317 4.22346C1.67349 4.35627 1.56724 4.51565 1.48755 4.64846L3.10786 5.84377H4.91411Z" fill="#ED4C5C"/>
<path d="M16.3094 6.90625H10.0938V0.690625C9.58906 0.584375 9.05781 0.53125 8.5 0.53125C7.94219 0.53125 7.41094 0.584375 6.90625 0.690625V6.90625H0.690625C0.584375 7.41094 0.53125 7.94219 0.53125 8.5C0.53125 9.05781 0.584375 9.58906 0.690625 10.0938H6.90625V16.3094C7.41094 16.4156 7.94219 16.4688 8.5 16.4688C9.05781 16.4688 9.58906 16.4156 10.0938 16.3094V10.0938H16.3094C16.4156 9.58906 16.4688 9.05781 16.4688 8.5C16.4688 7.94219 16.4156 7.41094 16.3094 6.90625Z" fill="#ED4C5C"/>
<path d="M13.0333 1.30333C11.7017 0.481666 10.1717 0 8.5 0V1.30333H13.0333Z" fill="#ED4C5C"/>
<path d="M8.5 2.60668H14.62C14.1383 2.12501 13.6 1.67168 13.0333 1.30334H8.5V2.60668Z" fill="white"/>
<path d="M8.5 3.9099H15.6683C15.3567 3.42823 15.0167 3.00323 14.6483 2.60657H8.5V3.9099Z" fill="#ED4C5C"/>
<path d="M8.5 5.21337H16.3483C16.15 4.76003 15.9233 4.3067 15.6683 3.91003H8.5V5.21337Z" fill="white"/>
<path d="M8.5 6.51659H16.7733C16.66 6.06326 16.5183 5.63826 16.3483 5.21326H8.5V6.51659Z" fill="#ED4C5C"/>
<path d="M8.5 7.84838H16.9717C16.9433 7.39504 16.8583 6.97004 16.7733 6.54504H8.5V7.84838" fill="white"/>
<path d="M16.9717 7.84827H8.49999V8.49993H0C0 8.7266 -2.7443e-08 8.92493 0.0283333 9.1516H16.9717C17 8.92493 17 8.7266 17 8.49993C17 8.27327 17 8.0466 16.9717 7.84827" fill="#ED4C5C"/>
<path d="M0.226776 10.4551H16.7734C16.8868 10.0301 16.9434 9.60507 16.9718 9.15173H0.0284424C0.0567757 9.57673 0.113442 10.0301 0.226776 10.4551Z" fill="white"/>
<path d="M0.651562 11.7583H16.3482C16.5182 11.3333 16.6599 10.9083 16.7732 10.455H0.226562C0.339896 10.9083 0.481562 11.3333 0.651562 11.7583Z" fill="#ED4C5C"/>
<path d="M1.33161 13.0616H15.6683C15.9233 12.6366 16.1499 12.2116 16.3483 11.7583H0.651611C0.849944 12.2116 1.07661 12.6366 1.33161 13.0616" fill="white"/>
<path d="M2.35166 14.365H14.6483C15.0167 13.9683 15.385 13.515 15.6683 13.0616H1.33167C1.615 13.5433 1.98333 13.9683 2.35166 14.365Z" fill="#ED4C5C"/>
<path d="M3.93823 15.6683H13.0616C13.6566 15.3 14.1666 14.8467 14.6482 14.365H2.35156C2.83323 14.875 3.37156 15.3 3.93823 15.6683Z" fill="white"/>
<path d="M8.50002 17C10.1717 17 11.73 16.5183 13.0617 15.6683H3.93835C5.27002 16.5183 6.82835 17 8.50002 17Z" fill="#ED4C5C"/>
<path d="M3.96666 1.30333C3.37166 1.67167 2.83333 2.125 2.35166 2.60666C1.955 3.00333 1.615 3.45666 1.33167 3.91C1.07667 4.335 0.821666 4.76 0.651666 5.21333C0.481666 5.63833 0.34 6.06333 0.226666 6.51666C0.113333 6.94166 0.0566666 7.36666 0.0283333 7.81999C-2.7443e-08 8.04666 0 8.27333 0 8.49999H8.49999V0C6.82833 0 5.29833 0.481666 3.96666 1.30333Z" fill="#428BC1"/>
<path d="M6.5166 0.283325L6.65827 0.708325H7.08327L6.74327 0.991658L6.8566 1.41666L6.5166 1.16166L6.1766 1.41666L6.28994 0.991658L5.94994 0.708325H6.37493L6.5166 0.283325ZM7.64993 1.98332L7.7916 2.40832H8.2166L7.8766 2.69166L7.98993 3.11666L7.64993 2.86166L7.30993 3.11666L7.42327 2.69166L7.08327 2.40832H7.50827L7.64993 1.98332ZM5.38327 1.98332L5.52494 2.40832H5.94994L5.60994 2.69166L5.72327 3.11666L5.38327 2.86166L5.04327 3.11666L5.1566 2.69166L4.8166 2.40832H5.2416L5.38327 1.98332ZM6.5166 3.68332L6.65827 4.10832H7.08327L6.74327 4.39166L6.8566 4.81666L6.5166 4.56166L6.1766 4.81666L6.28994 4.39166L5.94994 4.10832H6.37493L6.5166 3.68332ZM4.24994 3.68332L4.3916 4.10832H4.8166L4.4766 4.39166L4.58994 4.81666L4.24994 4.56166L3.90994 4.81666L4.02327 4.39166L3.68327 4.10832H4.10827L4.24994 3.68332ZM1.98327 3.68332L2.12494 4.10832H2.54994L2.20994 4.39166L2.32327 4.81666L1.98327 4.56166L1.64327 4.81666L1.75661 4.39166L1.41661 4.10832H1.84161L1.98327 3.68332ZM7.64993 5.38332L7.7916 5.80832H8.2166L7.8766 6.09165L7.98993 6.51665L7.64993 6.26165L7.30993 6.51665L7.42327 6.09165L7.08327 5.80832H7.50827L7.64993 5.38332ZM5.38327 5.38332L5.52494 5.80832H5.94994L5.60994 6.09165L5.72327 6.51665L5.38327 6.26165L5.04327 6.51665L5.1566 6.09165L4.8166 5.80832H5.2416L5.38327 5.38332ZM3.1166 5.38332L3.25827 5.80832H3.68327L3.34327 6.09165L3.4566 6.51665L3.1166 6.26165L2.7766 6.51665L2.88994 6.09165L2.54994 5.80832H2.97494L3.1166 5.38332ZM6.5166 7.08332L6.65827 7.50832H7.08327L6.74327 7.79165L6.8566 8.21665L6.5166 7.96165L6.1766 8.21665L6.28994 7.79165L5.94994 7.50832H6.37493L6.5166 7.08332ZM4.24994 7.08332L4.3916 7.50832H4.8166L4.4766 7.79165L4.58994 8.21665L4.24994 7.96165L3.90994 8.21665L4.02327 7.79165L3.68327 7.50832H4.10827L4.24994 7.08332ZM1.98327 7.08332L2.12494 7.50832H2.54994L2.20994 7.79165L2.32327 8.21665L1.98327 7.96165L1.64327 8.21665L1.75661 7.79165L1.41661 7.50832H1.84161L1.98327 7.08332ZM2.7766 3.11666L3.1166 2.86166L3.4566 3.11666L3.31494 2.69166L3.65494 2.40832H3.22994L3.1166 1.98332L2.97494 2.40832H2.57827L2.91827 2.66332L2.7766 3.11666V3.11666ZM0.50994 6.51665L0.849939 6.26165L1.18994 6.51665L1.04827 6.09165L1.38827 5.80832H0.991606L0.849939 5.38332L0.708273 5.80832H0.42494C0.42494 5.83665 0.396606 5.86499 0.396606 5.89332L0.623273 6.06332L0.50994 6.51665" fill="white"/>
</svg>
