<svg width="24" height="23" viewBox="0 0 24 23" fill="none" xmlns="http://www.w3.org/2000/svg">
<path d="M16.2244 11.5158C18.5592 11.5158 20.4519 9.52605 20.4519 7.07156C20.4519 4.61708 18.5592 2.62732 16.2244 2.62732C13.8896 2.62732 11.9968 4.61708 11.9968 7.07156C11.9968 9.52605 13.8896 11.5158 16.2244 11.5158Z" fill="white"/>
<path d="M16.2244 11.5161C18.5592 11.5161 20.4519 9.52638 20.4519 7.07189C20.4519 5.1732 19.3193 3.5526 17.7256 2.91602" stroke="#9F9F9F" stroke-width="1.5" stroke-linecap="round" stroke-linejoin="round"/>
<path d="M21.9987 17.7591C24.0667 19.207 22.6703 21.9995 20.1857 21.9995H10.8553C8.37076 21.9995 6.9744 19.207 9.04231 17.7591C10.8972 16.4604 13.1248 15.7035 15.5205 15.7035C17.9163 15.7035 20.1439 16.4604 21.9987 17.7591Z" fill="white"/>
<path d="M9.11071 10.635C11.6416 10.635 13.6933 8.47816 13.6933 5.81752C13.6933 3.15688 11.6416 1 9.11071 1C6.57979 1 4.52808 3.15688 4.52808 5.81752C4.52808 8.47816 6.57979 10.635 9.11071 10.635Z" fill="white" stroke="#9F9F9F" stroke-width="1.5" stroke-linecap="round" stroke-linejoin="round"/>
<path d="M16.13 17.4034C18.3716 18.9729 16.858 22 14.1647 22H4.05071C1.35744 22 -0.156199 18.9729 2.0854 17.4034C4.09605 15.9956 6.51074 15.1752 9.10772 15.1752C11.7047 15.1752 14.1194 15.9956 16.13 17.4034Z" fill="white" stroke="#9F9F9F" stroke-width="1.5"/>
<path d="M13.7751 21.2498C13.3609 21.2498 13.0251 21.5856 13.0251 21.9998C13.0251 22.4141 13.3609 22.7498 13.7751 22.7498V21.2498ZM21.9987 17.7594L22.4289 17.145V17.145L21.9987 17.7594ZM20.4977 16.0383C20.121 15.866 19.676 16.0316 19.5036 16.4083C19.3313 16.785 19.497 17.23 19.8736 17.4023L20.4977 16.0383ZM13.7751 22.7498H20.1856V21.2498H13.7751V22.7498ZM20.1856 22.7498C21.7149 22.7498 22.9558 21.8864 23.4817 20.734C23.7459 20.1549 23.832 19.4937 23.663 18.844C23.4926 18.1888 23.0765 17.5985 22.4289 17.145L21.5685 18.3738C21.9549 18.6443 22.1397 18.946 22.2114 19.2216C22.2845 19.5028 22.254 19.8112 22.117 20.1112C21.8406 20.717 21.141 21.2498 20.1856 21.2498V22.7498ZM19.8736 17.4023C20.4673 17.6739 21.0341 17.9996 21.5685 18.3738L22.4289 17.145C21.8212 16.7196 21.1754 16.3484 20.4977 16.0383L19.8736 17.4023Z" fill="#9F9F9F"/>
</svg>
