<svg width="30" height="30" viewBox="0 0 30 30" fill="none" xmlns="http://www.w3.org/2000/svg">
<path d="M15 2.5C11.725 2.5 9.0625 5.1625 9.0625 8.4375C9.0625 11.65 11.575 14.25 14.85 14.3625C14.95 14.35 15.05 14.35 15.125 14.3625C15.15 14.3625 15.1625 14.3625 15.1875 14.3625C15.2 14.3625 15.2 14.3625 15.2125 14.3625C18.4125 14.25 20.925 11.65 20.9375 8.4375C20.9375 5.1625 18.275 2.5 15 2.5Z" fill="#50429B"/>
<path d="M21.35 17.6876C17.8625 15.3626 12.175 15.3626 8.66245 17.6876C7.07495 18.7501 6.19995 20.1876 6.19995 21.7251C6.19995 23.2626 7.07495 24.6876 8.64995 25.7376C10.4 26.9126 12.7 27.5001 15 27.5001C17.3 27.5001 19.6 26.9126 21.35 25.7376C22.925 24.6751 23.8 23.2501 23.8 21.7001C23.7875 20.1626 22.925 18.7376 21.35 17.6876Z" fill="#50429B"/>
</svg>
