<svg width="20" height="20" viewBox="0 0 20 20" fill="none" xmlns="http://www.w3.org/2000/svg">
<path d="M19 10C19 14.9706 14.9706 19 10 19C5.02944 19 1 14.9706 1 10C1 5.02944 5.02944 1 10 1C14.9706 1 19 5.02944 19 10Z" stroke="#9F9F9F" stroke-width="2" stroke-linecap="round" stroke-linejoin="round"/>
<path d="M4.65811 12.3505C4.34074 12.6679 3.91029 12.8462 3.46147 12.8462H1.45902C1.16142 11.9526 1 10.996 1 10C1 5.02944 5.02944 1 10 1C10.1809 1 10.3604 1.00532 10.5384 1.01581V3.46153C10.5384 3.91036 10.3601 4.34081 10.0427 4.65818C9.72535 4.97555 9.29491 5.15384 8.84608 5.15384C7.86682 5.15384 6.92767 5.54285 6.23523 6.23529C5.54278 6.92773 5.15377 7.86689 5.15377 8.84615V11.1538C5.15377 11.6027 4.97548 12.0331 4.65811 12.3505Z" stroke="#9F9F9F" stroke-width="2" stroke-linecap="round" stroke-linejoin="round"/>
<path d="M14.231 10.2308H17.5051C18.0118 10.2339 18.5128 10.323 18.9872 10.4929C18.8823 12.4372 18.1607 14.2174 17.0132 15.6418C16.8722 15.2046 16.6288 14.8025 16.2979 14.4716C15.7498 13.9234 15.0063 13.6155 14.231 13.6155C13.7822 13.6155 13.3517 13.4372 13.0344 13.1198C12.717 12.8024 12.5387 12.372 12.5387 11.9231C12.5387 11.4743 12.717 11.0439 13.0344 10.7265C13.3517 10.4091 13.7822 10.2308 14.231 10.2308Z" stroke="#9F9F9F" stroke-width="2" stroke-linecap="round" stroke-linejoin="round"/>
</svg>
