<svg width="61" height="60" viewBox="0 0 61 60" fill="none" xmlns="http://www.w3.org/2000/svg">
<rect x="0.5" width="60" height="60" rx="16" fill="#50429B"/>
<g clip-path="url(#clip0_2316_184198)">
<path d="M28.3429 26.15L35.1429 30.0143L28.3429 33.8786V26.15ZM47 17.4286V42.5714C47 44.4643 45.4643 46 43.5714 46H18.4286C16.5357 46 15 44.4643 15 42.5714V17.4286C15 15.5357 16.5357 14 18.4286 14H43.5714C45.4643 14 47 15.5357 47 17.4286ZM44 30.0214C44 30.0214 44 25.7643 43.4571 23.7214C43.1571 22.5929 42.2786 21.7071 41.1571 21.4071C39.1357 20.8571 31 20.8571 31 20.8571C31 20.8571 22.8643 20.8571 20.8429 21.4071C19.7214 21.7071 18.8429 22.5929 18.5429 23.7214C18 25.7571 18 30.0214 18 30.0214C18 30.0214 18 34.2786 18.5429 36.3214C18.8429 37.45 19.7214 38.3 20.8429 38.6C22.8643 39.1429 31 39.1429 31 39.1429C31 39.1429 39.1357 39.1429 41.1571 38.5929C42.2786 38.2929 43.1571 37.4429 43.4571 36.3143C44 34.2786 44 30.0214 44 30.0214Z" fill="white"/>
</g>
<defs>
<clipPath id="clip0_2316_184198">
<rect width="32" height="32" fill="white" transform="translate(15 14)"/>
</clipPath>
</defs>
</svg>
