<svg width="28" height="28" viewBox="0 0 28 28" fill="none" xmlns="http://www.w3.org/2000/svg">
<path d="M6.30769 8.61539C7.5822 8.61539 8.61539 7.5822 8.61539 6.30769C8.61539 5.03319 7.5822 4 6.30769 4C5.03319 4 4 5.03319 4 6.30769C4 7.5822 5.03319 8.61539 6.30769 8.61539Z" stroke="#9F9F9F" stroke-width="1.5" stroke-linecap="round" stroke-linejoin="round"/>
<path d="M6.30769 16.3077C7.5822 16.3077 8.61539 15.2746 8.61539 14.0001C8.61539 12.7255 7.5822 11.6924 6.30769 11.6924C5.03319 11.6924 4 12.7255 4 14.0001C4 15.2746 5.03319 16.3077 6.30769 16.3077Z" stroke="#9F9F9F" stroke-width="1.5" stroke-linecap="round" stroke-linejoin="round"/>
<path d="M14 8.61539C15.2745 8.61539 16.3076 7.5822 16.3076 6.30769C16.3076 5.03319 15.2745 4 14 4C12.7254 4 11.6923 5.03319 11.6923 6.30769C11.6923 7.5822 12.7254 8.61539 14 8.61539Z" stroke="#9F9F9F" stroke-width="1.5" stroke-linecap="round" stroke-linejoin="round"/>
<path d="M14 16.3077C15.2745 16.3077 16.3076 15.2746 16.3076 14.0001C16.3076 12.7255 15.2745 11.6924 14 11.6924C12.7254 11.6924 11.6923 12.7255 11.6923 14.0001C11.6923 15.2746 12.7254 16.3077 14 16.3077Z" stroke="#9F9F9F" stroke-width="1.5" stroke-linecap="round" stroke-linejoin="round"/>
<path d="M14 24C15.2745 24 16.3076 22.9668 16.3076 21.6923C16.3076 20.4178 15.2745 19.3846 14 19.3846C12.7254 19.3846 11.6923 20.4178 11.6923 21.6923C11.6923 22.9668 12.7254 24 14 24Z" stroke="#9F9F9F" stroke-width="1.5" stroke-linecap="round" stroke-linejoin="round"/>
<path d="M21.6923 8.61539C22.9668 8.61539 24 7.5822 24 6.30769C24 5.03319 22.9668 4 21.6923 4C20.4178 4 19.3846 5.03319 19.3846 6.30769C19.3846 7.5822 20.4178 8.61539 21.6923 8.61539Z" stroke="#9F9F9F" stroke-width="1.5" stroke-linecap="round" stroke-linejoin="round"/>
<path d="M21.6923 16.3077C22.9668 16.3077 24 15.2746 24 14.0001C24 12.7255 22.9668 11.6924 21.6923 11.6924C20.4178 11.6924 19.3846 12.7255 19.3846 14.0001C19.3846 15.2746 20.4178 16.3077 21.6923 16.3077Z" stroke="#9F9F9F" stroke-width="1.5" stroke-linecap="round" stroke-linejoin="round"/>
</svg>
